<svg width="1034" height="775" viewBox="0 0 1034 775" fill="none" xmlns="http://www.w3.org/2000/svg">
<mask id="mask0_150_359" style="mask-type:luminance" maskUnits="userSpaceOnUse" x="95" y="7" width="841" height="435">
<path d="M515.314 441.41C747.224 441.41 935.224 344.164 935.224 224.205C935.224 104.246 747.224 7 515.314 7C283.404 7 95.4037 104.246 95.4037 224.205C95.4037 344.164 283.404 441.41 515.314 441.41Z" fill="white"/>
</mask>
<g mask="url(#mask0_150_359)">
<path d="M-159.885 346.562C-159.885 346.562 9.54062 378.031 125.993 306.228L525.905 301.084L922.84 332.181C922.84 332.181 990.143 338.796 1061.98 388.42C1061.98 388.42 924.565 337.274 698.732 347.78C472.898 358.287 232.126 433.238 -159.885 346.562Z" fill="#728639"/>
</g>
<mask id="mask1_150_359" style="mask-type:luminance" maskUnits="userSpaceOnUse" x="95" y="7" width="841" height="435">
<path d="M515.314 441.41C747.224 441.41 935.224 344.164 935.224 224.205C935.224 104.246 747.224 7 515.314 7C283.404 7 95.4037 104.246 95.4037 224.205C95.4037 344.164 283.404 441.41 515.314 441.41Z" fill="white"/>
</mask>
<g mask="url(#mask1_150_359)">
<path d="M482.745 197.862C480.545 192.617 478.346 187.356 476.146 182.094C484.775 178.964 493.404 175.851 502.032 172.721C503.47 176.68 504.909 180.656 506.347 184.632C498.496 189.031 490.612 193.463 482.745 197.862Z" fill="#C6C6C6"/>
</g>
<mask id="mask2_150_359" style="mask-type:luminance" maskUnits="userSpaceOnUse" x="95" y="7" width="841" height="435">
<path d="M515.314 441.41C747.224 441.41 935.224 344.164 935.224 224.205C935.224 104.246 747.224 7 515.314 7C283.404 7 95.4037 104.246 95.4037 224.205C95.4037 344.164 283.404 441.41 515.314 441.41Z" fill="white"/>
</mask>
<g mask="url(#mask2_150_359)">
<path d="M566.308 290.662C572.398 290.662 579.826 291.83 586.932 294.3C582.905 295.518 578.777 296.719 574.581 297.92C571.891 298.682 569.184 299.426 566.426 300.154C565.259 300.475 564.074 300.797 562.89 301.101C558.339 302.302 553.686 303.487 548.949 304.654H548.881C540.895 306.617 532.622 308.495 524.061 310.288H524.044C481.273 319.221 431.582 326.006 374.43 328.679C374.413 328.679 374.397 328.679 374.397 328.679C356.666 329.508 338.207 329.948 319.021 329.931H318.97C265.134 329.897 205.512 326.293 139.765 317.919C139.765 317.919 141.17 313.52 144.57 306.245C144.722 305.923 144.875 305.602 145.027 305.263C156.904 280.223 191.08 224.019 268.975 192.194L280.108 229.01C280.108 229.01 283.119 218.503 294.81 209.57C299.683 205.831 306.044 202.379 314.334 200.062C330.492 195.544 353.925 195.392 387.678 206.085C389.996 208.42 392.297 210.771 394.598 213.089C394.225 213.563 393.853 214.003 393.498 214.476C372.383 240.988 351.218 267.636 326.838 298.276C336.6 298.056 345.99 297.853 354.991 297.701C354.449 296.262 353.891 294.807 353.333 293.352C385.614 259.328 417.895 225.321 446.386 195.29C448.078 197.473 453.205 203.834 458.061 210.45C459.972 213.038 462.341 216.067 462.679 219.146C462.73 219.603 462.764 220.077 462.798 220.517C462.849 220.99 462.865 221.447 462.899 221.904C462.967 222.919 462.984 223.934 462.984 224.932C462.984 225.338 462.967 225.761 462.95 226.184C462.95 226.472 462.95 226.743 462.916 227.03C462.916 227.284 462.916 227.538 462.882 227.792C462.865 228.181 462.849 228.57 462.815 228.959C462.764 229.314 462.747 229.67 462.713 230.008C462.679 230.38 462.646 230.736 462.612 231.108C462.273 233.984 461.715 236.826 460.937 239.584C460.801 240.075 460.666 240.582 460.497 241.09C460.361 241.547 460.209 242.02 460.057 242.477C459.939 242.883 459.786 243.289 459.651 243.679C459.465 244.186 459.279 244.694 459.093 245.201C458.873 245.793 458.619 246.386 458.365 246.961C457.976 247.942 457.536 248.889 457.062 249.837C456.825 250.328 456.572 250.818 456.318 251.326C456.064 251.8 455.793 252.29 455.523 252.781C454.998 253.745 454.423 254.71 453.848 255.623C453.509 256.165 453.171 256.689 452.816 257.214C452.359 257.907 451.868 258.584 451.394 259.244C451.141 259.599 450.887 259.921 450.616 260.259C450.379 260.597 450.109 260.919 449.838 261.257C449.415 261.782 448.992 262.306 448.535 262.814C448.248 263.169 447.926 263.524 447.605 263.863C446.979 264.556 446.37 265.233 445.693 265.893C445.118 266.468 444.525 267.06 443.916 267.619C443.443 268.059 442.969 268.499 442.461 268.905C442.123 269.192 441.818 269.446 441.497 269.717C438.367 272.288 435.017 274.505 431.464 276.214C431.21 276.332 430.956 276.45 430.72 276.569C430.212 276.789 429.721 277.009 429.214 277.229C428.858 277.381 428.503 277.533 428.131 277.652C427.996 277.719 427.843 277.787 427.691 277.821C427.319 277.973 426.964 278.108 426.591 278.227C426.219 278.362 425.847 278.481 425.492 278.599C425.17 278.701 424.866 278.802 424.561 278.887C424.341 278.937 424.104 279.005 423.901 279.073C423.681 279.14 423.444 279.191 423.225 279.259C422.937 279.327 422.649 279.394 422.379 279.462C421.194 279.733 419.993 279.97 418.809 280.139C418.656 280.156 418.504 280.173 418.369 280.189C418.064 280.24 417.743 280.274 417.438 280.308C417.049 280.359 416.643 280.393 416.237 280.426L416.271 280.392C416.355 280.189 416.474 280.003 416.575 279.8C406.746 282.169 396.916 284.588 387.069 286.957V284.385C376.884 288.767 366.698 293.132 356.53 297.514C410.958 296.584 451.919 296.838 481.781 297.531C480.918 295.044 483.591 292.236 491.56 289.106C492.084 288.903 492.592 288.7 493.083 288.48C487.669 289.799 477.23 283.607 453.002 269.226C471.156 246.91 488.887 225.135 506.618 203.361C507.582 204.562 508.58 205.746 509.562 206.964C497.685 225.609 485.774 244.254 471.054 267.314C485.994 270.123 493.235 271.476 500.493 272.813C498.734 280.596 497.634 285.604 494.927 287.634C503.691 283.404 508.953 277.449 512.015 271.307C512.066 271.222 512.099 271.121 512.133 271.036C512.945 269.074 513.791 267.01 514.4 265.149C514.434 265.064 514.451 264.962 514.468 264.878C516.092 258.99 516.092 253.39 515.602 249.414C515.162 245.59 515.602 241.953 515.602 238.078C515.602 222.496 515.602 222.496 515.602 209.739C515.602 197.439 528.545 176.392 535.854 182.821C535.854 182.821 537.461 184.276 537.139 195.578C536.903 203.598 536.767 210.501 536.666 216.541V244.169C536.835 254.422 537.139 262.374 537.139 273.506C537.139 276.687 537.596 279.259 538.51 281.357L553.602 240.904L570.943 285.536H575.122V290.493H566.308V290.662Z" fill="#C6C6C6"/>
</g>
<mask id="mask3_150_359" style="mask-type:luminance" maskUnits="userSpaceOnUse" x="95" y="7" width="841" height="435">
<path d="M515.314 441.41C747.224 441.41 935.224 344.164 935.224 224.205C935.224 104.246 747.224 7 515.314 7C283.404 7 95.4037 104.246 95.4037 224.205C95.4037 344.164 283.404 441.41 515.314 441.41Z" fill="white"/>
</mask>
<g mask="url(#mask3_150_359)">
<path d="M543.958 224.527C542.943 221.955 541.928 219.384 540.912 216.829C558.356 208.403 575.816 199.961 593.293 191.552C581.349 213.665 567.103 230.026 543.958 224.527Z" fill="#C6C6C6"/>
</g>
<mask id="mask4_150_359" style="mask-type:luminance" maskUnits="userSpaceOnUse" x="95" y="7" width="841" height="435">
<path d="M515.314 441.41C747.224 441.41 935.224 344.164 935.224 224.205C935.224 104.246 747.224 7 515.314 7C283.404 7 95.4037 104.246 95.4037 224.205C95.4037 344.164 283.404 441.41 515.314 441.41Z" fill="white"/>
</mask>
<g mask="url(#mask4_150_359)">
<path d="M594.849 218.165C596.457 218.791 598.047 219.4 599.654 220.026C592.345 239.127 585.019 258.212 578.37 275.553C574.716 264.641 570.418 251.867 565.546 237.401C575.071 231.141 584.969 224.661 594.849 218.165Z" fill="#C6C6C6"/>
</g>
<mask id="mask5_150_359" style="mask-type:luminance" maskUnits="userSpaceOnUse" x="95" y="7" width="841" height="435">
<path d="M515.314 441.41C747.224 441.41 935.224 344.164 935.224 224.205C935.224 104.246 747.224 7 515.314 7C283.404 7 95.4037 104.246 95.4037 224.205C95.4037 344.164 283.404 441.41 515.314 441.41Z" fill="white"/>
</mask>
<g mask="url(#mask5_150_359)">
<path d="M605.018 201.719C625.642 184.055 644.963 167.458 667.043 148.526C661.493 162.754 657.568 172.906 653.626 183.04L659.311 187.27C664.911 179.014 670.494 170.74 677.211 160.86C679.664 185.646 664.386 217.132 647.112 223.849C625.304 232.325 614.577 215.524 605.018 201.719Z" fill="#C6C6C6"/>
</g>
<mask id="mask6_150_359" style="mask-type:luminance" maskUnits="userSpaceOnUse" x="95" y="7" width="841" height="435">
<path d="M515.314 441.41C747.224 441.41 935.224 344.164 935.224 224.205C935.224 104.246 747.224 7 515.314 7C283.404 7 95.4037 104.246 95.4037 224.205C95.4037 344.164 283.404 441.41 515.314 441.41Z" fill="white"/>
</mask>
<g mask="url(#mask6_150_359)">
<path d="M719.542 234.695C719.373 234.813 719.204 234.914 719.034 235.033C706.43 243.391 688.31 254.067 664.166 265.25C659.141 267.551 653.863 269.92 648.313 272.254C645.809 273.303 643.255 274.352 640.649 275.435C639.939 275.723 639.211 276.01 638.483 276.298C635.201 277.618 631.817 278.937 628.349 280.257C627.96 280.409 627.554 280.562 627.165 280.714C626.759 280.866 626.353 281.018 625.93 281.171C624.153 281.831 622.36 282.49 620.516 283.15L620.549 281.171L621.226 235.033V234.678L719.542 234.695Z" fill="#C6C6C6"/>
</g>
<mask id="mask7_150_359" style="mask-type:luminance" maskUnits="userSpaceOnUse" x="95" y="7" width="841" height="435">
<path d="M515.314 441.41C747.224 441.41 935.224 344.164 935.224 224.205C935.224 104.246 747.224 7 515.314 7C283.404 7 95.4037 104.246 95.4037 224.205C95.4037 344.164 283.404 441.41 515.314 441.41Z" fill="white"/>
</mask>
<g mask="url(#mask7_150_359)">
<path d="M801.717 235.033C801.345 234.915 800.972 234.813 800.583 234.728C796.793 233.798 792.496 233.578 787.556 234.322C784.273 234.83 778.69 230.262 776.795 226.438C751.704 175.631 709.56 149.322 663.506 130.863C643.491 122.861 619.822 129.882 624.085 132.098C608.892 144.331 595.425 157.849 579.808 166.596C572.702 170.589 560.098 167.865 552.197 163.381C552.197 163.381 557.475 212.277 632.781 133.858C632.781 133.858 730.64 159.812 741.519 218.165C741.519 218.165 734.481 224.729 719.542 234.695L621.226 234.678V235.033L620.549 281.171L620.515 283.15C610.076 286.957 598.876 290.696 586.948 294.3H586.931C579.842 291.847 572.415 290.662 566.307 290.662H575.156V285.705H570.977L553.635 241.073L538.543 281.526C537.63 279.428 537.173 276.84 537.173 273.676C537.173 262.543 536.868 254.591 536.699 244.338V280.189C537.207 280.917 537.731 281.577 538.273 282.203C538.729 282.727 539.203 283.201 539.694 283.658C539.694 283.675 539.711 283.675 539.711 283.692C540.506 284.436 541.386 285.113 542.265 285.705C542.621 285.959 542.976 286.196 543.365 286.416C545.717 287.854 548.305 288.886 551.012 289.749C552.044 290.07 553.094 290.375 554.142 290.662C561.045 292.523 568.388 293.843 574.547 297.904C575.511 298.547 576.458 299.257 577.355 300.052C577.71 300.357 578.049 300.678 578.404 301.034C578.996 301.592 579.555 302.218 580.113 302.878C582.803 306.109 585.019 310.373 586.542 316.159L593.276 315.787L610.838 314.839L620.042 314.332L621.074 314.281L628.315 313.875L638.449 313.317L645.217 312.961L656.18 312.352L676.398 311.253L682.929 310.897L741.435 307.683L749.234 307.243L767.964 306.228C766.17 300.864 764.478 295.806 762.786 290.713C761.72 287.549 760.671 284.385 759.589 281.137C759.436 280.68 759.284 280.223 759.132 279.767C758.776 278.718 758.421 277.669 758.066 276.586H802.867C802.935 277.652 803.036 278.718 803.104 279.767C803.138 280.223 803.172 280.68 803.206 281.137C803.476 284.758 803.73 288.192 804.001 291.576C804.373 296.466 804.728 301.237 805.101 306.211C805.134 306.685 805.168 307.141 805.202 307.598C806.065 307.547 806.911 307.497 807.757 307.446C810.159 307.311 812.376 307.175 814.254 307.074C817.367 306.888 819.6 306.769 820.463 306.718C820.514 306.549 820.547 306.38 820.581 306.211C821.664 301.44 822.679 296.956 823.711 292.456C824.557 288.767 825.386 285.062 826.283 281.137C826.384 280.68 826.503 280.223 826.604 279.767C827.772 274.606 829.041 269.057 830.462 262.746C823.948 255.488 817.113 239.449 801.717 235.033ZM694.958 302.607C691.135 303.758 687.057 304.485 682.929 304.773C680.188 304.976 677.414 304.993 674.673 304.806C670.02 304.519 665.435 303.673 661.171 302.319C659.513 301.795 658.6 298.428 657.889 293.928C657.28 290.138 656.823 285.536 656.197 281.171V281.154C655.96 279.377 655.69 277.635 655.351 276.011H701.151C700.897 277.229 700.66 278.498 700.457 279.8C700.389 280.257 700.305 280.714 700.237 281.171C699.679 284.775 699.222 288.497 698.714 291.813C697.869 297.514 696.887 302.015 694.958 302.607ZM752.398 281.154C751.975 284.318 751.671 287.634 751.281 290.713C750.808 294.587 750.249 298.039 749.268 300.289C748.727 301.541 748.067 302.404 747.221 302.776C745.394 303.555 743.465 304.197 741.468 304.688C733.077 306.752 723.433 306.228 715.549 303.419C712.875 302.472 711.319 297.667 709.644 291.407C708.815 288.26 707.969 284.758 706.92 281.154C706.802 280.697 706.666 280.24 706.531 279.783C706.142 278.481 705.736 277.178 705.279 275.858H753.244C753.007 277.093 752.787 278.413 752.601 279.783C752.5 280.24 752.449 280.697 752.398 281.154ZM499.241 162.434C485.012 170.623 461.985 158.035 445.929 164.38C429.518 170.876 419.485 190.655 396.408 188.269C371.892 185.748 346.497 191.839 321.711 195.832C319.139 196.255 316.703 197.93 314.351 200.062C311.441 202.667 308.615 205.983 305.688 208.504C305.672 208.521 305.671 208.538 305.655 208.538C302.152 208.842 298.616 209.181 294.826 209.553C292.153 209.807 289.362 210.094 286.333 210.382C285.589 203.378 284.912 196.982 284.1 189.504C283.575 184.378 282.966 178.744 282.256 172.061C279.701 173.854 277.112 175.648 274.558 177.441C234.003 205.712 195.208 232.766 156.734 259.582C156.684 259.616 156.616 259.667 156.565 259.701C149.29 264.776 120.037 292.371 126.01 306.245H147.26C147.615 305.872 147.937 305.5 148.275 305.111C169.914 280.697 175.21 244.66 209.623 236.674C208.692 239.043 207.762 241.411 206.831 243.746C199.218 263.017 192.146 280.968 185.091 298.817C186.766 299.392 188.373 299.934 189.896 300.408C192.975 301.372 195.766 302.15 198.321 302.725C198.338 302.725 198.338 302.725 198.338 302.725C205.816 304.367 211.382 304.231 216.306 301.964C223.412 298.648 229.198 290.832 237.455 277.347C248.739 258.956 263.763 243.442 280.107 229.01C279.752 231.531 279.092 233.882 278.161 236.082C269.685 256.283 240.348 264.624 245.88 291.728C246.371 294.165 247.149 296.787 248.266 299.579C256.844 294.368 264.88 289.512 272.9 284.673C272.933 284.639 272.967 284.639 272.984 284.605C273.052 284.318 273.086 284.047 273.136 283.759C273.441 283.793 273.729 283.844 274.016 283.878C274.033 283.844 274.05 283.844 274.067 283.827C293.405 266.265 312.761 248.703 332.133 231.159C333.402 233.053 334.687 234.965 335.973 236.877C334.687 237.689 333.435 238.586 332.234 239.567C331.862 239.872 331.473 240.193 331.101 240.515C330.728 240.819 330.356 241.158 329.984 241.496C329.443 241.987 328.884 242.511 328.36 243.052C327.649 243.729 326.956 244.457 326.262 245.184V245.201C325.991 245.489 325.737 245.776 325.467 246.081C325.196 246.386 324.942 246.673 324.671 246.978C324.418 247.282 324.147 247.587 323.876 247.891C323.216 248.67 322.557 249.465 321.914 250.26C321.034 251.36 320.154 252.476 319.291 253.61C318.953 254.067 318.614 254.507 318.276 254.963C313.403 261.41 308.717 268.076 303.167 273.405C302.88 273.693 302.609 273.946 302.322 274.2C301.746 274.742 301.154 275.249 300.562 275.757C300.545 275.757 300.528 275.774 300.511 275.791C300.224 276.027 299.953 276.264 299.665 276.484C299.056 276.958 298.43 277.432 297.821 277.872C291.477 282.389 283.914 284.961 274.033 283.827C273.898 283.929 273.746 284.064 273.627 284.199C273.407 284.318 273.221 284.436 273.001 284.555C272.527 287.042 272.087 289.579 271.614 292.337C271.225 294.638 270.802 297.108 270.345 299.866C270.328 299.883 270.328 299.9 270.328 299.917C270.328 300.002 270.294 300.086 270.294 300.154C271.039 300.424 271.783 300.661 272.51 300.898C282.053 303.961 290.191 304.197 298.244 298.986C301.323 297.024 304.403 294.232 307.533 290.527C323.792 271.29 343.874 256.182 361.521 238.315C371.097 228.621 379.015 216.862 387.677 206.034L455.404 164.6L466.046 169.658L552.197 163.331C534.043 153.095 519.509 150.777 499.241 162.434ZM211.095 275.334C217.626 238.857 240.754 217.59 268.974 192.177C263.357 237.571 239.18 258.229 211.095 275.334ZM307.363 237.605C302.169 229.873 298.261 224.036 294.59 218.537C295.436 217.776 296.265 217.014 297.094 216.287C297.212 216.168 297.314 216.067 297.466 215.965C298.16 215.322 298.853 214.696 299.547 214.087C301.154 212.615 302.745 211.194 304.318 209.756C304.623 209.485 304.91 209.215 305.215 208.927H305.232C305.249 208.91 305.249 208.91 305.249 208.91H305.265C305.282 208.893 305.282 208.876 305.299 208.859C305.316 208.842 305.333 208.826 305.367 208.809C305.333 208.859 305.299 208.893 305.282 208.91C317.092 206.592 328.884 204.241 340.694 201.923C341.827 204.19 342.978 206.457 344.128 208.741C332.251 218.029 320.408 227.335 307.363 237.605ZM529.001 291.999C523.046 290.696 516.819 287.498 511.964 283.201C511.101 282.44 510.289 281.645 509.527 280.815C508.529 279.733 510.255 275.791 512.065 271.459C509.003 277.601 503.741 283.556 494.977 287.786C494.96 287.786 494.943 287.803 494.926 287.82H494.909C494.402 288.209 493.81 288.48 493.15 288.615C493.133 288.615 493.133 288.632 493.116 288.632C492.608 288.852 492.118 289.055 491.593 289.258C483.624 292.405 480.951 295.197 481.814 297.684C451.952 296.99 410.992 296.736 356.564 297.667C356.107 297.87 355.65 298.056 355.193 298.259C355.125 298.073 355.058 297.887 354.973 297.701C345.972 297.853 336.582 298.056 326.82 298.276C326.076 299.206 325.314 300.137 324.57 301.084H566.273C566.307 300.763 566.341 300.458 566.375 300.137C566.527 298.919 566.662 297.684 566.815 296.432C556.883 295.366 546.833 294.926 536.97 293.454C534.33 293.048 531.657 292.574 529.001 291.999ZM514.992 263.186C516.549 256.012 518.731 248.568 519.273 241.327V241.293C519.425 239.144 519.442 237.012 519.239 234.915C518.985 232.191 518.748 229.5 518.68 226.912V226.844C518.291 214.866 520.897 204.376 536.716 195.527V216.693C536.818 210.653 536.936 203.75 537.19 195.73C537.511 184.429 535.904 182.974 535.904 182.974C528.595 176.544 515.652 197.591 515.652 209.891C515.652 222.648 515.652 222.648 515.652 238.231C515.652 242.105 515.212 245.743 515.652 249.566C516.143 253.542 516.143 259.142 514.518 265.03C514.705 264.387 514.874 263.761 514.992 263.186ZM416.981 279.868C416.879 279.885 416.744 279.919 416.609 279.953C416.507 280.156 416.389 280.342 416.304 280.545C416.304 280.545 416.304 280.545 416.372 280.46C416.44 280.409 416.507 280.325 416.592 280.257C416.744 280.105 416.981 279.885 416.981 279.868ZM537.004 293.454C539.897 297.971 544.245 300.052 549.371 301.051C549.524 301.067 549.591 301.084 549.591 301.084H566.29C566.324 300.763 566.358 300.458 566.392 300.137C566.544 298.919 566.679 297.684 566.832 296.432C556.917 295.383 546.867 294.943 537.004 293.454Z" fill="#161616"/>
<path d="M416.829 279.545C416.896 279.647 416.947 279.748 417.015 279.85L416.981 279.867C416.981 279.883 416.761 280.103 416.609 280.256L416.389 280.459C416.321 280.543 416.321 280.543 416.321 280.543C416.406 280.34 416.524 280.154 416.626 279.951C416.693 279.816 416.761 279.68 416.829 279.545Z" fill="#161616"/>
<path d="M439.94 235.523C432.259 250.192 424.544 264.861 416.828 279.546C414.121 274.538 408.369 267.669 409.621 265.148C415.813 252.662 423.934 241.377 431.379 229.686C434.221 231.615 437.097 233.578 439.94 235.523Z" fill="#161616"/>
</g>
<mask id="mask8_150_359" style="mask-type:luminance" maskUnits="userSpaceOnUse" x="95" y="7" width="841" height="435">
<path d="M515.314 441.41C747.224 441.41 935.224 344.164 935.224 224.205C935.224 104.246 747.224 7 515.314 7C283.404 7 95.4037 104.246 95.4037 224.205C95.4037 344.164 283.404 441.41 515.314 441.41Z" fill="white"/>
</mask>
<g mask="url(#mask8_150_359)">
<path d="M571.4 301.084C571.4 301.084 560.877 302.996 543.146 305.923C538.933 306.633 534.314 307.395 529.34 308.207C511.389 311.1 488.718 314.636 463.441 318.223C463.305 318.24 463.17 318.257 463.035 318.274C437.876 321.827 410.129 325.464 381.875 328.611C381.858 328.611 381.841 328.611 381.841 328.611C314.081 336.174 243.377 340.996 198.186 335.683C190.353 334.769 183.179 333.822 176.649 332.875H176.632C91.1574 320.439 113.101 306.227 113.101 306.227C120.055 305.889 126.924 305.567 133.691 305.246C134.876 305.195 136.043 305.145 137.194 305.094C155.974 304.214 174.009 303.436 191.351 302.725C191.368 302.725 191.368 302.725 191.368 302.725C197.949 302.454 204.429 302.201 210.808 301.964C231.33 301.169 250.787 300.492 269.263 299.934C279.651 299.595 289.718 299.307 299.463 299.054C310.156 298.766 320.476 298.512 330.407 298.292C340.965 298.072 351.116 297.869 360.861 297.717C361.437 297.7 362.012 297.7 362.57 297.683C421.448 296.753 465.759 297.007 498.074 297.7C502.388 297.802 506.499 297.903 510.408 298.005C516.025 298.157 521.202 298.326 525.956 298.495C555.632 299.561 569.218 300.881 571.18 301.067C571.316 301.067 571.4 301.084 571.4 301.084Z" fill="#161616"/>
</g>
<mask id="mask9_150_359" style="mask-type:luminance" maskUnits="userSpaceOnUse" x="95" y="7" width="841" height="435">
<path d="M515.314 441.41C747.224 441.41 935.224 344.164 935.224 224.205C935.224 104.246 747.224 7 515.314 7C283.404 7 95.4037 104.246 95.4037 224.205C95.4037 344.164 283.404 441.41 515.314 441.41Z" fill="white"/>
</mask>
<g mask="url(#mask9_150_359)">
<path d="M611.87 323.249C611.65 326.751 611.464 329.695 611.295 332.182C611.227 333.231 611.177 334.212 611.16 335.109C601.77 335.972 592.261 336.902 582.601 337.917C572.178 319.324 545.396 312.607 545.396 312.607C545.396 312.607 535.803 311.828 524.044 310.255H524.027C521.574 309.917 519.019 309.561 516.464 309.172C514.553 308.868 512.607 308.546 510.712 308.225C500.392 306.414 490.443 304.029 485.3 301.085C483.422 300.019 482.204 298.886 481.798 297.667C480.935 295.18 483.608 292.372 491.577 289.242C492.101 289.039 492.609 288.836 493.099 288.616C493.116 288.616 493.116 288.599 493.133 288.599C493.726 288.345 494.335 288.074 494.893 287.804H494.91V287.787C494.927 287.787 494.944 287.77 494.961 287.77C503.725 283.54 508.986 277.585 512.049 271.443C512.099 271.358 512.133 271.257 512.167 271.172C513.115 269.227 513.842 267.281 514.417 265.352C514.434 265.335 514.434 265.301 514.434 265.285C514.468 265.2 514.485 265.098 514.502 265.014C516.126 259.126 516.126 253.526 515.635 249.55C515.196 245.726 515.635 242.089 515.635 238.214C515.635 222.632 515.635 222.632 515.635 209.875C515.635 197.575 528.578 176.528 535.887 182.957C535.887 182.957 537.495 184.412 537.173 195.714C536.936 203.734 536.801 210.637 536.7 216.677C536.547 228.418 536.581 236.945 536.7 244.305C536.869 254.558 537.173 262.51 537.173 273.643C537.173 276.823 537.63 279.395 538.544 281.493C538.882 282.271 539.254 282.982 539.711 283.625C539.711 283.642 539.728 283.642 539.728 283.658C540.252 284.42 540.845 285.08 541.521 285.672C541.792 285.926 542.08 286.162 542.367 286.382C544.618 288.057 547.544 289.073 551.03 289.715C555.327 290.477 560.454 290.629 566.308 290.629C572.398 290.629 579.826 291.796 586.932 294.267H586.949C590.519 295.502 594.021 297.075 597.168 299.004C603.58 302.844 608.74 308.072 610.855 314.84C610.99 315.263 611.143 315.703 611.227 316.16C611.786 318.376 612.006 320.745 611.87 323.249Z" fill="#FCFCFC"/>
</g>
<mask id="mask10_150_359" style="mask-type:luminance" maskUnits="userSpaceOnUse" x="95" y="7" width="841" height="435">
<path d="M515.314 441.41C747.224 441.41 935.224 344.164 935.224 224.205C935.224 104.246 747.224 7 515.314 7C283.404 7 95.4037 104.246 95.4037 224.205C95.4037 344.164 283.404 441.41 515.314 441.41Z" fill="white"/>
</mask>
<g mask="url(#mask10_150_359)">
<path d="M915.733 281.239L889.712 281.831V316.177H872.81V279.784H814.288V316.177H807.774V279.784H749.268V316.177H741.452V279.784H682.946V316.177H620.025L620.042 314.35L620.313 296.822L620.499 283.151L620.533 281.155L621.209 235.034V234.678L719.542 234.695L800.583 234.729H833.66L834.201 235.034L915.581 281.155L915.733 281.239Z" fill="black"/>
<path d="M922.84 316.176H597.455V332.182H922.84V316.176Z" fill="black"/>
<path d="M632.782 133.858C557.476 212.277 552.197 163.381 552.197 163.381L466.046 169.709L455.404 164.65L387.678 206.085C389.996 208.419 392.297 210.771 394.598 213.089C394.226 213.563 393.853 214.003 393.498 214.476C372.383 240.988 351.218 267.636 326.838 298.276C336.6 298.056 345.99 297.853 354.991 297.7C354.449 296.262 353.891 294.807 353.333 293.352C385.614 259.328 417.895 225.321 446.387 195.29C448.078 197.473 453.205 203.834 458.061 210.45C459.972 213.038 462.341 216.067 462.679 219.146C462.73 219.603 462.764 220.076 462.798 220.516C462.849 220.99 462.865 221.447 462.899 221.904C462.967 222.919 462.984 223.934 462.984 224.932C462.984 225.338 462.967 225.761 462.95 226.184C462.95 226.472 462.95 226.743 462.916 227.03C462.916 227.284 462.916 227.538 462.882 227.791C462.866 228.181 462.849 228.57 462.815 228.959C462.764 229.314 462.747 229.669 462.713 230.008C462.679 230.38 462.646 230.735 462.612 231.108C462.273 233.984 461.715 236.826 460.937 239.584C460.801 240.075 460.666 240.582 460.497 241.09C460.362 241.547 460.209 242.02 460.057 242.477C459.939 242.883 459.786 243.289 459.651 243.678C459.465 244.186 459.279 244.693 459.093 245.201C458.873 245.793 458.619 246.385 458.365 246.961C457.976 247.942 457.536 248.889 457.062 249.837C456.825 250.327 456.572 250.818 456.318 251.326C456.064 251.799 455.793 252.29 455.523 252.781C454.998 253.745 454.423 254.709 453.848 255.623C453.509 256.165 453.171 256.689 452.816 257.213C452.359 257.907 451.868 258.584 451.394 259.244C451.141 259.599 450.887 259.92 450.616 260.259C450.379 260.597 450.109 260.919 449.838 261.257C449.415 261.782 448.992 262.306 448.535 262.814C448.248 263.169 447.926 263.524 447.605 263.863C446.979 264.556 446.37 265.233 445.693 265.893C445.118 266.468 444.525 267.06 443.916 267.619C443.443 268.058 442.969 268.498 442.461 268.904C442.123 269.192 441.818 269.446 441.497 269.717C438.367 272.288 435.017 274.505 431.464 276.213C431.21 276.332 430.956 276.45 430.72 276.569C430.212 276.789 429.721 277.009 429.214 277.229C428.858 277.381 428.503 277.533 428.131 277.651C427.996 277.719 427.843 277.787 427.691 277.821C427.319 277.973 426.964 278.108 426.591 278.227C426.219 278.362 425.847 278.481 425.492 278.599C425.17 278.7 424.866 278.802 424.561 278.887C424.341 278.937 424.104 279.005 423.901 279.073C423.681 279.14 423.444 279.191 423.225 279.259C422.937 279.326 422.649 279.394 422.379 279.462C421.194 279.733 419.993 279.969 418.809 280.139C418.656 280.155 418.504 280.172 418.369 280.189C418.064 280.24 417.743 280.274 417.438 280.308C417.049 280.359 416.643 280.392 416.237 280.426L416.271 280.392C416.355 280.189 416.474 280.003 416.575 279.8C406.746 282.169 396.916 284.588 387.069 286.957V284.385C376.884 288.767 366.698 293.132 356.53 297.514C410.958 296.584 451.919 296.838 481.781 297.531C480.918 295.044 483.591 292.236 491.56 289.106C492.084 288.903 492.592 288.7 493.083 288.48C487.669 289.799 477.23 283.607 453.002 269.226C471.156 246.91 488.887 225.135 506.618 203.361C507.582 204.562 508.58 205.746 509.562 206.964C497.685 225.609 485.774 244.254 471.054 267.314C485.994 270.123 493.235 271.476 500.493 272.813C498.734 280.595 497.634 285.603 494.927 287.634C503.691 283.404 508.953 277.448 512.015 271.307C512.066 271.222 512.099 271.121 512.133 271.036C512.945 269.074 513.791 267.01 514.401 265.148C514.434 265.064 514.451 264.962 514.468 264.878C516.092 258.99 516.092 253.39 515.602 249.414C515.162 245.59 515.602 241.953 515.602 238.078C515.602 222.496 515.602 222.496 515.602 209.739C515.602 197.439 528.545 176.392 535.854 182.821C535.854 182.821 537.461 184.276 537.14 195.578C536.903 203.597 536.767 210.5 536.666 216.54V244.169C536.835 254.422 537.14 262.374 537.14 273.506C537.14 276.687 537.596 279.259 538.51 281.357L553.602 240.904L570.943 285.536H575.122V290.493H566.274C572.365 290.493 579.792 291.66 586.898 294.13H586.915C598.843 290.527 610.026 286.788 620.482 282.981L620.516 281.001L621.193 234.864V234.508L719.508 234.525C734.448 224.56 741.486 217.995 741.486 217.995C730.641 159.811 632.782 133.858 632.782 133.858ZM482.745 197.862C480.546 192.617 478.346 187.355 476.147 182.094C484.775 178.964 493.404 175.85 502.033 172.721C503.471 176.68 504.909 180.655 506.347 184.631C498.497 189.03 490.613 193.463 482.745 197.862ZM543.958 224.526C542.943 221.954 541.928 219.383 540.912 216.828C558.356 208.402 575.816 199.96 593.293 191.551C581.349 213.664 567.103 230.025 543.958 224.526ZM578.371 275.554C574.716 264.641 570.419 251.867 565.546 237.401C575.072 231.141 584.969 224.661 594.85 218.165C596.457 218.791 598.047 219.4 599.655 220.026C592.346 239.127 585.037 258.229 578.371 275.554ZM647.129 223.849C625.321 232.326 614.577 215.525 605.018 201.719C625.642 184.056 644.964 167.459 667.043 148.526C661.493 162.755 657.568 172.907 653.626 183.041L659.311 187.271C664.911 179.014 670.494 170.741 677.211 160.86C679.664 185.647 664.386 217.133 647.129 223.849Z" fill="black"/>
<path d="M915.733 281.155H620.533L621.209 235.034H884.01L915.733 281.155Z" fill="black"/>
<path d="M741.452 279.783H682.929V316.176H741.452V279.783Z" fill="white"/>
<path d="M807.791 279.783H749.269V316.176H807.791V279.783Z" fill="white"/>
<path d="M872.81 279.783H814.288V316.176H872.81V279.783Z" fill="white"/>
<path d="M645.217 275.418H628.315V316.176H645.217V275.418Z" fill="white"/>
<path d="M656.299 235.71L635.319 235.406L620.735 316.176H677.701L656.299 235.71Z" fill="#728639"/>
</g>
<mask id="mask11_150_359" style="mask-type:luminance" maskUnits="userSpaceOnUse" x="95" y="7" width="841" height="435">
<path d="M515.314 441.41C747.224 441.41 935.224 344.164 935.224 224.205C935.224 104.246 747.224 7 515.314 7C283.404 7 95.4037 104.246 95.4037 224.205C95.4037 344.164 283.404 441.41 515.314 441.41Z" fill="white"/>
</mask>
<g mask="url(#mask11_150_359)">
<path d="M656.198 272.255H638.467V316.177H656.198V272.255Z" fill="#161616"/>
</g>
<mask id="mask12_150_359" style="mask-type:luminance" maskUnits="userSpaceOnUse" x="95" y="7" width="841" height="435">
<path d="M515.314 441.41C747.224 441.41 935.224 344.164 935.224 224.205C935.224 104.246 747.224 7 515.314 7C283.404 7 95.4037 104.246 95.4037 224.205C95.4037 344.164 283.404 441.41 515.314 441.41Z" fill="white"/>
</mask>
<g mask="url(#mask12_150_359)">
<path d="M515.314 288.818C499.748 290.543 491.881 292.827 491.729 295.653C491.644 297.142 493.708 298.8 497.938 300.593C506.448 302.387 514.976 304.163 523.486 305.956C516.989 303.808 505.247 299.392 505.535 294.925C505.619 293.504 506.99 291.119 515.314 288.818Z" fill="black"/>
</g>
<mask id="mask13_150_359" style="mask-type:luminance" maskUnits="userSpaceOnUse" x="95" y="7" width="841" height="435">
<path d="M515.314 441.41C747.224 441.41 935.224 344.164 935.224 224.205C935.224 104.246 747.224 7 515.314 7C283.404 7 95.4037 104.246 95.4037 224.205C95.4037 344.164 283.404 441.41 515.314 441.41Z" fill="white"/>
</mask>
<g mask="url(#mask13_150_359)">
<path d="M566.307 301.084C566.307 301.084 605.085 294.181 593.276 315.804C593.293 315.804 594.19 301.592 566.307 301.084Z" fill="black"/>
</g>
<mask id="mask14_150_359" style="mask-type:luminance" maskUnits="userSpaceOnUse" x="95" y="7" width="841" height="435">
<path d="M515.314 441.41C747.224 441.41 935.224 344.164 935.224 224.205C935.224 104.246 747.224 7 515.314 7C283.404 7 95.4037 104.246 95.4037 224.205C95.4037 344.164 283.404 441.41 515.314 441.41Z" fill="white"/>
</mask>
<g mask="url(#mask14_150_359)">
<path d="M533.011 203.513V258.093C533.011 258.093 522.504 229.703 533.011 203.513Z" fill="black"/>
</g>
<mask id="mask15_150_359" style="mask-type:luminance" maskUnits="userSpaceOnUse" x="95" y="7" width="841" height="435">
<path d="M515.314 441.41C747.224 441.41 935.224 344.164 935.224 224.205C935.224 104.246 747.224 7 515.314 7C283.404 7 95.4037 104.246 95.4037 224.205C95.4037 344.164 283.404 441.41 515.314 441.41Z" fill="white"/>
</mask>
<g mask="url(#mask15_150_359)">
<path d="M571.248 286.415H536.716L536.987 285.705L538.29 282.202L538.561 281.509L553.635 241.073L570.977 285.705L571.248 286.415Z" fill="#728639"/>
</g>
<mask id="mask16_150_359" style="mask-type:luminance" maskUnits="userSpaceOnUse" x="95" y="7" width="841" height="435">
<path d="M515.314 441.41C747.224 441.41 935.224 344.164 935.224 224.205C935.224 104.246 747.224 7 515.314 7C283.404 7 95.4037 104.246 95.4037 224.205C95.4037 344.164 283.404 441.41 515.314 441.41Z" fill="white"/>
</mask>
<g mask="url(#mask16_150_359)">
<path d="M575.156 285.705H532.74V290.662H575.156V285.705Z" fill="black" stroke="black" stroke-width="1.69189" stroke-miterlimit="10"/>
</g>
<mask id="mask17_150_359" style="mask-type:luminance" maskUnits="userSpaceOnUse" x="95" y="7" width="841" height="435">
<path d="M515.314 441.41C747.224 441.41 935.224 344.164 935.224 224.205C935.224 104.246 747.224 7 515.314 7C283.404 7 95.4037 104.246 95.4037 224.205C95.4037 344.164 283.404 441.41 515.314 441.41Z" fill="white"/>
</mask>
<g mask="url(#mask17_150_359)">
<path d="M558.068 268.702H549.202V288.531H558.068V268.702Z" fill="black"/>
</g>
<mask id="mask18_150_359" style="mask-type:luminance" maskUnits="userSpaceOnUse" x="95" y="7" width="841" height="435">
<path d="M515.314 441.41C747.224 441.41 935.224 344.164 935.224 224.205C935.224 104.246 747.224 7 515.314 7C283.404 7 95.4037 104.246 95.4037 224.205C95.4037 344.164 283.404 441.41 515.314 441.41Z" fill="white"/>
</mask>
<g mask="url(#mask18_150_359)">
<path d="M704.805 317.141H680.967L651.748 234.018H675.586L704.805 317.141Z" fill="black"/>
</g>
<mask id="mask19_150_359" style="mask-type:luminance" maskUnits="userSpaceOnUse" x="95" y="7" width="841" height="435">
<path d="M515.314 441.41C747.224 441.41 935.224 344.164 935.224 224.205C935.224 104.246 747.224 7 515.314 7C283.404 7 95.4037 104.246 95.4037 224.205C95.4037 344.164 283.404 441.41 515.314 441.41Z" fill="white"/>
</mask>
<g mask="url(#mask19_150_359)">
<path d="M609.298 317.141H622.529L645.674 234.018H632.46L609.298 317.141Z" fill="black"/>
</g>
<mask id="mask20_150_359" style="mask-type:luminance" maskUnits="userSpaceOnUse" x="95" y="7" width="841" height="435">
<path d="M515.314 441.41C747.224 441.41 935.224 344.164 935.224 224.205C935.224 104.246 747.224 7 515.314 7C283.404 7 95.4037 104.246 95.4037 224.205C95.4037 344.164 283.404 441.41 515.314 441.41Z" fill="white"/>
</mask>
<g mask="url(#mask20_150_359)">
<path d="M654.319 241.225L886.717 239.956L884.129 236.149H651.748L654.319 241.225Z" fill="#8D8E8D"/>
</g>
<mask id="mask21_150_359" style="mask-type:luminance" maskUnits="userSpaceOnUse" x="95" y="7" width="841" height="435">
<path d="M515.314 441.41C747.224 441.41 935.224 344.164 935.224 224.205C935.224 104.246 747.224 7 515.314 7C283.404 7 95.4037 104.246 95.4037 224.205C95.4037 344.164 283.404 441.41 515.314 441.41Z" fill="white"/>
</mask>
<g mask="url(#mask21_150_359)">
<path d="M153.859 263.288C153.859 263.288 96.6559 313.622 55.9829 335.244C55.9829 335.244 104.794 326.294 144.672 297.735C184.55 269.176 153.859 263.288 153.859 263.288Z" fill="#161616"/>
</g>
<mask id="mask22_150_359" style="mask-type:luminance" maskUnits="userSpaceOnUse" x="95" y="7" width="841" height="435">
<path d="M515.314 441.41C747.224 441.41 935.224 344.164 935.224 224.205C935.224 104.246 747.224 7 515.314 7C283.404 7 95.4037 104.246 95.4037 224.205C95.4037 344.164 283.404 441.41 515.314 441.41Z" fill="white"/>
</mask>
<g mask="url(#mask22_150_359)">
<g opacity="0.47">
<path d="M93.8472 324.179C98.4491 329.813 105.284 333.23 111.815 336.157C116.062 338.035 120.985 339.744 125.485 341.013C170.033 353.127 217 351.3 262.681 348.474C338.951 343.094 417.895 331.843 493.742 320.913C503.352 319.627 512.979 318.359 522.623 317.276C532.25 316.362 541.978 314.89 551.639 315.804C546.8 315.296 541.944 315.719 537.122 316.091C446.437 327.309 354.043 344.583 262.782 349.878C236.304 351.553 209.268 352.467 182.739 350.792C163.451 349.54 143.842 347.239 125.333 341.504C120.884 340.184 115.909 338.39 111.68 336.428C105.183 333.416 98.3814 329.897 93.8472 324.179Z" fill="#E5F7BC"/>
<path d="M75.7944 330.253C89.6849 352.011 137.836 357.729 162.098 359.878C235.018 365.004 308.074 355.327 380.098 344.532C421.177 337.9 462.628 330.845 503.91 325.719C514.282 324.467 524.653 323.316 535.058 322.419C545.446 321.692 555.936 320.575 566.324 321.81C555.936 320.711 545.463 321.979 535.092 322.842C524.704 323.874 514.349 325.16 504.012 326.548C462.78 331.877 421.346 339.101 380.318 345.937C308.277 357.289 235.018 366.256 162.013 360.859C137.633 358.727 89.3972 352.197 75.7944 330.253Z" fill="#E5F7BC"/>
<path d="M60.9061 335.243C70.3637 369.91 151.98 372.313 181.927 371.974C293.067 369.403 402.617 347.831 512.471 332.638C523.503 331.267 534.551 329.999 545.649 329.356C556.613 329.017 568.236 327.85 578.574 332.198C568.202 327.985 556.596 329.288 545.666 329.779C534.601 330.574 523.57 331.961 512.573 333.467C424.662 346.207 337.175 362.686 248.52 369.741C215.325 372.567 181.893 374.377 148.597 372.059C123.946 370.418 67.8428 363.363 60.9061 335.243Z" fill="#E5F7BC"/>
<path d="M44.1901 339.964C46.2204 351.638 56.5409 359.759 66.2862 365.325C91.986 379.03 121.882 381.923 150.525 383.598C202.788 385.797 254.83 379.216 306.568 372.533C352.639 366.747 398.59 359.996 444.373 352.281C490.071 344.989 536.022 333.941 582.6 337.951C536.006 334.584 490.257 346.004 444.559 353.397C398.793 361.299 352.842 368.252 306.771 374.225C254.966 380.705 202.788 387.083 150.475 384.664C121.729 382.887 91.6984 379.842 66.0662 365.698C56.3548 359.979 46.102 351.706 44.1901 339.964Z" fill="#E5F7BC"/>
<path d="M313.404 384.63C395.41 371.501 477.619 359.506 560.081 349.591C594.46 345.751 628.924 341.419 663.574 340.81C731.757 340.777 823.492 342.248 891.962 343.179L975 344.752C888.054 344.042 749.133 342.147 663.574 342.435C629.009 343.196 594.596 347.206 560.234 350.979C477.754 360.605 395.545 372.516 313.404 384.63Z" fill="#E5F7BC"/>
<path d="M466.807 375.257C581.23 362.72 696.295 351.469 811.53 352.789C825.539 353.297 841.73 354.058 855.789 355.631C890.964 359.776 926.358 362.314 961.803 361.096C985.371 360.216 1009.04 358.44 1032.12 353.263C1009.09 358.711 985.422 360.775 961.82 361.925C938.184 362.771 914.515 362.145 890.93 360.318C867.328 358.609 843.963 354.802 820.328 354.582C815.912 354.345 807.046 354.142 802.63 354.176C690.407 353.872 578.404 364.294 466.807 375.257Z" fill="#E5F7BC"/>
<path d="M109.819 317.867C139.004 335.717 174.246 342.112 208.101 340.133C212.973 339.913 217.812 339.219 222.702 338.847L215.443 339.98C213.329 340.285 210.249 340.843 208.151 340.962C201.045 341.605 193.178 341.926 186.089 341.757C178.983 341.351 171.082 340.708 164.111 339.473C144.925 335.903 125.756 329.389 109.819 317.867Z" fill="#E5F7BC"/>
</g>
</g>
<mask id="mask23_150_359" style="mask-type:luminance" maskUnits="userSpaceOnUse" x="95" y="7" width="841" height="435">
<path d="M515.314 441.41C747.224 441.41 935.224 344.164 935.224 224.205C935.224 104.246 747.224 7 515.314 7C283.404 7 95.4037 104.246 95.4037 224.205C95.4037 344.164 283.404 441.41 515.314 441.41Z" fill="white"/>
</mask>
<g mask="url(#mask23_150_359)">
<path d="M1123.8 412.663C1123.8 412.663 1059.04 391.007 922.839 383.309C850.629 379.232 758.371 379.096 644.997 388.182C633.932 389.061 622.647 390.043 611.176 391.109C601.786 391.971 592.261 392.902 582.6 393.917C560.318 396.218 537.325 398.874 513.588 401.903C97.9921 455.045 -156.705 347.881 -159.886 346.544C-157.838 347.17 -30.473 386.151 184.718 388.892C226.288 389.417 271.123 388.605 318.97 385.898C360.286 383.563 403.818 379.807 449.431 374.291C470.039 371.821 491.052 368.979 512.488 365.747C513.825 365.544 515.144 365.341 516.464 365.172C527.445 363.531 538.256 362.008 548.915 360.621C557.239 359.538 565.461 358.523 573.582 357.558C575.19 357.372 576.797 357.186 578.404 357.017C580.418 356.78 582.431 356.56 584.444 356.34C588.725 355.867 592.954 355.427 597.167 355.004C604.967 354.192 612.682 353.464 620.312 352.804C621.649 352.669 622.985 352.55 624.305 352.449C625.659 352.33 626.995 352.212 628.315 352.111C631.716 351.823 635.099 351.552 638.449 351.298C640.717 351.112 642.967 350.943 645.217 350.791C648.905 350.503 652.56 350.249 656.18 350.013C656.756 349.979 657.331 349.945 657.889 349.911C661.882 349.64 665.824 349.403 669.766 349.167C674.199 348.93 678.581 348.693 682.929 348.49C688.242 348.219 693.487 347.982 698.715 347.796C702.386 347.644 706.023 347.526 709.644 347.407C720.472 347.069 731.063 346.849 741.469 346.764C744.074 346.73 746.663 346.713 749.268 346.713C749.945 346.696 750.622 346.696 751.298 346.713C755.156 346.68 759.013 346.696 762.803 346.73C776.981 346.798 790.719 347.103 804.018 347.593C805.287 347.644 806.539 347.678 807.791 347.729C809.973 347.813 812.139 347.915 814.288 347.999C817.468 348.152 820.632 348.304 823.745 348.473C840.85 349.353 857.194 350.554 872.793 352.026C878.545 352.567 884.179 353.126 889.712 353.735C1046.53 370.721 1123.8 412.663 1123.8 412.663Z" fill="white"/>
<path d="M1123.8 431.325C1123.8 431.325 1059.04 409.669 922.839 401.971C850.629 397.893 758.37 397.758 644.997 406.843C633.932 407.723 622.647 408.704 611.176 409.77C601.786 410.633 592.261 411.564 582.6 412.579C560.318 414.88 537.325 417.536 513.588 420.564C97.9919 473.707 -156.705 366.542 -159.886 365.206C-157.839 365.832 -30.4733 404.813 184.718 407.554C226.288 408.078 271.123 407.266 318.97 404.559C360.286 402.224 403.818 398.468 449.431 392.953C470.038 390.483 491.052 387.64 512.488 384.409C513.825 384.206 515.144 384.003 516.464 383.834C527.444 382.192 538.255 380.67 548.914 379.282C557.238 378.2 565.461 377.184 573.582 376.22C575.189 376.034 576.797 375.848 578.404 375.679C580.417 375.442 582.431 375.222 584.444 375.002C588.724 374.528 592.954 374.088 597.167 373.665C604.967 372.853 612.682 372.126 620.312 371.466C621.649 371.33 622.985 371.212 624.305 371.11C625.658 370.992 626.995 370.874 628.315 370.772C631.715 370.485 635.099 370.214 638.449 369.96C640.716 369.774 642.967 369.605 645.217 369.452C648.905 369.165 652.56 368.911 656.18 368.674C656.755 368.64 657.331 368.606 657.889 368.573C661.882 368.302 665.824 368.065 669.766 367.828C674.199 367.591 678.581 367.355 682.929 367.151C688.241 366.881 693.486 366.644 698.714 366.458C702.386 366.306 706.023 366.187 709.644 366.069C720.472 365.73 731.063 365.51 741.468 365.426C744.074 365.392 746.662 365.375 749.268 365.375C749.945 365.358 750.621 365.358 751.298 365.375C755.156 365.341 759.013 365.358 762.803 365.392C776.981 365.46 790.719 365.764 804.018 366.255C805.286 366.306 806.538 366.339 807.79 366.39C809.973 366.475 812.139 366.576 814.287 366.661C817.468 366.813 820.632 366.965 823.745 367.135C840.85 368.014 857.194 369.216 872.793 370.688C878.545 371.229 884.179 371.787 889.712 372.396C1046.53 389.383 1123.8 431.325 1123.8 431.325Z" fill="#728639"/>
</g>
<path d="M515.314 441.41C747.224 441.41 935.224 344.164 935.224 224.205C935.224 104.246 747.224 7 515.314 7C283.404 7 95.4037 104.246 95.4037 224.205C95.4037 344.164 283.404 441.41 515.314 441.41Z" stroke="black" stroke-width="13.5351" stroke-miterlimit="10"/>
<path d="M934.513 482.268C934.513 482.268 892.216 468.124 803.257 463.099C756.104 460.443 695.838 460.358 621.784 466.28C614.56 466.855 607.183 467.498 599.688 468.192C593.564 468.75 587.338 469.359 581.027 470.036C566.477 471.542 551.453 473.268 535.955 475.247C264.508 509.948 98.1784 439.971 96.0974 439.091C97.434 439.497 180.624 464.96 321.169 466.754C348.324 467.092 377.611 466.568 408.843 464.791C435.829 463.269 464.253 460.815 494.047 457.212C507.497 455.587 521.235 453.743 535.227 451.628C536.09 451.493 536.953 451.358 537.816 451.256C544.99 450.173 552.062 449.192 559.015 448.278C564.446 447.568 569.81 446.908 575.122 446.282C576.171 446.164 577.22 446.045 578.269 445.927C579.589 445.774 580.908 445.622 582.211 445.487C585.003 445.182 587.761 444.895 590.518 444.607C595.611 444.083 600.653 443.592 605.644 443.169C606.524 443.084 607.386 443 608.249 442.932C609.129 442.847 610.009 442.78 610.872 442.712C613.088 442.526 615.305 442.34 617.487 442.188C618.959 442.069 620.431 441.951 621.903 441.849C624.305 441.663 626.691 441.494 629.06 441.342C629.432 441.325 629.804 441.291 630.176 441.274C632.782 441.105 635.37 440.936 637.942 440.783C640.835 440.631 643.694 440.479 646.537 440.343C650.005 440.174 653.44 440.005 656.84 439.887C659.243 439.785 661.612 439.717 663.98 439.633C671.052 439.413 677.972 439.261 684.757 439.21C686.465 439.193 688.157 439.176 689.849 439.176C690.289 439.159 690.729 439.159 691.169 439.176C693.69 439.159 696.211 439.159 698.681 439.193C707.935 439.244 716.902 439.43 725.599 439.751C726.428 439.785 727.24 439.802 728.069 439.836C729.49 439.887 730.911 439.954 732.316 440.005C734.397 440.107 736.461 440.208 738.491 440.31C749.657 440.885 760.333 441.68 770.535 442.628C774.291 442.983 777.963 443.355 781.583 443.744C884.044 454.877 934.513 482.268 934.513 482.268Z" fill="#728639"/>
<path d="M0 559.25H13.1798V612.663L50.4183 578.724C63.0229 567.117 59.7237 559.25 59.7237 559.25H73.9017L13.1798 616.25V659.494H0V559.25ZM85.6435 659.494C82.4966 660.493 79.485 660.933 76.9133 660.933C47.6944 660.933 48.7095 608.653 26.5119 604.373C66.4574 601.632 65.7299 661.931 85.6435 659.494Z" fill="#728639"/>
<path d="M196.344 659.494H181.878L176.143 648.328C167.835 634.302 148.937 620.683 132.035 620.683C124.151 620.683 116.706 623.829 111.123 631.274C115.996 622.391 123.728 618.957 132.458 618.957C145.485 618.957 160.662 627.112 170.83 637.855L138.177 573.546L106.961 635.267C103.662 641.848 102.528 647.161 102.528 651.018C102.528 655.315 103.967 657.887 105.252 658.327C105.828 658.462 105.828 659.478 105.828 659.478H92.2248L143.066 559.25H145.502L196.344 659.494Z" fill="#728639"/>
<path d="M213.229 559.25H240.587C268.943 559.25 281.107 573.428 281.107 587.319C281.107 599.635 271.514 611.665 254.765 613.103C284.407 618.551 280.684 661.643 298.872 659.494C295.285 660.493 292.003 661.068 289.127 661.068C262.632 661.068 267.065 618.821 246.745 612.951C241.162 612.375 234.851 610.667 227.982 607.655C232.99 609.093 237.44 609.668 241.585 609.668C258.774 609.668 267.505 598.637 267.505 587.048C267.505 574.731 257.489 561.839 237.152 561.551L226.409 561.686V659.494H213.229V559.25Z" fill="#728639"/>
<path d="M408.997 659.494H394.531L388.796 648.328C380.489 634.302 361.59 620.683 344.688 620.683C336.804 620.683 329.36 623.829 323.777 631.274C328.649 622.391 336.381 618.957 345.111 618.957C358.139 618.957 373.315 627.112 383.483 637.855L350.83 573.546L319.615 635.267C316.315 641.848 315.182 647.161 315.182 651.018C315.182 655.315 316.62 657.887 317.906 658.327C318.481 658.462 318.481 659.478 318.481 659.478H304.878L355.719 559.25H358.156L408.997 659.494Z" fill="#728639"/>
<path d="M579.269 609.38C579.269 635.452 559.643 661.66 520.273 661.66C481.038 661.66 461.412 635.452 461.412 609.38C461.412 583.173 481.038 557.118 520.273 557.118C559.643 557.101 579.269 583.173 579.269 609.38ZM565.802 618.11C565.802 591.04 546.464 560.4 512.964 560.4C486.757 560.4 474.863 579.298 474.863 600.498C474.863 627.568 494.049 658.36 527.565 658.36C553.908 658.343 565.802 639.31 565.802 618.11Z" fill="#728639"/>
<path d="M589.42 563.683C588.845 559.961 590.858 557.524 594.428 557.524C598.15 557.524 600.164 559.961 599.589 563.683L595.579 587.877H593.566L589.42 563.683Z" fill="#728639"/>
<path d="M624.51 570.704L617.641 628.279C617.354 631.003 617.218 633.727 617.218 636.011C617.218 650.9 622.954 657.633 625.238 658.344C625.813 658.479 625.813 659.494 625.813 659.494H611.923L623.665 559.25H634.696L672.78 642.745L711.017 559.25H719.172L731.066 659.494H717.598L707.295 572.853L667.772 659.494H665.2L624.51 570.704Z" fill="#728639"/>
<path d="M747.375 559.25H760.555V621.41C760.555 645.892 775.731 657.786 791.195 657.786C806.947 657.786 822.986 645.333 822.986 621.41V587.183C822.986 570.433 816.962 561.263 814.391 560.4C813.816 560.265 813.816 559.25 813.816 559.25H825.27V621.41C825.27 648.616 804.798 663.369 784.749 663.369C765.851 663.369 747.375 650.054 747.375 621.41V559.25Z" fill="#728639"/>
<path d="M915.651 659.494H848.77V559.25H861.95V657.21H880.561C906.768 657.21 917.647 650.917 918.51 648.616C918.798 648.193 919.66 648.193 919.66 648.193L915.651 659.494Z" fill="#728639"/>
<path d="M1033.51 659.494H1019.04L1013.31 648.328C1005 634.302 986.101 620.683 969.199 620.683C961.332 620.683 953.871 623.829 948.287 631.274C953.16 622.391 960.892 618.957 969.622 618.957C982.65 618.957 997.826 627.112 1007.99 637.855L975.341 573.546L944.125 635.267C940.826 641.848 939.693 647.161 939.693 651.018C939.693 655.315 941.131 657.887 942.417 658.327C942.992 658.462 942.992 659.478 942.992 659.478H929.389L980.23 559.25H982.667L1033.51 659.494Z" fill="#728639"/>
<path d="M401.499 748.168L379.877 700.964L376.223 731.57C376.07 733.017 375.994 734.463 375.994 735.681C375.994 743.6 379.04 747.178 380.258 747.559C380.562 747.635 380.562 748.168 380.562 748.168H373.177L379.42 694.873H385.283L405.535 739.26L425.863 694.873H430.202L436.522 748.168H429.365L423.883 702.106L402.87 748.168H401.499ZM475.411 741.392V710.1H481.959V741.163C481.959 745.351 483.329 746.873 485.004 746.873C486.451 746.873 488.202 745.807 489.572 744.437C487.973 747.178 484.928 748.624 482.111 748.624C478.609 748.624 475.411 746.416 475.411 741.392ZM474.726 742.001C473.736 746.493 468.635 748.929 464.371 748.929C447.85 748.929 447.241 736.747 447.241 726.241C447.241 725.403 447.241 724.642 447.241 723.881V710.1H453.713V724.49C453.713 725.479 453.713 726.469 453.713 727.611C453.713 735.681 454.322 746.949 465.057 746.949C471.833 746.949 473.888 743.828 474.726 742.001ZM495.435 748.168V691.066H501.982V748.168H495.435ZM540.661 741.392V732.179C537.844 728.144 533.504 726.012 529.24 726.012C521.17 726.012 517.592 731.418 517.592 736.671C517.592 741.62 520.789 746.34 526.347 746.34C529.697 746.34 534.113 744.513 539.747 739.869C534.722 745.807 528.174 749.005 522.693 749.005C515.46 749.005 511.196 743.371 511.196 737.585C511.196 731.418 516.069 725.023 527.185 725.023C532.286 725.023 537.463 726.926 540.661 731.189V729.362C540.661 719.845 540.737 710.709 530.002 710.709C520.865 710.709 516.602 716.952 515.688 720.302C517.287 713.831 523.378 709.263 530.23 709.263C544.848 709.263 547.132 718.627 547.132 729.362V741.163C547.132 745.351 548.426 746.873 550.177 746.873C551.624 746.873 553.375 745.807 554.746 744.437C553.147 747.178 550.177 748.624 547.36 748.624C543.858 748.624 540.661 746.416 540.661 741.392ZM515.688 720.302C515.688 720.454 515.612 720.607 515.612 720.759C515.612 720.607 515.688 720.454 515.688 720.302ZM589.267 741.392V733.778C589.191 725.86 590.104 710.633 577.923 710.633C571.299 710.633 568.939 712.689 567.873 713.907C570.081 710.633 574.801 709.339 578.608 709.339C596.424 709.339 595.814 723.424 595.814 734.387V741.163C595.814 745.351 597.109 746.873 598.86 746.873C600.306 746.873 602.058 745.807 603.428 744.437C601.829 747.178 598.784 748.624 595.967 748.624C592.465 748.624 589.267 746.416 589.267 741.392ZM560.64 748.168V710.1H567.188V748.168H560.64ZM610.578 706.522C612.481 705.532 613.242 704.238 613.242 703.248C613.242 701.649 611.415 700.507 609.207 701.116C608.903 697.842 611.11 696.32 613.318 696.32C615.755 696.32 617.277 697.995 617.277 700.05C617.277 702.41 615.298 705.227 610.578 706.522ZM616.516 744.894C616.516 757.761 610.045 762.862 603.725 761.872C609.74 761.187 610.045 755.857 610.045 747.254C610.045 746.264 610.045 745.274 610.045 744.209V710.1H616.516V744.894ZM644.139 709.491C652.285 709.491 657.31 713.907 657.31 719.16C657.31 724.946 651.219 731.799 636.678 734.996C647.108 730.809 650.915 724.718 650.915 719.693C650.915 714.744 647.184 710.861 642.464 710.861C635.383 710.861 632.262 716.876 632.262 723.957C632.262 734.235 638.809 746.873 649.088 746.873C658.452 746.873 663.934 737.052 664.315 734.159C663.553 741.468 655.787 749.31 645.814 749.31C632.262 749.31 625.79 739.564 625.79 729.286C625.79 715.734 635.079 709.491 644.139 709.491Z" fill="#728639"/>
<path d="M303.065 741.77H254V744.426H303.065V741.77Z" fill="#728639"/>
<path d="M778.993 741.769H729.928V744.426H778.993V741.769Z" fill="#728639"/>
</svg>
