<svg width="1015" height="744" viewBox="0 0 1015 744" fill="none" xmlns="http://www.w3.org/2000/svg">
<path d="M215.288 734.762V734.026H215.325V702.725H224.547C231.822 702.725 234.842 706.245 234.842 709.902C234.842 712.972 232.771 716.124 229.38 717.502C234.719 718.184 237.407 722.127 237.407 726.057C237.407 730.41 234.14 734.749 227.605 734.749H215.288V734.762ZM225.497 718.239C223.795 718.239 221.946 717.829 219.912 716.915C221.354 717.42 222.636 717.597 223.795 717.597C228.591 717.597 230.983 713.941 230.983 710.325C230.983 706.845 228.752 703.461 224.289 703.461H219.073V734.026H227.137C231.07 734.026 233.005 730.041 233.005 726.071C233.005 722.086 231.057 718.116 227.137 718.116C226.619 718.198 226.076 718.239 225.497 718.239Z" fill="#255677"/>
<path d="M241.377 744C238.196 744 237.37 740.343 237.444 739.293C237.986 741.994 239.712 742.172 241.118 742.172C243.645 742.172 246.333 739.511 247.443 736.727L248.232 734.762H248.195L239.305 711.88H243.115L250.18 729.905L255.185 717.734C255.642 716.642 255.802 715.633 255.802 714.8C255.802 713.013 255.099 711.867 255.099 711.867H258.28L248.022 736.946C246.259 741.203 244.471 744 241.377 744Z" fill="#255677"/>
<path d="M283.876 734.804C288.832 734.804 293.677 732.607 293.677 728.541C293.677 720.217 273.827 721.95 273.827 710.557C273.827 704.744 278.833 702.097 283.876 702.097C289.251 702.097 294.713 705.031 294.504 710.284C293.64 705.345 289.461 703.189 285.405 703.189C281.102 703.189 276.934 705.563 276.934 709.452C276.934 717.83 297.278 714.76 297.278 726.617C297.278 732.934 291.162 735.813 285.121 735.813C279.203 735.813 273.421 733.016 273.421 728.077C273.421 727.531 273.507 727.026 273.63 726.426C273.088 732.198 278.537 734.804 283.876 734.804Z" fill="#255677"/>
<path d="M318.484 717.324C318.484 720.804 315.18 724.925 307.277 726.848C312.936 724.338 315.007 720.667 315.007 717.652C315.007 714.677 312.985 712.344 310.42 712.344C306.574 712.344 304.885 715.96 304.885 720.217C304.885 726.398 308.435 733.985 314.021 733.985C319.1 733.985 322.084 728.076 322.294 726.344C321.874 730.737 317.658 735.445 312.245 735.445C304.885 735.445 301.371 729.591 301.371 723.41C301.371 715.264 306.413 711.512 311.333 711.512C315.747 711.512 318.484 714.159 318.484 717.324Z" fill="#255677"/>
<path d="M325.548 711.88H329.099V734.763H325.548V711.88ZM336.336 710.734C338.321 710.734 339.271 711.921 339.271 713.108C339.271 714.296 338.358 715.442 336.583 715.442C336.62 713.381 335.794 712.467 334.635 712.467C333.106 712.467 331.035 714.023 329.543 716.82C330.801 713.381 333.649 710.734 336.336 710.734Z" fill="#255677"/>
<path d="M357.999 717.324C357.999 720.804 354.695 724.925 346.792 726.848C352.451 724.338 354.522 720.667 354.522 717.652C354.522 714.677 352.5 712.344 349.936 712.344C346.089 712.344 344.4 715.96 344.4 720.217C344.4 726.398 347.951 733.985 353.536 733.985C358.615 733.985 361.599 728.076 361.809 726.344C361.389 730.737 357.173 735.445 351.76 735.445C344.4 735.445 340.886 729.591 340.886 723.41C340.886 715.264 345.929 711.512 350.848 711.512C355.274 711.512 357.999 714.159 357.999 717.324Z" fill="#255677"/>
<path d="M365.063 711.88H368.614V734.763H365.063V711.88ZM380.611 726.112C380.574 721.35 381.067 712.208 374.446 712.208C370.846 712.208 369.564 713.45 368.984 714.173C370.18 712.208 372.745 711.43 374.816 711.43C384.494 711.43 384.161 719.89 384.161 726.48V730.56C384.161 733.071 384.864 733.985 385.814 733.985C386.603 733.985 387.552 733.344 388.292 732.525C387.429 734.176 385.764 735.035 384.235 735.035C382.337 735.035 380.598 733.712 380.598 730.683V726.112H380.611Z" fill="#255677"/>
<path d="M393.68 721.445C393.68 727.531 396.404 734.299 401.164 734.299C403.765 734.299 405.503 733.248 406.453 731.324C405.503 733.985 403.222 735.445 399.709 735.445C392.718 735.445 389.784 729.4 389.784 723.41C389.784 717.366 392.755 711.375 399.709 711.375C403.259 711.375 405.577 712.754 406.983 714.759V700.432H410.534V734.749H406.983V721.896C406.194 716.82 403.506 712.058 399.376 712.058C395.455 712.058 393.68 716.492 393.68 721.445Z" fill="#255677"/>
<path d="M419.016 707.76C419.016 706.805 418.03 706.109 416.822 706.477C416.661 704.512 417.857 703.598 419.053 703.598C420.372 703.598 421.199 704.608 421.199 705.836C421.199 707.255 420.126 708.947 417.561 709.724C418.609 709.138 419.016 708.36 419.016 707.76ZM420.841 711.88V734.762H417.29V711.88H420.841Z" fill="#255677"/>
<path d="M427.659 700.432H431.21L431.296 725.73C431.876 730.765 434.526 734.749 438.903 734.749C442.836 734.749 444.612 730.314 444.612 725.375C444.612 719.289 441.887 712.467 437.128 712.467C435.02 712.467 432.788 714.432 431.789 716.178C432.911 713.34 435.673 711.375 438.533 711.375C445.561 711.375 448.495 717.42 448.495 723.41C448.495 729.455 445.524 735.445 438.533 735.445C434.44 735.445 431.999 733.753 430.68 731.324C429.237 731.147 428.152 732.88 427.659 734.763V700.432Z" fill="#255677"/>
<path d="M465.818 702.725H469.628V718.375H487.825V702.725H491.586V734.749H487.825V719.098H469.628V734.749H465.818V702.725Z" fill="#255677"/>
<path d="M508.033 711.375C515.394 711.375 518.871 717.229 518.871 723.41C518.871 729.632 515.357 735.445 508.033 735.445C500.673 735.445 497.159 729.591 497.159 723.41C497.159 717.188 500.747 711.375 508.033 711.375ZM500.673 720.34C500.673 726.658 504.223 734.435 509.858 734.435C513.705 734.435 515.357 730.819 515.357 726.48C515.357 720.163 511.806 712.344 506.221 712.344C502.362 712.331 500.673 716.001 500.673 720.34Z" fill="#255677"/>
<path d="M524.899 712.604H521.669V711.867H535.441V712.604H528.413V729.401C528.413 732.553 529.659 733.794 531.224 733.794C533.419 733.794 536.181 731.461 537.34 728.582C535.688 733.289 532.667 734.995 530.065 734.995C527.217 734.995 524.899 732.894 524.899 729.551V712.604ZM529.609 708.074C529.609 709.766 527.92 711.458 523.494 711.553C526.465 711.376 528.006 709.452 528.006 707.665C528.006 706.382 527.217 705.195 525.602 704.786C527.957 704.786 529.609 706.437 529.609 708.074Z" fill="#255677"/>
<path d="M556.561 717.324C556.561 720.804 553.257 724.925 545.354 726.848C551.013 724.338 553.084 720.667 553.084 717.652C553.084 714.677 551.062 712.344 548.498 712.344C544.651 712.344 542.962 715.96 542.962 720.217C542.962 726.398 546.512 733.985 552.098 733.985C557.177 733.985 560.161 728.076 560.371 726.344C559.951 730.737 555.735 735.445 550.322 735.445C542.962 735.445 539.448 729.591 539.448 723.41C539.448 715.264 544.491 711.512 549.41 711.512C553.836 711.512 556.561 714.159 556.561 717.324Z" fill="#255677"/>
<path d="M563.626 700.432H567.177V734.749H563.626V700.432Z" fill="#255677"/>
<path d="M580.295 734.531C583.981 734.531 587.569 732.798 587.569 729.769C587.569 723.779 572.971 726.521 572.971 717.87C572.971 713.436 576.732 711.048 580.615 711.048C584.252 711.048 587.939 713.054 588.888 717.447C587.939 713.736 584.462 712.003 581.281 712.003C578.174 712.003 575.326 713.654 575.326 716.67C575.326 722.714 590.38 719.644 590.38 728.39C590.38 733.289 585.954 735.581 581.491 735.581C576.695 735.581 571.775 732.92 572.231 727.94C572.022 732.47 576.238 734.531 580.295 734.531Z" fill="#255677"/>
<path d="M609.268 726.48C609.268 731.324 612.289 734.94 615.926 734.94C619.724 734.94 622.67 733.289 624.692 730.915C619.773 725.143 611.426 715.128 611.426 708.169C611.426 704.103 614.78 701.988 617.924 701.988C620.858 701.988 623.632 703.721 623.632 707.296C623.632 711.007 619.699 713.245 617.097 712.563C619.699 712.331 620.698 710.271 620.698 707.078C620.698 704.008 619.206 702.684 617.591 702.684C615.766 702.684 613.867 704.376 613.867 707.078C613.867 711.007 621.018 720.9 626.69 727.709C627.553 725.785 628.009 723.642 628.009 721.623C628.009 717.27 625.937 713.436 621.598 712.699C628.046 712.795 630.647 716.274 630.647 720.477C630.647 723.219 629.525 726.249 627.676 728.896C630.401 732.102 632.595 734.381 633.261 734.749H627.886C627.429 734.108 626.517 733.016 625.321 731.597C622.757 733.971 619.489 735.582 615.889 735.582C610.723 735.582 605.434 732.607 605.348 726.699C605.224 721.255 609.983 717.639 612.992 717.639C613.485 717.639 613.941 717.734 614.311 717.953C612.659 717.366 609.268 719.89 609.268 726.48Z" fill="#255677"/>
<path d="M651.57 702.725H659.461C667.647 702.725 671.161 707.255 671.161 711.689C671.161 715.619 668.387 719.467 663.554 719.931C672.11 721.677 671.038 735.445 676.29 734.762C675.254 735.09 674.305 735.267 673.479 735.267C665.835 735.267 667.117 721.773 661.236 719.89C659.621 719.712 657.809 719.153 655.824 718.198C657.266 718.662 658.548 718.839 659.757 718.839C664.713 718.839 667.24 715.319 667.24 711.607C667.24 707.678 664.343 703.557 658.474 703.461L655.38 703.502V734.749H651.582V702.725H651.57Z" fill="#255677"/>
<path d="M694.772 717.324C694.772 720.804 691.467 724.925 683.564 726.848C689.223 724.338 691.295 720.667 691.295 717.652C691.295 714.677 689.273 712.344 686.708 712.344C682.861 712.344 681.172 715.96 681.172 720.217C681.172 726.398 684.723 733.985 690.308 733.985C695.388 733.985 698.372 728.076 698.581 726.344C698.162 730.737 693.945 735.445 688.533 735.445C681.172 735.445 677.659 729.591 677.659 723.41C677.659 715.264 682.701 711.512 687.62 711.512C692.034 711.512 694.772 714.159 694.772 717.324Z" fill="#255677"/>
<path d="M708.21 734.531C711.885 734.531 715.485 732.798 715.485 729.769C715.485 723.779 700.887 726.521 700.887 717.87C700.887 713.436 704.647 711.048 708.531 711.048C712.168 711.048 715.855 713.054 716.804 717.447C715.855 713.736 712.378 712.003 709.197 712.003C706.09 712.003 703.242 713.654 703.242 716.67C703.242 722.714 718.296 719.644 718.296 728.39C718.296 733.289 713.87 735.581 709.406 735.581C704.61 735.581 699.691 732.92 700.147 727.94C699.938 732.47 704.154 734.531 708.21 734.531Z" fill="#255677"/>
<path d="M732.844 711.375C740.205 711.375 743.682 717.229 743.682 723.41C743.682 729.632 740.168 735.445 732.844 735.445C725.484 735.445 721.97 729.591 721.97 723.41C721.97 717.188 725.57 711.375 732.844 711.375ZM725.484 720.34C725.484 726.658 729.034 734.435 734.657 734.435C738.503 734.435 740.155 730.819 740.155 726.48C740.155 720.163 736.605 712.344 731.019 712.344C727.173 712.331 725.484 716.001 725.484 720.34Z" fill="#255677"/>
<path d="M749.168 711.88H752.719V734.763H749.168V711.88ZM759.968 710.734C761.954 710.734 762.903 711.921 762.903 713.108C762.903 714.296 761.99 715.442 760.215 715.442C760.252 713.381 759.426 712.467 758.267 712.467C756.738 712.467 754.667 714.023 753.187 716.82C754.42 713.381 757.281 710.734 759.968 710.734Z" fill="#255677"/>
<path d="M767.403 712.604H764.173V711.867H777.944V712.604H770.917V729.401C770.917 732.553 772.162 733.794 773.728 733.794C775.922 733.794 778.684 731.461 779.843 728.582C778.191 733.289 775.17 734.995 772.569 734.995C769.721 734.995 767.403 732.894 767.403 729.551V712.604ZM772.113 708.074C772.113 709.766 770.424 711.458 765.997 711.553C768.969 711.376 770.51 709.452 770.51 707.665C770.51 706.382 769.721 705.195 768.106 704.786C770.461 704.786 772.113 706.437 772.113 708.074Z" fill="#255677"/>
<path d="M789.608 734.531C793.294 734.531 796.882 732.798 796.882 729.769C796.882 723.779 782.284 726.521 782.284 717.87C782.284 713.436 786.045 711.048 789.928 711.048C793.566 711.048 797.252 713.054 798.201 717.447C797.252 713.736 793.775 712.003 790.594 712.003C787.487 712.003 784.639 713.654 784.639 716.67C784.639 722.714 799.693 719.644 799.693 728.39C799.693 733.289 795.267 735.581 790.804 735.581C786.008 735.581 781.088 732.92 781.545 727.94C781.335 732.47 785.552 734.531 789.608 734.531Z" fill="#255677"/>
<path d="M543.714 314.123C550.557 311.544 556.142 309.375 561.752 307.328C593.154 295.826 623.114 280.953 650.387 260.049C666.587 247.633 681.321 233.333 693.416 215.936C702.194 203.301 709.012 189.52 713.364 174.306C713.956 172.218 714.831 169.53 713.29 167.716C711.7 165.846 709.493 166.979 707.496 167.675C690.999 173.419 674.478 179.109 657.969 184.799C657.834 184.853 657.686 184.881 657.538 184.935C647.119 188.647 647.132 188.647 645.813 176.789C645.677 175.548 646.219 173.678 644.802 173.392C643.223 173.078 642.829 174.947 642.397 176.312C635.32 198.416 624.483 218.078 611.081 236.13C593.759 259.463 573.045 278.497 550.113 294.625C543.936 298.964 537.34 302.566 530.941 306.51C530.152 307.001 529.326 307.274 528.438 306.905C527.773 305.09 529.166 304.436 529.943 303.74C548.387 287.243 564.711 268.373 579.925 248.356C598.456 223.986 613.917 197.407 624.483 167.661C630.685 150.237 635.505 132.267 636.479 113.451C636.788 107.379 637.811 101.211 636.516 94.9758C635.814 91.6328 634.692 91.7556 632.657 93.0792C624.545 98.3733 616.457 103.708 608.344 109.003C595.904 117.135 583.464 125.253 571.036 133.399C569.285 134.545 568.089 134.109 567.88 131.912C567.386 126.904 566.24 121.719 566.967 116.903C567.658 112.318 571.332 109.03 575.006 106.424C591.983 94.4027 610.489 85.8066 628.823 76.8284C635.012 73.7992 641.374 71.2204 647.687 68.4914C650.929 67.086 652.902 68.355 652.951 72.271C653.136 85.8202 655.738 99.2602 654.603 112.864C653.346 127.887 652.606 143.005 648.093 157.441C647.576 159.12 647.687 161.057 647.082 162.667C646.269 164.782 644.617 167.306 646.306 168.944C647.835 170.417 650.128 168.343 651.903 167.443C660.669 163.022 670.101 161.084 679.274 158.178C688.694 155.203 698.397 153.593 707.866 150.714C716.73 148.026 725.977 146.826 735.088 145.147C737.616 144.683 737.764 146.539 737.616 148.913C736.987 159.188 734.817 169.053 732.425 178.973C729.133 192.617 723.918 205.211 717.433 217.232C713.031 225.378 707.644 232.76 701.997 239.896C701.06 241.083 699.395 242.352 700.789 243.99C702.145 245.572 702.971 243.321 704.043 242.748C708.556 240.387 713.525 240.374 718.271 240.401C732.154 240.469 746.037 239.691 759.944 240.947C769.61 241.82 779.363 241.52 789.066 241.697C795.181 241.82 795.502 242.884 793.529 249.215C790.237 259.776 785.934 269.696 780.349 279.002C769.98 296.317 756.615 310.084 740.686 320.987C725.213 331.575 708.285 338.165 690.827 343.036C674.379 347.621 657.476 349.313 640.511 349.681C624.693 350.022 608.85 349.982 593.08 348.494C584.586 347.689 576.152 346.025 567.633 345.261C565.771 345.097 564.119 344.005 562.381 341.89C566.967 341.413 570.814 342.45 574.673 342.572C586.497 342.927 598.419 343.719 610.144 342.518C620.661 341.44 631.252 341.604 641.793 339.366C649.82 337.66 658.105 336.869 666.18 335.095C678.571 332.366 690.827 328.832 702.478 323.443C717.692 316.402 732.302 308.106 744.841 295.839C754.828 286.07 762.743 274.717 768.488 261.441C769.339 259.476 768.636 258.371 767.12 257.498C764.568 256.038 761.83 255.533 758.995 255.41C739.712 254.551 720.713 257.02 701.824 261.032C698.224 261.796 694.575 262.355 690.95 262.983C690.099 263.133 689.113 263.392 688.681 262.192C688.299 261.127 688.928 260.336 689.544 259.613C691.776 256.993 694.057 254.428 696.227 251.753C697.139 250.634 698.902 249.297 697.435 247.715C696.153 246.336 695.055 248.274 694.143 249.161C684.995 258.207 675.304 266.462 664.849 273.558C650.115 283.573 634.494 291.419 618.146 297.736C606.877 302.089 595.226 304.927 584.031 309.525C580.012 311.176 575.302 310.671 570.937 311.408C564.378 312.513 557.868 313.905 551.321 315.051C549.25 315.433 547.08 315.761 543.714 314.123Z" fill="#BD9323"/>
<path d="M1003.42 373.055C977.185 370.926 950.899 370.572 924.65 371.295C891.743 372.195 858.812 373.423 826.041 377.148C813.478 378.581 800.976 380.532 788.474 382.674C773.938 385.171 759.796 389.278 745.568 393.058C735.101 395.842 724.559 397.383 713.931 399.034C699.753 401.231 685.611 400.672 671.494 400.249C660.201 399.908 648.796 398.721 637.7 396.387C616.407 391.898 595.337 386.099 575.043 377.49C563.577 372.632 552.875 365.932 541.865 359.97C535.589 356.572 531.323 351.101 526.01 346.789C521.719 343.31 519.315 338.152 516.935 333.076C516.269 331.657 515.641 329.528 516.849 328.478C518.415 327.113 519.364 329.337 520.437 330.292C528.796 337.702 538.006 343.323 548.054 347.498C555.489 350.596 562.874 353.734 570.567 355.944C578.421 358.196 586.41 359.642 594.387 361.252C608.628 364.118 623.041 365.018 637.441 365.851C648.204 366.478 659.066 366.533 669.818 365.769C683.515 364.786 697.262 364.527 710.898 362.576C722.007 360.979 733.116 359.438 744.237 357.923C762.065 355.494 779.572 351.114 797.166 347.335C807.831 345.042 818.36 341.972 829.025 339.639C837.236 337.838 845.534 336.433 853.831 335.191C868.491 333.008 883.236 332.421 898.019 333.09C911.137 333.69 924.071 335.546 936.955 338.507C953.883 342.409 970.342 347.867 986.198 355.426C995.247 359.738 1004.08 364.609 1013 369.234C1014.09 369.794 1015.32 370.408 1014.92 372.045C1014.55 373.546 1013.24 373.041 1012.27 373.055C1009.31 373.082 1006.37 373.055 1003.42 373.055Z" fill="#BD9323"/>
<path d="M127.443 333.062C143.705 332.23 159.671 334.7 175.551 337.429C186.857 339.38 197.978 342.641 209.223 345.138C219.024 347.321 228.838 349.504 238.615 351.769C250.735 354.58 262.929 356.668 275.147 358.605C296.464 361.989 317.855 364.418 339.419 365.264C348.271 365.605 357.112 366.124 365.964 365.987C391.374 365.591 416.736 363.859 441.431 356.927C459.691 351.797 477.605 345.042 492.906 332.066C493.374 331.671 493.867 331.302 494.36 330.961C495.766 329.979 496.913 326.881 498.565 328.41C500.315 330.033 498.54 332.585 497.652 334.55C491.895 347.362 481.365 354.485 470.886 361.498C458.976 369.466 446.128 375.47 433.084 380.519C421.667 384.94 409.881 388.364 397.995 391.339C386.258 394.273 374.496 397.015 362.573 398.434C347.174 400.263 331.713 401.231 316.178 400.508C304.54 399.976 292.975 398.475 281.583 396.278C271.115 394.259 261.018 390.029 250.624 387.464C240.144 384.885 229.492 383.193 218.926 381.078C203.958 378.076 188.768 377.176 173.69 375.361C164.455 374.256 155.134 373.846 145.85 373.26C132.288 372.4 118.652 372.741 105.09 371.868C88.6921 370.817 72.2942 371.049 55.9087 371.24C38.6478 371.445 21.3869 372.427 4.12596 372.96C2.72043 373 0.45186 374.242 0.0326662 371.663C-0.300223 369.603 1.99301 369.576 3.18894 368.866C19.3279 359.26 36.1573 351.264 53.6524 345.356C77.6821 337.279 102.23 332.162 127.443 333.062Z" fill="#BD9323"/>
<path d="M467.31 313.905C466.126 315.843 464.893 315.406 463.771 315.27C429.731 310.781 396.922 301.502 365.927 284.951C344.449 273.49 325.203 258.631 309.249 238.9C295.897 222.39 286.132 203.574 280.251 182.288C277.354 171.796 274.962 161.262 274.703 150.223C274.617 146.43 274.826 144.957 279.326 145.693C287.291 147.003 295.095 149.227 303.072 150.51C311.543 151.861 319.816 154.822 328.175 157.018C340.208 160.184 352.204 163.431 363.535 169.067C364.275 169.435 364.965 169.694 365.532 168.985C366.543 167.716 366.358 166.147 365.828 164.81C363.855 159.843 363.14 154.549 362.031 149.336C360.342 141.382 359.22 133.345 358.492 125.24C357.679 116.153 356.828 106.997 357.518 97.8687C358.196 88.9587 358.307 79.9668 359.959 71.1523C360.551 67.9868 361.562 67.1817 364.521 68.4916C387.244 78.6023 409.856 88.9587 431.124 102.549C434.588 104.773 437.708 107.461 440.901 110.122C445.006 113.546 445.771 117.845 445.08 123.084C443.515 135.037 443.552 135.105 434.342 129.101C416.193 117.244 398.094 105.319 379.97 93.4205C376.345 91.0463 375.297 91.6467 375.112 96.1494C374.656 107.434 374.927 118.745 377.171 129.715C379.723 142.2 382.756 154.576 387.071 166.556C393.372 184.062 401.262 200.627 410.485 216.373C417.783 228.844 425.896 240.715 434.736 251.931C449.322 270.447 464.647 288.144 481.945 303.631C482.734 304.34 483.991 305.323 483.252 306.373C481.982 308.174 480.391 306.414 479.393 305.759C469.122 299.019 458.482 292.961 448.853 285.074C436.487 274.963 424.528 264.348 413.801 252.095C396.195 231.982 381.868 209.441 371.82 183.68C370.908 181.347 369.342 179.246 369.502 176.408C369.576 175.207 368.578 174.197 367.456 174.238C365.939 174.293 366.346 175.821 366.223 176.885C366.05 178.331 366.038 179.832 365.693 181.238C364.028 187.896 363.412 188.347 357.568 186.341C342.588 181.183 327.632 175.903 312.677 170.663C309.73 169.64 306.771 168.671 303.849 167.579C301.987 166.884 299.965 166.024 298.437 167.702C297.043 169.23 297.771 171.468 298.276 173.31C302.468 188.62 309.163 202.524 318.04 215.104C336.324 241.029 359.417 260.432 385.296 276.218C400.449 285.456 416.107 293.424 432.172 300.342C443.12 305.063 454.401 308.788 465.535 312.964C466.065 313.182 466.558 313.509 467.31 313.905Z" fill="#BD9323"/>
<path d="M521.423 357.814C521.854 358.414 522.2 358.919 522.57 359.383C540.582 381.747 563.034 396.497 588.198 406.826C602.29 412.611 616.703 416.909 631.449 419.802C639.118 421.303 646.91 422.149 654.677 422.899C676.537 425.014 698.421 424.441 720.182 421.903C736.999 419.938 751.597 425.628 765.258 435.343C782.112 447.337 795.317 463.669 807.732 480.821C808.312 481.626 809.606 482.404 808.57 483.645C807.892 484.45 806.943 483.823 806.105 483.468C789.201 476.332 771.792 470.915 754.149 466.699C734.447 461.991 714.511 458.73 694.303 457.297C681.74 456.41 669.213 456.874 656.674 456.533C627.504 455.742 599.972 448.237 575.141 430.936C561.345 421.33 549.238 409.418 539.3 394.846C532.236 384.489 526.54 373.328 521.078 361.948C520.597 360.939 519.993 359.929 520.375 358.728C520.461 358.401 520.954 358.196 521.423 357.814Z" fill="#BD9323"/>
<path d="M346.41 456.533C325.413 456.124 304.614 458.525 283.901 462.141C261.955 465.962 240.391 471.419 219.468 479.852C216.176 481.175 212.724 482.008 209.555 483.741C208.729 484.191 207.805 484.409 207.065 483.686C206.202 482.826 206.683 481.899 207.275 481.121C222.661 460.954 238.393 441.292 260.118 428.903C274.111 420.92 288.931 421.316 303.886 422.722C326.177 424.823 348.469 424.618 370.674 421.944C385.284 420.184 399.771 417.004 413.826 412.202C437.782 404.015 460.036 392.048 479.479 374.146C484.275 369.726 488.381 364.65 492.671 359.724C493.436 358.851 494.04 357.077 495.384 358.209C496.333 359.014 495.433 360.352 494.965 361.32C487.912 375.988 480.219 390.097 470.121 402.637C458.26 417.373 444.624 429.353 428.744 438.085C413.086 446.709 396.602 452.371 379.082 454.759C368.159 456.26 357.309 456.397 346.41 456.533Z" fill="#BD9323"/>
<path d="M464.783 164.25C464.129 181.074 467.125 203.288 471.194 225.16C474.264 241.656 476.693 258.535 482.808 274.226C483.153 275.127 483.4 276.082 483.622 277.024C483.881 278.17 485.015 279.671 483.437 280.339C482.216 280.858 481.932 279.125 481.439 278.197C476.951 269.587 472.883 260.745 469.159 251.685C463.241 237.277 458.125 222.486 454.562 207.19C452.675 199.085 451.467 190.721 450.148 182.425C448.064 169.271 447.941 156.159 447.818 142.951C447.657 126.345 450.345 110.122 454.315 94.2801C461.897 64.0298 475.361 37.0133 493.497 12.9031C496.604 8.76878 500.303 5.16657 503.657 1.25054C506.233 -1.75129 507.392 1.41427 508.477 2.81967C514.814 11.0065 520.659 19.6299 526.281 28.4444C538.622 47.7653 548.276 68.6417 554.613 91.1691C558.016 103.272 560.174 115.784 561.764 128.46C563.207 140.044 563.786 151.588 563.207 163.118C562.208 182.848 559.409 202.319 553.997 221.258C549.632 236.553 544.355 251.399 537.426 265.494C535.034 270.365 532.445 275.127 529.967 279.944C529.536 280.789 529.203 281.963 528.093 281.526C526.577 280.912 527.427 279.575 527.723 278.62C532.248 263.433 536.206 248.083 538.709 232.324C540.311 222.226 542.099 212.17 543.406 202.005C544.54 193.109 545.157 184.13 545.712 175.289C546.377 164.714 546.809 153.989 545.305 143.155C543.973 133.536 543.418 123.698 541.803 114.106C536.958 85.3155 526.7 59.2951 508.823 37.2862C506.024 33.8341 504.298 33.6294 501.252 37.3408C487.9 53.6053 478.653 72.3531 472.994 93.2704C467.248 114.542 464.783 136.36 464.783 164.25Z" fill="#BD9323"/>
<path d="M518.674 378.731C518.834 377.421 518.378 375.961 519.722 375.593C520.93 375.266 521.559 376.453 522.027 377.449C528.759 391.898 537.796 404.643 547.943 416.118C564.723 435.098 584.216 449.888 607.444 457.912C615.433 460.668 623.608 462.346 631.794 464.174C640.067 466.03 647.921 470.874 655.084 476.373C672.074 489.39 685.525 505.968 696.498 525.303C700.505 532.357 703.969 539.684 707.644 546.902C708.26 548.117 709.431 549.795 708.137 550.886C706.522 552.237 706.078 549.781 705.19 548.976C694.575 539.316 683.281 530.72 671.741 522.519C653.444 509.516 634.26 498.341 613.621 490.645C604.769 487.343 595.608 485.037 586.546 482.458C575.783 479.388 566.462 473.357 558.028 465.58C542.42 451.185 532.445 432.71 525.578 411.724C522.002 400.877 520.831 389.606 518.674 378.731Z" fill="#BD9323"/>
<path d="M496.493 378.226C494.04 408.163 483.967 434.497 465.979 456.929C456.497 468.745 444.402 476.482 431.185 482.185C424.491 485.078 417.278 485.433 410.411 487.657C386.135 495.516 364.078 508.301 342.847 523.174C331.257 531.292 320.223 540.23 309.496 549.672C308.83 550.259 308.177 551.337 307.265 550.518C306.463 549.808 306.858 548.689 307.277 547.816C316.61 528.304 326.856 509.529 341.342 493.974C350.515 484.123 360.453 475.636 371.882 469.141C379.095 465.047 386.887 463.778 394.568 461.964C408.339 458.73 421.334 453.395 433.429 445.495C452.047 433.337 468.58 418.355 480.638 398.325C484.83 391.366 490.711 385.649 493.411 377.571C493.769 376.493 494.607 375.006 496.049 375.647C497.036 376.098 496.53 377.367 496.493 378.226Z" fill="#BD9323"/>
<path d="M448.52 341.89C447.46 343.91 446.486 345.26 444.945 345.356C434.65 345.97 424.515 348.535 414.307 349.286C404.567 350.009 394.654 349.818 384.828 349.927C366.05 350.159 347.396 348.74 329.038 345.083C314.354 342.163 300.114 336.774 286.403 329.883C269.352 321.3 254.606 309.348 242.006 294.107C230.786 280.544 223.413 264.457 217.434 247.51C216.176 243.962 217.89 241.82 221.724 241.738C229.405 241.547 237.111 241.793 244.78 241.206C258.207 240.183 271.645 240.483 285.084 240.196C291.606 240.06 298.018 241.165 304.49 241.342C306.599 241.397 308.115 242.625 309.434 244.222C313.626 249.27 317.781 254.36 321.949 259.435C322.713 260.363 324.057 261.277 323.132 262.669C322.454 263.692 321.258 262.86 320.247 262.683C298.424 258.985 276.7 254.128 254.434 255.41C251.327 255.588 248.306 256.12 245.347 257.239C243.153 258.071 242.709 259.217 243.683 261.646C249.564 276.3 258.613 288.103 269.734 298.2C283.124 310.357 298.166 319.199 314.403 325.476C322.207 328.491 330.246 330.824 338.248 333.253C351.81 337.36 365.705 339.107 379.563 340.635C399.808 342.859 420.151 344.292 440.531 341.918C442.985 341.631 445.512 341.89 448.52 341.89Z" fill="#BD9323"/>
<path d="M582.897 663.932C578.569 663.932 574.229 663.946 569.902 663.919C568.385 663.905 566.795 663.619 566.745 661.531C566.696 659.58 568.065 658.597 569.655 658.816C574.932 659.552 575.524 655.159 575.721 651.434C576.128 643.82 575.857 636.179 575.918 628.538C575.943 625.85 574.87 624.677 572.441 624.69C564.255 624.745 556.081 624.745 547.894 624.718C545.256 624.704 544.047 626.096 544.183 628.975C544.602 637.271 543.542 645.594 545.058 653.89C545.625 656.96 546.254 658.911 549.373 658.911C550.705 658.911 552.061 659.348 552.061 661.217C552.061 663.237 550.791 663.932 549.152 663.932C540.644 663.932 532.15 663.932 523.642 663.891C522.336 663.891 520.844 663.755 520.72 661.899C520.597 659.962 521.904 658.911 523.482 658.952C527.995 659.061 528.858 655.705 528.882 651.939C528.993 634.542 529.141 617.145 528.821 599.748C528.747 595.736 529.277 589.801 522.607 590.36C521.473 590.456 520.511 589.337 520.523 587.89C520.535 586.198 521.768 586.008 522.915 585.994C531.706 585.953 540.484 585.939 549.275 585.939C550.619 585.939 551.95 586.171 552.049 588.081C552.148 589.937 550.989 590.66 549.571 590.51C546.032 590.142 545.441 592.652 544.824 595.668C543.48 602.204 544.59 608.753 544.43 615.275C544.368 617.745 546.106 617.991 547.795 618.004C555.982 618.032 564.156 617.991 572.343 618.045C574.685 618.059 575.955 617.117 575.918 614.334C575.832 608.835 576.054 603.309 575.746 597.824C575.524 594.017 574.661 590.292 569.939 590.456C568.348 590.51 566.93 589.446 567.152 587.577C567.35 585.857 569.014 586.008 570.296 585.912C578.914 585.284 587.532 585.735 596.138 585.967C597.384 585.994 598.949 585.912 599.023 587.904C599.085 589.651 597.864 590.565 596.496 590.442C592.538 590.115 591.589 592.884 591.182 596.35C590.997 597.919 590.689 599.502 590.689 601.085C590.676 617.418 590.701 633.75 590.726 650.083C590.738 654.777 591.022 659.239 596.94 659.007C598.123 658.966 599.184 659.866 599.023 661.367C598.826 663.291 597.494 663.919 595.892 663.919C591.564 663.932 587.224 663.919 582.897 663.919C582.897 663.932 582.897 663.932 582.897 663.932Z" fill="#BD9323"/>
<path d="M412.199 615.984C412.199 609.94 412.137 603.895 412.223 597.864C412.285 593.675 410.744 591.069 406.873 590.551C405.368 590.346 403.716 590.169 403.766 588.081C403.827 585.379 405.948 585.993 407.427 585.966C412.408 585.884 417.377 585.911 422.358 585.939C423.924 585.952 425.872 585.529 426.229 587.958C426.55 590.141 424.873 590.292 423.418 590.701C421.113 591.356 420.225 593.293 419.88 595.804C418.524 605.533 419.325 615.302 419.177 625.058C419.041 633.559 419.572 642.141 416.366 650.178C412.285 660.412 404.9 665.487 394.975 665.992C385.654 666.47 376.321 666.497 368.64 659.143C364.682 655.349 362.611 650.915 361.772 644.72C359.59 628.606 361.23 612.491 360.478 596.404C360.305 592.829 359.479 590.551 355.879 590.51C354.313 590.483 352.821 589.841 352.908 587.835C353.018 585.475 354.93 585.98 356.261 585.98C364.608 585.912 372.955 585.911 381.302 585.939C382.905 585.939 384.902 585.898 384.902 588.34C384.902 590.401 383.077 590.592 381.622 590.523C377.369 590.319 376.913 593.948 376.839 597.005C376.53 611.523 374.965 626.068 377.258 640.559C377.455 641.773 377.714 642.987 377.85 644.215C378.577 650.71 380.759 653.166 386.517 655.336C392.83 657.724 398.908 656.823 404.678 653.971C408.623 652.02 410.83 648.254 411.385 643.096C412.359 634.064 412.149 625.031 412.199 615.984Z" fill="#BD9323"/>
<path d="M786.489 663.946C779.757 663.946 773.013 663.959 766.281 663.932C764.876 663.932 763.125 664.355 762.447 662.54C761.818 660.835 763.359 660.193 764.333 659.32C766.935 656.987 766.775 653.371 766.565 650.478C765.406 634.705 766.417 618.918 766.022 603.145C765.961 600.484 765.813 597.823 765.554 595.19C765.283 592.42 764.087 590.537 761.251 590.551C759.784 590.551 758.132 590.551 758.107 588.286C758.082 586.034 759.722 585.953 761.202 585.953C772.027 585.925 782.839 585.953 793.665 585.884C797.178 585.857 800.692 585.489 804.218 585.42C809.495 585.325 810.445 586.594 809.791 592.284C809.532 594.562 809.483 596.868 809.397 599.174C809.323 601.371 808.657 603.063 806.438 603.199C804.07 603.336 803.281 601.576 803.528 599.379C804.132 594.099 801.05 593.061 797.425 592.693C782.05 591.124 782.05 591.151 782.063 607.852C782.063 609.094 781.841 610.404 782.112 611.564C782.765 614.32 779.659 618.754 783.024 619.628C787.82 620.869 793.159 621.497 798.017 618.836C799.694 617.909 799.57 615.916 799.718 614.143C799.829 612.778 800.483 611.727 801.826 611.727C803.429 611.714 804.194 612.969 804.07 614.525C803.565 621.074 803.392 627.583 804.379 634.118C804.638 635.851 803.713 637.325 802.011 637.53C800.088 637.761 799.78 636.233 799.533 634.473C798.719 628.633 796.673 626.832 791.211 626.832C781.348 626.832 781.471 626.818 781.964 637.502C782.186 642.442 782.013 647.436 781.631 652.361C781.397 655.431 782.223 656.646 784.96 656.605C789.608 656.523 794.269 656.714 798.904 656.523C804.342 656.305 806.549 653.999 807.338 647.995C807.658 645.594 808.472 643.683 810.876 644.024C813.33 644.379 812.923 646.426 812.627 648.541C812.195 651.652 811.986 654.845 812.084 657.983C812.232 662.745 810.173 664.137 806.179 664C799.607 663.768 793.036 663.932 786.452 663.932C786.489 663.932 786.489 663.946 786.489 663.946Z" fill="#BD9323"/>
<path d="M457.78 665.815C450.592 667.193 444.526 664.082 438.546 660.562C437.116 659.716 435.612 658.883 435.723 656.687C435.957 652.088 436.105 647.49 436.561 642.919C436.746 641.118 437.979 639.522 439.792 639.535C441.912 639.563 442.393 641.541 442.159 643.369C441.222 651.079 445.451 654.558 450.999 657.178C457.065 660.043 462.798 659.552 468.346 655.636C474.017 651.611 473.364 645.362 472.772 639.385C472.365 635.265 467.384 631.512 461.959 631.321C457.213 631.157 452.861 629.452 448.471 628.046C435.254 623.83 431.716 605.956 441.197 593.102C447.584 584.438 456.399 583.456 465.486 583.305C469.949 583.237 474.252 584.029 478.518 585.843C481.625 587.167 482.944 588.982 482.586 592.529C482.266 595.695 481.994 598.874 481.736 602.04C481.575 604.114 480.737 605.423 478.727 605.287C476.989 605.164 476.212 603.936 476.2 602.081C476.163 597.782 475.287 594.194 471.058 592.516C463.649 589.582 456.522 588.995 451.011 596.377C446.881 601.903 450.308 611.55 456.276 614.211C461.022 616.326 466.016 615.821 470.812 617.363C478.012 619.696 484.929 622.275 486.285 631.608C487.839 642.278 486.248 652.02 477.593 659.102C471.564 664.068 465.288 667.234 457.78 665.815Z" fill="#BD9323"/>
<path d="M325.734 624.772C325.734 633.464 325.758 642.169 325.721 650.861C325.709 655.404 326.424 659.13 331.664 658.925C333.094 658.87 334.253 659.593 334.155 661.408C334.068 663.086 333.008 663.891 331.541 663.891C322.725 663.891 313.898 663.892 305.082 663.837C303.689 663.823 302.481 663.127 302.407 661.408C302.321 659.621 303.554 658.829 304.922 658.857C309.447 658.952 310.002 655.95 309.989 651.871C309.965 633.6 310.076 615.316 310.236 597.046C310.261 593.853 309.237 592.462 306.315 592.612C303.911 592.748 301.495 592.775 299.103 592.598C294.541 592.243 291.496 593.499 291.964 599.543C292.137 601.794 290.978 603.364 288.771 603.186C286.687 603.022 286.367 601.249 286.342 599.325C286.317 597.019 286.169 594.713 286.157 592.407C286.083 585.475 287.106 584.766 293.444 585.216C302.506 585.857 311.568 585.803 320.667 585.544C329.26 585.298 337.903 586.28 346.521 585.448C347.655 585.339 349.061 585.871 349.307 587.113C350.281 591.97 349.85 596.896 349.196 601.754C349.036 602.913 347.631 603.473 346.398 603.254C344.856 602.995 344.462 601.781 344.228 600.225C343.069 592.666 343.044 592.666 336.214 592.625C325.684 592.543 325.685 592.543 325.685 604.005C325.685 610.923 325.685 617.854 325.685 624.772C325.721 624.772 325.721 624.772 325.734 624.772Z" fill="#BD9323"/>
<path d="M728.172 624.84C728.172 633.368 728.16 641.896 728.184 650.424C728.197 655.008 728.702 659.17 734.275 658.965C735.471 658.924 736.568 659.525 736.568 661.094C736.568 662.513 735.643 663.359 734.497 663.687C733.584 663.946 732.586 663.932 731.624 663.932C724.239 663.959 716.854 663.932 709.468 663.973C707.483 663.987 705.092 664.11 704.796 661.476C704.475 658.583 707.027 659.17 708.642 658.925C712.921 658.283 712.81 654.599 712.822 651.256C712.896 635.442 712.896 619.628 712.871 603.814C712.847 591.151 714.129 592.707 702.959 592.666C695.943 592.639 695.906 592.666 694.513 600.293C694.23 601.862 693.662 603.049 692.195 603.213C690.629 603.391 689.988 602.108 689.532 600.689C688.201 596.527 688.632 592.257 689.076 588.054C689.286 586.075 690.95 585.803 692.762 585.612C707.151 584.056 721.526 586.949 735.939 585.475C740.267 585.025 744.866 585.857 749.353 585.953C749.822 585.966 750.352 586.021 750.747 586.253C752.966 587.576 752.448 589.951 752.177 591.943C751.671 595.654 753.767 600.116 750.401 602.913C748.725 604.318 747.689 602.517 747.393 600.361C746.358 592.87 746.062 592.639 739.219 592.652C728.147 592.666 728.147 592.666 728.147 605.123C728.172 611.687 728.172 618.263 728.172 624.84Z" fill="#BD9323"/>
<path d="M848.653 663.946C841.749 663.946 834.844 663.959 827.94 663.946C826.695 663.946 825.092 664.328 824.5 662.759C823.847 661.053 825.4 660.316 826.362 659.497C828.199 657.901 828.655 655.8 828.655 653.371C828.643 636.138 828.926 618.891 828.519 601.671C828.409 596.977 829.185 590.223 821.677 590.21C820.752 590.21 820 589.063 820.284 587.808C820.542 586.662 821.393 586.048 822.441 586.048C831.589 586.007 840.738 585.993 849.886 586.021C851.107 586.021 852.105 586.744 852.081 588.272C852.056 589.787 851.02 590.619 849.837 590.496C844.399 589.923 843.956 593.662 843.968 598.233C843.993 616.175 843.894 634.118 843.857 652.061C843.857 654.053 843.82 656.455 846.261 656.427C852.315 656.345 858.393 657.369 864.434 655.772C868.01 654.831 869.613 652.58 869.687 648.704C869.736 645.975 870.192 643.315 873.361 643.983C876.369 644.611 875.531 647.231 874.988 649.537C874.507 651.597 874.051 653.671 873.842 655.786C873.028 663.918 873.065 663.932 865.519 663.932C859.897 663.932 854.275 663.932 848.653 663.946Z" fill="#BD9323"/>
<path d="M167.797 663.959C160.732 663.973 153.667 663.973 146.603 663.959C145.357 663.959 143.767 664.26 143.348 662.527C143.002 661.149 144.297 660.371 145.172 659.661C147.663 657.683 148.205 654.981 148.181 651.747C148.107 635.224 148.156 618.7 148.193 602.176C148.193 600.02 147.811 597.974 147.33 595.9C146.615 592.802 145.9 590.032 142.127 590.455C140.759 590.605 139.501 589.609 139.464 587.999C139.415 586.034 140.993 585.98 142.263 585.966C151.09 585.939 159.918 585.939 168.746 585.98C170.04 585.98 171.508 586.13 171.409 588.149C171.323 589.91 170.09 590.592 168.709 590.483C163.999 590.114 163.025 593.198 163.037 597.51C163.074 615.453 163.124 633.395 163 651.338C162.976 655.268 164.221 656.782 167.784 656.605C172.112 656.387 176.464 656.823 180.779 656.537C185.279 656.237 188.978 654.626 188.879 648.377C188.842 645.907 189.816 643.356 192.504 644.065C194.908 644.693 194.588 647.422 193.947 649.441C192.948 652.539 192.714 655.704 192.911 658.897C193.158 662.936 191.493 664.123 188.029 664.014C181.285 663.796 174.541 663.946 167.797 663.959Z" fill="#BD9323"/>
<path d="M278.772 621.361C278.266 601.235 266.739 582.337 239.577 583.183C218.457 583.838 203.403 599.147 202.873 624.772C202.355 649.823 218.42 667.016 239.109 666.02C259.834 667.37 279.512 650.738 278.772 621.361ZM257.294 649.933C253.226 656.823 247.086 659.457 239.861 658.652C231.921 657.765 226.114 653.289 222.834 645.061C219.998 637.953 218.963 630.503 219.407 622.821C219.037 615.971 219.875 609.422 222.23 603.036C225.127 595.176 230.897 591.724 237.851 590.796C245.014 589.841 251.66 591.956 256.148 598.779C264.519 611.509 265.074 636.752 257.294 649.933Z" fill="#BD9323"/>
<path d="M645.542 583.046C622.054 583.346 606.766 601.657 607.321 627.023C607.814 649.428 623.534 667.548 646.331 666.265C665.614 665.173 684.366 649.346 683.146 622.684C684.638 599.42 667.993 582.759 645.542 583.046ZM662.877 648.008C659.375 655.977 653.013 659.374 645.048 658.774C637.034 658.174 631.03 653.985 627.714 645.798C624.73 638.443 623.189 630.666 623.534 622.084C623.127 617.867 623.965 613.324 625.001 608.875C627.64 597.591 633.323 591.615 642.04 590.632C652.298 589.473 660.275 594.098 664.183 605.178C669.201 619.436 669.016 634.064 662.877 648.008Z" fill="#BD9323"/>
</svg>
