<svg width="1000" height="948" viewBox="0 0 1000 948" fill="none" xmlns="http://www.w3.org/2000/svg">
<path d="M0 665.6H8.0888V698.479H46.7465V665.6H54.7454V732.894H46.7465V700.015H8.0888V732.894H0V665.6Z" fill="#83673F"/>
<path d="M84.8761 665.6H123.893L124.949 671.758C124.949 671.758 124.242 671.66 124.163 671.475C123.017 669.361 114.939 667.149 102.02 667.149H92.8863V731.358H104.402C120.399 731.358 126.893 727.609 127.511 726.072C127.601 725.79 128.219 725.79 128.219 725.79L125.848 732.906H84.8986V665.6H84.8761ZM99.5483 695.689C103.761 695.689 109.39 700.114 113.782 700.114C115.456 700.114 116.95 699.438 118.085 697.803C116.849 700.79 115.097 701.847 113.164 701.847C108.862 701.847 103.413 697.238 99.1888 697.238C96.9868 697.238 95.1444 698.393 93.9198 701.945C94.9759 697.139 96.9981 695.689 99.5483 695.689Z" fill="#83673F"/>
<path d="M154.901 665.6H171.685C189.087 665.6 196.547 675.114 196.547 684.443C196.547 692.714 190.66 700.79 180.38 701.748C198.569 705.399 196.288 734.332 207.444 732.894C205.242 733.57 203.231 733.951 201.467 733.951C185.211 733.951 187.941 705.595 175.46 701.65C172.033 701.269 168.168 700.114 163.944 698.098C167.022 699.057 169.741 699.45 172.291 699.45C182.841 699.45 188.199 692.051 188.199 684.258C188.199 675.986 182.054 667.333 169.573 667.149L162.978 667.247V732.906H154.889V665.6H154.901Z" fill="#83673F"/>
<path d="M231.081 665.6H239.17V732.894H231.081V665.6Z" fill="#83673F"/>
<path d="M288.107 732.896V667.139H286.433C268.683 667.139 268.503 671.084 265.694 674.059C265.604 674.341 265.076 674.341 265.076 674.341L267.717 665.59H316.395L319.035 674.341C319.035 674.341 318.507 674.341 318.418 674.059C317.103 672.424 315.519 667.139 297.679 667.139H296.095V732.896H288.107Z" fill="#83673F"/>
<path d="M396.183 732.896H387.308L383.791 725.399C378.691 715.984 367.097 706.839 356.727 706.839C351.897 706.839 347.324 708.953 343.898 713.956C346.886 707.994 351.627 705.684 356.986 705.684C364.985 705.684 374.298 711.166 380.533 718.368L360.502 675.202L341.347 716.635C339.325 721.06 338.629 724.612 338.629 727.205C338.629 730.094 339.505 731.815 340.303 732.11C340.651 732.208 340.651 732.884 340.651 732.884H332.304L363.502 665.59H364.996L396.183 732.896Z" fill="#83673F"/>
<path d="M464.544 727.99V700.213H442.929V698.873H472.273V732.907L464.634 729.441C461.645 732.612 457.522 734.345 449.872 734.345C425.706 734.345 413.674 716.756 413.674 699.254C413.674 676.761 429.672 664.74 447.939 664.74C460.589 664.74 464.903 670.026 464.903 674.254C464.903 677.425 462.443 680.117 459.275 679.158C459.275 670.984 451.714 666.375 445.299 666.375C429.223 666.375 421.932 679.06 421.932 693.293C421.932 711.459 433.795 732.133 454.354 732.133C459.264 732.12 462.162 730.584 464.544 727.99Z" fill="#83673F"/>
<path d="M501.797 665.6H540.815L541.871 671.758C541.871 671.758 541.163 671.66 541.084 671.475C539.938 669.361 531.861 667.149 518.941 667.149H509.808V731.358H521.323C537.309 731.358 543.814 727.609 544.432 726.072C544.522 725.79 545.14 725.79 545.14 725.79L542.769 732.906H501.797V665.6ZM516.47 695.689C520.683 695.689 526.311 700.114 530.704 700.114C532.378 700.114 533.861 699.438 535.006 697.803C533.782 700.79 532.018 701.847 530.086 701.847C525.783 701.847 520.334 697.238 516.11 697.238C513.908 697.238 512.066 698.393 510.841 701.945C511.897 697.139 513.919 695.689 516.47 695.689Z" fill="#83673F"/>
<path d="M629.982 665.6H638.071V698.479H676.729V665.6H684.728V732.894H676.729V700.015H638.071V732.894H629.982V665.6Z" fill="#83673F"/>
<path d="M784.096 699.254C784.096 716.757 772.053 734.345 747.899 734.345C723.824 734.345 711.78 716.757 711.78 699.254C711.78 681.666 723.824 664.163 747.899 664.163C772.064 664.163 784.096 681.653 784.096 699.254ZM775.839 705.117C775.839 686.951 763.976 666.375 743.417 666.375C727.34 666.375 720.049 679.06 720.049 693.293C720.049 711.459 731.823 732.133 752.382 732.133C768.548 732.121 775.839 719.338 775.839 705.117Z" fill="#83673F"/>
<path d="M829.787 732.896V667.139H828.113C810.362 667.139 810.182 671.084 807.374 674.059C807.284 674.341 806.756 674.341 806.756 674.341L809.396 665.59H858.075L860.715 674.341C860.715 674.341 860.187 674.341 860.097 674.059C858.783 672.424 857.199 667.139 839.358 667.139H837.774V732.896H829.787Z" fill="#83673F"/>
<path d="M886.465 665.6H925.482L926.538 671.758C926.538 671.758 925.83 671.66 925.751 671.475C924.606 669.361 916.528 667.149 903.608 667.149H894.475V731.358H905.979C921.977 731.358 928.47 727.609 929.088 726.072C929.178 725.79 929.796 725.79 929.796 725.79L927.425 732.906H886.465V665.6ZM901.137 695.689C905.35 695.689 910.978 700.114 915.371 700.114C917.045 700.114 918.528 699.438 919.674 697.803C918.449 700.79 916.685 701.847 914.753 701.847C910.45 701.847 905.001 697.238 900.777 697.238C898.575 697.238 896.733 698.393 895.508 701.945C896.564 697.139 898.587 695.689 901.137 695.689Z" fill="#83673F"/>
<path d="M997.528 732.894H956.489V665.6H964.578V731.358H976.003C992.08 731.358 998.764 727.129 999.292 725.593C999.472 725.31 1000 725.31 1000 725.31L997.528 732.894Z" fill="#83673F"/>
<path d="M149.62 907.5H156.181C157.54 907.5 158.754 907.242 159.843 906.738C160.922 906.234 161.776 905.485 162.405 904.514C163.023 903.543 163.337 902.35 163.337 900.949C163.337 898.835 162.663 897.188 161.304 896.021C159.944 894.853 158.248 894.275 156.192 894.275H150.676V929.231H156.776C158.518 929.231 160.057 928.887 161.394 928.211C162.731 927.535 163.775 926.564 164.528 925.286C165.281 924.007 165.663 922.471 165.663 920.64C165.663 919.288 165.449 918.071 165.022 917.014C164.595 915.957 163.989 915.072 163.191 914.347C162.394 913.621 161.461 913.081 160.371 912.724C159.282 912.368 158.091 912.183 156.765 912.183H149.62V909.197H156.765C158.742 909.197 160.562 909.43 162.225 909.897C163.888 910.364 165.348 911.077 166.606 912.024C167.865 912.982 168.842 914.199 169.539 915.674C170.235 917.161 170.583 918.919 170.583 920.947C170.583 923.872 169.977 926.294 168.752 928.223C167.528 930.153 165.887 931.591 163.809 932.55C161.742 933.508 159.383 933.976 156.754 933.976H145.71V889.482H156.17C158.608 889.482 160.731 889.887 162.528 890.686C164.326 891.497 165.73 892.714 166.741 894.337C167.752 895.971 168.247 898.061 168.247 900.593C168.247 902.67 167.741 904.452 166.741 905.927C165.73 907.414 164.326 908.533 162.528 909.295C160.731 910.057 158.608 910.438 156.17 910.438H149.609V907.5H149.62Z" fill="#83673F"/>
<path d="M181.627 948H176.403L183.728 929.883L173.505 904.772H179.021L187.503 927.658L185.582 927.4L193.828 904.772H199.052L181.627 948Z" fill="#83673F"/>
<path d="M225.587 925.237C226.61 926.589 227.767 927.646 229.047 928.42C230.328 929.182 231.777 929.563 233.406 929.563C235.575 929.563 237.316 928.912 238.63 927.597C239.945 926.282 240.608 924.61 240.608 922.582C240.608 920.591 240.181 919.005 239.327 917.813C238.473 916.633 237.361 915.662 235.99 914.925C234.62 914.187 233.148 913.511 231.609 912.921C230.598 912.54 229.474 912.048 228.239 911.422C227.003 910.807 225.812 910.02 224.7 909.074C223.576 908.115 222.655 906.948 221.936 905.546C221.217 904.145 220.857 902.437 220.857 900.396C220.857 898.196 221.363 896.217 222.363 894.484C223.374 892.751 224.767 891.375 226.542 890.379C228.328 889.384 230.362 888.892 232.642 888.892C234.856 888.892 236.777 889.347 238.428 890.256C240.08 891.166 241.484 892.333 242.641 893.747C243.798 895.173 244.708 896.66 245.371 898.233L241.136 900.9C240.63 899.794 239.99 898.713 239.215 897.656C238.439 896.598 237.496 895.726 236.395 895.05C235.294 894.374 233.946 894.03 232.362 894.03C230.148 894.03 228.542 894.607 227.542 895.775C226.531 896.943 226.037 898.245 226.037 899.684C226.037 900.913 226.329 902.043 226.913 903.088C227.497 904.133 228.474 905.104 229.845 906.013C231.216 906.923 233.092 907.82 235.451 908.718C236.53 909.135 237.675 909.688 238.878 910.364C240.08 911.041 241.192 911.901 242.214 912.933C243.237 913.978 244.079 915.219 244.742 916.682C245.405 918.145 245.731 919.89 245.731 921.93C245.731 923.885 245.394 925.642 244.708 927.203C244.034 928.777 243.102 930.104 241.922 931.21C240.742 932.316 239.406 933.165 237.911 933.755C236.417 934.344 234.867 934.639 233.238 934.639C231.025 934.639 228.991 934.123 227.104 933.078C225.228 932.046 223.576 930.669 222.161 928.949C220.745 927.228 219.599 925.397 218.701 923.455L222.655 920.529C223.576 922.311 224.554 923.885 225.587 925.237Z" fill="#83673F"/>
<path d="M256.437 932.71C254.516 931.419 253.033 929.625 251.966 927.339C250.899 925.052 250.371 922.398 250.371 919.399C250.371 916.35 250.921 913.671 252.022 911.385C253.123 909.099 254.674 907.316 256.673 906.05C258.673 904.784 260.976 904.145 263.616 904.145C266.245 904.145 268.503 904.748 270.379 905.952C272.255 907.157 273.705 908.89 274.705 911.127C275.716 913.376 276.21 916.043 276.21 919.14C276.21 919.435 276.199 919.743 276.176 920.062C276.154 920.382 276.143 920.578 276.143 920.665H253.314V916.338H272.491L270.638 919.263C270.75 919.054 270.874 918.723 270.986 918.28C271.098 917.838 271.166 917.469 271.166 917.162C271.166 915.429 270.851 913.917 270.211 912.651C269.57 911.385 268.694 910.389 267.571 909.664C266.447 908.939 265.133 908.582 263.616 908.582C261.83 908.582 260.313 909 259.055 909.824C257.797 910.647 256.831 911.84 256.145 913.388C255.471 914.937 255.112 916.83 255.067 919.079C255.067 921.365 255.393 923.319 256.055 924.93C256.718 926.54 257.684 927.769 258.965 928.617C260.246 929.465 261.796 929.883 263.616 929.883C265.436 929.883 267.043 929.453 268.436 928.58C269.829 927.707 271.008 926.392 271.975 924.61L275.749 927.216C274.356 929.674 272.604 931.53 270.492 932.784C268.38 934.037 265.897 934.664 263.021 934.664C260.549 934.652 258.358 934 256.437 932.71Z" fill="#83673F"/>
<path d="M287.253 934.013H282.602V904.773H287.253V934.013ZM293.646 909.247C293.14 909.013 292.5 908.89 291.725 908.89C290.567 908.89 289.646 909.21 288.995 909.849C288.332 910.488 287.882 911.348 287.624 912.455C287.366 913.561 287.242 914.802 287.242 916.203H285.152C285.152 913.868 285.534 911.803 286.287 910.009C287.04 908.214 288.017 906.776 289.219 905.719C290.421 904.662 291.635 904.134 292.882 904.134C293.848 904.134 294.747 904.269 295.578 904.551C296.409 904.822 297.173 905.363 297.87 906.174L295.308 910.365C294.713 909.861 294.151 909.48 293.646 909.247Z" fill="#83673F"/>
<path d="M305.419 932.71C303.498 931.419 302.015 929.625 300.948 927.339C299.881 925.052 299.353 922.398 299.353 919.399C299.353 916.35 299.903 913.671 301.004 911.385C302.105 909.099 303.655 907.316 305.655 906.05C307.655 904.784 309.958 904.145 312.598 904.145C315.227 904.145 317.485 904.748 319.361 905.952C321.237 907.157 322.686 908.89 323.686 911.127C324.697 913.376 325.192 916.043 325.192 919.14C325.192 919.435 325.181 919.743 325.158 920.062C325.136 920.382 325.124 920.578 325.124 920.665H302.296V916.338H321.473L319.619 919.263C319.732 919.054 319.855 918.723 319.968 918.28C320.08 917.838 320.147 917.469 320.147 917.162C320.147 915.429 319.833 913.917 319.193 912.651C318.552 911.385 317.676 910.389 316.552 909.664C315.429 908.939 314.115 908.582 312.598 908.582C310.812 908.582 309.295 909 308.037 909.824C306.778 910.647 305.812 911.84 305.127 913.388C304.453 914.937 304.093 916.83 304.049 919.079C304.049 921.365 304.374 923.319 305.037 924.93C305.7 926.54 306.666 927.769 307.947 928.617C309.228 929.465 310.778 929.883 312.598 929.883C314.418 929.883 316.024 929.453 317.417 928.58C318.811 927.707 319.99 926.392 320.956 924.61L324.731 927.216C323.338 929.674 321.585 931.53 319.473 932.784C317.361 934.037 314.879 934.664 312.002 934.664C309.531 934.652 307.329 934 305.419 932.71Z" fill="#83673F"/>
<path d="M347.279 910.745C346.313 909.516 344.897 908.901 343.032 908.901C341.673 908.901 340.482 909.209 339.46 909.823C338.437 910.438 337.64 911.298 337.078 912.392C336.516 913.498 336.235 914.764 336.235 916.202V934H331.584V904.759H336.235V909.332C337.123 907.549 338.235 906.234 339.572 905.386C340.909 904.538 342.448 904.12 344.189 904.12C347.02 904.12 349.256 905.153 350.896 907.205C352.536 909.258 353.368 912.048 353.368 915.563V934H348.717V916.215C348.728 913.793 348.245 911.974 347.279 910.745Z" fill="#83673F"/>
<path d="M361.569 911.224C362.771 908.962 364.378 907.204 366.388 905.975C368.399 904.746 370.613 904.132 373.017 904.132C375.264 904.132 377.218 904.746 378.881 905.975C380.544 907.204 381.858 908.95 382.802 911.224C383.746 913.498 384.229 916.214 384.229 919.397C384.229 922.532 383.757 925.248 382.802 927.534C381.847 929.82 380.544 931.578 378.881 932.807C377.218 934.036 375.264 934.651 373.017 934.651C370.613 934.651 368.411 934.036 366.388 932.807C364.378 931.578 362.771 929.82 361.569 927.534C360.367 925.248 359.771 922.532 359.771 919.397C359.771 916.214 360.367 913.485 361.569 911.224ZM365.726 925.113C366.557 926.686 367.669 927.866 369.062 928.677C370.455 929.488 371.972 929.882 373.59 929.882C374.949 929.882 376.286 929.476 377.6 928.677C378.915 927.866 380.005 926.686 380.858 925.113C381.712 923.539 382.139 921.634 382.139 919.397C382.139 917.16 381.712 915.243 380.858 913.67C380.005 912.109 378.926 910.916 377.6 910.105C376.286 909.294 374.949 908.901 373.59 908.901C371.961 908.901 370.455 909.306 369.062 910.105C367.669 910.904 366.557 912.096 365.726 913.67C364.894 915.243 364.479 917.148 364.479 919.397C364.479 921.647 364.894 923.539 365.726 925.113ZM386.779 884.429V934.011H382.128V884.429H386.779Z" fill="#83673F"/>
<path d="M396.171 890.219C396.812 889.543 397.553 889.199 398.407 889.199C399.294 889.199 400.058 889.543 400.676 890.219C401.294 890.895 401.609 891.718 401.609 892.702C401.609 893.636 401.294 894.447 400.676 895.148C400.058 895.848 399.306 896.192 398.407 896.192C397.553 896.192 396.812 895.848 396.171 895.148C395.531 894.447 395.216 893.636 395.216 892.702C395.205 891.718 395.531 890.895 396.171 890.219ZM400.732 904.772V934.012H396.081V904.772H400.732Z" fill="#83673F"/>
<path d="M414.674 934.011H410.023V884.429H414.674V934.011ZM435.245 927.522C434.042 929.808 432.447 931.565 430.447 932.795C428.448 934.024 426.234 934.638 423.797 934.638C421.595 934.638 419.64 934.024 417.955 932.795C416.27 931.565 414.955 929.808 414 927.522C413.045 925.236 412.573 922.519 412.573 919.385C412.573 916.202 413.045 913.485 414 911.211C414.944 908.95 416.27 907.192 417.955 905.963C419.64 904.734 421.583 904.119 423.797 904.119C426.234 904.119 428.459 904.734 430.447 905.963C432.447 907.192 434.042 908.938 435.245 911.211C436.447 913.485 437.042 916.202 437.042 919.385C437.042 922.532 436.447 925.236 435.245 927.522ZM431.088 913.67C430.256 912.109 429.155 910.916 427.774 910.105C426.403 909.294 424.875 908.901 423.212 908.901C421.853 908.901 420.516 909.306 419.202 910.105C417.887 910.916 416.798 912.096 415.944 913.67C415.09 915.243 414.663 917.148 414.663 919.397C414.663 921.647 415.09 923.552 415.944 925.113C416.798 926.686 417.876 927.866 419.202 928.677C420.516 929.488 421.853 929.882 423.212 929.882C424.875 929.882 426.403 929.476 427.774 928.677C429.144 927.866 430.256 926.686 431.088 925.113C431.919 923.539 432.335 921.634 432.335 919.397C432.335 917.16 431.919 915.243 431.088 913.67Z" fill="#83673F"/>
<path d="M466.094 889.518V934.011H461.151V889.518H466.094ZM463.881 907.315H491.765V912.404H463.881V907.315ZM493.394 889.518V934.011H488.45V889.518H493.394Z" fill="#83673F"/>
<path d="M501.91 911.508C503.134 909.222 504.786 907.415 506.875 906.1C508.965 904.785 511.313 904.134 513.908 904.134C516.537 904.134 518.896 904.785 520.963 906.1C523.03 907.415 524.682 909.21 525.906 911.508C527.131 913.794 527.738 916.425 527.738 919.387C527.738 922.312 527.131 924.93 525.906 927.241C524.682 929.552 523.042 931.358 520.963 932.674C518.885 933.989 516.537 934.64 513.908 934.64C511.313 934.64 508.965 933.989 506.875 932.674C504.786 931.358 503.134 929.552 501.91 927.241C500.685 924.93 500.078 922.312 500.078 919.387C500.078 916.425 500.696 913.794 501.91 911.508ZM505.977 924.795C506.774 926.368 507.853 927.597 509.235 928.519C510.605 929.429 512.167 929.883 513.908 929.883C515.649 929.883 517.211 929.429 518.582 928.519C519.952 927.61 521.042 926.368 521.84 924.795C522.637 923.222 523.03 921.427 523.03 919.387C523.03 917.347 522.637 915.54 521.84 913.954C521.042 912.369 519.963 911.127 518.582 910.23C517.211 909.345 515.649 908.89 513.908 908.89C512.167 908.89 510.605 909.333 509.235 910.23C507.864 911.115 506.774 912.356 505.977 913.954C505.179 915.552 504.786 917.359 504.786 919.387C504.786 921.427 505.179 923.222 505.977 924.795Z" fill="#83673F"/>
<path d="M543.421 904.771V909.54H530.063V904.771H543.421ZM539.062 894.594V933.999H534.411V894.594H539.062Z" fill="#83673F"/>
<path d="M551.813 932.71C549.892 931.419 548.409 929.625 547.341 927.339C546.274 925.052 545.746 922.398 545.746 919.399C545.746 916.35 546.297 913.671 547.398 911.385C548.499 909.099 550.049 907.316 552.049 906.05C554.048 904.784 556.351 904.145 558.992 904.145C561.62 904.145 563.879 904.748 565.755 905.952C567.631 907.157 569.08 908.89 570.08 911.127C571.091 913.376 571.597 916.043 571.597 919.14C571.597 919.435 571.585 919.743 571.563 920.062C571.54 920.382 571.529 920.578 571.529 920.665H548.701V916.338H567.878L566.024 919.263C566.137 919.054 566.26 918.723 566.373 918.28C566.485 917.838 566.552 917.469 566.552 917.162C566.552 915.429 566.238 913.917 565.597 912.651C564.957 911.385 564.081 910.389 562.957 909.664C561.834 908.939 560.519 908.582 559.003 908.582C557.217 908.582 555.7 909 554.442 909.824C553.183 910.647 552.217 911.84 551.532 913.388C550.858 914.937 550.498 916.83 550.453 919.079C550.453 921.365 550.779 923.319 551.442 924.93C552.105 926.54 553.071 927.769 554.352 928.617C555.632 929.465 557.183 929.883 559.003 929.883C560.823 929.883 562.429 929.453 563.822 928.58C565.215 927.707 566.395 926.392 567.373 924.61L571.147 927.216C569.754 929.674 568.002 931.53 565.89 932.784C563.777 934.037 561.295 934.664 558.419 934.664C555.936 934.652 553.734 934 551.813 932.71Z" fill="#83673F"/>
<path d="M582.64 884.429V934.011H577.989V884.429H582.64Z" fill="#83673F"/>
<path d="M594.324 927.524C595.02 928.286 595.829 928.888 596.739 929.33C597.649 929.773 598.649 929.994 599.728 929.994C601.042 929.994 602.076 929.662 602.84 929.011C603.592 928.359 603.974 927.45 603.974 926.307C603.974 925.287 603.671 924.426 603.076 923.738C602.469 923.037 601.705 922.447 600.784 921.956C599.851 921.464 598.863 921.009 597.818 920.591C596.661 920.087 595.481 919.473 594.301 918.785C593.122 918.084 592.133 917.174 591.336 916.056C590.538 914.937 590.145 913.524 590.145 911.828C590.145 910.095 590.56 908.644 591.392 907.501C592.223 906.358 593.313 905.51 594.65 904.957C595.987 904.404 597.368 904.134 598.806 904.134C600.233 904.134 601.581 904.392 602.84 904.896C604.098 905.4 605.21 906.088 606.176 906.936C607.142 907.784 607.895 908.755 608.446 909.861L604.727 912.467C603.986 911.361 603.076 910.451 601.963 909.738C600.862 909.013 599.615 908.657 598.211 908.657C597.245 908.657 596.413 908.89 595.717 909.357C595.02 909.824 594.672 910.55 594.672 911.521C594.672 912.283 594.942 912.959 595.481 913.549C596.02 914.139 596.717 914.667 597.571 915.134C598.424 915.601 599.312 916.044 600.244 916.474C601.795 917.15 603.21 917.887 604.491 918.662C605.772 919.448 606.783 920.395 607.547 921.489C608.3 922.595 608.681 924.008 608.681 925.741C608.681 928.286 607.839 930.4 606.154 932.096C604.469 933.792 602.255 934.64 599.503 934.64C597.717 934.64 596.11 934.284 594.683 933.595C593.245 932.895 592.043 931.998 591.055 930.891C590.066 929.785 589.325 928.667 588.819 927.524L592.481 925.041C592.998 925.938 593.616 926.762 594.324 927.524Z" fill="#83673F"/>
<path d="M638.386 906.776C637.397 905.694 636.521 904.477 635.768 903.125C635.015 901.773 634.633 900.286 634.633 898.676C634.633 896.685 635.06 894.952 635.914 893.465C636.768 891.977 637.936 890.834 639.43 890.035C640.924 889.236 642.632 888.831 644.576 888.831C646.632 888.831 648.384 889.298 649.833 890.232C651.283 891.166 652.395 892.383 653.17 893.883C653.945 895.382 654.327 897.029 654.327 898.811C654.327 899.868 654.136 900.913 653.743 901.921C653.35 902.929 652.799 903.949 652.058 904.945C651.316 905.94 650.429 906.899 649.384 907.808C648.339 908.718 647.137 909.615 645.778 910.512C644.733 911.188 643.587 911.877 642.351 912.577C641.116 913.278 639.936 914.065 638.835 914.925C637.734 915.798 636.835 916.805 636.127 917.948C635.431 919.092 635.083 920.468 635.083 922.078C635.083 923.688 635.465 925.09 636.217 926.27C636.97 927.462 637.992 928.371 639.273 928.998C640.554 929.637 641.969 929.957 643.52 929.957C645.373 929.957 647.171 929.514 648.89 928.617C650.609 927.732 652.271 926.528 653.855 925.028C655.439 923.529 656.979 921.82 658.473 919.915C659.967 918.01 661.405 916.019 662.798 913.942L666.404 916.424C664.854 918.624 663.27 920.825 661.641 923C660.012 925.188 658.271 927.142 656.406 928.875C654.552 930.608 652.53 932.01 650.361 933.067C648.193 934.124 645.812 934.652 643.216 934.652C641.014 934.652 638.902 934.148 636.914 933.153C634.914 932.157 633.296 930.744 632.038 928.9C630.78 927.056 630.151 924.881 630.151 922.386C630.151 920.517 630.454 918.895 631.049 917.494C631.645 916.092 632.42 914.863 633.375 913.806C634.319 912.749 635.363 911.84 636.487 911.078C637.61 910.316 638.711 909.652 639.801 909.074C640.891 908.497 641.812 907.98 642.587 907.513C644.755 906.161 646.474 904.723 647.733 903.224C648.991 901.724 649.62 900.249 649.62 898.811C649.62 897.705 649.418 896.759 649.013 895.947C648.609 895.148 648.036 894.509 647.294 894.042C646.553 893.575 645.643 893.342 644.564 893.342C642.98 893.342 641.733 893.833 640.846 894.804C639.958 895.775 639.509 897.066 639.509 898.676C639.509 900.114 640.026 901.491 641.082 902.806C642.127 904.121 643.228 905.522 644.396 906.997L665.899 934.013H660.326L640.801 909.603C640.183 908.792 639.374 907.857 638.386 906.776Z" fill="#83673F"/>
<path d="M694.075 889.518V934.011H689.131V889.518H694.075ZM691.873 889.518H700.186C702.815 889.518 705.174 890.058 707.241 891.14C709.308 892.222 710.96 893.758 712.184 895.749C713.409 897.74 714.016 900.112 714.016 902.866C714.016 905.582 713.409 907.942 712.184 909.958C710.96 911.973 709.32 913.522 707.241 914.604C705.174 915.685 702.815 916.226 700.186 916.226H691.873V911.457H700.186C701.927 911.457 703.466 911.113 704.803 910.437C706.14 909.761 707.185 908.79 707.938 907.512C708.691 906.246 709.073 904.697 709.073 902.866C709.073 901.047 708.691 899.498 707.938 898.232C707.185 896.954 706.14 895.983 704.803 895.307C703.466 894.631 701.927 894.286 700.186 894.286H691.873V889.518ZM701.916 912.084L716.442 934.011H710.342L696.4 912.084H701.916Z" fill="#83673F"/>
<path d="M725.138 932.71C723.217 931.419 721.734 929.625 720.666 927.339C719.599 925.052 719.071 922.398 719.071 919.399C719.071 916.35 719.622 913.671 720.723 911.385C721.824 909.099 723.374 907.316 725.374 906.05C727.362 904.784 729.677 904.145 732.317 904.145C734.957 904.145 737.204 904.748 739.091 905.952C740.967 907.157 742.416 908.89 743.416 911.127C744.427 913.376 744.922 916.043 744.922 919.14C744.922 919.435 744.91 919.743 744.888 920.062C744.866 920.382 744.854 920.578 744.854 920.665H722.015V916.338H741.192L739.327 919.263C739.439 919.054 739.563 918.723 739.675 918.28C739.788 917.838 739.855 917.469 739.855 917.162C739.855 915.429 739.529 913.917 738.9 912.651C738.26 911.385 737.383 910.389 736.26 909.664C735.136 908.939 733.822 908.582 732.305 908.582C730.519 908.582 729.003 909 727.744 909.824C726.486 910.647 725.52 911.84 724.834 913.388C724.16 914.937 723.801 916.83 723.756 919.079C723.756 921.365 724.082 923.319 724.745 924.93C725.407 926.54 726.374 927.769 727.654 928.617C728.935 929.465 730.485 929.883 732.305 929.883C734.125 929.883 735.732 929.453 737.125 928.58C738.518 927.707 739.698 926.392 740.664 924.61L744.439 927.216C743.046 929.674 741.293 931.53 739.181 932.784C737.069 934.037 734.586 934.664 731.71 934.664C729.25 934.652 727.048 934 725.138 932.71Z" fill="#83673F"/>
<path d="M754.269 927.524C754.965 928.286 755.774 928.888 756.684 929.33C757.594 929.773 758.594 929.994 759.672 929.994C760.987 929.994 762.02 929.662 762.784 929.011C763.537 928.359 763.919 927.45 763.919 926.307C763.919 925.287 763.616 924.426 763.02 923.738C762.413 923.037 761.65 922.447 760.728 921.956C759.796 921.464 758.807 921.009 757.762 920.591C756.605 920.087 755.426 919.473 754.246 918.785C753.066 918.084 752.078 917.174 751.28 916.056C750.482 914.937 750.089 913.524 750.089 911.828C750.089 910.095 750.505 908.644 751.336 907.501C752.168 906.358 753.257 905.51 754.594 904.957C755.931 904.404 757.313 904.134 758.751 904.134C760.178 904.134 761.526 904.392 762.784 904.896C764.042 905.4 765.155 906.088 766.121 906.936C767.087 907.784 767.84 908.755 768.39 909.861L764.672 912.467C763.93 911.361 763.02 910.451 761.908 909.738C760.807 909.013 759.56 908.657 758.156 908.657C757.189 908.657 756.358 908.89 755.662 909.357C754.965 909.824 754.617 910.55 754.617 911.521C754.617 912.283 754.886 912.959 755.426 913.549C755.965 914.139 756.661 914.667 757.515 915.134C758.369 915.601 759.257 916.044 760.189 916.474C761.739 917.15 763.155 917.887 764.436 918.662C765.716 919.448 766.728 920.395 767.491 921.489C768.244 922.595 768.626 924.008 768.626 925.741C768.626 928.286 767.784 930.4 766.098 932.096C764.413 933.792 762.2 934.64 759.448 934.64C757.661 934.64 756.055 934.284 754.628 933.595C753.19 932.895 751.988 931.998 750.999 930.891C750.011 929.785 749.269 928.667 748.764 927.524L752.426 925.041C752.954 925.938 753.572 926.762 754.269 927.524Z" fill="#83673F"/>
<path d="M774.233 911.508C775.457 909.222 777.109 907.415 779.198 906.1C781.288 904.785 783.636 904.134 786.231 904.134C788.86 904.134 791.219 904.785 793.286 906.1C795.353 907.415 797.005 909.21 798.229 911.508C799.454 913.794 800.06 916.425 800.06 919.387C800.06 922.312 799.454 924.93 798.229 927.241C797.005 929.552 795.364 931.358 793.286 932.674C791.219 933.989 788.86 934.64 786.231 934.64C783.636 934.64 781.288 933.989 779.198 932.674C777.109 931.358 775.446 929.552 774.233 927.241C773.008 924.93 772.401 922.312 772.401 919.387C772.401 916.425 773.008 913.794 774.233 911.508ZM778.299 924.795C779.097 926.368 780.175 927.597 781.557 928.519C782.928 929.429 784.49 929.883 786.231 929.883C787.972 929.883 789.534 929.429 790.904 928.519C792.275 927.61 793.365 926.368 794.162 924.795C794.96 923.222 795.353 921.427 795.353 919.387C795.353 917.347 794.96 915.54 794.162 913.954C793.365 912.369 792.286 911.127 790.904 910.23C789.534 909.345 787.972 908.89 786.231 908.89C784.49 908.89 782.928 909.333 781.557 910.23C780.187 911.115 779.097 912.356 778.299 913.954C777.502 915.54 777.109 917.359 777.109 919.387C777.109 921.427 777.502 923.222 778.299 924.795Z" fill="#83673F"/>
<path d="M811.093 934.013H806.442V904.773H811.093V934.013ZM817.485 909.247C816.979 909.013 816.339 908.89 815.564 908.89C814.407 908.89 813.497 909.21 812.834 909.849C812.171 910.488 811.722 911.348 811.475 912.455C811.227 913.561 811.093 914.802 811.093 916.203H809.003C809.003 913.868 809.385 911.803 810.138 910.009C810.89 908.214 811.868 906.776 813.07 905.719C814.272 904.662 815.485 904.134 816.732 904.134C817.698 904.134 818.597 904.269 819.44 904.551C820.271 904.822 821.035 905.363 821.732 906.174L819.17 910.365C818.552 909.861 817.991 909.48 817.485 909.247Z" fill="#83673F"/>
<path d="M835.663 904.771V909.54H822.305V904.771H835.663ZM831.315 894.594V933.999H826.664V894.594H831.315Z" fill="#83673F"/>
<path d="M843.279 927.524C843.976 928.286 844.785 928.888 845.695 929.33C846.605 929.773 847.604 929.994 848.683 929.994C849.997 929.994 851.031 929.662 851.795 929.011C852.548 928.359 852.93 927.45 852.93 926.307C852.93 925.287 852.626 924.426 852.031 923.738C851.424 923.037 850.66 922.447 849.739 921.956C848.807 921.464 847.818 921.009 846.773 920.591C845.616 920.087 844.436 919.473 843.257 918.785C842.077 918.084 841.089 917.174 840.291 916.056C839.493 914.937 839.1 913.524 839.1 911.828C839.1 910.095 839.516 908.644 840.347 907.501C841.178 906.358 842.268 905.51 843.605 904.957C844.942 904.404 846.324 904.134 847.762 904.134C849.188 904.134 850.537 904.392 851.795 904.896C853.053 905.4 854.165 906.088 855.132 906.936C856.098 907.784 856.85 908.755 857.401 909.861L853.682 912.467C852.941 911.361 852.031 910.451 850.919 909.738C849.818 909.013 848.571 908.657 847.166 908.657C846.2 908.657 845.369 908.89 844.672 909.357C843.976 909.824 843.627 910.55 843.627 911.521C843.627 912.283 843.897 912.959 844.436 913.549C844.976 914.139 845.672 914.667 846.526 915.134C847.38 915.601 848.267 916.044 849.2 916.474C850.75 917.15 852.166 917.887 853.446 918.662C854.727 919.448 855.738 920.395 856.502 921.489C857.255 922.595 857.637 924.008 857.637 925.741C857.637 928.286 856.794 930.4 855.109 932.096C853.424 933.792 851.211 934.64 848.458 934.64C846.672 934.64 845.065 934.284 843.639 933.595C842.201 932.895 840.999 931.998 840.01 930.891C839.021 929.785 838.28 928.667 837.774 927.524L841.437 925.041C841.965 925.938 842.583 926.762 843.279 927.524Z" fill="#83673F"/>
<path d="M99.7168 921.489H44.9489V923.357H99.7168V921.489Z" fill="#83673F"/>
<path d="M955.5 921.489H900.732V923.357H955.5V921.489Z" fill="#83673F"/>
<path d="M343.111 238.681C349.436 247.309 353.716 257.351 354.154 268.904C354.458 276.795 355.514 277.557 362.861 276.255C403.721 268.978 444.906 266.176 486.237 264.811C510.549 264 534.871 263.484 559.138 265.315C586.73 267.393 614.22 270.773 641.52 275.751C644.812 276.353 646.98 275.284 648.193 271.891C649.137 269.249 650.44 266.827 650.811 263.865C651.901 255.2 655.394 247.567 659.832 240.389C672.055 220.625 680.964 199.669 680.908 175.074C680.874 160.03 674.965 148.624 663.989 140.389C652.575 131.834 641.239 135.19 630.241 142.048C629.173 142.712 627.937 144.346 626.803 143.044C625.41 141.446 627.061 140.057 627.971 138.938C631.274 134.919 635.431 132.203 639.846 129.867C642.711 128.343 644.677 125.664 643.958 122.186C643.194 118.498 640.093 118.474 637.138 118.363C634.734 118.277 632.589 120.44 629.814 119.113C634.453 110.177 632.735 100.738 632.735 90.1672C630.151 92.8221 628.443 94.3953 626.949 96.1776C624.927 98.5743 623.084 101.155 621.152 103.638C618.22 107.399 616.299 111.603 617.748 116.581C619.085 121.178 623.163 121.325 627.061 121.583C623.32 127.692 619.635 131.502 616.029 133.075C616.332 125.738 615.198 118.769 612.142 112.303C610.726 109.317 608.771 106.736 605.311 106.809C599.66 106.932 597.672 112.303 601.166 118.302C605.749 126.168 605.514 134.477 604.356 143.511C603.121 142.859 602.581 142.761 602.525 142.515C602.121 140.942 601.829 139.344 601.492 137.746C598.357 122.714 592.616 109.095 582.112 98.5497C571.013 87.414 558.205 81.7969 543.005 86.9838C533.815 90.118 526.558 96.4479 520.424 104.437C519.66 105.433 519.065 107.399 517.514 106.6C516.166 105.912 516.683 104.13 516.705 102.704C516.739 99.2749 517.986 96.3865 519.75 93.6579C524.592 86.1726 531.085 80.6047 537.972 75.6637C541.421 73.1932 542.769 70.526 541.028 66.556C539.084 62.1312 535.613 62.6843 532.366 64.3682C526.715 67.3057 522.12 71.7182 518.222 77.0772C515.054 81.4282 511.695 85.6072 508.381 89.8968C506.729 88.1515 507.178 86.6888 507.392 85.3368C509.189 73.9183 511.953 63.1759 520.873 55.3711C523.165 53.3676 526.85 49.6434 523.659 45.4767C520.503 41.3469 516.739 43.9772 513.56 46.0544C511.335 47.5048 509.38 49.5451 508.077 52.1016C506.617 54.9409 505.201 57.817 503.842 60.7177C503.258 61.9714 503.022 63.8028 501.629 63.9626C499.573 64.2084 499.584 61.8608 499.135 60.4965C497.64 55.9979 495.169 52.1631 492.484 48.5126C488.293 42.8218 483.901 40.9905 481.306 43.9035C476.879 48.8814 480.193 52.6916 483.328 56.4281C484.586 57.9276 485.766 59.5255 486.867 61.1848C492.843 70.1573 495.405 80.1991 494.63 91.3717C492.079 87.9425 490.147 84.1568 487.855 80.6416C482.89 73.0211 477.081 66.4945 468.229 64.4788C465.364 63.8273 462.915 64.6017 461.657 67.6868C460.297 71.0299 461.499 73.6357 464.162 75.5285C465.094 76.1922 466.15 76.647 467.139 77.2246C477.475 83.1613 484.092 92.2936 486.855 104.72C487.192 106.232 488.316 108.223 486.619 109.157C484.586 110.288 484.373 107.731 483.665 106.502C471.689 85.8284 446.625 79.8795 427.571 93.2768C413.989 102.827 407.956 117.871 403.002 133.739C402.024 136.873 402.249 140.524 400.047 143.474C397.71 141.691 398.182 139.295 398.182 137.181C398.148 129.462 400.642 122.345 403.091 115.29C404.058 112.488 403.878 110.656 401.811 108.874C399.553 106.92 397.396 107.031 395.239 109.034C392.598 111.468 390.88 114.516 389.722 118.08C387.88 123.734 387.97 129.634 387.779 136.013C384.993 135.288 384.184 133.321 382.926 131.883C379.308 127.741 375.691 123.488 370.882 121.067C367.4 119.309 363.007 115.548 360.165 121.337C357.131 127.544 362.659 129.339 366.186 131.514C369.95 133.838 373.635 136.173 376.612 139.663C377.511 140.721 378.78 141.851 377.881 143.326C376.881 144.973 375.578 143.769 374.477 143.068C373.511 142.454 372.601 141.716 371.624 141.126C358.873 133.407 343.156 134.649 335.123 144.187C325.035 156.17 323.012 171.338 323.383 186.468C323.832 206.306 331.809 223.255 343.111 238.681ZM612.322 178.688C614.984 174.681 618.208 171.239 622.399 169.174C626.533 167.146 630.589 167.294 633.51 171.522C636.363 175.64 634.97 179.88 632.364 183.334C629.106 187.648 624.635 190.254 619.826 192.208C612.074 195.354 606.57 201.094 603.491 209.563C602.559 212.12 601.514 214.811 604.311 216.581C606.884 218.204 609.917 217.761 611.232 214.91C615.153 206.404 622.185 203.491 629.746 200.492C640.756 196.129 646.744 185.62 646.261 173.464C646.014 167.159 644.25 161.787 638.15 159.489C636.723 158.948 635.128 158.567 635.274 156.392C635.397 154.499 636.655 153.7 638.127 153.036C650.946 147.161 664.865 155.998 666.404 171.178C666.775 174.816 666.46 178.528 666.46 182.203C665.82 213.336 654.754 237.98 628.331 252.164C611.973 260.952 597.885 251.058 597.818 231.048C597.739 212.046 601.964 194.31 612.322 178.688ZM509.717 184.329C510.459 183.543 511.841 183.506 512.706 182.805C515.391 180.642 516.301 177.459 513.885 174.939C511.38 172.333 510.055 169.814 510.077 166.003C510.111 159.428 509.908 152.79 513.077 146.928C516.503 140.548 523.367 138.52 529.153 141.778C533.546 144.248 535.006 149.373 533.096 154.88C532.063 157.854 530.31 159.661 527.502 160.19C524.76 160.706 522.918 159.637 521.795 156.662C520.896 154.302 519.02 153.589 516.66 154.351C514.245 155.126 513.605 157.043 513.47 159.464C513.121 166.126 517.267 171.325 523.379 171.842C535.107 172.837 544.297 165.868 545.319 155.187C546.679 140.954 539.433 130.076 527.311 128.147C526.76 128.061 526.187 127.876 525.637 127.925C519.862 128.38 520.559 125.344 522.626 121.423C535.051 97.886 561.778 95.649 577.293 116.925C582.236 123.697 585.359 131.514 588.089 139.602C589.549 143.928 588.314 144.691 584.483 144.826C574.417 145.194 565.687 148.316 561.868 160.104C558.834 169.469 561.475 180.384 568.451 186.517C572.799 190.34 575.45 194.973 574.529 201.402C574.327 202.803 574.315 204.266 574.428 205.679C574.686 208.666 575.349 211.628 578.764 211.702C581.809 211.763 583.393 209.452 584.191 206.478C587.01 195.944 583.955 186.062 575.911 179.622C571.608 176.18 569.99 169.678 572.114 163.631C573.776 158.874 577.057 156.674 581.719 156.834C586.168 156.982 588.988 159.354 590.471 163.938C591.808 168.093 591.999 172.346 591.886 176.647C591.482 200.099 586.269 221.51 570.148 238.312C558.902 250.013 547.96 252.766 536.062 246.867C521.514 239.652 511.987 224.3 512.605 209.047C512.942 200.566 517.896 193.929 525.378 191.901C534.984 189.295 544.117 192.245 547.948 199.202C552.408 207.314 548.364 220.084 540.197 223.292C536.444 224.767 532.771 224.951 530.479 220.355C528.917 217.245 526.446 217.54 524.187 218.695C521.648 219.998 521.031 222.825 521.738 225.541C522.918 230.077 525.94 232.523 530.164 233.469C544.365 236.653 556.801 227.631 559.104 212.365C561.553 196.153 552.251 181.588 537.916 180.187C528.097 179.229 518.278 179.659 511.549 189.651C510.83 190.721 509.762 191.704 509.021 190.032C508.178 188.127 508.257 185.903 509.717 184.329ZM411.338 169.015C411.91 158.469 419.966 152.667 428.021 156.908C433.391 159.735 434.357 171.252 429.751 178.135C428.987 179.278 428.088 180.372 427.054 181.22C419.112 187.783 419.247 196.854 420.628 206.208C421.044 209.01 422.594 211.173 425.538 211.149C428.627 211.124 430.312 208.137 430.088 205.9C429.155 196.485 434.301 190.389 438.761 183.567C443.232 176.721 445.569 169.064 442.715 160.448C438.839 148.722 431.627 143.412 420.28 145.047C415.438 145.748 414.056 144.641 415.584 139.442C419.168 127.249 423.684 115.831 433.694 108.014C449.153 95.9317 472.509 103.159 481.598 124.447C482.935 127.581 481.643 128.417 479.081 128.675C475.318 129.056 471.756 130.285 468.465 132.326C460.589 137.205 457.871 146.571 460.971 158.002C463.319 166.655 471.082 172.382 479.486 171.534C484.294 171.043 488.102 168.781 489.709 163.459C490.653 160.325 490.518 157.055 487.563 155.408C484.507 153.712 482.216 155.015 481.193 158.813C480.227 162.365 477.418 161.751 475.115 161.419C472.273 161.001 470.476 158.887 469.835 155.839C467.959 146.915 470.779 141.274 477.744 139.86C485.114 138.373 491.551 143.535 492.495 151.869C492.866 155.113 492.855 158.407 493.023 161.677C493.237 166.888 494.304 171.952 490.035 176.5C487.698 178.995 489.833 182.178 492.675 183.825C494.675 184.981 496.539 186.874 494.731 189.037C492.843 191.298 491.619 188.238 490.361 187.033C479.721 176.906 463.634 176.537 452.613 186.21C444.782 193.081 442.434 207.191 447.198 218.843C451.501 229.376 461.061 235.251 471.273 233.592C475.104 232.965 478.542 231.417 480.766 227.754C482.384 225.087 483.418 221.805 481.058 219.371C478.789 217.036 475.7 217.417 473.486 219.986C470.655 223.28 467.274 223.44 463.668 222.604C454.219 220.404 451.366 208.924 457.612 198.513C462.218 190.844 473.048 188.471 481.834 193.216C490.821 198.071 494.809 208.272 491.282 218.449C487.395 229.671 480.699 238.681 471.341 244.937C460.499 252.176 446.243 249.558 435.132 238.754C425.01 228.909 419.595 216.016 415.741 202.225C412.731 191.434 410.72 180.408 411.338 169.015ZM336.19 175.172C338.426 158.26 350.278 148.267 365.355 153.7C366.591 154.142 368.175 154.278 368.31 155.986C368.411 157.301 367.141 157.879 366.186 158.567C360.255 162.808 356.513 168.535 357.974 176.561C359.715 186.185 363.883 194.814 372.635 198.243C380.499 201.328 387.251 205.2 391.846 212.98C392.34 213.828 393.048 214.565 393.778 215.192C395.643 216.79 397.755 217.909 399.867 215.942C401.755 214.184 401.283 211.874 400.283 209.747C396.25 201.168 390.093 195.207 381.69 192.257C376.309 190.364 371.882 187.292 369.456 181.515C367.624 177.176 367.006 172.591 370.478 169.015C373.904 165.499 378.084 166.089 381.993 168.326C387.453 171.448 391.172 176.389 394.396 182.08C402.417 196.239 407.181 212.378 407.192 226.955C407.192 229.204 407.316 231.466 407.17 233.703C405.979 252.189 394.126 260.596 378.297 254.069C362.075 247.383 352.244 233.42 344.425 217.491C337.954 204.352 334.191 190.291 336.19 175.172Z" fill="#83673F"/>
<path d="M37.3093 616.509C54.2284 626.809 75.5289 624.068 83.4155 601.17C83.7862 600.101 84.0558 598.392 85.6848 598.22C86.7858 599.757 87.7183 601.268 88.8417 602.584C89.9876 603.911 91.2459 605.165 92.5828 606.259C105.165 616.522 119.5 619.779 134.892 619.152C152.305 618.439 165.236 610.524 172.156 591.546C173.83 593.574 174.999 595.147 176.313 596.549C187.064 607.992 205.433 605.177 211.499 590.993C213.724 585.806 213.881 580.324 210.511 575.42C206.927 570.197 201.725 568.599 196.131 568.918C193.434 569.078 191.176 571.057 191.053 574.474C190.94 577.67 193.479 578.284 195.535 579.132C196.557 579.55 197.737 579.513 198.838 579.698C200.737 580.005 203.287 579.12 203.635 582.463C203.95 585.401 202.208 587.011 200.051 588.056C198.175 588.965 196.254 589.887 194.254 590.317C186.323 592.026 179.661 587.761 178.796 580.361C178.077 574.228 179.492 568.783 183.267 563.879C194.108 549.806 207.871 543.328 224.475 545.356C241.192 547.397 256.145 553.542 265.076 570.787C269.109 578.555 268.885 586.654 265.391 594.299C262.481 600.654 257.055 603.333 250.483 603.198C243.888 603.063 240.024 600.715 240.102 596.622C240.192 591.804 243.585 590.071 251.056 591.214C253.168 591.534 255.46 592.161 256.381 589.469C257.325 586.716 256.179 584.073 253.943 582.697C248.303 579.243 242.405 579.353 236.822 582.721C231.688 585.819 229.868 591.042 230.508 597.286C231.328 605.202 235.417 610.401 242.169 612.982C250.696 616.251 258.897 615.452 265.908 608.889C277.962 597.581 280.389 582.414 273.019 566.989C272.255 565.403 270.469 563.707 271.435 562.06C272.581 560.093 274.502 561.974 275.985 562.355C286.04 564.924 296.218 565.858 306.52 566.448C319.822 567.21 333.067 565.833 346.335 565.895C352.098 565.919 356.94 568.107 361.198 572.052C366.49 576.957 367.95 585.315 364.883 592.173C362.333 597.888 355.615 601.465 349.818 600.039C348.425 599.695 346.683 599.511 346.256 597.581C345.74 595.295 347.38 594.25 348.852 593.402C351.211 592.038 353.851 591.866 356.457 591.509C358.053 591.288 359.3 590.329 359.491 588.424C359.67 586.593 358.839 585.462 357.334 584.565C351.132 580.841 341.942 583.446 339.145 589.838C335.561 598.024 338.931 607.746 346.65 610.425C354.109 613.019 361.254 611.605 367.175 606.001C373.556 599.966 375.657 591.829 374.691 582.82C373.803 574.572 369.916 567.935 364.883 561.925C359.288 555.251 359.524 555.324 365.097 548.736C371.86 540.747 376.477 532.119 374.376 520.209C372.511 509.663 367.669 502.473 358.614 499.129C349.031 495.589 340.122 497.593 332.55 505.201C327.933 509.847 326.596 517.16 328.821 523.134C330.798 528.419 334.427 530.509 339.392 530.324C344.875 530.128 353.39 524.043 354.727 519.361C355.199 517.726 355.255 516.091 353.806 514.911C352.121 513.535 351.087 514.862 350.009 516.067C348.964 517.234 347.975 518.488 346.807 519.483C344.324 521.61 340.875 523.392 338.842 520.442C337.01 517.8 337.651 513.608 340.639 511.138C346.088 506.615 352.121 506.418 358.154 509.282C363.625 511.888 365.434 517.124 365.321 523.343C365.108 536.076 357.985 546.376 345.762 551.01C329.686 557.107 313.205 557.463 296.51 554.759C292.073 554.034 291.691 552.841 294.252 548.712C300.701 538.301 299.375 526.993 290.96 518.672C287.455 515.206 290.691 514.936 292.466 513.891C311.093 502.89 327.27 488.633 340.628 470.614C346.088 463.252 359.064 461.297 365.625 466.89C369.186 469.913 370.433 475.58 368.265 478.824C366.141 482.008 360.76 482.057 357.165 478.874C356.3 478.112 355.525 477.202 354.738 476.329C353.615 475.063 352.649 472.839 350.705 474.301C349.357 475.309 349.908 477.288 350.233 478.898C351.952 487.219 360.592 493.316 367.658 491.214C374.927 489.051 378.555 480.582 376.589 471.683C374.421 461.838 368.388 456.442 360.176 453.419C357.03 452.263 356.884 451.096 358.715 448.306C373.725 425.358 381.544 399.535 380.993 371.499C380.353 338.497 367.871 314.247 339.134 303.074C318.114 294.9 297.544 296.314 280.49 313.964C265.649 329.328 265.279 356.639 278.771 370.859C291.736 384.527 311.778 381.995 319.462 365.746C323.72 356.725 320.181 344.581 312.104 340.451C307.307 338.005 300.622 339.542 297.297 344.175C294.129 348.588 292.432 353.345 295.904 358.63C296.802 360.006 297.87 361.432 299.431 361.309C301.667 361.125 300.757 358.876 301.083 357.437C301.476 355.668 301.712 353.812 302.341 352.152C303.431 349.252 305.925 349.583 308.127 349.756C310.183 349.928 310.834 351.599 310.913 353.652C311.16 360.744 305.374 367.59 298.78 367.983C284.31 368.831 273.727 351.317 279.49 336.076C281.928 329.635 286.062 324.768 291.151 320.761C314.744 302.214 338.707 306.847 354.401 327.435C378.533 359.084 377.623 404.721 353.851 437.33C353.166 438.264 352.806 439.714 351.447 439.542C349.728 439.321 349.795 437.563 349.492 436.248C347.751 428.664 343.504 423.158 337.471 419.311C322.316 409.638 304.217 417.271 301.083 434.552C299.566 442.91 302.611 449.301 309.171 451.538C316.092 453.91 322.585 450.518 325.439 442.652C326.619 439.407 329.113 434.736 325.922 432.659C322.687 430.557 321.754 435.892 319.912 438.178C317.732 440.882 315.047 445.036 311.677 442.197C308.599 439.604 310.037 434.994 312.126 431.663C314.216 428.333 317.249 426.243 321.046 426.01C323.844 425.838 326.675 425.715 329.461 425.948C338.19 426.698 345.301 438.669 342.324 447.728C340.044 454.697 336.786 461.162 332.034 466.509C313.261 487.613 291.309 503.898 266.267 514.272C236.822 526.465 205.579 529.365 174.459 532.426C148.89 534.946 123.208 532.524 97.6607 535.056C79.5621 536.851 61.587 539.727 44.5555 546.942C30.1193 553.05 21.817 564.69 20.379 582.033C19.1545 597.753 25.1424 609.11 37.3093 616.509ZM241.742 532.758C249.775 530.275 258.01 528.517 265.694 524.818C268.907 523.269 269.166 525.334 269.312 527.805C269.593 532.598 270.75 536.925 275.356 540.563C275.592 536.691 275.625 533.667 275.974 530.705C276.569 525.641 278.906 522.937 283.961 524.068C287.983 524.965 290.769 529.501 289.927 534.11C287.905 545.11 279.782 550.445 268.042 547.077C258.909 544.447 250.146 540.231 241.214 536.728C240.327 536.384 239.417 536.076 239.439 534.774C239.462 533.065 240.664 533.09 241.742 532.758ZM109.693 551.391C112.951 551.33 116.793 552.448 116.726 556.713C116.647 561.445 112.692 561.31 109.446 560.904C107.614 560.683 105.806 560.069 104.053 559.43C102.256 558.778 100.379 557.672 98.9527 559.774C97.5821 561.789 97.8293 564.235 99.2223 566.067C103.3 571.426 108.884 572.778 114.894 572.274C119.534 571.88 122.23 568.574 123.635 564.002C125.511 557.869 124.657 552.374 120.085 547.876C119.186 546.991 117.613 546.61 118.051 544.029C141.127 543.758 164.258 542.247 188.502 540.993C183.683 546.561 179.459 551.047 175.695 555.939C173.471 558.827 172.561 564.112 169.977 565.169C167.134 566.337 165.719 560.278 162.528 558.913C160.619 558.102 158.799 556.947 156.833 556.418C149.047 554.316 140.565 558.778 138.779 565.735C136.678 573.908 141.969 583.95 149.777 586.458C151.013 586.851 152.361 586.937 153.653 586.925C155.406 586.912 157.08 586.495 157.45 584.172C157.799 582.021 156.799 580.73 155.046 579.882C152.833 578.813 150.552 577.842 148.519 576.428C146.564 575.076 145.194 572.839 145.778 570.221C146.384 567.48 148.62 566.73 151.013 566.448C158.619 565.526 163.27 569.914 163.405 578.198C163.629 592.64 157.45 602.006 144.722 605.595C128.803 610.081 113.49 608.274 99.5257 598.355C87.4599 589.776 83.3368 573.404 90.0663 562.281C94.7061 554.636 101.615 551.526 109.693 551.391ZM30.4563 584.884C32.1078 571.29 38.4328 561.31 49.7346 555.386C63.0587 548.404 77.2478 546.167 92.2008 546.253C91.3245 549.756 88.9428 550.875 87.2464 552.608C81.236 558.729 77.8544 566.091 77.787 575.187C77.7758 576.735 78.551 578.763 77.113 579.747C75.4952 580.853 74.5178 578.8 73.3045 577.989C67.193 573.908 58.7446 574.744 55.3855 579.759C50.757 586.654 51.431 597.249 56.9584 601.944C58.6435 603.37 60.8343 605.73 62.8565 604.095C64.9124 602.436 62.8452 600.138 61.9914 598.146C59.0817 591.313 60.5871 586.839 66.0246 585.794C71.844 584.675 75.9109 589.076 75.0009 595.504C73.9336 603.026 67.8446 609.073 60.3849 610.069C51.5883 611.224 43.6793 608.496 36.7476 602.817C31.4 598.442 29.58 592.148 30.4563 584.884Z" fill="#83673F"/>
<path d="M623.713 369.826C622.882 398.465 630.746 424.534 645.856 447.924C647.699 450.788 647.878 452.3 644.306 453.541C637.88 455.753 632.633 459.834 629.465 466.668C625.398 475.444 627.465 485.965 634.127 489.996C640.441 493.819 648.17 491.201 652.473 483.667C654.035 480.926 656.63 477.152 654.304 474.854C651.26 471.855 649.912 477.017 647.991 478.701C645.025 481.294 641.879 481.811 638.565 480.545C636.543 479.77 635.464 477.669 635.442 475.173C635.386 471.154 636.902 468.094 640.115 466.09C647.755 461.321 658.551 463.952 664.382 471.302C677.953 488.411 693.4 503.123 711.971 513.497C715.397 515.414 717.419 516.705 712.701 519.569C708.69 521.99 707.252 526.317 706.983 530.889C706.589 537.711 707.275 544.52 711.342 550.1C713.476 553.025 712.544 553.861 709.859 554.377C692.075 557.782 674.459 557.401 657.416 550.346C646.171 545.7 638.879 533.9 639.261 522.089C639.464 515.771 642.216 510.965 647.665 508.863C653.563 506.577 659.573 506.651 664.449 511.739C666.685 514.075 668.145 517.701 665.82 520.528C663.651 523.158 660.607 521.695 658.248 519.716C657.068 518.721 656.001 517.541 655.023 516.324C653.788 514.775 652.462 513.731 650.743 515.292C648.923 516.939 649.26 518.733 650.653 520.626C653.776 524.842 657.405 528.271 662.258 529.844C668.381 531.835 674.358 528.922 676.155 523.133C678.166 516.68 676.144 508.876 671.28 504.23C662.573 495.933 648.462 495.233 639.531 502.73C631.33 509.613 625.87 525.161 632.554 538.018C635.442 543.573 638.812 548.662 643.306 552.755C645.328 554.586 645.878 555.852 643.429 557.88C639.969 560.744 637.475 564.653 635.093 568.574C629.049 578.505 627.521 588.829 632.948 599.744C637.734 609.343 649.372 614.161 658.551 610.265C665.494 607.315 668.977 597.802 665.842 590.353C663.034 583.679 654.147 580.791 647.889 584.392C646.193 585.363 645.227 586.617 645.497 588.731C645.755 590.734 647.238 591.238 648.732 591.57C650.743 592.013 652.844 592.123 654.765 592.824C656.697 593.525 658.933 594.606 658.371 597.458C657.888 599.904 655.63 599.928 653.81 600.162C647.743 600.948 641.946 597.482 639.452 591.705C636.902 585.793 638.509 577.018 643.137 572.531C647.62 568.18 652.743 565.697 658.944 565.882C670.336 566.214 681.739 566.373 693.142 566.435C706.769 566.509 720.273 565.157 733.608 560.855C733.788 564.444 732.002 566.447 731.002 568.77C724.025 584.982 728.957 603.284 742.832 611.764C754.268 618.758 769.278 613.436 773.569 601.047C775.67 594.975 773.715 587.244 769.087 583.36C764.728 579.697 755.01 579.255 750.977 582.536C748.842 584.269 747.561 586.482 748.584 589.407C749.584 592.258 751.774 591.496 753.853 591.14C755.684 590.833 757.583 590.612 759.425 590.747C762.155 590.943 763.919 592.492 764.188 595.712C764.436 598.724 763.458 600.85 760.852 602.079C754.695 604.992 745.764 602.73 741.338 597.077C734.327 588.116 735.529 573.392 744.618 563.116C758.661 547.236 776.209 542.91 795.555 546.204C807.272 548.195 815.957 556 822.978 565.98C827.292 572.113 827.382 581.197 823.742 586.076C820.327 590.673 812.777 592.086 806.632 589.014C804.172 587.785 801.026 586.777 801.352 582.77C801.711 578.222 805.351 580.324 807.52 579.439C808.036 579.23 808.632 579.23 809.16 579.058C811.328 578.32 813.856 577.62 813.699 574.535C813.541 571.314 811.272 569.458 808.609 568.746C800.667 566.619 791.522 574.965 791.926 584.06C792.286 592.037 795.712 598.035 802.565 601.317C812.721 606.197 822.293 603.173 832.336 591.964C834.235 593.045 834.19 595.405 835.022 597.138C838.886 605.189 844.088 612.023 852.098 614.8C876.353 623.183 898.889 621.278 917.572 599.891C919.493 597.691 920.471 597.826 921.381 600.702C922.718 604.98 924.706 608.901 927.515 612.256C935.94 622.335 946.422 623.711 957.87 620.676C970.408 617.345 980.047 609.368 983.271 595.749C988.023 575.702 980.294 554.881 959.51 546.634C937.862 538.042 915.213 534.343 892.351 534.097C859.232 533.741 826.247 532.671 793.319 528.222C754.459 522.974 718.801 509.711 688.266 482.093C678.155 472.949 668.111 463.767 663.067 449.891C660.438 442.651 662.663 433.003 667.943 428.775C673.246 424.534 685.783 424.534 690.299 428.959C692.704 431.306 694.546 434.133 694.512 437.931C694.49 439.763 694.737 441.828 692.749 442.663C691.075 443.364 689.423 443.02 688.053 441.619C687.098 440.648 686.143 439.652 685.222 438.644C683.098 436.297 682.11 430.225 678.335 432.941C674.942 435.387 678.481 439.91 679.571 443.426C679.75 444.003 680.087 444.519 680.368 445.048C683.379 450.8 688.783 453.381 694.591 451.882C700.163 450.444 704.017 445.097 704.23 438.509C704.567 427.865 697.299 417.59 687.727 416.176C674.032 414.136 660.438 417.786 655.147 436.518C654.821 437.673 654.731 439.21 653.507 439.468C651.945 439.787 651.361 438.202 650.653 436.997C648.339 433.064 645.755 429.291 643.721 425.198C629.768 397.002 628.679 368.708 642.587 339.873C657.753 308.408 689.457 299.128 715.959 322.776C726.272 331.982 729.272 344.851 723.969 356.638C720.588 364.16 712.454 369.003 704.994 367.946C699.467 367.159 695.95 363.226 694.333 356.171C693.76 353.651 693.22 351.07 696.052 349.964C698.557 348.993 700.871 349.743 702.343 352.447C703.309 354.229 703.815 356.171 703.983 358.248C704.073 359.391 703.972 361.038 705.331 361.247C706.691 361.456 707.735 360.338 708.555 359.145C711.724 354.573 710.477 346.412 706.028 342.602C701.051 338.337 694.883 338.164 690.007 342.171C684.446 346.744 681.694 356.601 684.165 363.079C689.85 377.975 704.579 383.851 718.273 376.685C736.394 367.196 741.349 335.325 727.193 317.392C712.049 298.194 692.108 295.109 671.325 301.131C640.093 310.178 624.713 335.202 623.713 369.826ZM912.854 546.929C913.449 545.663 914.865 546.278 915.898 546.29C930.076 546.474 943.76 549.313 956.544 556.209C968.543 562.674 975.632 577.091 974.182 591.656C973.688 596.646 970.947 600.444 967.475 603.234C961.802 607.782 955.443 610.609 948.186 610.154C936.94 610.081 929.739 603.357 930.009 593.34C930.099 589.899 931.177 587.268 934.222 586.187C937.199 585.13 940.176 585.289 942.591 587.883C944.973 590.427 944.658 593.365 943.411 596.364C943.254 596.732 943.041 597.089 942.951 597.47C942.378 599.768 939.041 602.472 942.03 604.242C944.434 605.668 947.355 603.198 949.118 600.702C953.152 595.012 952.736 583.274 948.456 578.173C945.669 574.854 937.277 574.252 932.02 577.718C927.773 580.52 926.728 579.746 926.762 574.436C926.829 564.038 922.189 556.147 914.752 550.014C913.786 549.24 911.932 548.859 912.854 546.929ZM866.478 543.561C872.455 543.868 878.443 543.721 884.419 543.856C885.419 543.881 886.824 543.217 887.34 544.741C887.891 546.351 886.363 546.646 885.599 547.408C878.971 554.07 878.263 562.834 883.835 569.028C888.374 574.068 900.114 572.9 904.877 566.939C906.484 564.923 907.259 562.514 906.057 560.179C904.653 557.45 902.496 559.183 900.574 559.724C898.608 560.277 896.609 560.756 894.598 561.113C891.598 561.641 888.767 561.482 888.329 557.204C887.913 553.124 890.643 551.919 893.508 551.329C900.968 549.768 910.685 554.795 914.696 562.084C921.145 573.822 917.606 589.936 905.585 598.429C889.643 609.687 872.208 611.162 854.626 603.677C842.448 598.49 839.459 584.835 841.717 573.06C842.886 566.988 853.322 563.62 857.704 567.615C859.984 569.692 860.074 572.15 858.243 574.621C856.3 577.239 853.716 578.726 850.75 579.685C848.919 580.275 847.334 581.786 847.705 584.208C848.098 586.85 850.154 586.924 852.075 586.887C858.906 586.728 866.545 577.644 866.411 569.889C866.276 562.158 860.411 556.246 852.615 556.11C846.649 556 841.672 558.421 837.954 563.596C835.797 566.595 834.415 566.386 832.842 562.858C829.775 555.951 824.933 550.542 819.765 545.466C818.675 544.385 817.383 543.487 817.058 540.796C833.775 541.717 850.121 542.725 866.478 543.561ZM720.385 524.178C726.047 523.318 728.631 525.665 729.025 532.216C729.182 534.736 729.047 537.268 729.047 540.759C734.305 537.121 734.552 532.315 734.889 527.804C735.159 524.264 736.237 523.527 739.113 524.879C746.505 528.357 754.437 529.967 762.065 532.61C763.335 533.052 765.413 532.339 765.402 534.859C765.39 536.801 763.638 536.875 762.526 537.194C754.583 539.542 747.09 543.242 739.383 546.314C727.25 551.145 717.947 546.646 715.217 535.068C713.892 529.365 716.038 524.829 720.385 524.178Z" fill="#83673F"/>
<path d="M521.525 550.911C518.054 551.624 514.481 551.723 510.953 552.054C509.661 552.177 508.808 552.669 508.92 554.279C508.999 555.521 509.706 556.024 510.762 556.049C511.886 556.086 513.009 556.098 514.133 556.098C540.511 556.098 566.901 556.111 593.279 556.111C594.403 556.111 595.526 556.123 596.65 556.086C597.964 556.037 598.75 555.348 598.672 553.824C598.604 552.509 597.694 552.153 596.739 552.091C595.245 551.993 593.74 552.128 592.257 552.018C580.09 551.17 574.596 545.97 574.563 534.109C574.417 485.584 574.484 437.071 574.551 388.546C574.551 384.932 574.866 381.343 576.697 377.939C580.697 370.478 587.381 370.712 593.863 369.974C595.594 369.777 598.762 371.375 598.503 367.651C598.301 364.849 595.594 365.955 593.852 365.955C569.541 365.844 545.23 365.721 520.918 365.648C517.559 365.635 514.189 365.857 510.83 365.93C509.414 365.955 508.729 366.963 508.695 368.229C508.65 369.814 509.796 369.986 511.032 370.036C513.829 370.146 516.627 370.269 519.402 370.638C527.771 371.769 532.456 376.624 532.625 385.756C533.018 406.835 532.905 427.914 533.063 448.994C533.085 451.538 532.321 452.693 529.861 452.681C511.335 452.619 492.81 452.632 474.284 452.669C472.082 452.669 470.734 452.029 470.79 449.215C471.228 427.546 469.745 405.827 471.813 384.195C472.633 375.616 476.677 371.498 484.463 370.613C487.058 370.318 489.675 370.171 492.282 370.072C493.607 370.023 495.169 370.281 495.281 368.315C495.416 365.992 493.708 365.943 492.147 365.943C491.023 365.943 489.9 365.943 488.777 365.943C466.51 365.943 444.243 365.943 421.977 365.943C417.314 365.943 412.641 365.943 407.979 365.967C406.754 365.967 405.754 366.385 405.709 367.983C405.664 369.605 406.642 369.949 407.9 370.023C410.697 370.183 413.495 370.367 416.281 370.65C422.359 371.277 429.683 377.398 429.549 385.965C429.155 410.928 429.403 435.904 429.403 460.879C429.391 486.051 429.481 511.236 429.346 536.408C429.301 544.397 424.763 549.768 417.55 551.034C414.427 551.575 411.248 551.759 408.091 552.067C406.934 552.177 405.821 552.239 405.709 553.91C405.563 556.025 406.9 556.098 408.259 556.111C409.383 556.123 410.506 556.123 411.63 556.123C437.267 556.123 462.904 556.172 488.529 556.025C490.799 556.012 495.023 557.819 495.045 554.107C495.068 550.199 490.855 552.313 488.586 552.128C477.34 551.194 472.127 546.671 471.442 535.572C470.049 513.092 471.049 490.562 470.757 468.045C470.723 465.07 471.925 464.149 474.486 464.161C492.821 464.222 511.167 464.21 529.501 464.173C531.647 464.173 533.063 464.542 533.029 467.467C532.771 491.005 533.726 514.554 532.434 538.067C532.052 545.11 527.974 549.584 521.525 550.911Z" fill="#83673F"/>
<path d="M23.199 630.989C22.0756 630.989 20.9297 630.841 19.8399 631.026C18.5929 631.247 16.4696 630.055 16.4921 632.82C16.5145 634.762 17.7728 635.66 19.5029 635.697C20.8173 635.721 22.1205 635.709 23.4349 635.709C337.921 635.709 652.406 635.709 966.903 635.697C970.464 635.697 974.026 635.524 977.576 635.758C980.755 635.967 982.991 634.971 984.125 630.977C981.755 630.977 979.553 630.977 977.351 630.977C659.293 630.989 341.246 630.989 23.199 630.989Z" fill="#83673F"/>
<path d="M630.611 325.383C632.285 325.358 634.487 323.539 635.172 320.233C635.925 316.595 633.386 315.058 630.78 314.247C628.466 313.534 626.005 313.313 623.59 313.043C579.483 308.028 535.287 305.57 490.922 306.074C453.321 306.492 415.831 308.606 378.454 313.153C374.432 313.645 369.343 313.952 369.894 320.208C370.467 326.71 375.5 325.395 379.578 325.039C379.769 325.027 379.949 324.953 380.128 324.928C418.415 320.11 456.837 317.332 495.371 316.681C530.366 316.079 565.306 317.295 600.132 321.425C609.794 322.568 619.433 323.933 630.611 325.383Z" fill="#83673F"/>
<path d="M631.24 306.687C633.88 307.044 635.318 306.515 635.846 303.234C636.734 297.801 638.531 292.59 641.048 287.796C642.801 284.465 641.655 283.715 638.779 283.211C633.431 282.277 628.151 280.901 622.814 279.979C613.276 278.344 603.705 276.906 593.268 275.247C595.481 285.104 596.492 293.671 589.898 301.316C604.199 303.172 617.725 304.868 631.24 306.687Z" fill="#83673F"/>
<path d="M376.387 280.335C372.174 281.208 365.883 280.458 364.232 283.162C362.041 286.739 366.175 292.073 367.579 296.657C370.646 306.699 370.703 306.785 380.42 305.433C391.318 303.922 402.193 302.201 413.573 300.505C407.372 292.773 408.428 284.637 411.023 275.775C399.193 276.893 387.734 278 376.387 280.335Z" fill="#83673F"/>
<path d="M440.705 271.696C446.535 279.451 447.367 287.158 445.479 295.614C445.108 297.286 444.243 299.4 447.187 299.4C460.848 299.388 474.498 299.4 489.709 299.4C481.913 289.505 482.261 280.545 487.181 271.708C471.509 271.696 456.107 271.696 440.705 271.696Z" fill="#83673F"/>
<path d="M559.52 297.863C555.768 288.399 557.588 280.262 565.036 271.941C548.645 271.941 533.849 271.941 518.818 271.941C524.143 280.73 521.379 289.321 516.256 297.863C531.052 297.863 545.016 297.863 559.52 297.863Z" fill="#83673F"/>
<path d="M501.146 47.2224C506.999 47.0626 511.515 42.1339 511.47 35.2755C511.391 22.7508 506.594 11.8609 501.022 0C496.281 12.2296 491.495 23.1564 491.978 35.7425C492.237 42.8099 495.91 47.3699 501.146 47.2224Z" fill="#83673F"/>
<path d="M512.448 284.515C512.717 279.488 508.167 274.313 503.348 274.141C498.506 273.969 493.866 278.701 493.731 283.95C493.607 288.645 498.056 293.696 502.573 293.979C507.347 294.286 512.178 289.665 512.448 284.515Z" fill="#83673F"/>
<path d="M586.449 287.539C586.516 282.536 581.663 277.472 576.843 277.521C572.237 277.571 567.799 282.339 567.721 287.354C567.631 292.517 572.361 297.458 577.259 297.347C581.753 297.236 586.381 292.308 586.449 287.539Z" fill="#83673F"/>
<path d="M437.042 287.919C436.952 282.708 432.166 277.902 427.335 278.16C422.774 278.406 418.202 283.433 418.236 288.178C418.258 292.86 423.673 298.244 428.133 298.035C432.604 297.814 437.121 292.701 437.042 287.919Z" fill="#83673F"/>
<path d="M382.51 119.63C386.094 117.921 387.094 113.054 384.734 108.039C381.656 101.501 377.05 96.24 371.849 89.8363C370.208 98.8088 371.152 106.343 373.365 113.693C375.084 119.409 378.6 121.486 382.51 119.63Z" fill="#83673F"/>
<path d="M31.4452 789.531C29.5465 789.15 28.0748 789.887 26.5357 792.063C28.9623 791.989 30.9733 792.505 31.8496 789.666L31.4452 789.531Z" fill="#83673F"/>
<path d="M31.4451 789.533L31.8518 789.668C31.8631 789.668 31.4451 789.533 31.4451 789.533Z" fill="#83673F"/>
<path d="M386.891 832.539C367.725 835.722 348.492 835.562 329.27 833.608C296.96 830.314 265.458 822.693 234.519 812.049C211.522 804.134 188.817 795.235 165.348 788.979C117.355 776.172 73.282 787.91 31.4449 814.127C31.4337 814.127 31.8494 814.262 31.8494 814.262C33.9165 814.606 35.9162 814.286 37.9497 813.795C47.6225 811.496 57.3178 809.37 67.1142 807.686C110.726 800.164 153.17 805.732 194.782 820.862C224.688 831.74 255.212 839.545 286.635 842.347C316.013 844.977 345.279 843.035 374.32 837.516C380.622 836.312 387.105 835.488 393.014 832.391C390.902 832.059 388.88 832.207 386.891 832.539Z" fill="#83673F"/>
<path d="M876.342 783.743C851.716 783.682 828.27 790.331 805.071 798.517C775.018 809.124 745.169 820.506 714.015 826.824C685.693 832.576 657.259 837.087 628.297 833.854C621.68 833.117 615.029 832.662 608.401 832.072C632.656 839.656 657.225 842.753 682.065 843.343C721.891 844.289 760.818 837.591 798.341 823.468C852.817 802.967 907.708 798.284 963.746 813.955C965.307 814.397 966.835 814.889 968.891 813.156C965.408 811.214 962.476 809.542 959.522 807.932C933.3 793.687 906.023 783.805 876.342 783.743Z" fill="#83673F"/>
<path d="M433.065 813.599C432.604 813.549 431.997 813.832 431.458 813.992C416.662 814.865 402.001 814.066 387.419 810.821C365.804 806.015 345.762 796.428 325.506 787.419C312.968 781.838 300.06 777.155 286.444 777.512C271.614 777.893 257.875 783.448 245.146 791.757C242.304 793.613 239.102 795.002 236.653 797.952C238.776 798.886 240.394 798.259 242.012 797.743C271.053 788.598 299.319 791.327 326.989 804.147C350.154 814.889 374.151 821.33 399.507 820.322C411.112 819.867 422.527 817.692 433.885 815.16C433.076 814.766 432.267 814.385 431.469 813.992C431.986 813.857 432.525 813.721 433.065 813.599Z" fill="#83673F"/>
<path d="M725.553 792.249C739.125 792.384 752.19 795.752 765.267 799.169C765.087 798.849 765.087 798.517 765.267 798.198C761.054 794.461 756.302 791.634 751.505 789.004C736.788 780.904 721.554 775.557 704.669 778.274C690.839 780.498 678.054 786.14 665.371 792.052C635.588 805.941 605.233 816.671 572.215 813.979C571.394 814.41 570.249 814.164 569.833 815.405C580.382 818.281 591.111 819.916 601.952 820.309C625.679 821.17 648.373 815.774 670.201 805.855C687.952 797.792 706.118 792.064 725.553 792.249Z" fill="#83673F"/>
<path d="M347.481 784.542C366.995 778.654 385.453 781.825 403.53 791.375C416 797.964 429.492 800.434 443.378 799.414C447.996 799.07 452.714 798.726 456.961 796.083C442.378 796.771 428.639 793.219 415.36 787.307C408.091 784.075 400.968 780.436 393.801 776.933C377.151 768.809 361.783 771.574 347.481 783.435C347.661 783.804 347.661 784.173 347.481 784.542Z" fill="#83673F"/>
<path d="M601.93 789.484C614.625 782.945 628.016 779.565 642.194 782.269C646.014 782.994 649.811 783.817 653.743 784.616C653.608 783.94 653.653 783.436 653.44 783.24C652.597 782.441 651.721 781.654 650.777 781.003C636.858 771.293 622.388 769.375 607.12 777.131C586.381 787.664 565.541 797.829 541.803 795.875C541.893 796.158 541.938 796.453 541.938 796.748C562.733 802.242 582.607 799.439 601.93 789.484Z" fill="#83673F"/>
<path d="M467.588 795.556C467.925 796.404 468.251 797.252 468.588 798.1C472.363 795.273 476.474 792.864 479.8 789.508C483.283 785.993 488.271 783.547 488.855 777.389C482.08 783.301 476.036 790.356 467.655 793.822C467.453 793.896 467.599 794.953 467.588 795.556Z" fill="#83673F"/>
<path d="M488.844 777.381C488.876 777.345 488.908 777.322 488.952 777.286L488.865 777.192C488.865 777.263 488.854 777.322 488.844 777.381Z" fill="#83673F"/>
<path d="M527.131 790.823C526.187 790.847 525.356 791.093 524.895 792.114C528.131 796.022 532.164 798.505 537.556 801.061C534.939 795.248 531.557 792.396 527.131 790.823Z" fill="#83673F"/>
<path d="M446.31 810.317C441.895 811.411 437.48 812.504 433.065 813.586C433.525 813.635 433.862 814.004 433.874 815.159C438.873 817.654 442.479 814.25 446.277 811.644C446.288 811.202 446.299 810.759 446.31 810.317Z" fill="#83673F"/>
<path d="M433.065 813.598C432.526 813.733 431.986 813.869 431.458 813.992C432.267 814.385 433.076 814.766 433.874 815.159C433.863 814.004 433.526 813.635 433.065 813.598Z" fill="#83673F"/>
<path d="M520.457 784.651C517.941 781.763 515.851 778.371 512.458 776.515C512.032 777.387 511.324 777.412 510.56 777.277C512.694 780.571 515.233 783.447 518.177 785.893C518.671 784.885 519.536 784.688 520.457 784.651Z" fill="#83673F"/>
<path d="M527.131 790.822C524.906 788.769 522.682 786.705 520.458 784.652C519.941 785.598 519.121 785.881 518.188 785.893C519.918 788.622 521.986 790.908 524.895 792.1C524.817 789.949 525.783 789.974 527.131 790.822Z" fill="#83673F"/>
<path d="M527.131 790.823C525.772 789.987 524.817 789.963 524.895 792.114C525.356 791.094 526.198 790.848 527.131 790.823Z" fill="#83673F"/>
<path d="M520.458 784.652C519.525 784.689 518.671 784.885 518.188 785.893C519.132 785.881 519.952 785.598 520.458 784.652Z" fill="#83673F"/>
<path d="M512.47 776.517C510.549 772.375 507.156 769.781 503.954 766.93C505.415 770.974 507.583 774.427 510.571 777.291C511.065 776.603 511.695 776.345 512.47 776.517Z" fill="#83673F"/>
<path d="M512.47 776.515C511.695 776.343 511.066 776.601 510.571 777.275C511.335 777.41 512.043 777.385 512.47 776.515Z" fill="#83673F"/>
<path d="M567.462 813.154C564.62 812.564 561.778 811.986 558.935 811.396C557.958 811.655 556.835 811.618 556.374 812.921C559.486 814.789 562.564 816.977 566.249 814.482C566.654 814.039 567.058 813.597 567.462 813.154Z" fill="#83673F"/>
<path d="M463.87 801.025C459.039 801.332 456.915 804.048 454.567 806.285C457.724 805.757 460.454 804.319 463.87 801.025Z" fill="#83673F"/>
<path d="M558.936 811.398C555.723 810.206 552.678 808.338 547.735 808.104C551.454 810.181 553.914 811.558 556.374 812.922C556.273 810.501 557.756 811.238 558.936 811.398Z" fill="#83673F"/>
<path d="M558.936 811.397C557.745 811.238 556.273 810.5 556.374 812.922C556.835 811.619 557.958 811.656 558.936 811.397Z" fill="#83673F"/>
<path d="M491.271 773.885C491.563 774.192 491.866 774.5 492.158 774.807C494.461 773.16 495.989 770.947 496.349 767.838C494.416 769.645 492.192 771.107 491.271 773.885Z" fill="#83673F"/>
<path d="M538.657 801.492C540.309 803.569 542.118 805.29 544.87 804.908C542.971 803.409 541.511 801.074 538.657 801.492Z" fill="#83673F"/>
<path d="M595.672 828.961C594.01 827.032 591.763 827.622 588.471 826.282C591.313 829.305 593.729 828.949 595.706 829.859C595.695 829.564 595.695 829.256 595.672 828.961Z" fill="#83673F"/>
<path d="M541.522 796.219C541.612 795.986 541.702 795.863 541.803 795.863C540.354 793.995 538.646 794.265 535.512 795.199C538.511 795.924 540.23 796.33 541.938 796.748C541.578 796.613 541.444 796.441 541.522 796.219Z" fill="#83673F"/>
<path d="M541.522 796.215C541.444 796.423 541.578 796.606 541.935 796.741C541.935 796.447 541.89 796.154 541.801 795.873C541.701 795.861 541.6 795.983 541.522 796.215Z" fill="#83673F"/>
<path d="M595.672 828.962C596.065 829.147 596.189 829.343 596.077 829.552C595.953 829.761 595.829 829.872 595.706 829.872C597.413 829.983 598.851 831.949 601.02 830.708C599.514 828.63 597.582 828.827 595.672 828.962Z" fill="#83673F"/>
<path d="M596.074 829.549C596.197 829.342 596.063 829.146 595.672 828.963C595.683 829.256 595.694 829.562 595.694 829.867C595.828 829.855 595.951 829.757 596.074 829.549Z" fill="#83673F"/>
<path d="M403.743 829.748C406.383 830.351 408.012 829.171 410.113 828.089C407.507 827.18 405.788 827.979 403.743 829.748Z" fill="#83673F"/>
<path d="M394.655 832.083C396.553 832.808 398.07 833.19 399.002 830.744C397.441 829.896 396.216 830.203 394.655 832.083Z" fill="#83673F"/>
<path d="M572.203 813.979C570.754 812.836 569.114 812.91 567.462 813.156C567.721 814.323 567.373 814.827 566.249 814.483C567.294 815.491 568.519 815.626 569.822 815.405C569.687 813.07 570.956 813.537 572.203 813.979Z" fill="#83673F"/>
<path d="M572.204 813.979C570.945 813.537 569.687 813.07 569.822 815.405C570.238 814.164 571.395 814.41 572.204 813.979Z" fill="#83673F"/>
<path d="M567.462 813.156C567.058 813.598 566.654 814.041 566.249 814.483C567.373 814.827 567.732 814.323 567.462 813.156Z" fill="#83673F"/>
<path d="M970.049 814.581C970.622 816.609 971.914 816.757 974.026 816.265C972.813 814.569 971.779 813.561 970.049 814.581Z" fill="#83673F"/>
<path d="M491.271 773.885C489.631 774.278 489.44 775.839 488.99 777.204C490.586 777.277 491.675 776.54 492.158 774.807C491.585 774.807 491.282 774.524 491.271 773.885Z" fill="#83673F"/>
<path d="M488.954 777.285C488.965 777.25 488.976 777.227 488.987 777.192C488.943 777.192 488.91 777.192 488.877 777.192L488.954 777.285Z" fill="#83673F"/>
<path d="M492.158 774.792C491.866 774.486 491.563 774.18 491.271 773.873C491.282 774.523 491.585 774.805 492.158 774.792Z" fill="#83673F"/>
<path d="M421.437 823.762C423.156 824.242 424.28 823.099 425.28 821.894C423.752 822.029 422.067 821.599 421.437 823.762Z" fill="#83673F"/>
<path d="M467.588 795.555C467.06 796.661 464.948 797.104 465.982 798.751C466.701 799.894 467.914 799.353 468.588 798.099C466.566 798.05 466.982 796.845 467.588 795.555Z" fill="#83673F"/>
<path d="M468.588 798.099C468.251 797.251 467.925 796.403 467.588 795.555C466.981 796.845 466.566 798.05 468.588 798.099Z" fill="#83673F"/>
<path d="M765.582 798.848C765.481 799.069 765.38 799.167 765.267 799.167C765.964 800.667 766.93 801.072 768.289 800.114C767.649 798.725 766.66 798.086 765.256 798.196C765.582 798.418 765.683 798.639 765.582 798.848Z" fill="#83673F"/>
<path d="M765.267 799.181C765.368 799.181 765.48 799.07 765.582 798.861C765.683 798.64 765.581 798.431 765.267 798.222C765.087 798.529 765.087 798.861 765.267 799.181Z" fill="#83673F"/>
<path d="M578.911 822.841C578.753 822.866 578.54 823.542 578.585 823.579C579.394 824.255 580.203 825.029 581.876 824.574C580.944 823.161 580.079 822.608 578.911 822.841Z" fill="#83673F"/>
<path d="M347.481 784.542C347.178 784.296 347.077 784.05 347.178 783.804C347.279 783.558 347.369 783.435 347.47 783.435C346.279 783.239 345.392 783.816 344.74 784.812C344.201 785.635 344.942 785.808 345.391 785.881C346.369 786.041 347.099 785.574 347.481 784.542Z" fill="#83673F"/>
<path d="M347.177 783.804C347.076 784.05 347.178 784.296 347.481 784.542C347.66 784.173 347.66 783.804 347.469 783.435C347.38 783.435 347.279 783.558 347.177 783.804Z" fill="#83673F"/>
<path d="M446.31 810.317C446.58 810.624 446.67 810.919 446.568 811.201C446.467 811.484 446.366 811.632 446.276 811.632C447.557 811.533 449.343 811.251 448.961 809.677C448.692 808.559 447.085 809.247 446.31 810.317Z" fill="#83673F"/>
<path d="M446.568 811.212C446.669 810.917 446.58 810.622 446.31 810.327C446.299 810.77 446.288 811.212 446.276 811.655C446.377 811.642 446.467 811.495 446.568 811.212Z" fill="#83673F"/>
</svg>
