<svg width="838" height="612" viewBox="0 0 838 612" fill="none" xmlns="http://www.w3.org/2000/svg">
<path d="M145.922 315.76L145.896 315.953L145.613 317.87L145.433 319.144L145.125 321.267L142.41 317.87L125.351 296.527L122.495 292.951L120.81 290.841L123.511 289.837L145.922 315.76Z" fill="#19321B"/>
<path d="M20.9381 88.5246C8.67766 80.9728 1.39602 70.7322 0.341083 59.4238C-0.752448 47.7552 4.94678 36.2409 16.3838 26.9909C36.4405 10.7552 60.7426 1.77541 88.5955 0.270195C91.9018 0.0900838 94.8608 0 97.6525 0C125.171 0 135.566 7.95061 148.238 38.6724C152.676 49.4405 157.707 59.9255 162.57 70.0503C163.47 71.9286 164.345 73.7555 165.207 75.5566C163.29 72.4175 161.348 69.2784 159.443 66.2165C152.586 55.204 145.498 43.8056 140.197 31.9182C130.587 10.3564 119.896 1.56954 103.326 1.56954C98.2443 1.56954 92.5966 2.41864 86.074 4.14256C69.954 8.42663 54.13 14.7691 38.8334 20.9057C34.7423 22.5525 30.6383 24.1864 26.5473 25.7945C16.3967 29.7698 9.61681 43.0208 7.40402 54.3807C5.43566 64.4669 6.95374 72.9965 11.4436 77.2162L12.6658 78.3612L32.3237 41.953C38.6147 50.6241 38.2287 52.4895 31.2301 61.1477C30.5869 61.9453 29.9179 62.743 29.2618 63.5277C23.421 70.5521 17.4259 77.7565 20.9381 88.5246Z" fill="#19321B"/>
<path d="M147.518 317.87H145.627L145.446 319.144C145.112 318.719 144.777 318.295 144.43 317.87C138.293 310.203 131.809 303.114 125.364 296.527C124.129 295.253 122.881 294.006 121.659 292.771C121.942 292.822 122.225 292.886 122.521 292.951C123.64 293.208 124.618 293.568 125.235 294.16C132.98 301.622 139.863 308.852 145.922 315.953C146.45 316.597 146.99 317.227 147.518 317.87Z" fill="#19321B"/>
<path d="M62.1322 267.066C101.242 243.781 124.952 216.713 132.659 186.557C139.837 158.459 133.353 126.76 113.4 92.2429C135.399 112.621 146.103 159.463 135.952 195.845C127.088 227.506 91.5546 266.114 62.1322 267.066Z" fill="#19321B"/>
<path d="M65.8243 291.471C52.7791 291.471 41.0847 289.722 30.0722 286.119C15.1102 281.218 10.8776 274.181 14.4669 260.158C16.0365 254.047 18.4165 247.987 20.7193 242.121C21.8257 239.303 22.9707 236.396 24.0128 233.514C24.4502 232.305 24.9005 231.108 25.3508 229.899C28.9787 220.147 32.7353 210.074 29.4805 198.418C28.5413 195.073 28.8501 191.934 30.3553 189.335C31.9505 186.582 34.8195 184.614 38.6404 183.636C40.2614 183.224 41.9081 183.006 43.5291 183.006C43.6964 183.006 43.8636 183.006 44.018 183.006C43.3361 185.038 42.6157 186.917 41.9596 188.602C40.2743 192.989 38.8205 196.771 38.9234 200.554C39.3866 218.346 32.4523 233.308 24.6818 248.335C17.5674 262.074 14.3769 270.733 17.8504 277.101C21.1953 283.225 30.5354 286.66 49.0997 288.589C50.2447 288.705 51.3511 288.77 52.406 288.77C53.4352 288.77 54.4387 288.705 55.3907 288.589C61.5917 287.83 67.8055 287.046 74.0065 286.261C83.874 285 94.0889 283.701 104.149 282.581C105.256 282.453 106.349 282.324 107.456 282.196C112.769 281.578 118.275 280.935 123.498 280.935C127.873 280.935 131.732 281.398 135.18 282.337L117.568 289.348C116.461 289.13 115.316 288.821 114.197 288.525C111.907 287.92 109.553 287.29 107.237 287.29C106.581 287.29 105.963 287.341 105.372 287.444C93.6643 289.438 79.8343 291.471 65.8243 291.471ZM48.7137 183.765C52.4317 184.897 55.6866 187.226 57.8737 190.429C60.3695 194.057 61.3858 198.534 60.8584 203.307L48.7137 183.765Z" fill="#19321B"/>
<path d="M227.23 127.634C227.59 126.386 227.976 125.138 228.349 123.903C232.723 109.559 237.676 93.2972 218.456 85.0764C214.982 83.5969 211.624 82.8379 208.46 82.8379C196.006 82.8379 188.261 93.9019 181.559 105.776C179.076 101.672 178.227 97.7485 179.05 94.0948C180.092 89.4377 183.784 85.2823 190.011 81.7444C193.703 79.6474 197.949 78.5924 202.645 78.5924C216.024 78.5924 229.61 87.122 235.695 99.3309C238.847 105.673 239.426 112.093 237.329 117.393C235.566 121.768 232.106 125.267 227.23 127.634Z" fill="#19321B"/>
<path d="M60.1765 245.517C60.421 244.578 60.6268 243.6 60.8326 242.661C61.3858 240.024 61.9133 237.541 63.2641 235.791C64.0746 234.736 64.898 233.694 65.7085 232.652C76.335 219.067 86.3569 206.227 86.061 186.981C86.0224 184.241 86.6142 182.157 87.7978 180.973C88.5826 180.188 89.6247 179.79 90.8854 179.79C92.9953 179.79 95.5941 180.883 98.2443 182.89C97.7039 183.855 97.1636 184.82 96.6104 185.785C94.8994 188.782 93.1368 191.883 91.7603 195.112C89.9334 199.435 88.2224 203.873 86.5756 208.183C83.6424 215.825 80.6191 223.724 76.8368 231.044C74.5854 235.405 70.7902 239.188 67.1108 242.841C65.6699 244.269 64.1904 245.749 62.801 247.267L60.1765 245.517Z" fill="#19321B"/>
<path d="M63.4058 176.92C63.4187 172.868 63.4702 168.828 63.5087 164.814C63.6245 154.317 63.7532 143.446 63.2514 132.845C62.4795 116.416 50.7337 109.34 37.7014 102.457C53.9243 107.616 67.2654 122.758 71.5623 141.889C75.1774 158.009 72.2055 170.617 63.4058 176.92Z" fill="#19321B"/>
<path d="M308.781 221.935C302.67 217.304 303.211 211.335 303.79 205.031C304.021 202.471 304.266 199.807 304.034 197.26C303.892 195.704 303.777 194.121 303.674 192.513C303.172 185.399 302.657 178.027 299.39 172.148C294.99 164.248 289.162 157.288 283.514 150.56C282.318 149.132 281.16 147.755 280.041 146.379C289.496 150.907 297.987 159.784 303.815 171.388C311.882 187.496 313.709 206.253 308.781 221.935Z" fill="#19321B"/>
<path d="M107.198 221.601C106.8 220.276 106.414 219.066 106.066 217.947C104.947 214.409 104.149 211.849 103.815 209.212C103.004 202.856 102.49 196.334 101.988 190.03C101.847 188.319 101.718 186.595 101.576 184.884C102.554 185.411 103.532 185.939 104.51 186.453C109.437 189.091 114.519 191.818 119.292 194.841C119.948 195.266 120.63 198.264 120.128 199.216C117.375 204.516 114.326 209.623 110.479 216.082C109.437 217.818 108.356 219.658 107.198 221.601Z" fill="#19321B"/>
<path d="M45.8448 47.1889C53.2294 54.5477 60.6011 61.9194 67.9857 69.2782C68.3973 68.918 68.809 68.5707 69.2078 68.2104C62.0034 60.5943 54.7861 52.9782 47.5816 45.3621C47.0027 45.9796 46.4238 46.5843 45.8448 47.1889Z" fill="#19321B"/>
<path d="M240.532 139.766L251.943 118.629L255.456 122.578L243.916 141.516L240.532 139.766Z" fill="#19321B"/>
<path d="M789.755 336.396C787.272 302.149 764.552 267.4 764.321 267.04C716.102 195.086 638.243 184.343 596.11 184.343C566.443 184.343 537.342 189.541 514.146 198.984C482.859 211.72 448.342 219.028 419.46 219.028C398.451 219.028 382.125 215.091 374.651 208.234C358.994 193.851 332.106 183.237 325.622 180.805L329.636 173.344C333.675 174.514 350.027 179.712 370.482 192.86C387.927 204.078 399.557 209.083 422.328 209.083C428.774 209.083 436.48 208.697 446.579 207.861C484.518 204.735 525.378 186.801 527.41 185.9C554.26 177.705 580.234 173.55 604.627 173.55C641.408 173.55 661.85 183.186 662.056 183.288L662.133 183.327L662.223 183.353C731.553 205.828 764.861 246.173 780.595 276.058C795.711 304.773 797.937 329.526 798.246 334.916L789.755 336.396Z" fill="#19321B"/>
<path d="M11.418 376.856C11.418 376.856 113.798 318.359 350.734 351.988C587.67 385.631 757.322 387.084 837.767 330.053C837.767 330.053 780.724 401.725 533.56 394.404C286.396 387.084 226.406 322.746 11.418 376.856Z" fill="#99AA93"/>
<path d="M45.0472 381.244C45.0472 381.244 178.136 350.535 377.043 395.871C575.95 441.208 776.324 397.338 796.792 365.162C764.758 403.552 559.058 401.352 507.212 398.805C455.366 396.244 194.051 332.858 45.0472 381.244Z" fill="#19321B"/>
<path d="M42.6545 411.348L54.3617 409.881L90.95 474.567L102.554 436.486L85.0836 406.047L96.9194 404.568L133.521 469.253L150.104 415.349C151.545 410.807 151.815 407.36 151.493 404.812C151.017 400.991 149.177 399.448 147.839 399.139C147.479 399.062 147.376 398.251 147.376 398.251L157.694 396.965L131.205 482.723L129.236 482.968L103.918 438.789L88.6472 488.049L86.6788 488.294L42.6545 411.348Z" fill="#19321B"/>
<path d="M216.809 456.311C212.152 449.647 204.986 446.122 197.949 446.122C184.621 446.122 178.703 455.05 178.703 463.722C178.703 471.891 183.99 479.687 193.163 479.687C198.695 479.687 205.99 476.664 215.291 468.996C206.993 478.799 196.174 484.087 187.117 484.087C175.165 484.087 168.128 474.785 168.128 465.227C168.128 455.038 176.181 444.475 194.54 444.475C202.966 444.475 211.522 447.614 216.796 454.665V451.641C216.796 435.92 216.925 420.829 199.197 420.829C184.106 420.829 177.069 431.147 175.551 436.679C178.188 425.988 188.249 418.449 199.57 418.449C223.718 418.449 227.487 433.913 227.487 451.654V471.145C227.487 478.066 229.623 480.575 232.517 480.575C234.91 480.575 237.805 478.812 240.056 476.548C237.419 481.076 232.517 483.469 227.86 483.469C222.071 483.469 216.796 479.829 216.796 471.518V456.311H216.809ZM175.435 437.451C175.435 437.194 175.564 436.949 175.564 436.692C175.564 436.949 175.435 437.207 175.435 437.451Z" fill="#19321B"/>
<path d="M258.131 425.988L248.418 424.663L248.688 422.669L290.178 428.342L289.908 430.336L268.732 427.442L262.48 473.164C261.309 481.758 264.577 485.63 269.311 486.286C275.911 487.187 285.135 481.977 289.689 474.605C282.948 486.763 273.222 490.12 265.374 489.052C256.781 487.882 250.58 481.192 251.828 472.096L258.131 425.988ZM274.033 415.606C273.402 420.211 267.664 424.122 254.298 422.553C263.342 423.286 268.668 418.681 269.324 413.818C269.8 410.331 267.883 406.767 263.175 404.979C270.276 405.944 274.637 411.116 274.033 415.606Z" fill="#19321B"/>
<path d="M355.083 453.828C352.793 463.104 340.327 471.698 315.741 471.08C334.126 468.482 342.629 460.222 344.624 452.156C346.579 444.218 342.128 436.512 334.563 434.659C323.203 431.868 315.831 440.281 313.027 451.628C308.962 468.109 314.481 490.97 330.961 495.022C345.974 498.715 358.646 485.129 360.409 480.639C356.305 492.063 340.751 501.571 324.76 497.634C303.031 492.282 296.495 474.091 300.561 457.611C305.913 435.882 323.28 429.526 337.805 433.103C350.837 436.345 357.154 445.415 355.083 453.828Z" fill="#19321B"/>
<path d="M378.922 439.934L389.651 441.259L381.919 503.655L371.19 502.33L378.922 439.934ZM411.869 440.847C417.864 441.594 420.334 445.196 419.923 448.438C419.524 451.68 416.385 454.459 411.02 453.802C411.844 448.206 409.657 445.402 406.157 444.964C401.539 444.398 394.772 447.859 389.343 454.922C394.257 446.019 403.764 439.844 411.869 440.847Z" fill="#19321B"/>
<path d="M439.671 511.49C450.735 513.213 462.275 510.164 463.548 501.969C466.083 485.695 421.055 486.325 424.709 462.834C426.587 450.779 438.899 446.083 450.58 447.897C461.515 449.596 471.717 456.787 472.721 469.163C471.422 458.653 461.721 452.31 452.163 450.818C442.848 449.364 433.572 452.503 432.299 460.711C429.752 477.114 476.272 475.828 472.579 499.551C470.508 512.84 456.254 516.996 442.835 514.899C428.426 512.66 414.751 503.153 418.224 489.812C415.69 502.034 427.5 509.598 439.671 511.49Z" fill="#19321B"/>
<path d="M530.163 435.483H585.998L587.503 443.536C587.503 443.536 586.5 443.408 586.371 443.163C584.737 440.397 573.171 437.502 554.684 437.502H541.601V521.499H558.081C580.968 521.499 590.269 516.597 591.157 514.577C591.285 514.204 592.16 514.204 592.16 514.204L588.764 523.505H530.163V435.483ZM551.159 474.85C557.193 474.85 565.247 480.639 571.538 480.639C573.93 480.639 576.066 479.764 577.7 477.616C575.937 481.514 573.429 482.903 570.663 482.903C564.5 482.903 556.704 476.87 550.67 476.87C547.531 476.87 544.881 478.375 543.119 483.032C544.624 476.728 547.518 474.85 551.159 474.85Z" fill="#19321B"/>
<path d="M615.806 483.058C615.806 499.782 624.104 518.398 638.565 518.398C646.489 518.398 651.764 515.503 654.659 510.229C651.764 517.523 644.856 521.55 634.165 521.55C612.912 521.55 603.983 504.954 603.983 488.474C603.983 471.878 613.04 455.398 634.165 455.398C644.984 455.398 652.022 459.167 656.293 464.699V425.345H667.112V519.659H656.293V484.319C653.9 470.36 645.73 457.276 633.148 457.276C621.21 457.276 615.806 469.472 615.806 483.058Z" fill="#19321B"/>
<path d="M698.49 496.63C695.956 497.402 693.344 497.801 694.013 501.133C696.663 514.204 748.793 484.01 754.556 512.48C757.798 528.51 742.116 538.48 725.841 541.774C708.95 545.196 696.059 537.927 694.193 528.677C693.473 525.101 694.373 521.331 697.229 517.678C694.991 521.215 694.309 524.818 695.004 528.265C696.702 536.653 706.608 543.112 721.892 540.011C737.176 536.911 747.545 528.536 745.242 517.189C742.99 506.099 730.717 508.839 718.277 511.361C705.952 513.857 693.447 516.134 690.977 503.925C690.179 499.988 694.322 496.322 698.49 496.63ZM706.068 447.884C724.066 444.244 735.014 453.957 737.484 466.153C739.954 478.349 733.522 491.587 715.652 495.202C697.654 498.843 686.564 489.027 684.12 476.947C681.637 464.763 688.198 451.5 706.068 447.884ZM693.589 470.553C695.982 482.389 705.926 494.739 718.007 492.295C727.372 490.404 729.945 481.54 728.093 472.418C725.674 460.467 715.755 448.232 703.546 450.702C694.309 452.567 691.749 461.431 693.589 470.553ZM732.261 438.48C731.656 435.521 729.122 434.363 726.536 434.891C725.185 435.161 723.899 435.804 722.87 437.039C720.438 432.009 723.294 428.355 726.986 427.609C730.434 426.914 734.512 428.651 735.606 434.08C736.404 438.03 734.795 443.356 728.118 449.711C731.888 444.835 732.763 440.937 732.261 438.48Z" fill="#19321B"/>
<path d="M830.28 452.464C826.665 461.315 813.067 467.979 788.829 463.773C807.393 463.888 817.016 456.967 820.168 449.287C823.269 441.722 819.988 433.45 812.771 430.504C801.951 426.078 793.409 433.321 788.983 444.14C782.551 459.849 784.661 483.263 800.369 489.696C814.688 495.549 829.212 483.971 831.592 479.777C825.855 490.48 809.079 497.608 793.833 491.368C773.121 482.89 769.313 463.953 775.745 448.232C784.223 427.519 802.324 423.775 816.18 429.449C828.646 434.543 833.574 444.436 830.28 452.464Z" fill="#19321B"/>
<path d="M314.262 610.615H278.78V557.417H285.766V609.392H295.646C309.553 609.392 315.33 606.047 315.78 604.838C315.934 604.607 316.385 604.607 316.385 604.607L314.262 610.615Z" fill="#19321B"/>
<path d="M328.388 565.78C328.388 564.185 326.561 563.04 324.361 563.657C324.052 560.39 326.265 558.871 328.465 558.871C330.896 558.871 332.415 560.544 332.415 562.589C332.415 564.944 330.433 567.761 325.725 569.048C327.629 568.057 328.388 566.771 328.388 565.78ZM331.733 572.624V610.615H325.197V572.624H331.733Z" fill="#19321B"/>
<path d="M338.873 572.624H345.858L356.871 602.111L358.312 598.084C361.206 589.953 361.888 585.013 361.888 582.196C361.888 580.369 361.58 579.455 361.438 579.082C362.043 580.369 362.352 581.964 362.352 583.868C362.352 587.586 361.206 592.604 359.161 598.457L354.825 610.615H353.539L338.873 572.624ZM359.933 572.624H366.919L377.931 602.111L385.303 582.35C385.907 580.523 386.139 578.851 386.139 577.487C386.139 574.451 385.071 572.624 385.071 572.624H390.089L375.873 610.615H374.586L359.933 572.624ZM361.374 578.851C361.374 578.928 361.451 579.005 361.451 579.082C361.451 578.928 361.374 578.851 361.374 578.851Z" fill="#19321B"/>
<path d="M414.185 571.788C427.706 571.788 434.1 581.514 434.1 591.78C434.1 602.111 427.642 611.76 414.185 611.76C400.664 611.76 394.205 602.034 394.205 591.78C394.205 581.437 400.805 571.788 414.185 571.788ZM400.664 586.673C400.664 597.158 407.199 610.074 417.53 610.074C424.593 610.074 427.642 604.066 427.642 596.849C427.642 586.364 421.106 573.37 410.853 573.37C403.777 573.383 400.664 579.455 400.664 586.673Z" fill="#19321B"/>
<path d="M444.199 572.624H450.734V610.615H444.199V572.624ZM472.772 596.258C472.695 588.358 473.609 573.152 461.451 573.152C454.838 573.152 452.484 575.21 451.416 576.42C453.616 573.152 458.338 571.865 462.133 571.865C479.912 571.865 479.308 585.927 479.308 596.862V603.629C479.308 607.81 480.594 609.328 482.344 609.328C483.785 609.328 485.534 608.261 486.898 606.897C485.303 609.637 482.267 611.078 479.449 611.078C475.95 611.078 472.759 608.878 472.759 603.861V596.258H472.772Z" fill="#19321B"/>
<path d="M496.792 588.5C496.792 598.612 501.809 609.856 510.544 609.856C515.33 609.856 518.521 608.106 520.27 604.916C518.521 609.328 514.339 611.747 507.881 611.747C495.042 611.747 489.639 601.712 489.639 591.768C489.639 581.733 495.106 571.775 507.881 571.775C514.417 571.775 518.675 574.052 521.261 577.397V553.61H527.796V610.602H521.261V589.246C519.82 580.807 514.88 572.907 507.277 572.907C500.059 572.92 496.792 580.292 496.792 588.5Z" fill="#19321B"/>
<path d="M567.691 581.669C567.691 587.445 561.606 594.289 547.094 597.48C557.502 593.299 561.31 587.226 561.31 582.209C561.31 577.269 557.592 573.396 552.87 573.396C545.808 573.396 542.681 579.404 542.681 586.467C542.681 596.721 549.217 609.341 559.47 609.341C568.81 609.341 574.291 599.538 574.664 596.644C573.905 603.938 566.147 611.76 556.202 611.76C542.681 611.76 536.223 602.034 536.223 591.781C536.223 578.259 545.499 572.02 554.53 572.02C562.674 572.02 567.691 576.42 567.691 581.669Z" fill="#19321B"/>
</svg>
