<svg width="1004" height="1062" viewBox="0 0 1004 1062" fill="none" xmlns="http://www.w3.org/2000/svg">
<path d="M995.003 656.091C995.115 655.794 995.066 655.521 994.829 655.298C995.675 653.474 1000.43 651.377 994.269 650.062C992.614 649.702 992.988 647.445 993.796 646.378C997.579 641.341 998.674 636.019 996.21 630.126C996.223 629.555 996.235 628.984 996.248 628.414C997.181 626.329 1002.13 627.855 1000.74 623.55C998.674 623.402 998.052 626.156 995.974 625.672C994.879 623.563 994.17 620.126 995.426 619.283C1000.48 615.884 998.712 612.211 996.87 608.266C998.662 606.827 1001.35 609.581 1003.12 606.778C1001 604.929 998.425 606.058 996.173 605.636C996.497 600.748 997.293 595.86 993.759 591.506C992.602 590.091 993.012 587.883 993.672 586.109C995.675 580.675 993.05 579.943 988.57 580.985C984.837 578.107 983.381 575.465 987.139 570.937C989.889 567.612 991.594 562.562 992.154 558.679C992.876 553.68 993.796 549.586 997.641 546.571C1000.85 544.053 998.687 543.221 996.633 542.651C994.891 542.167 992.95 542.279 991.109 542.341C987.761 542.465 986.169 541.906 983.842 538.271C980.457 532.962 982.075 528.21 981.901 523.111C974.746 525.493 972.568 524.612 971.436 519.067C971.759 518.633 972.083 518.198 972.419 517.777C976.624 517.169 975.156 513.894 975.007 511.648C974.808 508.807 972.804 507.505 969.88 507.889C967.055 503.758 971.635 499.527 969.694 495.384C968.698 493.932 965.326 493.858 966.16 491.761C967.877 487.494 964.977 483.424 966.321 479.33C966.682 479.33 967.043 479.281 967.379 479.169C968.785 479.355 970.104 479.368 970.813 477.817C970.104 476.452 975.405 477.941 972.07 475.05C970.95 474.07 968.511 473.065 969.743 470.584C969.83 467.855 972.63 468.426 974.248 467.098C964.293 461.056 975.131 454.766 973.862 448.539C971.498 447.968 968.126 449.829 967.367 445.772C966.881 445.958 966.483 446.02 966.16 445.995C966.558 445.933 966.968 445.847 967.367 445.772C967.317 445.363 967.279 444.953 967.23 444.544C967.64 442.137 967.827 440.202 964.318 439.805C962.153 439.557 959.527 439.247 958.731 435.984C957.71 431.778 962.414 433.13 963.808 430.041C958.27 431.344 958.208 428.317 958.768 424.843C959.403 420.923 958.009 419.074 953.953 419.757C953.517 424.843 957.399 429.632 952.584 434.731C949.809 437.671 953.094 445.239 956.566 446.913C956.69 448.303 956.678 449.73 956.976 451.082C957.773 454.717 957.673 458.389 960.062 461.875C961.692 464.245 957.598 468.388 961.008 471.378C960.635 472.222 960.572 472.854 960.697 473.376C960.373 477.767 962.153 482.221 960.635 486.588C956.927 492.009 960.635 496.786 961.941 501.785C962.663 505.47 965.326 510.817 964.417 512.38C961.232 517.864 963.522 523.521 962.053 528.818C958.308 534.723 964.517 534.326 966.856 536.373C966.856 536.373 966.881 536.373 966.894 536.373C966.807 536.584 966.782 536.696 966.856 536.373C964.865 538.631 962.588 540.405 964.716 544.239C966.645 547.737 961.456 549.35 961.157 552.613C960.286 562.004 959.639 571.383 960.834 580.787C959.017 582.983 959.49 585.836 958.656 588.293C957.063 592.994 960.66 597.237 959.677 601.84C959.627 601.815 959.589 601.778 959.54 601.741C956.13 603.478 959.565 607.299 957.2 609.346C951.924 617.36 953.716 626.838 952.546 635.51C951.277 644.914 947.395 653.35 945.653 662.468C943.749 672.418 938.062 681.747 941.211 692.441C937.278 695.22 939.319 700.046 937.415 703.52C944.309 705.331 941.696 710.48 941.397 714.809C941.322 715.578 941.248 716.36 941.173 717.129C938.237 717.638 935.462 718.295 936.457 722.34C936.333 723.531 936.196 724.722 936.071 725.913C933.645 726.322 934.304 722.985 932.177 722.774C930.87 724.349 932.811 725.714 932.488 727.166C925.47 725.454 924.35 730.937 922.496 735.391C920.691 739.733 920.293 745.911 917.083 748.157C911.782 751.866 910.139 756.059 910.002 761.741C906.755 762.597 904.901 764.235 906.357 767.907C906.904 769.284 906.717 770.649 905.797 771.939C901.441 778.076 901.723 783.427 906.643 787.992C906.531 789.618 906.406 791.255 906.294 792.88C905.423 793.538 905.075 794.419 905.162 795.486C904.465 797.049 902.997 798.86 905.261 800.051C906.406 800.647 907.19 799.195 907.464 797.979C907.551 796.751 907.638 795.523 907.738 794.307C908.347 791.144 908.335 787.719 911.446 785.61L911.496 785.734C913.337 785.697 914.731 786.119 914.868 788.365C914.93 789.469 912.815 791.416 915.627 791.565C917.643 791.665 917.244 789.729 917.456 788.327C918.004 784.593 916.349 782.956 912.703 783.005C913.051 776.48 909.915 769.904 913.051 763.428L913.611 763.404C917.668 765.103 921.027 765.314 921.562 759.632C924.424 758.975 928.755 760.389 929.514 756.444C930.82 749.608 937.403 746.507 939.817 740.316C941.049 737.177 942.865 734.795 941.397 731.421C941.82 730.639 942.243 729.845 942.666 729.064H943.077H943.488C946.972 731.123 951.29 726.074 954.761 731.706C954.761 728.084 954.761 725.838 954.761 723.593C954.948 723.245 955.023 722.873 954.985 722.476C957.238 720.739 957.225 720.777 955.147 719.288C954.699 718.965 954.065 718.295 954.139 717.911C955.023 713.569 951.812 715.38 949.996 715.095C946.138 713.048 948.054 710.666 950.083 709.065C953.218 706.572 956.13 701.895 961.108 706.324C964.791 706.133 966.529 702.924 966.321 696.696C967.927 694.377 968.76 691.188 971.971 690.568C975.529 689.873 977.682 692.714 981.328 696.237C979.511 691.672 983.966 690.022 983.107 689.017C977.508 682.504 982.933 679.787 986.89 676.45C987.127 674.428 987.363 672.393 987.587 670.371C994.456 671.5 992.602 663.498 996.882 661.414C998.898 660.434 995.738 657.99 994.954 656.191L995.003 656.091Z" fill="#618376"/>
<path d="M632.763 476.726C638.139 462.707 638.077 448.974 630.61 435.612C630.026 434.434 629.441 433.243 628.856 432.064C625.882 426.37 620.793 422.586 615.865 418.951C605.164 411.049 584.495 408.232 574.254 417.177C570.795 417.934 569.277 421.829 565.27 422.933V416.396C565.27 405.9 565.332 395.405 565.22 384.909C565.195 382.738 566.191 379.413 561.848 380.033C560.604 380.033 559.359 380.033 558.128 380.021C553.984 380.021 549.828 380.021 545.684 380.009C540.259 378.694 540.694 382.316 540.694 385.765C540.719 422.45 540.694 459.147 540.732 495.831C540.732 497.816 540.072 500 541.864 501.662C546.02 503.387 550.363 502.282 554.606 502.369C564.374 502.555 564.387 502.419 566.191 493.499C571.678 497.519 576.656 502.332 583.823 502.903C588.066 504.801 592.347 506.24 596.951 504.094C607.503 502.406 617.358 499.367 624.053 490.199C626.106 489.864 626.703 488.078 627.624 486.626C629.939 483.636 631.444 480.225 632.776 476.726H632.763ZM606.196 473.798C604.517 475.845 602.351 477.495 600.41 479.319C592.671 483.003 584.794 482.669 576.83 480.125C570.82 476.205 566.701 470.846 564.449 464.059C564.573 463.7 564.511 463.377 564.275 463.079C564.536 457.174 563.74 451.182 567.174 445.723C574.441 434.136 590.58 430.203 601.232 437.61C612.555 445.5 615.006 463.017 606.196 473.798Z" fill="#618376"/>
<path d="M650.097 471.925L651.49 474.207C651.864 479.926 654.576 484.417 658.807 488.102C659.292 488.97 659.579 490.05 660.288 490.67C678.941 507.257 704.611 509.8 725.554 494.752C733.704 488.896 739.316 480.795 741.008 470.523C742.128 467.843 743.136 465.151 742.402 462.161C744.455 454.643 742.34 447.621 739.776 440.661C736.491 431.183 730.083 424.385 721.497 419.435C708.071 408.989 684.042 409.038 668.625 419.559C659.33 425.514 652.2 433.069 650.109 444.371C646.949 451.715 647.036 459.246 648.815 466.875C648.803 466.875 648.79 466.888 648.778 466.9C649.014 467.831 649.263 468.761 649.499 469.692C649.425 470.436 649.599 471.23 650.072 471.912L650.097 471.925ZM684.229 479.07C674.896 473.872 671.91 465.722 672.445 455.747C672.968 446.095 678.107 439.173 686.842 435.935C695.938 432.56 704.835 433.999 711.891 441.431C713.857 443.502 715.425 445.959 717.179 448.229C718.075 453.129 719.158 458.005 718.672 463.054C713.334 482.333 694.719 484.901 684.241 479.07H684.229Z" fill="#618376"/>
<path d="M848.022 473.14C853.547 461.913 852.153 450.723 847.848 439.545C842.323 426.928 832.965 418.566 819.763 414.485C816.664 412.09 813.056 412.227 809.435 412.363C808.688 412.252 807.954 412.152 807.207 412.041C805.44 410.924 803.698 411.954 801.944 412.103C788.48 412.028 777.281 417.015 768.309 427.027C767.04 427.796 765.833 428.615 765.696 430.302C763.071 432.188 761.552 434.893 760.532 437.796C757.795 445.587 755.704 453.526 756.55 461.925C756.824 464.196 755.941 466.751 758.23 468.513C758.765 473.339 759.562 478.066 763.008 481.849C771.209 498.461 786.526 503.845 803.126 504.689C815.731 505.334 828.025 501.215 837.383 491.811C842.522 486.651 847.96 481.328 848.009 473.14H848.022ZM803.935 481.874C790.396 481.874 780.491 471.577 780.641 457.62C780.778 444.309 790.645 434.434 803.698 434.533C817.274 434.644 827.042 444.532 826.955 458.079C826.868 471.949 817.287 481.862 803.935 481.874Z" fill="#618376"/>
<path d="M332.081 973.315C326.581 974.605 322.736 972.781 320.832 967.397C320.272 965.784 319.028 965.425 317.646 964.854C313.254 963.055 308.712 961.455 304.668 959.048C300.362 956.48 294.9 956.108 291.266 953.676C283.253 948.329 274.766 944.26 266.292 939.893C262.286 937.821 257.955 941.146 254.708 937.709C254.857 937.437 254.857 937.164 254.732 936.878C257.246 933.864 255.379 932.4 252.916 930.551C245.81 925.217 237.523 921.917 230.854 915.465C224.943 909.759 217.253 905.479 210.272 900.665C209.824 900.243 209.438 899.759 208.941 899.412C204.175 896.211 201.686 888.78 193.673 891.522C192.117 892.055 190.835 890.318 191.595 888.78C193.859 884.177 190.313 883.21 187.488 881.709C186.966 879.562 185.472 878.235 183.668 877.168C181.677 874.612 179.86 871.846 176.438 870.953C172.743 864.08 166.16 859.824 160.909 854.391C153.219 846.438 147.483 836.948 139.643 829.12C136.731 826.217 135.313 820.994 132.712 818.587C126.752 813.091 123.305 805.858 117.73 800.288C117.718 798.886 117.307 797.645 116.2 796.703C115.727 795.611 115.055 794.742 113.848 794.408C113.661 794.122 113.4 793.973 113.064 793.961C101.703 773.404 89.5834 753.257 79.1807 732.179C79.2056 729.822 78.5336 727.762 76.6174 726.236C75.4103 725.182 74.614 724.127 74.2282 722.316C72.9466 716.237 71.8764 710.009 67.8572 704.898C66.9986 696.896 63.1162 689.936 60.192 682.642C59.993 674.305 56.1479 666.874 54.0948 659.021C48.1095 636.181 43.0824 613.217 41.6514 589.584C40.4941 572.674 37.7441 555.852 38.329 538.856C38.7147 527.653 39.6604 516.475 40.3572 505.273C40.7679 502.767 41.1661 500.273 41.5767 497.767C41.6762 493.673 41.7633 489.579 41.8629 485.485C43.8787 483.177 42.709 480.473 42.8086 477.93C43.4183 473.563 43.0948 468.786 44.8618 464.941C46.9771 460.338 44.8866 460.661 41.8131 460.785C41.39 460.76 40.967 460.723 40.5439 460.698C40.1333 460.673 39.7226 460.648 39.312 460.623C38.1796 460.065 37.1593 459.395 36.7238 458.117C36.4625 456.877 35.9772 455.611 37.122 454.532C37.4579 454.557 37.769 454.507 38.0677 454.358C39.2622 454.135 40.6559 453.403 41.614 453.775C46.778 455.773 47.3878 452.733 48.7441 448.776C50.9093 442.486 49.4907 435.762 51.9172 429.633C52.4522 427.859 54.3436 426.705 54.2068 424.633C54.6672 421.842 55.1276 419.051 55.5755 416.247C55.9488 416.036 56.3221 415.825 56.6954 415.614C59.5699 404.3 63.4771 393.333 67.6083 382.428C71.528 374.203 72.3493 364.774 77.5755 357.07C79.2429 354.614 80.1264 351.922 80.425 349.006C82.8764 342.233 88.0404 336.65 89.1354 329.281C93.8515 327.581 93.4782 322.234 96.3899 319.244C97.5845 315.187 100.782 312.408 103.035 309.034C105.026 306.044 106.581 303.042 104.914 299.382C104.366 297.41 102.101 294.891 106.469 294.482C110.028 294.842 116.561 286.964 116.673 282.187C118.216 281.418 120.12 281.232 121.078 279.508C121.252 278.726 121.414 277.957 121.588 277.175C121.588 277.175 121.575 277.175 121.563 277.175C126.142 273.677 130.112 269.806 130.049 263.467C128.83 263.417 127.623 263.367 126.403 263.318C125.956 262.946 125.495 262.573 125.047 262.201C125.545 259.236 123.529 258.678 121.351 258.579C120.008 258.517 118.788 259.46 119.273 260.899C121.513 267.437 116.81 265.687 113.549 265.873C111.894 265.973 109.829 263.653 108.684 266.171C107.85 268.007 109.194 269.62 110.725 270.885C113.848 273.466 113.052 275.277 109.493 276.431C108.361 276.803 106.992 276.741 106.394 278.106C105.225 278.329 104.428 279.235 103.508 279.768C99.1648 282.311 96.0042 287.038 90.3051 287.125C85.5393 290.276 87.1445 294.122 89.1105 298.017L95.1207 298.402C93.6275 303.823 91.985 309.22 90.7406 314.691C90.3549 316.403 92.7689 319.17 89.9194 319.864C87.1569 320.534 85.3153 317.21 85.0042 315.436C84.1581 310.585 81.0099 311.825 78.1106 311.875C76.1694 311.949 73.9545 310.994 72.2622 313.872C74.3153 314.021 76.045 314.145 77.7746 314.282C79.2429 315.386 77.3266 316.825 78.1355 318.004C77.0653 318.76 75.9952 319.517 74.925 320.274C72.3244 320.807 73.2576 323.921 71.0676 325.212C68.3923 326.787 67.6705 330.434 68.7656 333.102C70.1468 336.451 71.752 330.137 73.7927 332.593C73.9047 332.717 74.166 332.717 74.3651 332.779C74.6513 334.466 74.9375 336.154 75.2237 337.841C75.2735 338.238 75.3357 338.647 75.3855 339.044C75.2361 339.404 75.1615 339.789 75.1615 340.186C74.0291 341.066 72.6106 341.736 72.6728 343.51C68.5416 343.759 63.1287 340.297 61.3244 347.406C61.2746 347.58 60.192 347.505 59.5823 347.542C58.8357 344.131 58.4375 340.682 58.873 335.781C56.0608 339.59 56.795 342.505 56.7826 345.297C55.5133 348.795 58.3131 353.646 53.1988 355.978C52.9127 356.102 53.0744 358.571 53.5224 358.745C60.64 361.623 57.4296 367.566 57.7531 372.441C56.0235 372.466 54.3312 372.565 53.0122 373.918C50.2373 376.759 55.0529 380.22 52.7758 382.403C49.5156 385.542 52.4896 386.249 54.045 387.725C55.3889 390.331 58.3006 388.805 60.1547 390.033C57.9149 397.464 52.4025 393.68 47.9602 393.569C46.2803 393.68 44.6004 393.78 42.9206 393.891C44.7622 394.574 46.4545 395.169 48.0348 396.087C48.7441 398.134 46.2928 398.382 45.907 399.809C45.3097 401.595 46.3923 402.278 47.8357 402.737C46.3301 406.744 48.2837 410.714 47.9602 414.696C49.1796 417.872 46.4918 418.306 44.7871 419.423C44.6751 419.497 44.5756 419.572 44.476 419.646C45.7452 422.971 43.3188 426.842 46.0688 429.956C49.7769 434.149 47.2633 435.203 43.2317 435.451C42.7962 435.117 42.3606 434.794 41.9251 434.459C41.4025 433.702 39.9715 433.479 40.0462 433.95C40.8425 438.652 35.9896 441.766 36.674 446.356C34.6208 447.026 31.6717 446.766 33.1027 450.587C33.7373 452.274 33.0156 454.11 31.9082 455.636C28.9342 457.088 28.6729 458.787 31.4478 460.747C31.5349 462.186 31.622 463.626 31.7215 465.077C30.3776 465.995 28.7102 466.665 27.7521 467.881C25.9353 470.188 26.9308 473.389 29.407 474.32C31.2735 474.94 30.6514 476.59 30.9002 477.892C27.0801 481.54 30.726 487.544 26.6944 491.13C24.1559 492.718 21.6299 494.293 18.8675 496.03C23.7702 497.606 21.605 501.141 21.7543 503.945C21.381 504.33 20.9953 504.714 20.622 505.087C20.3109 505.794 19.7634 506.501 19.7385 507.233C19.4274 514.614 19.4772 521.897 13.1186 527.566C9.77133 530.556 13.7532 530.742 15.6073 531.424C15.6944 532.615 15.7815 533.819 15.881 535.01C15.8188 535.816 15.7566 536.623 15.6944 537.429C15.5575 539.699 9.11182 540.679 14.3256 544.054C15.8935 548.483 16.2668 564.747 15.0349 570.243C14.8731 570.938 15.346 571.794 15.5824 572.551C17.2747 577.935 17.2871 579.436 15.6571 583.17C14.0021 584.609 13.1559 586.21 14.562 588.294C16.0926 592.437 15.881 596.73 15.5451 601.01C15.3211 603.913 14.9727 606.779 19.2159 606.928C22.9489 607.052 21.9659 609.669 21.7543 611.853C19.9749 612.547 18.9421 613.627 19.7136 615.674C19.7758 618.366 15.6322 617.77 15.8562 620.587L15.7691 620.723C8.42744 622.869 8.40255 623.353 13.0937 630.077C14.6491 632.298 16.6899 634.469 15.9681 637.868C14.8358 643.166 16.7148 647.123 22.1152 649.083C23.7826 649.691 23.8448 651.316 23.6706 652.743C23.4466 654.443 22.4512 655.013 20.5847 654.79C17.8222 654.455 15.2962 655.162 13.6537 657.854C19.1537 658.127 22.6751 661.576 22.7996 667.233C22.8494 669.28 23.907 669.429 25.2634 670.062C26.9806 670.856 29.3075 670.719 30.3527 672.63C29.3448 675.384 26.0598 673.052 25.1389 675.458C25.5745 678.845 31.0247 678.548 30.5394 682.17C30.0914 685.483 29.7555 687.319 34.148 687.802C37.1468 688.137 37.1717 690.73 34.6582 692.69H28.6355C30.4772 694.378 31.6717 694.998 33.1276 694.998C38.6401 694.713 38.8391 698 37.9059 702.057C34.9817 702.64 34.3968 704.836 34.2351 707.33C33.476 708.62 32.717 709.922 31.9455 711.213C30.3776 710.481 28.8969 710.171 27.5779 712.155C28.7849 713.607 30.6016 712.863 31.9953 713.359C33.8742 713.284 36.9353 710.543 37.1966 712.565C37.7317 716.758 41.7634 717.031 43.2317 719.785C43.2317 720.802 43.6547 722.304 43.1446 722.75C37.8437 727.44 41.8131 733.382 40.9919 738.642C40.8052 739.821 42.4353 739.349 43.1943 738.531C45.4839 739.325 48.1219 739.536 49.2667 742.203C49.3165 742.563 49.3414 742.922 49.3538 743.282C51.8425 742.079 53.2611 742.712 53.2859 745.652C53.2984 747.5 53.9952 749.287 55.8991 749.188C60.5529 748.927 62.2079 751.756 62.631 755.465C62.942 758.232 65.1943 758.318 66.7 759.484C66.5257 760.651 66.3515 761.817 66.1773 762.995C65.3436 763.665 65.3934 764.186 66.4262 764.559C69.0144 766.73 73.5314 764.633 75.3108 768.578L75.2859 769.062C74.6015 772.56 76.5551 776.133 74.9624 779.669C74.6886 780.277 75.7961 782.274 76.0076 782.225C81.8934 781.121 83.2746 786.716 86.6965 789.234C85.7259 790.884 84.1456 792.509 86.4228 794.321C88.4884 796.306 91.0642 796.889 93.8017 796.678C97.4103 796.392 99.1773 797.236 98.0449 801.417C97.2361 804.382 98.7666 808.017 100.82 809.158C105.237 811.615 104.491 814.741 103.134 817.917C101.604 821.527 106.357 825.063 103.707 827.705C99.3515 832.035 103.333 832.891 105.847 833.772C109.269 834.963 112.828 835.012 111.658 840.446C111.086 843.126 113.86 841.625 115.267 841.724C125.358 842.431 130.398 846.885 130.336 854.986C129.651 856.636 129.614 858.261 130.423 859.886C131.941 861.735 133.608 860.854 135.263 860.159C137.441 859.961 139.967 859.031 141.062 861.859C141.896 864.005 141.771 866.139 139.693 867.901C138.834 868.62 138.536 869.997 137.988 871.077C135.91 874.563 136.843 876.325 140.975 876.2C142.779 876.151 144.583 875.99 146.388 875.89C148.291 876.275 148.665 874.129 150.071 873.682C152.286 877.478 148.851 882.441 153.48 886.162C156.305 888.433 160.312 888.879 162.278 892.217C162.066 896.459 162.888 900.591 160.038 904.709C157.4 908.531 159.155 910.367 163.846 909.771C165.04 909.622 166.26 909.672 167.467 909.635C167.417 909.672 167.392 909.709 167.342 909.734C168.114 912.562 170.117 913.716 173.303 914.535C171.635 911.012 170.316 908.22 168.997 905.429C172.581 900.268 178.703 897.402 180.918 900.194C182.984 902.786 182.834 906.558 184.253 909.697C185.348 912.104 181.739 912.972 180.57 915.118C183.954 916.16 186.082 917.971 184.838 921.768C183.568 921.954 182.262 922.289 182.461 923.889C182.673 925.601 183.917 924.733 184.776 924.485C186.095 924.1 187.712 924.559 188.683 923.145C192.316 921.061 195.361 923.327 197.816 929.943C198.401 927.561 198.861 925.49 199.421 923.443C200.342 920.068 202.918 918.257 206.091 918.369C209.575 918.48 209.874 921.855 209.998 924.41C210.235 929.224 213.246 932.722 215.187 936.729C215.287 938.243 213.781 940.178 215.673 941.146C216.855 941.754 217.166 940.253 217.203 939.186C216.631 934.769 219.916 931.631 220.488 927.326C227.693 933.156 228.838 942.089 223.263 944.421C226.237 946.518 229.87 948.155 232.085 950.922C234.45 953.875 235.794 956.889 240.286 954.346C241.368 953.738 243.085 954.259 244.516 954.259C245.089 956.281 246.196 957.572 246.993 954.644C247.565 952.522 247.839 949.905 245.935 947.895C246.706 943.875 248.847 943.503 251.933 945.662C251.97 950.24 257.719 946.27 257.657 948.925C257.545 953.924 261.663 954.47 264.277 956.517C266.18 958.018 265.608 959.705 265.571 961.467C265.21 961.889 264.849 962.311 264.488 962.732C262.846 963.167 261.191 963.601 259.548 964.035C258.192 964.234 256.363 962.906 255.641 965.251C257.109 966.839 259.088 966.181 260.817 966.516C261.999 967.037 263.181 967.558 264.364 968.079C264.463 968.811 264.55 969.531 264.65 970.263C264.488 974.27 263.269 977.26 258.403 976.776C257.557 976.751 256.698 976.714 255.852 976.689C255.491 975.151 256.761 973.091 254.347 972.062C253.177 974.072 255.155 975.87 254.608 977.744C255.28 982.892 253.836 989.567 262.684 988.76C263.007 986.85 261.402 986.626 260.195 985.907C258.677 985.001 257.856 983.562 258.366 981.714C258.901 979.778 260.618 980.213 261.974 980.188C263.194 980.163 264.413 980.473 265.633 980.622C269.316 984.282 275.488 979.977 278.823 984.728C279.955 983.451 282.842 984.89 282.967 982.036C283.253 974.99 292.312 979.816 293.817 974.208C293.879 973.972 295.497 974.965 295.733 976.081C296.381 979.158 298.347 979.146 300.275 977.607C303.486 975.027 305.8 976.54 307.505 979.121C309.72 982.495 306.049 982.061 304.606 983.351C302.204 985.51 301.806 988.748 302.067 991.949C302.142 992.854 302.876 993.934 303.473 993.599C305.775 992.333 309.259 993.189 310.429 989.939C310.89 988.649 311.661 987.272 312.968 988.103C318.119 991.415 317.957 987.445 318.032 984.418C318.082 982.26 317.721 980.287 320.396 979.481C322.748 978.761 325.075 977.396 326.68 980.771C327.738 982.992 329.181 981.751 329.903 980.523C330.724 979.121 330.998 977.471 333.163 977.421C335.08 977.384 335.602 976.069 335.167 974.407C334.719 972.719 333.337 973.017 332.143 973.302L332.081 973.315Z" fill="#618376"/>
<path d="M397.409 642.036C397.322 642.384 397.409 642.669 397.67 642.905C398.952 646.031 400.507 648.946 403.805 650.435C404.688 651.7 405.534 651.626 406.331 650.361C407.587 649.12 408.844 647.892 410.101 646.651L410.151 646.713C410.984 645.87 411.806 645.038 412.639 644.195C415.618 640.357 418.467 640.568 421.188 644.828C425.954 652.308 431.242 652.854 437.029 646.279C438.621 644.468 439.766 642.272 441.11 640.25C442.305 639.741 442.529 637.272 444.457 638.414C446.174 639.431 445.229 641.019 444.756 642.284C442.267 649.021 439.318 655.608 437.228 662.469C435.05 669.652 432.673 677.17 439.194 683.696C440.027 684.539 440.712 685.892 442.168 685.321C443.499 684.8 443.636 683.41 443.611 682.17C443.561 678.622 444.47 675.309 445.614 671.984C449.982 659.417 454.213 646.8 458.506 634.208C460.323 629.32 463.944 625.052 463.682 619.445L463.458 619.296C463.458 619.296 463.458 619.284 463.458 619.271C463.533 619.333 463.608 619.383 463.682 619.445C468.61 614.619 468.946 607.672 471.783 601.878C473.152 599.087 472.467 596.605 469.643 595.079C465.885 593.045 465.636 596.816 464.578 598.566C462.861 601.407 461.53 603.243 459.165 599.211C456.776 595.117 452.707 594.819 448.588 594.658C445.801 594.099 443.798 595.861 442.043 597.375C433.47 604.831 426.501 613.527 422.47 624.296C420.516 626.851 418.712 629.543 416.547 631.925C414.17 634.531 410.673 639.716 409.031 638.637C405.435 636.267 409.989 632.36 410.126 628.935C410.126 628.737 410.126 628.526 410.138 628.315C411.607 625.425 413.075 622.546 413.548 619.284C415.452 614.855 417.579 610.5 419.197 605.972C420.392 602.635 422.706 598.963 418.662 595.774C418.301 595.563 417.978 595.414 417.667 595.303C414.892 594.025 414.643 594.509 412.142 599.372C411.52 600.24 410.91 601.121 410.288 601.99C409.777 602.808 409.267 603.627 408.757 604.446C402.175 619.557 392.145 631.776 377.462 641.689C378.296 631.69 383.709 624.258 385.339 615.723C385.737 614.954 386.135 614.185 386.533 613.403C386.906 612.497 387.28 611.592 387.653 610.674C389.134 609.011 389.719 606.94 390.291 604.868C391.287 602.436 393.116 601.754 395.667 601.94C400.644 602.312 401.067 599.347 398.79 596.27C396.413 593.07 396.737 590.489 398.429 587.35C399.275 585.775 399.512 583.877 400.034 582.115C400.507 581.42 400.98 580.738 401.453 580.043C403.369 576.185 405.335 572.352 407.202 568.468C408.67 565.429 408.931 562.687 405.397 560.64C401.415 558.32 400.52 562.265 399.512 563.978C394.82 571.917 390.627 580.13 386.247 588.256C384.393 591.234 382.663 594.05 378.221 593.367C373.53 592.66 372.895 596.171 375.347 598.404C379.59 602.275 377.126 605.612 376.006 609.284C372.124 618.043 367.52 626.305 360.029 632.595C358.498 634.146 356.881 635.635 356.196 637.806C355.86 638.19 355.524 638.587 355.188 638.972C353.981 638.997 352.787 639.009 351.58 639.034C353.658 632.471 355.748 625.921 357.826 619.358C359.083 618.849 358.983 617.82 358.847 616.765C361.074 611.505 363.314 606.245 365.504 600.972C366.574 598.392 365.404 596.804 363.189 595.439C361.086 594.149 359.382 593.938 357.988 596.196C353.297 603.801 347.523 610.736 343.89 618.986C342.807 619.619 342.023 620.475 341.874 621.79C339.248 625.822 336.61 629.854 333.985 633.873C330.115 635.486 330.513 642.681 324.304 641.217C323.719 636.764 324.913 632.595 326.494 628.538C329.866 619.891 333.026 611.145 336.909 602.734C338.626 599 337.954 596.953 334.793 595.166C330.986 593.032 330.525 596.581 328.945 598.553C323.034 605.947 321.056 616.008 312.968 621.901C310.74 622.435 307.978 625.412 306.883 620.611H306.858C308.277 617.447 308.774 614.073 308.948 610.649C308.998 609.483 309.459 608.019 308.14 607.337C306.584 606.53 306.136 608.279 305.34 608.999C302.689 611.406 301.358 614.619 300.188 617.907C298.944 623.973 298.745 630.387 294.29 635.374C292.249 637.471 290.209 639.567 288.168 641.664L288.106 641.726C284.373 642.446 282.842 640.808 282.967 637.136C283.054 634.518 282.917 631.888 282.892 629.27C285.455 624.531 285.829 618.825 289.4 614.532C293.058 609.222 297.053 604.185 301.905 599.868C303.212 599.521 305.166 599.719 305.004 597.734C304.867 596.097 303.411 595.538 301.781 595.762C300.649 595.278 299.529 594.794 298.396 594.298C296.07 592.772 294.489 594.298 292.859 595.625C287.546 599.099 284.074 604.198 280.627 609.334C276.932 614.706 273.734 620.326 272.128 626.715C270.424 634.407 269.49 641.875 277.939 646.626C285.356 652.544 288.952 652.817 294.402 647.83C299.865 643.178 300.848 635.66 305.551 630.523C307.405 630.052 309.322 629.705 310.516 627.955C310.915 627.819 311.325 627.682 311.723 627.546C315.058 627.893 312.694 630.313 313.241 631.677C311.624 637.272 312.022 642.396 316.651 646.564C317.472 649.728 319.065 651.639 322.674 650.162C324.03 649.008 325.374 647.842 326.73 646.689C330.687 644.245 333.039 640.473 335.204 636.54C336.511 635.374 337.207 632.769 339.248 633.414C341.451 634.109 340.293 636.59 340.405 638.277C340.754 643.326 343.454 647.458 347.287 649.852C350.883 652.098 352.812 647.358 355.387 645.522C356.52 644.195 357.64 642.867 358.772 641.54C359.046 641.317 359.183 641.031 359.17 640.684C361.559 639.208 363.973 633.216 366.337 640.709C371.8 652.978 377.337 653.934 385.687 644.058C386.62 642.954 387.417 641.639 388.561 640.833C390.975 639.133 391.461 634.655 394.298 634.754C398.753 634.928 394.385 640.299 397.396 641.974L397.409 642.036ZM438.82 618.465C439.617 617.634 440.301 616.728 440.898 615.785C441.384 615.003 441.807 614.185 442.155 613.329C442.329 612.894 442.504 612.473 442.653 612.026L442.703 612.063C442.703 612.063 442.703 612.063 442.715 612.063C443.536 611.567 444.159 610.934 444.47 610.078C444.544 609.867 444.619 609.644 444.656 609.396C445.527 608.49 446.386 607.572 447.257 606.667C447.394 606.543 447.543 606.431 447.68 606.307C447.979 606.059 448.277 605.811 448.576 605.563C449.012 605.203 449.447 604.831 449.883 604.471C452.583 603.032 455.407 602.535 458.406 603.354C458.406 603.354 458.431 603.354 458.444 603.354C458.742 604.434 458.805 605.414 458.705 606.319C458.195 610.872 453.454 613.564 452.035 617.72C452.035 617.733 452.01 617.745 452.01 617.758C451.674 618.192 451.351 618.626 451.015 619.048C450.219 619.718 449.522 620.462 448.875 621.244C448.004 622.298 447.257 623.452 446.685 624.705C446.398 625.338 446.125 625.983 445.913 626.653C443.375 628.725 441.546 631.33 440.052 634.208C439.94 634.27 439.853 634.332 439.754 634.394C438.061 635.449 437.004 637.061 435.859 638.662C434.963 639.89 433.967 641.937 432.014 640.92C430.284 640.026 430.732 637.88 431.143 636.416C432.213 632.694 433.656 629.072 434.938 625.412C435.398 624.581 435.871 623.75 436.332 622.919C437.165 621.417 437.999 619.929 438.833 618.428L438.82 618.465Z" fill="#618376"/>
<path d="M275.226 583.455C281.834 572.599 277.628 559.66 266.006 554.623C251.049 548.159 237.087 551.546 223.474 558.742C222.08 558.853 221.197 559.672 220.562 560.826C216.22 562.811 212.773 565.95 209.575 569.399C202.009 577.922 201.935 585.998 209.401 591.022C212.275 581.482 219.567 575.279 226.373 568.729C227.045 568.245 227.717 567.761 228.402 567.265C231.052 566.93 232.943 565.243 234.847 563.605C242.923 561.359 250.787 558.171 259.51 559.474C267.424 560.652 271.456 566.334 268.631 573.48C267.076 577.425 265.06 581.184 261.899 584.385C255.69 590.687 249.058 596.444 242.027 601.778C240.186 602.299 238.456 603.019 237.112 604.446C233.79 605.699 230.48 606.939 227.157 608.192C225.141 606.927 226.062 604.979 226 603.255C230.119 595.24 234.238 587.238 238.344 579.212C239.787 576.383 240.186 573.89 236.788 571.905C233.192 569.82 231.848 572.637 230.505 574.696C225.577 582.251 220.96 589.993 217.19 598.205C215.013 601.257 213.358 604.57 212.088 608.093L204.871 623.055C203.664 626.317 202.221 629.531 201.275 632.868C199.035 640.77 202.358 646.093 210.744 648.127C211.006 642.582 214.154 637.607 213.694 631.925C217.315 627.012 219.418 621.417 220.936 615.574C221.981 615.016 223.325 613.701 224.183 615.028C227.954 620.859 232.06 617.67 236.179 615.747C237.946 616.045 239.476 615.499 240.882 614.495C243.956 614.619 247.029 614.743 250.091 614.854C255.603 615.065 258.005 617.819 258.316 623.315C258.614 628.761 254.881 631.813 251.945 635.399C244.566 641.701 236.005 645.82 226.921 649.008C218.509 650.819 210.222 653.499 201.437 652.978C200.491 652.928 199.185 652.655 198.873 654.008C198.6 655.149 199.483 655.893 200.367 656.464C207.061 660.744 213.843 664.689 222.292 661.811C230.393 660.521 238.095 658.201 244.665 653.052C251.285 651.576 255.404 646.701 259.684 642.036C260.531 641.13 261.377 640.212 262.223 639.307C263.604 636.962 265.583 634.915 265.831 632.012C267.486 628.178 267.648 624.332 265.831 620.499C264.176 613.13 258.602 610.686 252.019 609.495C251.248 608.875 250.476 608.267 249.705 607.646C250.489 607.014 251.26 606.381 252.044 605.748C254.682 605.438 256.25 603.441 258.141 601.94C265.371 597.188 270.771 590.762 275.201 583.467L275.226 583.455Z" fill="#618376"/>
<path d="M495.911 640.176C496.719 644.865 499.245 649.12 503.75 650.287C507.893 651.353 509.76 646.962 511.813 643.96C513.53 641.453 515.235 638.947 516.952 636.454C518.707 635.474 520.436 634.767 521.942 636.838C522.689 639.853 524.68 642.061 526.758 644.208C535.344 652.867 541.59 653.587 549.84 646.825C550.176 646.863 550.425 646.738 550.562 646.428C558.625 638.91 565.183 630.238 570.671 620.723C572.288 619.209 573.284 617.398 574.105 614.793C571.454 615.947 570.272 617.535 569.289 619.334C563.304 627.1 555.042 632.434 548.036 639.109C547.252 639.506 546.468 639.903 545.684 640.3C540.744 640.486 535.232 642.806 531.947 636.702C531.337 631.826 532.37 627.249 534.398 622.832C535.617 623.006 536.837 623.179 538.056 623.353C544.776 625.735 549.343 623.725 554.581 616.096C555.539 614.532 556.759 613.081 557.418 611.406C560.977 602.325 556.809 593.293 548.87 593.678C543.706 593.926 539.214 596.841 535.53 600.625C530.093 604.31 528.313 610.637 524.63 615.587C524.891 617.783 522.403 618.614 522.141 620.549C521.22 625.35 518.52 629.184 515.397 632.782C514.999 633.191 514.601 633.6 514.202 634.01C513.891 634.444 513.58 634.891 513.269 635.325C510.868 635.771 510.469 638.588 508.404 639.431C505.703 637.037 507.446 634.63 508.528 632.372C510.892 627.447 512.323 622.237 513.543 616.939C513.879 616.083 514.227 615.24 514.563 614.384C517.015 611.964 517.039 608.553 518.134 605.588C518.035 603.069 520.436 600.96 519.329 598.281C518.06 593.963 516.007 592.673 512.858 596.767C511.627 598.367 510.718 600.216 509.66 601.965C507.719 603.541 506.873 605.823 505.741 607.932C501.199 614.991 496.657 622.038 492.115 629.097C490.51 631.169 488.743 633.129 487.349 635.325C485.707 637.93 483.728 641.838 481.041 640.994C478.029 640.052 479.846 635.796 479.784 632.955C481.153 632.013 480.904 630.561 480.954 629.209C484.562 620.128 487.897 610.922 491.891 602.015C493.633 598.119 491.244 596.668 489.067 595.154C486.416 593.318 485.52 596.234 484.475 597.71C477.656 607.312 472.268 617.622 469.481 629.159C467.627 632.335 468.51 635.784 468.523 639.146C468.224 641.578 468.05 643.959 470.563 645.485C471.559 647.408 472.318 649.555 474.769 650.187C476.013 650.77 477.245 650.671 478.452 650.063C480.132 649.443 481.24 648.178 482.273 646.813C484.911 644.58 486.677 641.615 488.843 639.01C490.684 636.801 491.381 632.658 495.761 633.414C495.786 635.66 495.525 637.967 495.898 640.151L495.911 640.176ZM548.994 603.826C550.761 603.181 552.329 602.226 554.208 603.243C554.208 604.124 554.195 605.005 554.183 605.885C554.183 606.518 554.183 607.138 554.171 607.771C554.158 607.784 554.146 607.796 554.133 607.821C550.238 612.349 545.945 616.393 540.657 619.284C540.396 619.309 540.172 619.309 539.948 619.321C535.991 619.396 537.671 616.641 538.143 614.495C538.143 614.458 538.168 614.408 538.168 614.371C541.665 610.761 543.743 605.749 548.982 603.826H548.994Z" fill="#618376"/>
<path d="M817.15 605.835C823.061 593.032 828.971 580.217 834.907 567.426C836.101 564.858 836.076 562.724 833.389 561.087C830.527 559.35 828.959 560.628 827.503 563.134C821.555 573.381 815.308 583.48 810.555 594.36C806.498 602.709 802.442 611.046 798.373 619.395C792.674 630.188 783.142 636.515 772.466 641.515C771.893 641.292 771.321 641.168 770.748 641.093C768.16 640.622 765.348 640.535 763.892 637.93C763.793 637.496 763.643 637.086 763.357 636.701C763.369 634.208 763.382 631.739 763.394 629.258C765.423 627.447 763.544 622.583 768.359 622.943C775.116 626.169 777.878 625.164 784.785 616.939C786.539 614.817 788.729 612.907 788.443 609.756C788.816 607.448 790.608 605.6 789.936 602.87C787.435 592.673 780.106 590.787 770.462 598.02C763.22 602.275 759.375 609.247 755.679 616.343C754.398 617.931 753.751 619.767 753.552 621.777C752.257 625.995 748.923 628.712 746.123 631.826C741.73 633.923 740.212 640.138 733.555 640.411C734.886 635.945 736.081 631.975 737.263 627.993C740.026 624.283 741.021 619.904 742.041 615.537C742.987 613.502 743.92 611.468 744.866 609.433C746.272 608.49 746.061 607.051 746.011 605.662C746.496 604.582 746.969 603.491 747.454 602.411C748.885 602.238 750.329 601.816 751.735 601.94C757.969 602.448 757.446 598.466 755.057 595.638C752.332 592.4 754.535 589.881 754.609 587.053C754.858 586.804 754.945 586.519 754.871 586.184C759.238 580.105 761.018 572.786 764.527 566.285C766.007 563.531 764.129 562.303 762.113 560.95C759.773 559.375 758.691 560.305 757.334 562.315C752.855 568.965 748.624 575.726 745.551 583.157C743.609 585.862 741.544 588.504 740.934 591.903C739.578 593.243 737.811 593.342 736.069 593.491C734.215 593.529 731.564 592.313 731.091 595.104C730.656 597.623 731.129 600.426 734.65 600.947C734.003 607.398 730.743 612.696 727.184 617.857C725.031 619.345 722.941 620.921 720.726 622.286C717.242 624.432 715.972 622.906 716.122 619.308C716.595 615.239 719.357 611.269 716.607 606.443C711.294 611.939 708.245 617.993 707.511 625.201C706.814 631.987 703.044 637.036 697.743 640.82C694.296 643.277 691.994 641.825 691.459 637.545C690.687 631.392 693.126 625.933 694.931 620.326C697.83 615.859 700.742 611.381 703.641 606.915C705.707 604.992 707.76 603.056 709.863 601.171C711.194 599.98 713.446 598.925 713.198 597.201C712.874 594.943 710.099 595.129 708.345 594.273C705.893 593.057 704.077 593.963 702.26 595.402C696.038 599.421 691.521 604.88 688.522 611.604L688.56 611.679C687.116 612.559 686.37 613.887 686.133 615.524C683.533 619.023 682.077 623.129 680.807 627.161C678.431 634.692 679.128 641.639 686.419 646.54C687.601 648.103 689.269 648.884 691.086 649.43C692.43 651.08 694.383 650.373 696.063 650.708C697.519 652.321 698.751 651.266 699.983 650.361C703.069 649.294 705.284 647.333 706.267 644.145C710.659 639.667 710.597 631.925 717.329 629.159C720.141 629.692 721.062 623.712 724.67 627.037C724.546 627.372 724.583 627.682 724.795 627.98C723.314 629.791 722.07 631.689 722.518 634.196C721.995 637.198 721.36 640.212 723.65 642.842C724.894 644.455 726.101 646.093 727.383 647.668C731.29 652.432 735.31 651.725 739.204 647.706C742.788 644.009 746.098 640.064 748.487 635.449C748.91 635.089 749.333 634.717 749.744 634.357C750.528 634.382 751.324 634.406 752.108 634.444C752.494 635.151 752.892 635.858 753.278 636.565C753.303 636.615 753.328 636.664 753.352 636.701C754.522 640.982 757.372 644.021 760.756 646.664C762.486 647.805 764.203 648.934 765.933 650.075C772.341 653.375 777.368 650.224 782.109 646.428C784.013 644.902 785.705 643.004 787.087 640.994C790.086 636.602 792.027 638.079 793.843 641.862C795.772 645.857 798.447 649.095 802.877 650.497C806.324 650.993 808.502 649.046 810.393 646.577C811.7 645.262 812.994 643.947 814.3 642.632C815.607 642.532 815.731 641.428 816.092 640.535C816.777 639.667 817.461 638.798 818.133 637.942C823.11 632.744 827.03 626.789 830.738 620.673C831.908 618.973 833.065 617.286 835.118 614.309C831.46 615.735 830.315 617.447 829.245 619.234C825.462 624.941 819.589 628.724 815.458 634.109C812.546 636.429 809.634 638.761 806.722 641.081C802.964 639.89 805.752 637.359 805.565 635.449C806.436 632.955 807.295 630.474 808.166 627.98C811.165 620.586 814.151 613.192 817.15 605.798V605.835ZM784.959 603.838C786.8 605.686 784.934 607.547 784.374 609.359C784.324 609.421 784.25 609.47 784.2 609.532C782.794 610.984 780.716 611.803 779.894 613.8C779.82 613.986 779.733 614.172 779.683 614.383C776.485 616.902 771.98 621.058 769.193 618.328C766.493 615.686 772.553 612.249 773.498 608.577C773.797 608.329 774.096 608.081 774.394 607.845C775.639 606.815 776.871 605.786 778.115 604.768C778.165 604.756 778.202 604.744 778.239 604.731C778.289 604.669 778.339 604.62 778.389 604.557C780.541 603.863 782.669 601.568 784.959 603.863V603.838Z" fill="#618376"/>
<path d="M445.95 999.876C445.788 996.415 442.466 998.077 440.525 997.792C434.676 996.923 428.791 996.861 422.88 995.559C419.247 994.765 413.311 990.534 409.964 997.246C407.276 998.797 405.049 996.613 402.585 996.34C401.49 996.142 400.469 996.092 399.997 997.395C398.926 998.176 396.55 997.035 396.587 998.945C396.624 1000.68 398.006 1002.21 399.947 1002.8C402.087 1006.23 404.128 1004.35 406.181 1003C406.343 1002.93 406.517 1002.82 406.691 1002.68C406.89 1002.87 407.114 1002.95 407.388 1002.93C407.811 1003.24 408.247 1003.56 408.67 1003.87H408.657C408.695 1004.19 408.782 1004.5 408.931 1004.8C409.018 1005.72 408.844 1006.89 410.113 1007.03C411.482 1007.18 412.017 1006.04 412.552 1005.02C420.491 1002.89 415.986 1010.88 418.711 1012.88C421.872 1011.81 417.579 1007.84 421.262 1007.12C423.029 1008.11 422.245 1009.95 422.731 1011.35C423.378 1013.2 424.299 1012.63 424.933 1011.18C427.297 1009.06 428.268 1011.72 429.774 1012.57C430.072 1013.76 430.309 1015.38 431.814 1015.12C432.76 1014.96 432.536 1013.41 432.374 1012.39C436.269 1007.28 437.314 1012.03 439.243 1015.01C440.5 1012.75 441.582 1011.18 443.723 1010.02C447.667 1007.9 446.112 1003.35 445.963 999.863L445.95 999.876Z" fill="#618376"/>
<path d="M909.704 308.475C908.509 308.016 902.785 317.209 903.718 317.83C906.717 319.814 905.871 324.343 909.666 325.943C910.911 326.464 911.321 329.615 913.636 328.635C916.174 327.556 913.063 325.869 913.611 324.554C913.611 320.733 916.485 317.991 917.954 319.926C922.01 325.273 921.425 317.581 923.603 318.227C923.852 315.969 926.005 314.48 923.018 311.391C918.688 306.925 913.922 310.125 909.704 308.475Z" fill="#618376"/>
<path d="M269.365 429.397C267.984 430.327 267.001 431.518 266.852 433.243C259.709 445.971 258.515 459.283 263.007 473.128C263.393 474.369 263.791 475.597 264.177 476.838C265.471 481.043 266.877 485.187 270.61 487.978C276.62 499.851 297.836 507.468 312.196 502.903C313.913 503.213 315.456 502.866 316.8 501.724C321.416 501.104 324.9 498.362 328.322 495.534C329.816 494.491 331.309 493.487 332.777 495.571C332.466 497.581 332.217 499.59 333.101 501.526C339.497 503.61 346.067 502.034 352.55 502.382C355.698 502.543 355.337 500 355.337 497.99C355.275 471.888 355.188 445.785 355.101 419.683C356.021 415.564 354.864 413.418 350.136 413.716C345.818 413.989 341.45 413.865 337.12 413.641C332.74 413.418 331.458 415.242 332.752 419.249C331.906 420.614 331.732 422.834 329.181 422.077C329.019 421.37 328.633 420.998 327.862 421.135C311.076 405.764 283.439 409.671 269.341 429.422L269.365 429.397ZM327.986 473.079C323.88 475.337 321.653 480.212 316.626 481.167C310.391 482.681 304.207 482.321 298.072 480.621C287.384 474.853 282.854 464.035 285.542 450.673C286.002 449.458 286.475 448.254 286.936 447.038C289.039 444.16 291.154 441.294 293.257 438.429C297.562 435.861 302.316 434.521 307.156 433.441L310.242 433.479C310.528 433.578 310.827 433.627 311.126 433.64C312.98 433.987 314.834 434.335 316.688 434.694C318.355 435.526 320.035 436.357 321.702 437.188C333.088 447.224 335.141 458.948 328.011 473.091L327.986 473.079Z" fill="#618376"/>
<path d="M197.555 167.952C202.47 170.247 200.852 175.818 203.677 179.031C204.336 180.569 204.535 181.785 202.183 181.81C197.99 181.847 200.479 185.643 199.197 187.405C198.426 188.459 199.769 189.737 200.815 190.308C203.241 191.66 204.025 189.092 205.157 188.013C208.007 185.296 207.82 180.309 211.752 178.299C212.014 178.311 212.263 178.212 212.524 177.964C215.51 177.741 220.152 180.52 219.704 174.044C221.309 173.597 223.312 174.738 224.569 172.877C226.423 170.917 229.198 169.751 229.907 166.786C232.346 166.885 234.611 166.55 236.117 164.305C242.6 161.799 247.067 156.092 253.45 153.425C254.483 150.534 257.756 151.03 259.597 149.38C269.067 145.088 276.695 137.446 286.886 134.468C288.155 133.798 289.437 133.129 290.706 132.459C291.017 132.347 291.316 132.198 291.627 131.975C292.622 130.635 293.717 129.568 295.596 129.568C299.23 129.543 301.221 126.739 302.253 124.109C303.535 120.822 299.192 121.988 298.01 120.325C297.264 119.259 296.766 117.596 294.315 118.13V125.71C292.946 127.112 291.303 127.459 289.437 126.988C288.404 125.809 287.359 123.861 285.629 124.779C282.555 126.404 286.351 128.7 285.48 130.685C280.453 131.305 275.027 130.945 270.485 132.794C265.384 134.865 261.19 139.059 255.267 139.691C253.799 139.853 253.077 141.391 253.226 143.016C252.343 144.269 251.459 145.522 250.588 146.775C250.414 146.626 250.215 146.564 249.991 146.589C249.493 145.572 250.115 143.823 248.697 143.525C247.44 143.252 247.254 144.629 247.104 145.646C246.32 146.453 245.126 146.986 244.329 146.391C239.265 142.594 237.784 145.696 236.751 150.063C236.527 151.006 235.98 152.482 235.32 152.643C228.526 154.231 230.492 159.851 229.758 164.23C227.058 166.253 223.984 165.31 221.023 165.31C219.704 163.647 218.422 164.206 217.153 165.384C215.51 165.471 213.868 165.558 212.225 165.645C207.883 166.513 204.237 162.469 199.085 164.838C196.236 166.153 196.509 167.518 197.542 168.002L197.555 167.952Z" fill="#618376"/>
<path d="M348.692 103.528C356.084 105.302 360.862 100.699 360.327 93.2802C360.016 89.0374 357.291 88.5783 354.441 89.0622C351.492 89.5708 348.643 91.0844 351.393 94.9674C350.571 96.8904 349.762 98.8009 348.941 100.724C348.02 101.617 345.855 102.858 348.692 103.54V103.528Z" fill="#618376"/>
<path d="M637.604 614.917C641.673 615.487 646.028 613.937 650.259 613.329C653.904 612.299 657.874 613.85 661.42 611.952C664.718 611.431 665.514 612.659 664.295 615.711C662.254 620.809 660.263 625.946 658.496 631.144C657.165 635.076 655.298 639.158 658.795 643.029C659.218 643.959 659.442 645.039 660.089 645.77C661.657 647.557 662.851 650.795 665.527 650.026C667.505 649.455 667.455 646.279 667.878 644.133C669.956 633.588 674.847 623.998 678.032 613.85C679.438 609.346 686.494 611.53 685.224 607.374C684.03 603.478 683.993 600.464 685.486 596.953C686.855 593.752 687.937 590.427 689.144 587.164C692.653 580.924 695.59 574.448 697.655 567.588C698.862 565.516 700.144 563.469 701.252 561.347C702.907 558.171 704.325 554.946 699.895 552.663C699.622 552.328 699.261 552.192 698.825 552.254C692.703 552.8 693.362 558.643 691.048 562.166C683.408 574.833 676.551 587.884 671.126 601.655C669.944 602.213 668.762 602.759 667.58 603.317C662.13 603.416 656.617 602.151 651.279 604.198C648.84 604.272 646.401 604.347 643.962 604.421C642.942 604.347 641.921 604.21 640.901 604.198C634.057 604.148 634.144 604.198 636.944 598.243C641.809 587.872 646.55 577.45 651.341 567.054C654.651 564.04 653.842 561.484 650.445 559.226C646.737 556.757 645.99 560.094 644.634 562.191C643.863 563.382 643.203 564.647 642.494 565.876C638.101 573.94 633.821 582.065 629.266 590.043C626.268 595.303 624.986 601.543 620.295 605.835C618.242 605.835 616.188 605.86 614.135 605.873C611.92 605.811 609.929 605.091 607.976 603.416C607.018 609.16 608.735 612.907 614.023 614.718C616.587 617.026 614.72 619.284 613.787 621.405C610.178 629.63 605.985 637.62 604.193 646.552C602.799 653.499 605.761 659.678 612.543 663.015C613.376 656.44 615.404 650.237 617.57 644.071C619.747 637.893 622.062 631.764 624.314 625.611C625.372 625.04 625.397 623.973 625.645 622.993C627.238 616.778 630.648 613.961 637.616 614.929L637.604 614.917Z" fill="#618376"/>
<path d="M927.759 306.417C930.509 303.712 934.118 305.635 937.129 304.543C939.568 305.387 937.938 308.923 940.962 309.903C941.596 307.037 942.467 304.457 938.809 303.055C935.424 299.172 934.566 292.894 927.834 291.319C930.596 296.281 928.058 299.829 926.03 303.39C925.495 304.32 924.773 304.953 925.594 305.995C926.191 306.752 927.199 306.975 927.747 306.429L927.759 306.417Z" fill="#618376"/>
<path d="M982.635 518.659C982.921 520.879 983.269 521.562 985.285 521.351C986.965 521.177 989.292 522.12 989.628 519.304C989.815 517.691 989.665 516.041 989.665 514.416C989.765 514.416 989.864 514.416 989.976 514.416C989.864 512.393 990.163 510.21 989.491 508.386C989.043 507.183 987.986 504.962 986.094 505.607C984.551 506.141 981.814 507.443 982.697 509.218C984.352 512.555 982.237 515.483 982.66 518.671L982.635 518.659Z" fill="#618376"/>
<path d="M429.96 572.575C426.563 570.974 426.24 573.654 425.481 575.689C424.622 577.996 423.602 580.291 423.129 582.686C422.706 584.807 423.564 587.363 425.568 587.859C428.231 588.516 428.629 585.899 428.94 583.839C429.985 582.611 431.192 581.47 430.968 579.646C431.143 579.051 431.217 578.405 431.516 577.884C432.835 575.552 432.549 573.803 429.948 572.587L429.96 572.575Z" fill="#618376"/>
<path d="M958.519 347.976C959.254 346.066 957.512 343.287 955.334 343.634C950.481 344.391 948.378 348.447 946.648 353.075C952.049 353.981 956.541 353.174 958.532 347.976H958.519Z" fill="#618376"/>
<path d="M140.514 247.636C141.82 248.008 141.111 249.844 141.335 250.998C140.489 251.482 139.357 251.742 139.493 253.033C139.506 253.206 140.141 253.454 140.489 253.454C142.069 253.492 142.393 252.239 142.791 251.097C144.122 249.546 145.616 248.107 146.748 246.42C148.465 243.852 146.748 241.346 145.852 239.063C145.504 238.17 143.264 237.314 142.144 237.562C139.133 238.245 140.153 240.453 140.8 242.463C140.937 242.897 140.539 243.79 140.116 244.051C137.751 245.564 136.868 246.606 140.501 247.624L140.514 247.636Z" fill="#618376"/>
<path d="M103.346 237.166C104.976 237.662 107.141 237.389 106.929 234.461C106.668 230.863 105.61 228.134 101.131 227.948C98.8661 228.122 97.9204 229.92 97.7711 231.98C97.4849 235.801 100.832 236.384 103.358 237.153L103.346 237.166Z" fill="#618376"/>
<path d="M627.972 987.866C626.952 986.824 625.869 986.923 624.737 987.879C623.642 988.821 621.427 988.834 622.435 991.34C622.858 992.394 622.572 993.722 622.609 994.925C620.942 995.062 619.847 996.054 618.963 997.357C615.504 997.729 615.666 994.255 614.023 992.705L613.986 992.655C610.514 989.913 609.942 991.774 610.24 995C610.24 995 610.24 995 610.253 995C608.312 997.344 605.935 998.287 602.924 997.344C602.787 990.682 602.339 990.323 596.702 993.102C595.308 993.784 593.815 993.387 592.583 993.896C588.24 995.682 583.238 993.499 579.107 996.253C577.9 996.724 576.693 997.196 575.486 997.655C572.997 997.655 570.521 997.667 568.032 997.679C566.253 997.543 564.337 996.699 562.98 998.672C560.915 1000.38 559.123 1004.83 556.323 999.367C555.465 997.679 554.482 998.622 553.287 998.982C549.118 1000.27 544.9 1002.57 540.595 999.168C540.246 998.883 539.388 999.329 538.778 999.267C532.208 998.709 526.335 1001.31 520.461 1003.57C517.686 1004.64 515.944 1005.35 512.684 1003.61C509.349 1001.82 503.09 1000.92 500.788 1002.83C497.341 1005.69 495.238 1005.05 492.215 1003.71C491.642 1000.45 489.042 1001.89 487.25 1001.66C479.423 1000.69 471.546 1002.49 463.632 999.54C456.651 996.947 450.728 1000.12 450.803 1005.09C450.853 1008.45 449.596 1011.55 449.808 1014.84C448.165 1015.47 446.112 1015.21 445.029 1016.96C444.88 1017.21 445.427 1018.31 445.751 1018.35C447.667 1018.62 449.322 1017.84 450.778 1016.64C450.94 1016.51 451.077 1016.36 451.226 1016.23C452.819 1015.85 454.424 1015.47 456.017 1015.1C453.702 1020.85 459.202 1022.5 461.815 1025.39C464.69 1028.56 470.426 1028.74 470.887 1034.65C471.111 1037.48 472.703 1039.9 476.001 1040.83C479.522 1041.82 479.46 1038.88 480.58 1037.22C484.861 1030.83 487.013 1030.84 490.697 1037.3C491.008 1038.51 489.004 1040.13 490.958 1040.89C492.488 1041.47 492.725 1039.71 493.036 1038.66C493.297 1037.79 494.255 1036.98 493.471 1035.94C490.46 1029.72 497.329 1026.65 498.399 1021.66C498.511 1021.11 503.787 1021.66 506.661 1021.71C506.014 1023.74 507.968 1026.19 505.591 1027.96C500.639 1031.66 504.708 1032.99 507.483 1033.99C512.099 1035.64 516.044 1037.7 516.84 1043.1C517.525 1047.8 521.482 1048.49 524.194 1046.98C528.661 1044.49 533.091 1049.71 537.148 1046.2C537.359 1046.01 538.454 1046.98 539.189 1047.27C540.756 1047.9 540.321 1052.43 543.345 1049.75C545.124 1048.17 548.359 1047.18 546.356 1042.9C544.776 1039.51 546.132 1035.31 549.342 1032.43C550.972 1032.84 552.59 1033.26 554.22 1033.67C555.29 1034.9 556.684 1035.44 557.567 1033.86C558.202 1032.7 556.746 1032.38 555.788 1032.14L555.589 1032.25C555.738 1025.15 559.061 1022.67 565.531 1024.85C567.248 1026.98 567.871 1025.89 568.194 1023.94C569.078 1021.78 570.322 1020.26 572.985 1021.24C573.881 1023.69 576.631 1023.6 578.286 1025.05C579.194 1025.85 579.406 1028.32 581.272 1027.03C582.566 1026.14 581.869 1024.58 581.11 1023.22C579.567 1020.47 581.26 1018.09 582.554 1015.89C583.873 1013.66 585.341 1016 586.747 1016.15C590.169 1019.86 595.196 1022.32 598.992 1019.6C602.837 1016.86 606.595 1017.28 610.427 1016.42C613.09 1016.74 614.334 1015.58 613.986 1012.9C613.501 1009.19 615.516 1008.26 618.752 1008.37C620.108 1008.42 621.688 1008.88 622.796 1007.52C624.364 1005.74 625.932 1003.98 626.89 1002.06C626.964 1001.91 627.027 1001.75 627.101 1001.6C628.109 999.305 628.209 996.761 626.392 993.709C626.143 993.3 626.852 992.208 627.275 991.551C628.022 990.385 629.403 989.343 627.947 987.854L627.972 987.866Z" fill="#618376"/>
<path d="M894.386 817.519C889.882 814.901 890.006 811.142 891.785 806.986C893.117 806.403 895.369 806.899 895.095 804.418C895.021 803.736 894.324 802.619 893.814 802.57C892.37 802.421 892.034 803.86 891.437 804.852C886.87 806.49 884.344 809.418 884.966 814.554C885.166 816.216 884.718 818.735 882.528 817.271C878.956 814.889 877.737 817.767 875.124 818.685C867.235 821.464 861.66 824.466 860.49 833.982C860.092 837.195 854.107 839.726 850.685 842.567C850.61 846.698 850.536 850.841 850.448 854.973C848.433 855.878 846.442 856.685 844.339 855.159C843.02 854.203 842.211 854.588 841.925 856.164C841.526 857.69 842.485 860.729 841.091 860.58C835.205 859.96 838.739 863.855 838.279 865.729C838.353 865.567 838.441 865.418 838.54 865.257C838.465 865.58 838.329 865.878 838.092 866.126C836.4 867.862 833.973 868.148 832.43 866.92C829.021 864.203 827.378 865.468 825.251 868.508C821.356 874.103 815.37 877.787 810.605 882.601C806.436 886.819 801.222 890.913 796.432 894.858C791.479 898.94 785.917 902.686 781.972 908.182C778.538 912.971 776.298 919 769.317 920.762C766.941 921.357 765.36 924.521 761.901 923.739C760.918 923.516 759.388 925.352 760.607 926.965C764.104 931.642 759.947 930.414 757.82 930.538C752.494 930.86 747.243 930.724 747.579 938.676C747.653 940.45 745.924 943.862 742.514 944.06C742.402 937.398 739.267 939.234 735.907 941.728C735.098 942.559 734.289 943.403 733.48 944.234C731.041 942.187 729.1 941.778 728.354 945.698C727.694 949.159 725.305 949.42 722.804 948.129C720.601 947.001 719.992 946.641 718.362 949.395C716.682 952.211 712.737 953.489 714.218 958.116C714.554 959.171 711.891 959.047 710.497 959.22C707.685 959.593 704.375 959.605 702.944 962.396C701.774 964.667 701.264 967.359 698.153 967.136C694.122 966.85 697.867 962.682 695.553 961.354C693.425 963.525 696.586 970.82 691.185 968.537C685.436 966.106 681.218 966.987 676.228 968.972C674.81 969.53 672.856 968.798 672.184 970.907C671.375 973.438 669.795 973.959 667.393 972.966C665.888 972.346 665.626 973.649 664.818 974.629C661.931 978.177 660.176 983.772 653.619 981.799C653.034 981.626 652.163 982.445 651.416 982.804C649.574 982.879 647.422 981.477 646.464 984.702C645.68 987.357 642.979 986.849 641.287 985.943C636.845 983.586 636.932 983.412 633.186 986.601C634.169 988.275 636.82 987.208 637.579 989.479C639.62 995.62 642.021 996.327 646.003 992.183C647.409 990.719 649.462 991.042 651.18 990.434C651.142 990.769 651.242 991.067 651.478 991.302C652.175 992.655 649.002 996.451 653.917 995.124C655.945 994.813 657.974 994.491 660.002 994.181C661.732 995.769 660.027 998.771 662.453 1000.06C665.801 1002.57 665.104 998.473 666.423 997.654C666.423 997.654 666.423 997.654 666.41 997.642C670.069 994.826 673.105 996.774 676.141 998.858H676.129C676.888 1005.71 681.33 1003.56 685.287 1002.59C686.009 1002.98 686.718 1003.36 687.44 1003.75C687.564 1003.87 687.676 1003.96 687.813 1004.02C691.782 1007.01 689.406 1011.74 690.426 1016.33C691.758 1013.68 692.056 1011.18 694.781 1010.84C696.362 1010.64 698.029 1012.19 700.157 1010.84C698.153 1009.85 696.722 1009.15 695.291 1008.45C694.122 1004.3 692.094 1000.12 699.298 999.106C701.239 998.833 703.517 995.657 703.405 993.027C703.305 990.645 700.592 991.476 698.937 991.067C700.256 986.055 696.897 977.73 707.449 979.244C707.71 979.281 708.021 978.686 708.37 978.475C711.194 976.8 715.574 978.574 717.304 974.467C720.104 978.909 722.543 973.363 725.205 974.17C726.45 974.542 727.358 975.348 727.843 976.552C728.453 978.065 729.013 979.604 729.598 981.129C729.038 982.705 728.466 984.281 727.906 985.856C728.752 984.243 729.648 983.474 730.544 983.214C730.942 983.4 731.44 983.338 731.975 983.164C734.264 983.586 736.616 986.055 738.744 985.286C741.905 986.576 741.867 982.879 743.721 981.886C747.616 979.777 749.893 979.058 750.055 986.675C751.921 981.266 751.548 977.656 753.527 974.629C755.916 970.994 762.561 968.128 756.277 962.446C756.202 962.384 756.75 961.23 757.173 961.094C760.122 960.139 758.143 959.096 757.484 957.719C754.734 952.025 755.779 949.395 762.026 945.475C762.536 946.938 761.354 949.097 763.805 949.879C765.199 948.067 764.427 946.045 764.639 944.184C768.073 942.212 769.492 941.926 769.23 947.1C769.031 950.933 767.04 957.074 774.419 957.881C774.73 959.543 773.847 962.012 777.045 961.689C781.363 961.392 783.64 956.752 788.742 957.471C787.037 955.04 784.747 954.891 784.237 952.918C790.745 946.368 788.207 936.84 792.064 929.421C794.154 928.863 795.61 929.372 795.996 931.704C795.996 932.907 794.913 934.607 796.867 935.029C798.074 935.289 798.099 933.9 798.124 932.945C797.626 927.982 800.289 927.163 804.358 928.193C804.619 930.587 803.462 933.267 806.15 936.083C807.083 933.428 809.472 931.816 806.872 929.297C809.933 923.317 819.079 921.06 826.98 924.36C827.938 928.565 830.415 926.481 832.256 925.402C833.886 924.446 835.093 923.069 832.468 921.419C831.758 920.973 831.846 919.261 831.559 918.132C831.572 916.072 831.597 914.013 831.609 911.954C831.684 911.544 831.758 911.122 831.833 910.713C835.442 908.84 834.807 905.143 835.603 902.053C840.755 899.473 845.571 895.143 851.942 898.915C853.236 896.297 849.416 891.471 855.426 890.888C855.973 892.612 856.521 894.325 857.093 896.136C861.324 895.168 861.1 887.662 867.11 889.126C867.16 889.139 867.77 887.737 867.745 887.017C867.707 886.05 866.774 885.864 865.941 885.727C863.315 885.293 860.689 884.859 858.064 884.425C857.79 879.872 855.625 875.567 856.384 870.89C856.844 868.011 858.611 865.964 861.05 864.86C863.589 863.719 864.422 867.528 866.799 867.503C866.476 872.726 871.602 871.386 873.954 873.396C873.021 874.314 871.042 875.443 872.536 876.609C874.215 877.924 874.614 875.715 875.111 874.512C875.783 872.874 876.244 871.237 876.468 869.426C876.841 866.448 878.546 866.423 880.45 868.483C880.375 870.952 881.731 872.813 883.996 871.87C886.099 870.989 883.672 869.637 883.162 868.607C881.408 865.059 885.302 865.195 886.385 863.52C884.904 856.598 891.089 854.414 894.772 851.338C899.5 847.392 897.696 844.341 896.34 839.738C895.295 836.153 900.583 831.414 895.245 827.655C892.495 821.625 902.624 822.308 901.056 816.601C898.729 816.911 896.576 817.209 894.411 817.494L894.386 817.519Z" fill="#618376"/>
<path d="M153.904 389.908C153.904 425.067 153.928 460.225 153.941 495.372C153.941 498.585 151.975 502.617 158.172 502.555C174.871 502.356 191.595 502.902 208.281 502.307C220.065 501.885 231.563 499.515 239.776 489.652C248.287 478.735 250.8 466.987 244.765 454.047L243.197 450.735C240.547 444.284 235.134 441.145 228.987 438.837C227.88 438.428 226.324 438.192 226.262 436.691C226.2 435.227 227.656 434.954 228.713 434.321C234.014 431.158 237.859 426.779 239.751 420.799C245.935 401.272 229.883 384.015 212.213 383.866C207.36 382.415 202.395 383.457 197.505 383.42C183.345 383.32 169.172 383.556 155.011 383.655C152.746 385.429 153.891 387.774 153.928 389.945L153.904 389.908ZM220.949 465.188C220.911 473.649 215.797 479.082 207.236 479.517C203.13 479.728 198.998 479.554 194.867 479.554C194.867 479.566 194.867 479.591 194.867 479.603C194.046 479.603 193.212 479.603 192.391 479.603C183.133 479.637 178.5 474.935 178.492 465.498C178.475 455.49 183.577 450.491 193.797 450.499C198.339 450.499 202.906 450.35 207.435 450.66C215.909 451.243 220.998 456.863 220.949 465.188ZM215.722 415.911C216.233 421.456 214.254 426.419 208.567 428.243C199.546 431.146 190.114 429.26 180.868 429.644C178.666 429.731 178.541 427.746 178.541 426.022C178.541 420.675 178.653 415.315 178.479 409.968C178.38 406.768 179.587 405.502 182.81 405.664C186.518 405.85 190.238 405.701 193.959 405.701C193.959 405.788 193.959 405.862 193.959 405.949C198.09 405.949 202.246 405.577 206.328 406.036C211.977 406.668 215.225 410.427 215.722 415.898V415.911Z" fill="#618376"/>
<path d="M974.957 490.162C976.264 487.829 980.992 489.616 980.258 485.72C979.922 483.971 977.595 481.912 975.542 482.941C972.157 484.628 975.43 487.556 974.97 490.162H974.957Z" fill="#618376"/>
<path d="M371.439 71.1729C371.849 70.7015 372.248 70.2424 372.658 69.771C373.48 69.9075 374.301 70.0564 375.122 70.1928C375.072 70.5526 375.147 70.8752 375.334 71.1853C375.769 76.2097 373.094 80.3534 371.451 84.7947C368.888 84.9188 366.337 85.0428 363.425 85.1793C365.702 89.1864 369.149 85.7128 371.476 87.3007C372.31 90.4891 371.999 94.0124 374.139 97.3372C375.072 95.6252 375.732 94.4094 376.391 93.1936L378.93 93.5161C384.579 95.7368 390.079 92.2631 390.963 85.9113C394.297 84.2861 396.774 84.224 397.744 88.7522C398.466 92.1019 399.337 88.8887 400.146 88.5786C404.09 92.1019 405.409 87.8466 407.562 86.0849C409.976 90.0425 412.502 92.8586 416.024 87.003C416.098 86.8665 416.982 87.2139 417.479 87.338C417.641 88.256 417.629 89.6083 419.01 89.112C420.304 88.653 419.918 87.1767 420.018 86.0601C420.839 84.7327 422.133 84.8443 423.415 84.9188C423.987 86.6184 424.174 89.2733 426.688 88.4545C432.461 86.5936 438.534 87.4 444.245 86.2338C451.91 84.6707 459.712 83.0455 467.315 83.2191C493.297 83.8022 519.292 81.3458 545.273 84.7079C559.11 86.4943 572.96 88.318 586.722 90.4891C599.153 92.4492 611.298 96.1959 623.617 98.95C631.419 100.687 638.35 105.004 646.326 106.133C647.596 106.356 648.877 106.58 650.146 106.803C656.542 111.033 664.456 111.195 671.138 114.656C683.769 120.499 696.498 126.119 708.954 132.297C712.488 134.047 715.736 135.895 719.767 135.746C719.892 139.394 722.443 141.428 725.317 140.349C728.776 139.046 731.626 140.535 734.749 140.56C736.765 141.627 735.085 144.53 737.238 145.522C737.537 146.874 737.611 148.462 739.714 148.053C741.17 148.078 742.912 147.941 743.659 149.318C746.172 153.946 750.951 155.509 754.82 158.4C760.719 162.804 767.973 165.248 773.199 169.838C778.177 174.217 783.167 178.609 788.393 182.715C791.616 185.333 794.826 187.963 798.049 190.581C798.534 191.747 799.455 192.392 800.65 192.702C804.283 199.091 810.48 195.742 815.569 196.585C815.98 197.379 816.391 198.173 816.801 198.967C815.022 201.461 816.639 203.893 816.951 206.337C821.492 210.034 826.022 213.743 830.564 217.44L830.588 217.465C832.169 218.829 834.583 219.301 834.769 222.129C834.832 223.122 835.267 224.983 837.607 224.139C841.788 222.638 844.699 224.251 845.645 228.854C846.292 232.017 847.636 233.605 850.834 233.754C852.738 233.841 854.48 234.411 855.587 236.148C855.662 238.654 853.198 241.532 856.657 243.555C858.263 243.232 859.656 241.657 861.51 242.686C863.738 248.319 865.704 254.224 873.593 253.74C874.078 253.715 874.974 254.236 875.049 254.621C876.206 260.365 880.723 264.918 881.482 270.501C881.967 274.049 883.075 276.629 885.476 278.664C887.368 280.264 889.309 281.356 889.309 284.308C889.309 285.611 890.678 285.425 891.574 284.569C893.739 284.991 895.63 285.351 894.523 288.502C893.863 290.4 894.859 292.41 895.904 294.171C901.031 290.722 901.802 297.471 905.174 298.116C905.498 299.307 905.56 300.66 906.207 301.64C907.825 304.096 910.587 303.29 912.242 302.359C914.532 301.057 912.964 299.345 911.384 298.166C909.841 298.005 909.044 297.074 908.783 295.598C909.405 291.38 914.432 289.196 913.934 284.457C915.154 283.552 916.386 282.646 917.605 281.74C920.218 281.778 923.006 281.195 922.371 278.081C921.911 275.823 919.459 274.905 917.108 276.778C915.341 275.86 915.253 280.177 913.101 278.043C912.566 276.84 912.74 275.066 910.687 275.004C910.177 276.927 909.654 278.837 909.144 280.748C907.153 281.802 906.419 285.512 903.171 283.849C900.421 282.448 898.803 280.214 898.99 276.865C899.152 273.999 898.754 271.096 899.052 268.243C899.749 261.457 897.497 258.169 890.728 257.139C888.873 256.854 887.505 256.631 887.405 254.447C887.318 252.648 886.547 250.415 889.222 249.981C891.997 249.522 892.432 247.326 891.287 246.036C888.886 243.356 889.769 240.776 890.242 237.96C890.541 236.185 890.242 234.114 887.778 235.367C883.971 237.302 880.723 235.652 877.127 234.846C870.507 233.357 869.561 231.992 872.672 226.769C869.2 226.707 867.073 224.189 865.654 218.829C864.708 215.219 868.665 217.13 869.474 215.219C866.886 213.482 864.31 211.758 861.722 210.021C861.685 208.855 862.07 207.069 860.702 206.92C858.474 206.659 859.271 208.768 859.022 209.996C854.181 211.175 842.733 201.895 840.581 195.791C839.573 192.95 840.693 185.966 833.513 190.184C833.102 190.42 831.584 189.775 831.422 189.266C830.228 185.556 826.47 184.266 824.317 181.5C823.969 176.326 828.909 171.873 826.109 165.818C825.064 169.602 825.026 173.262 823.023 176.24C820.97 176.773 818.917 177.306 816.851 177.84C811.687 174.416 816.216 169.652 815.296 164.627C813.292 167.605 811.699 170.185 808.29 168.833C803.972 166.29 801.247 162.903 802.653 156.923C799.99 160.732 798.173 161.724 795.573 157.308C793.818 154.318 790.608 152.159 787.945 149.753C786.29 148.264 785.369 146.639 785.854 144.381C791.753 140.287 784.896 140.411 784.025 138.265C783.117 143.115 779.794 144.232 775.85 144.493C773.934 144.555 773.187 142.83 771.918 141.912C771.669 141.937 771.408 141.962 771.159 141.986C764.153 144.877 768.508 137.582 765.957 136.317C762.05 138.252 758.118 140.932 753.439 138.066C752.643 134.729 748.089 135.027 747.255 131.727C746.434 127.199 749.694 123.179 747.89 118.055C746.558 114.271 747.516 111.666 742.327 114.321C740.088 115.462 737.885 112.857 736.018 111.306C734.339 109.905 733.505 107.547 731.079 106.977C729.237 105.922 727.694 105.748 727.072 108.329C724.06 110.165 722.02 110.215 719.369 106.902C717.627 104.731 716.905 100.414 712.563 100.848C712.563 98.8632 712.575 96.8658 712.588 94.8808C712.65 94.8808 712.7 94.7816 712.737 94.6451C713.981 92.7222 713.844 90.824 712.712 88.4793C711.244 90.4395 712.911 91.9778 712.351 93.4665C708.581 94.3722 710.174 97.424 709.85 99.6944L709.875 99.7564C707.921 99.409 704.636 100.848 704.835 97.3C705.059 93.2928 701.911 93.6526 699.883 92.4616C699.646 92.1639 699.323 92.0398 698.95 92.0895C697.979 91.3203 696.996 90.5511 696.025 89.7943C696.324 87.7349 694.221 85.8864 695.465 83.7278C697.718 81.7304 695.553 78.9391 696.635 76.83C699.597 71.0736 699.024 70.0688 692.467 70.0564C692.18 69.8703 691.869 69.7834 691.533 69.833C691.434 66.1236 688.248 68.1458 686.643 67.2278C686.543 65.6398 686.519 63.1586 684.378 64.0022C681.516 65.1436 680.695 68.8902 680.633 71.2597C680.508 76.5695 681.068 76.5819 675.195 75.7507C674.735 74.2992 675.22 72.0041 673.042 71.9049C671.188 71.818 669.546 72.9718 668.812 74.9195C667.119 74.7582 665.153 75.6018 663.934 73.6417C663.337 71.1481 661.495 69.7338 659.641 68.0466C658.309 70.1556 658.956 71.9545 659.106 73.7161C657.426 75.7507 655.609 74.3985 653.83 73.9022C651.217 72.1406 646.152 71.4086 651.192 66.6323C652.15 65.7266 652.075 63.6176 649.014 64.1511C644.746 64.9078 641.162 63.7045 640.777 58.3575C640.503 54.524 640.03 50.7029 639.632 46.8323C636.77 48.2052 635.243 50.8477 635.053 54.7597C633.149 54.8218 630.71 55.8266 630.76 52.3778C630.785 50.4548 629.366 49.5988 628.022 48.6932C626.74 47.3409 626.118 45.8026 626.628 43.9293C628.968 40.6293 626.964 39.4631 624.065 38.7435C622.709 36.039 621.502 32.9251 617.756 36.2871C616.512 36.6469 615.056 36.4732 614.16 37.7138C613.65 37.9992 613.127 38.2845 612.617 38.5699C608.897 39.9345 605.176 41.3116 601.455 42.6763C600.51 41.3488 599.825 39.5996 598.556 38.7808C592.558 34.9721 591.463 31.8954 599.39 29.3522C600.535 28.98 601.418 27.6774 600.746 26.3499C599.95 24.7619 598.394 23.7322 596.677 24.4146C591.787 26.3251 585.155 26.0646 584.682 33.8556C584.607 35.1334 584.072 36.5601 583.96 37.9744C583.823 39.7236 582.579 41.1255 581.21 39.8849C575.909 35.0714 579.207 42.3537 577.477 42.3909C577.265 42.2296 577.041 42.2048 576.817 42.3413C574.665 41.3984 572.549 41.0387 570.509 42.6142C570.086 42.974 569.65 43.3462 569.227 43.7059C568.418 44.5868 567.609 45.48 566.8 46.3608C564.449 45.8522 562.084 45.3435 559.733 44.8349C560.056 42.4529 560.38 40.071 560.703 37.689C568.157 38.2969 561.288 28.8807 567.224 28.3225C567.311 28.3225 567.597 26.5732 567.224 26.1638C566.44 25.3202 564.76 24.03 564.337 24.3029C559.521 27.4044 554.17 23.7198 549.641 25.4319C545.821 26.871 543.581 25.7916 541.752 23.174C538.716 18.8567 534.958 16.8841 529.396 17.9758C529.719 19.0552 529.732 20.2586 530.341 20.9409C533.465 24.5138 532.531 26.474 528.089 27.392C527.616 27.4913 527.305 28.2729 526.907 28.7443C522.502 29.3398 524.816 32.7266 524.306 34.9473C521.618 36.9571 519.117 41.2123 515.795 35.6544C513.754 35.5304 512.423 37.3044 510.133 37.3168C506.699 37.3293 506.089 40.0214 508.155 43.9169C508.416 45.5296 508.901 47.3285 507.756 48.6435C505.131 51.6706 499.855 54.0278 505.89 58.6552C506.176 58.8661 506.089 60.2556 505.84 60.3797C501.659 62.2902 500.452 66.7067 497.69 69.7834C497.428 70.0812 496.508 69.7834 495.898 69.771C495.512 68.977 495.126 68.1954 494.741 67.4015C494.79 63.4936 494.094 61.1736 490.448 65.4537C489.49 66.5703 488.357 66.3842 487.175 66.1361C487.15 64.2751 485.943 64.0518 484.388 63.8409C479.435 63.171 478.49 60.4417 480.754 56.2484C481.451 54.462 482.807 52.3902 481.103 50.889C480.269 50.1571 478.054 50.6285 477.581 52.6755C475.503 53.8169 473.935 55.777 472.119 56.9308C469.779 58.4195 469.481 63.9278 464.764 61.2357C464.18 58.7793 465.872 54.9582 461.031 55.0699C458.294 53.7548 454.984 54.3751 452.421 52.5142C452.097 50.2811 451.55 48.1473 449.397 45.4304C448.625 48.6684 447.456 50.6781 445.9 52.4274C443.063 51.3357 445.95 44.3883 439.89 46.5966C429.786 42.8499 426.215 52.2661 420.105 56.4966C418.5 57.6007 419.52 59.4492 420.404 60.9131C422.009 63.5804 422.196 65.9376 418.749 67.3518C417.318 67.4387 415.899 67.6124 414.468 67.5751C413.137 67.5379 411.258 68.1582 410.76 66.3966C410.237 64.5605 412.079 64.2875 413.336 63.6424C416.297 62.1165 415.663 61.062 413 59.7097C406.666 56.4966 407.786 61.5334 407.176 64.7218C406.044 64.5481 405.098 64.7218 404.737 65.9996C402.771 66.136 400.793 66.2725 398.827 66.4214C398.478 66.0988 398.13 65.7639 397.769 65.4413C398.454 63.7045 399.785 61.6947 398.08 60.2432C397.097 59.3996 396.276 61.1116 395.84 62.2033C390.527 62.4266 392.356 67.0417 391.149 69.7834C388.088 71.2225 387.765 75.2793 384.181 76.8549C384.343 73.9394 382.874 72.1654 380.535 71.024C381.132 68.915 385.388 69.7214 384.343 66.3966C383.969 65.218 382.862 63.9402 381.63 64.2131C373.84 65.9375 372.758 58.5436 368.801 55.0575C368.751 53.5563 369.933 51.5962 368.004 50.765C366.673 50.1819 366.636 51.6706 366.636 52.6755C361.26 56.8811 363.45 62.2157 364.446 67.3767C366.822 68.5428 366.113 75.4282 371.439 71.1357V71.1729Z" fill="#618376"/>
<path d="M996.522 514.627C997.903 512.766 999.757 510.967 1000.67 508.771C1001.2 507.493 998.973 507.146 998.015 507.133C993.772 507.071 997.393 511.872 994.593 513.014C994.22 513.163 995.364 514.105 996.522 514.627Z" fill="#618376"/>
<path d="M970.751 422.833C970.751 423.553 970.539 424.285 970.303 425.737C972.792 424.62 971.684 423.02 972.406 422.139C973.016 421.394 974.061 420.923 974.459 420.104C975.654 417.635 974.633 416.556 972.095 417.313C968.698 418.33 970.738 420.861 970.751 422.833Z" fill="#618376"/>
<path d="M952.945 415.502C957.337 416.011 957.412 413.058 957.847 410.527C958.009 409.572 957.138 408.952 956.292 409.138C952.609 409.907 956.155 414.348 952.957 415.502H952.945Z" fill="#618376"/>
<path d="M625.509 30.27C626.554 30.3321 627.574 30.1708 627.599 28.7441C626.741 26.8708 624.986 26.1388 623.207 25.717C621.888 25.4069 621.452 26.5358 621.763 27.6648C622.273 29.476 623.742 30.1832 625.496 30.27H625.509Z" fill="#618376"/>
<path d="M174.274 211.323C175.53 211.373 176.588 210.778 176.65 209.773C176.762 207.887 174.983 207.167 173.651 206.485C172.507 205.902 171.673 207.105 171.548 208.023C171.275 209.984 172.768 210.778 174.286 211.323H174.274Z" fill="#618376"/>
<path d="M920.567 806.775C920.293 806.651 919.26 807.272 919.248 807.569C919.148 811.266 923.118 810.224 924.648 812.991C925.793 808.401 922.807 807.83 920.567 806.788V806.775Z" fill="#618376"/>
<path d="M81.5574 284.68C81.8312 287.41 81.6196 290.077 80.226 292.595C84.2328 290.672 82.3662 287.186 82.752 284.308C82.5778 282.447 84.9545 280.413 82.4782 278.725C81.5823 278.118 80.9975 278.862 80.5868 279.619C79.554 281.566 78.8821 283.452 81.5699 284.68H81.5574Z" fill="#618376"/>
<path d="M928.63 358.745C927.249 359.092 925.333 359.216 926.951 361.325C927.959 362.641 929.178 361.983 930.099 361.003C931.045 359.986 932.525 359.303 932.426 357.566C932.612 355.867 932.724 354.142 934.093 352.865C934.964 351.14 938.013 349.081 936.98 348.15C931.443 343.126 932.264 337.531 934.33 331.526C934.504 331.03 934.33 330.41 934.33 329.839C931.268 330.186 929.477 326.006 926.664 327.134C924.026 328.189 921.264 329.479 919.895 332.779C917.008 339.764 922.608 343.746 924.922 348.895C921.239 355.644 929.166 352.53 930.298 355.184C929.999 356.487 930.634 358.224 928.63 358.733V358.745Z" fill="#618376"/>
<path d="M883.747 229.015C883.859 228.866 883.274 227.824 882.851 227.7C880.487 226.955 878.683 227.96 877.339 230.317C879.466 229.734 882.03 231.273 883.747 229.015Z" fill="#618376"/>
<path d="M574.428 15.407C576.183 17.7765 574.777 21.0765 576.556 24.848C577.962 20.1337 579.319 16.8461 574.428 15.407Z" fill="#618376"/>
<path d="M41.6881 415.193C42.8703 415.007 43.032 413.84 43.0569 412.786C42.9822 411.359 42.1485 410.466 40.8171 410.354C39.4608 410.23 39.1372 411.31 39.3737 412.401C39.6474 413.692 39.5976 415.515 41.6881 415.193Z" fill="#618376"/>
<path d="M471.944 1057.33C470.737 1057.13 469.978 1057.89 469.816 1059.02C469.63 1060.31 469.891 1061.47 471.223 1061.84C472.728 1062.07 473.313 1061.3 473.45 1060.18C473.587 1058.95 473.599 1057.61 471.944 1057.34V1057.33Z" fill="#618376"/>
<path d="M399.499 1010.52C398.192 1013.55 398.615 1016.07 399.934 1018.53C395.928 1021.1 401.154 1023.56 400.034 1026.09C399.001 1026.71 397.844 1027.26 398.018 1028.73C398.043 1028.97 398.603 1029.38 398.839 1029.33C400.457 1029.01 400.656 1027.37 401.478 1026.31C403.369 1023.71 402.772 1021.09 401.527 1018.47C400.818 1015.95 402.535 1012.77 399.499 1010.52Z" fill="#618376"/>
<path d="M555.776 4.13072C557.506 4.37884 558.513 3.58486 558.874 1.92245C559.036 0.619815 558.339 -0.149359 557.157 0.0243258C556.025 0.19801 554.594 0.346882 554.32 1.92245C554.108 3.08861 554.494 3.94463 555.776 4.13072Z" fill="#618376"/>
<path d="M337.78 1002.54C337.63 1001 339.808 999.441 337.717 997.803C335.739 999.106 336.61 1000.9 336.71 1002.53C336.647 1003.54 336.498 1004.54 336.56 1005.54C336.61 1006.62 336.038 1008.35 337.78 1008.37C339.559 1008.4 339.771 1006.69 339.895 1005.27C340.02 1003.77 338.277 1003.62 337.792 1002.54H337.78Z" fill="#618376"/>
<path d="M937.229 366.945C937.079 365.469 936.333 364.662 934.802 364.948C934.043 365.084 933.06 365.22 933.16 366.349C933.297 367.751 934.28 368.496 935.561 368.744C936.942 369.004 937.316 368.136 937.229 366.945Z" fill="#618376"/>
<path d="M312.034 89.5337C313.017 89.4468 314.286 89.2111 313.801 87.8713C313.428 86.8416 312.432 86.0476 311.275 84.5961C310.765 86.2337 310.317 87.2386 310.143 88.3055C309.869 89.9431 311.151 89.6081 312.034 89.5337Z" fill="#618376"/>
<path d="M327.439 990.484C325.921 993.139 325.946 995.149 329.094 997.431C329.356 994.566 330.102 992.37 327.439 990.484Z" fill="#618376"/>
<path d="M388.275 1000.77C388.586 1003.66 388.785 1005.53 389.121 1008.72C391.411 1005.18 392.58 1003.13 388.275 1000.77Z" fill="#618376"/>
<path d="M310.902 121.007C313.104 120.412 315.195 121.888 316.775 119.667C321.292 119.32 322.785 115.015 325.796 112.546C322.026 114.048 316.526 112.05 315.132 118.166C313.714 118.712 311.325 117.583 310.889 120.995L310.902 121.007Z" fill="#618376"/>
<path d="M30.2285 701.733C27.802 701.795 26.5577 702.701 26.0724 704.351C25.9853 704.649 27.2172 705.803 27.6527 705.703C29.4197 705.319 29.7183 703.706 30.216 701.733H30.2285Z" fill="#618376"/>
<path d="M79.7409 301.441C80.3879 301.044 81.3212 300.561 80.8234 299.307C80.475 298.414 80.1888 297.236 78.9569 297.31C77.5384 297.397 77.7375 298.675 77.7748 299.605C77.8121 300.598 78.0237 301.64 79.7284 301.441H79.7409Z" fill="#618376"/>
<path d="M191.109 192.665C192.639 192.591 195.103 193.36 195.24 191.487C195.402 189.34 192.627 190.904 191.47 189.973L190.723 184.117C189.827 186.226 190.014 188.447 188.844 190.32C188.682 190.705 188.533 191.077 188.371 191.462C186.642 191.238 184.912 191.003 183.195 190.779C185.422 194.079 188.483 192.132 191.109 192.665Z" fill="#618376"/>
<path d="M751.673 988.152C750.752 987.941 750.018 988.065 750.167 989.182C750.329 990.472 750.988 991.403 752.457 991.328C753.24 991.291 754.161 991.08 754.174 990.112C754.211 988.45 752.419 988.909 751.673 988.152Z" fill="#618376"/>
<path d="M341.027 104.496C343.292 103.962 343.192 102.027 343.678 98.2803C341.425 100.675 339.397 101.034 339.77 103.367C339.845 103.813 340.704 104.57 341.027 104.496Z" fill="#618376"/>
<path d="M48.0596 749.509C48.3333 751.047 46.9397 753.28 49.8888 753.851C50.8842 751.37 50.9589 749.05 49.4781 746.804C49.391 745.663 49.3039 744.534 49.2168 743.393C44.4137 744.547 46.5415 747.09 48.0596 749.509Z" fill="#618376"/>
<path d="M49.2166 743.306C49.2166 743.306 49.2166 743.355 49.2166 743.392C49.2414 743.392 49.2663 743.38 49.2911 743.367C49.2911 743.367 49.2911 743.306 49.2911 743.269C49.2663 743.269 49.2414 743.281 49.2166 743.293V743.306Z" fill="#618376"/>
<path d="M58.8231 757.127C57.5041 757.462 56.7699 758.454 56.8321 759.856C56.8819 760.762 57.5414 761.68 58.3254 761.208C59.2959 760.638 59.8932 759.459 60.4905 758.74C60.4034 757.325 59.6568 756.916 58.8107 757.127H58.8231Z" fill="#618376"/>
<path d="M529.234 11.8225C529.582 12.877 528.998 14.6386 530.665 14.7379C532.071 14.8247 531.81 13.3112 531.81 12.3932C531.81 10.8796 531.374 9.53976 529.558 9.26683C528.052 9.72585 526.31 8.00142 524.443 9.55217C526.372 10.4702 527.803 11.1525 529.246 11.8349L529.234 11.8225Z" fill="#618376"/>
<path d="M65.5553 323.189C67.3347 322.011 66.7623 320.361 66.3268 318.822C66.0655 317.892 65.3811 316.428 64.3856 317.16C63.0168 318.165 64.6594 319.133 65.2193 320.051C63.6266 322.073 60.0926 323.189 62.0089 326.936C63.2284 325.646 64.3856 324.417 65.5553 323.177V323.189Z" fill="#618376"/>
<path d="M999.172 674.106C1000.78 674.28 1002.39 674.453 1004 674.627C1002.43 672.394 1000.78 672.493 999.172 674.106Z" fill="#618376"/>
<path d="M992.341 678.299C993.884 678.559 995.489 679.589 997.069 677.306C994.73 675.644 993.622 677.257 992.341 678.299Z" fill="#618376"/>
<path d="M233.529 136.268C236.341 136.901 238.133 137.31 239.925 137.707C238.456 135.35 236.552 135.474 233.529 136.268Z" fill="#618376"/>
<path d="M308.513 117.125C309.881 117.262 310.242 116.343 310.255 115.277C310.267 114.52 310.267 113.552 309.16 113.478C307.878 113.403 307.455 114.433 307.256 115.388C307.094 116.219 307.555 116.914 308.513 117.113V117.125Z" fill="#618376"/>
<path d="M368.676 1006.85C370.244 1008.32 371.862 1009.23 374.475 1008.18C372.447 1006.51 370.829 1005.57 368.676 1006.85Z" fill="#618376"/>
<path d="M143.525 191.177C145.13 190.122 145.18 188.695 144.197 187.07C141.87 187.331 142.642 189.341 142.218 190.631C142.206 190.68 143.289 191.325 143.525 191.177Z" fill="#618376"/>
<path d="M124.113 855.283C124.001 855.568 124.213 856.3 124.4 856.337C126.204 856.772 127.374 856.015 128.07 854.266C126.39 853.484 124.922 853.248 124.113 855.283Z" fill="#618376"/>
<path d="M708.531 60.7025C710.36 58.8789 710.385 57.3157 707.872 55.0082C707.523 57.5638 706.627 59.2262 708.531 60.7025Z" fill="#618376"/>
<path d="M435.448 1030.26C434.577 1029.92 433.843 1030.44 433.768 1031.42C433.693 1032.34 434.216 1032.97 435.174 1033.02C435.983 1033.06 436.854 1033.06 437.053 1031.61C436.617 1031.23 436.12 1030.52 435.448 1030.26Z" fill="#618376"/>
<path d="M380.075 1028.55C380.46 1030.72 379.403 1032.23 380.796 1033.32C381.481 1033.86 382.489 1033.38 382.837 1032.61C383.596 1030.88 382.165 1030.17 380.087 1028.55H380.075Z" fill="#618376"/>
<path d="M312.433 1002.21C312.582 1002.37 313.341 1002.32 313.49 1002.12C314.548 1000.69 314.523 999.305 312.731 997.63C311.524 999.404 311.201 1000.82 312.445 1002.21H312.433Z" fill="#618376"/>
<path d="M375.919 993.909C375.396 993.698 374.761 993.784 374.177 993.735C372.982 992.618 371.153 991.713 370.705 990.36C369.286 986.068 368.341 981.689 362.554 981.329C357.39 981.006 353.508 976.552 348.108 976.813C346.565 976.887 345.009 977.136 344.599 978.686C344.051 980.721 346.117 980.498 347.212 981.23C351.194 983.884 356.221 985.621 356.93 991.402C365.118 989.145 366.574 989.728 368.876 996.216C371.228 996.241 373.617 996.638 375.807 995.372C376.553 994.938 377.213 994.417 375.906 993.896L375.919 993.909Z" fill="#618376"/>
<path d="M329.218 97.399C328.907 97.2625 328.135 97.3741 328.111 97.4982C327.613 99.57 329.255 100.724 330.238 102.2C329.567 100.637 331.694 98.5031 329.218 97.3865V97.399Z" fill="#618376"/>
<path d="M517.898 26.7465C518.284 24.3645 517.239 22.8262 515.882 21.4119C515.596 23.3596 514.737 25.5803 517.898 26.7465Z" fill="#618376"/>
<path d="M985.235 417.5C985.932 417.165 986.791 416.967 986.704 415.912C986.43 414.907 985.671 414.796 984.837 415.007C983.979 415.217 983.456 415.801 983.543 416.731C983.667 417.897 984.377 417.91 985.223 417.5H985.235Z" fill="#618376"/>
<path d="M976.226 399.572C975.928 397.587 976.898 396.123 975.38 395.056C975.106 394.858 973.974 395.243 973.862 395.565C973.364 397.091 973.862 398.344 976.214 399.572H976.226Z" fill="#618376"/>
<path d="M428.642 1022.53C427.671 1021.88 426.7 1021.25 425.045 1020.16C425.954 1023.24 426.476 1025.51 429.861 1024.77C431.168 1024.09 433.059 1024.04 433.121 1021.9C431.404 1020.77 430.172 1022.73 428.642 1022.53Z" fill="#618376"/>
<path d="M970.602 361.089C968.698 359.737 967.665 358.062 965.936 359.737C965.687 359.972 965.425 360.618 965.537 360.766C966.869 362.317 968.424 361.039 970.602 361.101V361.089Z" fill="#618376"/>
<path d="M30.6266 352.281C31.7092 352.206 32.4807 351.561 32.6549 350.507C32.7171 350.135 32.1945 349.663 31.9954 349.328C30.6142 349.477 29.9796 350.184 29.6934 351.177C29.4943 351.896 29.9422 352.33 30.6142 352.281H30.6266Z" fill="#618376"/>
<path d="M940.165 333.883C940.389 334.739 941.061 335.272 941.882 334.974C942.492 334.751 942.928 334.081 943.687 333.386C942.753 332.754 942.168 332.034 941.521 331.972C940.29 331.86 939.866 332.754 940.165 333.883Z" fill="#618376"/>
<path d="M157.748 180.024C158.756 180.396 159.627 180.011 160.187 179.069C160.535 178.225 159.888 178.027 159.341 177.952C158.383 177.803 157.325 177.754 156.902 178.858C156.802 179.118 157.35 179.887 157.736 180.036L157.748 180.024Z" fill="#618376"/>
<path d="M2.28017 459.085C0.986055 459.606 -0.308061 460.251 0.0652419 462.459C1.50868 462.112 2.8899 461.975 3.1761 460.214C3.22587 459.879 2.41705 459.035 2.28017 459.085Z" fill="#618376"/>
<path d="M636.707 1004.8C636.148 1002.8 637.429 1000.48 635.662 998.535C634.269 1000.98 635.152 1003.46 634.965 1005.84C633.671 1006.71 631.68 1005.54 630.187 1007.88C632.514 1007.74 633.36 1012.16 636.197 1008.67C636.359 1007.95 636.533 1007.24 636.695 1006.52C638.101 1006.84 640.353 1008.66 640.714 1006.65C641.187 1003.98 638.076 1005.51 636.695 1004.8H636.707Z" fill="#618376"/>
<path d="M965.899 712.726C964.716 713.049 964.069 713.657 964.256 714.538C964.418 715.282 964.916 716.423 965.438 716.535C966.695 716.783 967.18 715.654 967.031 714.612C966.931 713.917 966.272 713.31 965.911 712.739L965.899 712.726Z" fill="#618376"/>
<path d="M4.00961 533.012C3.77319 533.099 3.64875 534.364 3.82296 534.464C5.11708 535.183 6.48585 535.357 8.17816 533.856C6.68495 532.615 5.3535 532.516 4.00961 533.012Z" fill="#618376"/>
<path d="M10.9533 547.552C10.8164 546.596 10.7293 545.517 9.4103 545.542C8.99967 545.542 8.32772 546.113 8.22818 546.522C7.97931 547.601 8.68858 548.433 9.58451 548.842C10.804 549.413 10.6049 548.16 10.9533 547.552Z" fill="#618376"/>
<path d="M951.178 737.128C950.518 737.029 949.56 736.88 949.435 738.096C949.883 739.113 950.842 739.436 951.825 739.448C952.646 739.448 953.554 738.952 953.144 738.022C952.92 737.513 951.887 737.228 951.178 737.116V737.128Z" fill="#618376"/>
<path d="M916.946 246.458C917.692 246.284 918.501 246.098 918.626 244.87C918.24 244.646 917.705 244.063 917.344 244.15C916.647 244.324 915.639 244.758 915.49 245.292C915.216 246.21 916.037 246.656 916.958 246.445L916.946 246.458Z" fill="#618376"/>
<path d="M130.185 263.343C130.185 263.343 130.111 263.355 130.074 263.367C130.074 263.367 130.074 263.429 130.074 263.466C130.111 263.466 130.148 263.466 130.185 263.466C130.185 263.429 130.185 263.38 130.185 263.343Z" fill="#618376"/>
<path d="M131.393 258.305C131.294 257.549 131.393 256.258 131.045 256.122C129.701 255.601 130.186 256.903 130.149 257.437C130.087 258.591 130.236 259.769 130.286 260.935C130.41 260.625 130.535 260.328 130.672 260.017C130.609 260.352 130.522 260.675 130.286 260.935C130.249 261.742 130.199 262.536 130.161 263.342C134.28 262.635 132.924 260.501 131.381 258.305H131.393Z" fill="#618376"/>
<path d="M877.09 220.665C877.139 220.256 876.53 219.474 876.107 219.375C875.198 219.164 874.564 219.896 874.439 220.703C874.377 221.124 874.912 221.633 875.124 221.993C876.318 222.042 876.99 221.497 877.09 220.665Z" fill="#618376"/>
<path d="M408.471 1014.92C407.836 1015.04 407.002 1015.62 406.778 1016.19C406.33 1017.34 407.463 1017.37 408.159 1017.43C408.943 1017.5 409.715 1017.27 409.902 1016.29C409.989 1015.25 409.23 1014.79 408.471 1014.92Z" fill="#618376"/>
<path d="M495.911 51.0003C497.304 50.0326 495.699 48.6679 495.127 47.2784C494.853 48.0724 494.716 48.6679 494.442 49.2014C493.584 50.963 494.703 51.8315 495.898 51.0003H495.911Z" fill="#618376"/>
<path d="M940.289 799.543C940.252 800.027 940.551 800.883 940.887 800.983C941.82 801.28 942.33 800.586 942.28 799.73C942.256 799.271 941.783 798.849 941.347 798.142C940.862 798.749 940.314 799.134 940.289 799.543Z" fill="#618376"/>
<path d="M549.293 13.8319C549.815 14.0552 550.388 13.5217 550.176 12.3059C549.604 11.9958 548.82 11.4251 547.936 11.1274C547.19 10.8793 546.754 11.6608 547.103 12.1199C547.65 12.8394 548.459 13.4721 549.293 13.8319Z" fill="#618376"/>
<path d="M932.637 802.918C931.132 803.017 928.469 802.323 928.506 803.873C928.556 806.404 931.194 805.002 932.762 805.201C933.906 804.791 935.673 807.26 936.084 805.039C936.445 803.079 934.242 802.968 932.637 802.918Z" fill="#618376"/>
<path d="M357.403 1008.62C357.129 1009.44 356.333 1010.93 358.174 1010.42C359.443 1010.07 359.219 1008.49 358.523 1006.64C357.963 1007.62 357.589 1008.09 357.403 1008.62Z" fill="#618376"/>
<path d="M306.459 124.37C306.919 124.308 307.342 123.874 307.691 123.65C307.566 122.397 306.807 122.112 306.011 122.248C305.563 122.323 304.904 122.856 304.866 123.241C304.767 124.295 305.663 124.481 306.459 124.382V124.37Z" fill="#618376"/>
<path d="M933.085 717.167C933.919 717.291 934.653 717.142 934.902 715.926C934.902 715.095 934.118 714.773 933.346 714.773C932.836 714.773 931.953 715.132 931.865 715.492C931.666 716.311 932.139 717.018 933.085 717.167Z" fill="#618376"/>
<path d="M979.81 709.835C978.852 710.58 977.894 711.597 979.013 712.614C980.37 713.855 980.867 712.441 981.303 711.386C982.099 710.27 984.476 709.327 982.759 707.826C981.664 706.87 980.556 708.731 979.822 709.848L979.81 709.835Z" fill="#618376"/>
<path d="M858.823 184.254C859.47 183.969 860.44 183.832 860.129 182.753C859.992 182.294 859.457 181.773 858.997 181.636C858.176 181.388 857.404 181.723 857.28 182.678C857.13 183.72 858.014 183.931 858.823 184.254Z" fill="#618376"/>
<path d="M42.3729 327.804C43.2315 327.916 43.9781 327.556 44.1523 326.563C44.3638 325.348 43.3808 325.36 42.7089 325.124C41.8129 325.186 40.9543 325.286 40.8175 326.315C40.6681 327.419 41.5641 327.705 42.3729 327.804Z" fill="#618376"/>
<path d="M556.859 11.6368C555.739 11.8353 554.034 12.1827 555.527 13.659C556.336 14.453 557.618 13.2 559.235 11.947C557.991 11.7733 557.394 11.55 556.859 11.6368Z" fill="#618376"/>
<path d="M461.268 447.236C462.55 444.693 463.819 442.162 465.101 439.619C465.449 439.271 465.798 438.924 466.146 438.577L473.55 434.371C475.976 434.259 478.403 434.148 480.829 434.036C482.833 434.259 484.824 434.483 486.827 434.706C493.92 439.11 497.13 445.375 496.968 453.799C496.707 468.239 496.869 482.68 496.919 497.121C496.919 499.403 495.973 502.567 500.067 502.418C506.624 502.157 513.244 503.286 519.752 501.773C520.997 500.669 520.785 499.168 520.785 497.753C520.785 479.268 520.797 460.771 520.773 442.286C520.773 440.462 520.922 438.552 519.553 437.013C517.836 429.644 514.725 423.23 507.632 419.496C507.172 418.293 506.251 417.672 505.144 416.965C489.614 407.04 464.267 411.842 454.723 425.501C452.371 426.233 451.376 424.223 449.932 423.131C447.12 419.645 444.308 416.171 439.791 414.732C437.427 412.077 434.253 412.338 431.155 412.387C428.256 411.668 425.356 411.494 422.47 412.487C415.987 412.449 410.847 415.427 406.268 419.657C404.327 420.687 402.685 421.965 402.448 424.384C400.756 425.736 399.474 425.749 399.151 423.268C398.939 421.68 398.927 420.054 398.827 418.454C399.163 416.171 399.648 413.541 396.152 413.69C389.494 413.975 382.763 412.561 376.168 414.496C374.463 415.998 375.222 417.908 375.321 419.707C375.259 445.809 375.209 471.899 375.11 498.001C375.11 500.321 375.496 502.232 378.233 502.244C384.766 502.269 391.336 503.41 397.807 501.636C398.902 501.128 399.088 500.148 399.088 499.093C399.014 485.025 398.927 470.956 398.839 456.888C399.872 451.256 400.208 445.276 404.091 440.698C413.759 429.297 428.666 432.411 436.045 447.236C436.07 461.801 436.008 476.353 436.157 490.918C436.195 494.503 435.187 498.225 436.941 501.698C443.773 502.889 450.604 503.013 457.423 501.624C460.534 501.86 459.899 499.552 459.887 497.84C459.85 485.447 459.75 473.053 459.675 460.659C460.335 456.95 459.339 453.054 460.97 449.457C461.069 448.725 461.156 447.993 461.256 447.261L461.268 447.236Z" fill="#618376"/>
<path d="M393.775 1026.7C393.265 1026.72 392.78 1027.16 392.232 1027.44C392.979 1028.42 393.302 1028.84 393.626 1029.28C394.036 1028.97 394.696 1028.72 394.82 1028.32C395.057 1027.54 394.858 1026.66 393.775 1026.71V1026.7Z" fill="#618376"/>
<path d="M208.157 943.366C207.833 943.602 207.273 943.838 207.024 944.247C206.576 944.992 207.236 945.327 207.796 945.289C208.269 945.252 208.916 944.942 209.14 944.545C209.488 943.925 209.003 943.528 208.169 943.366H208.157Z" fill="#618376"/>
<path d="M810.828 936.022C810.778 936.344 811.338 936.766 811.625 937.138C812.023 936.779 812.421 936.419 812.993 935.91C812.52 935.488 812.147 935.166 811.786 934.856C811.438 935.24 810.903 935.6 810.828 936.022Z" fill="#618376"/>
<path d="M295.099 983.215C294.912 983.599 294.501 984.083 294.452 984.617C294.402 985.187 294.638 985.981 295.484 985.485C295.932 985.225 296.343 984.604 296.43 984.083C296.542 983.401 296.082 982.979 295.099 983.215Z" fill="#618376"/>
<path d="M145.591 888.345C145.902 888.742 146.151 889.35 146.562 889.487C146.948 889.611 147.507 889.251 149.138 888.767C147.931 888.184 147.445 887.775 146.923 887.737C146.5 887.713 146.039 888.134 145.591 888.345Z" fill="#618376"/>
<path d="M344.362 990.236C344.051 990.385 343.727 991.266 343.889 991.539C344.126 991.948 344.76 992.308 345.258 992.358C345.893 992.42 346.316 991.973 346.154 991.216C345.781 990.46 345.246 989.827 344.35 990.236H344.362Z" fill="#618376"/>
<path d="M921.264 780.426C920.741 779.818 920.442 779.198 920.007 779.049C919.223 778.788 918.962 779.52 919.061 780.103C919.148 780.587 919.584 781.009 919.87 781.455C920.28 781.145 920.704 780.848 921.264 780.426Z" fill="#618376"/>
<path d="M936.109 323.698C936.756 323.785 937.166 323.326 936.992 322.407C936.607 322.234 936.121 321.874 935.624 321.837C935.088 321.8 934.292 322.01 934.752 322.817C934.989 323.239 935.599 323.623 936.096 323.685L936.109 323.698Z" fill="#618376"/>
<path d="M900.21 310.039C900.72 309.853 901.242 309.654 901.74 309.468C901.603 308.972 901.491 308.352 901.417 308.352C900.869 308.376 900.334 308.525 899.787 308.637C899.923 309.096 900.06 309.567 900.21 310.026V310.039Z" fill="#618376"/>
<path d="M904.44 267.114C904.776 266.977 905.311 266.779 905.846 266.568C905.361 266.01 904.95 265.303 904.353 264.955C904.066 264.794 903.034 265.203 902.959 265.513C902.735 266.382 903.245 266.977 904.452 267.101L904.44 267.114Z" fill="#618376"/>
<path d="M134.504 241.47C132.476 240.85 131.169 241.098 130.348 243.48C132.401 243.666 133.421 242.798 134.504 241.47Z" fill="#618376"/>
<path d="M625.633 1012.07C625.247 1012.06 624.413 1012.91 624.488 1013.13C624.737 1013.85 625.297 1014.45 625.745 1015.1C626.031 1014.71 626.33 1014.33 626.529 1014.06C626.417 1013.15 626.778 1012.12 625.62 1012.07H625.633Z" fill="#618376"/>
<path d="M838.913 185.891C839.523 186.239 839.934 185.767 840.046 184.936C839.809 184.601 839.598 184.018 839.175 183.757C838.353 183.236 838.167 184.043 838.204 184.527C838.241 185.01 838.515 185.68 838.901 185.891H838.913Z" fill="#618376"/>
<path d="M169.905 165.893C170.577 165.719 171.162 165.211 172.158 164.64C171.237 164.119 170.714 163.573 170.341 163.672C169.843 163.796 169.321 164.355 169.097 164.851C168.835 165.434 169.122 166.104 169.905 165.906V165.893Z" fill="#618376"/>
<path d="M207.149 147.508C207.597 147.446 207.97 146.887 209.152 145.907C208.356 145.609 207.808 145.237 207.286 145.262C206.85 145.287 206.178 145.696 206.066 146.068C205.83 146.85 206.116 147.669 207.149 147.52V147.508Z" fill="#618376"/>
<path d="M773.088 138.823C772.951 138.55 771.794 138.413 771.52 138.661C770.487 139.604 770.823 140.832 771.171 142.011C771.433 142.011 771.682 141.986 771.93 141.936C772.64 141.006 773.76 140.175 773.088 138.823Z" fill="#618376"/>
<path d="M743.833 110.624C744.306 110.525 744.866 110.053 745.052 109.607C745.351 108.887 744.779 108.59 743.895 108.515C743.609 108.788 743.012 109.098 742.862 109.545C742.638 110.215 743.173 110.761 743.82 110.624H743.833Z" fill="#618376"/>
<path d="M364.807 98.6397C365.105 100.079 366.735 98.7638 367.768 98.4784C369.448 96.5431 369.56 94.645 367.843 92.4119C366.213 94.31 368.142 95.6871 367.756 97.151C366.686 97.5852 364.371 96.4935 364.807 98.6273V98.6397Z" fill="#618376"/>
<path d="M362.828 82.5483C363.239 82.2754 363.425 81.6551 363.612 81.3574C363.45 80.4145 362.89 80.0795 362.38 80.3897C361.994 80.6254 361.745 81.345 361.733 81.8536C361.708 82.4615 362.193 82.9826 362.84 82.5483H362.828Z" fill="#618376"/>
<path d="M517.176 1050.65C517.015 1050.9 517.525 1051.57 517.935 1052.5C518.657 1051.62 519.267 1051.11 519.503 1050.47C519.628 1050.13 519.068 1049.56 518.806 1049.09C518.246 1049.6 517.55 1050.03 517.176 1050.65Z" fill="#618376"/>
<path d="M574.254 15.3448C574.315 15.3571 574.365 15.3817 574.427 15.4063C574.39 15.3571 574.365 15.308 574.316 15.2588C574.291 15.2588 574.254 15.2834 574.229 15.2957C574.229 15.3202 574.229 15.3325 574.241 15.3571L574.254 15.3448Z" fill="#618376"/>
<path d="M574.229 15.2964C573.955 14.4155 573.844 13.2246 572.562 13.4975C572.189 13.5719 571.629 14.9614 571.853 15.3584C572.537 16.599 573.42 15.6065 574.242 15.2964H574.229Z" fill="#618376"/>
</svg>
