<svg width="1013" height="1212" viewBox="0 0 1013 1212" fill="none" xmlns="http://www.w3.org/2000/svg">
<path d="M1002.76 778.778C1002.76 778.778 909.23 661.427 636.496 749.646C363.763 837.864 184.105 886.729 10.2012 737.224C10.2012 737.224 171.293 870.466 507.771 739.985C844.249 609.466 1002.76 778.778 1002.76 778.778Z" fill="#336A91"/>
<path d="M879.157 722.751C878.275 721.856 867.862 711.039 847.602 697.312C868.639 710.181 878.345 721.744 879.157 722.751Z" fill="#336A91"/>
<path d="M10.3771 1002.63V1000.24C10.3771 1000.24 10.483 1000.28 10.5183 1000.31V898.256C21.0012 903.926 31.5195 909.073 42.0024 913.699C66.8509 924.441 77.1574 938.653 77.1574 950.776C77.1574 960.736 70.0982 968.793 58.521 968.756C76.7339 978.044 85.9109 993.375 85.9109 1006.28C85.9109 1020.34 74.7573 1031.57 52.4501 1022.54C38.4375 1016.8 24.3897 1010.16 10.3771 1002.59V1002.63ZM45.2497 965.697C39.4611 963.198 33.1078 958.983 26.1898 952.604C31.1312 956.67 35.5079 959.281 39.4611 961.072C55.8385 968.345 64.0272 959.169 64.0272 947.457C64.0272 936.042 56.4033 922.427 41.1553 915.713C35.2256 913.065 29.2958 910.304 23.3661 907.32V1006.99C32.5431 1011.58 41.7201 1015.76 50.8971 1019.56C64.3096 1025.08 70.9453 1014.23 70.9453 1001.32C70.9453 988.302 64.3096 973.157 50.8971 967.637C49.0617 967.189 47.2263 966.555 45.2497 965.697Z" fill="#225677"/>
<path d="M170.445 1051.86C148.456 1049.63 126.501 1045.78 104.512 1040C104.512 1005.2 104.512 970.397 104.512 935.557C108.853 936.676 113.159 937.758 117.501 938.728C117.501 972.747 117.501 1006.77 117.501 1040.79C123.607 1042.17 129.749 1043.43 135.855 1044.55C161.692 1049.07 172.422 1042.91 173.269 1040.79C173.551 1040.37 174.398 1040.45 174.398 1040.45C173.092 1044.25 171.751 1048.06 170.445 1051.86Z" fill="#225677"/>
<path d="M190.246 949.023C194.588 949.284 198.894 949.471 203.235 949.62C203.235 971.218 203.235 992.778 203.235 1014.38C203.235 1039.89 218.201 1052.8 233.449 1052.39C248.979 1052.05 264.792 1037.8 264.792 1012.88C264.792 1000.98 264.792 989.122 264.792 977.223C264.792 959.766 258.862 950.664 256.321 949.918C255.756 949.806 255.756 948.762 255.756 948.762C259.533 948.538 263.274 948.24 267.051 947.941V1012.7C267.051 1041.05 246.861 1058.13 227.095 1058.32C208.459 1058.65 190.246 1043.62 190.246 1013.78C190.246 992.181 190.246 970.621 190.246 949.023Z" fill="#225677"/>
<path d="M289.923 945.666C310.818 943.242 331.713 939.885 352.609 935.856C353.173 938.915 353.738 942.011 354.303 945.07C354.303 945.07 353.173 945.144 353.032 944.883C351.197 941.936 338.208 941.153 317.454 944.361C312.547 945.107 307.677 945.816 302.77 946.45C302.77 979.685 302.77 1012.88 302.77 1046.12C308.947 1045.3 315.089 1044.4 321.266 1043.43C346.961 1039.29 357.409 1031.09 358.397 1028.59C358.538 1028.1 359.527 1027.92 359.527 1027.92C358.256 1031.83 356.985 1035.79 355.715 1039.7C333.796 1043.99 311.877 1047.57 289.923 1050.11C289.923 1015.31 289.923 980.506 289.923 945.666ZM313.5 989.235C320.277 988.228 329.313 993.636 336.372 992.405C339.055 991.92 341.455 990.466 343.29 987.593C341.314 992.592 338.49 994.718 335.384 995.278C328.466 996.509 319.713 990.727 312.936 991.734C309.406 992.256 306.441 994.457 304.465 1000.24C306.159 992.555 309.406 989.869 313.5 989.272V989.235Z" fill="#225677"/>
<path d="M410.635 923.173C415.4 922.017 420.13 920.861 424.895 919.667C436.296 946.076 447.661 972.374 459.062 998.634C465.591 981.438 472.157 964.242 478.686 947.009C473.215 934.699 467.78 922.39 462.309 910.043C467.109 908.775 471.909 907.507 476.71 906.201C488.11 932.387 499.476 958.535 510.876 984.684C520.195 960.288 529.513 935.893 538.831 911.498C541.231 905.343 542.078 900.792 542.078 897.51C542.078 892.586 540.102 890.87 538.549 890.684C538.125 890.684 538.125 889.602 538.125 889.602C542.325 888.483 546.49 887.364 550.691 886.245C535.831 925.001 520.971 963.832 506.076 1002.66C505.264 1002.89 504.488 1003.11 503.676 1003.3C495.77 985.43 487.863 967.6 479.957 949.732C471.38 972.038 462.838 994.307 454.261 1016.54C453.45 1016.76 452.673 1016.95 451.861 1017.17C438.131 985.952 424.366 954.619 410.635 923.136V923.173Z" fill="#225677"/>
<path d="M641.861 968.681C637.096 969.688 632.366 970.695 627.601 971.777C625.731 968.308 623.825 964.876 621.954 961.407C613.765 948.612 595.129 938.84 578.469 943.092C570.704 945.069 563.362 950.254 557.856 959.43C562.656 948.911 570.28 943.353 578.893 941.19C591.74 937.907 606.706 942.793 616.73 951.709C606 931.864 595.27 912.132 584.54 892.474C574.269 916.459 564.033 940.555 553.762 964.69C550.515 972.411 549.385 978.23 549.385 982.259C549.385 986.735 550.797 989.047 552.068 989.159C552.632 989.159 552.632 990.204 552.632 990.204C548.15 991.397 543.702 992.554 539.22 993.748C555.915 954.469 572.645 915.302 589.34 876.359C590.152 876.173 590.929 875.949 591.74 875.762C608.436 906.462 625.131 937.385 641.861 968.681Z" fill="#225677"/>
<path d="M675.18 962.228V860.171C674.298 860.32 673.38 860.506 672.498 860.656C643.978 865.953 643.696 872.48 639.178 877.964C639.037 878.449 638.19 878.635 638.19 878.635C639.602 873.823 641.013 868.974 642.425 864.162C668.509 858.679 694.558 854.128 720.642 851.032C722.053 855.396 723.465 859.76 724.877 864.125C724.877 864.125 724.03 864.237 723.889 863.789C721.771 861.626 719.23 853.27 690.569 857.634C689.722 857.783 688.875 857.895 688.028 858.045V960.102C683.757 960.811 679.451 961.519 675.18 962.265V962.228Z" fill="#225677"/>
<path d="M741.255 848.868C762.15 847.003 783.045 846.183 803.941 846.63C804.505 849.838 805.07 853.009 805.635 856.217C805.635 856.217 804.505 856.03 804.364 855.732C802.529 852.449 789.54 848.533 768.786 849.428C763.879 849.652 759.008 849.913 754.102 850.249V949.918C760.279 949.508 766.421 949.172 772.598 948.949C798.293 948.128 808.741 943.092 809.729 940.63C809.87 940.183 810.859 940.22 810.859 940.22C809.588 943.838 808.317 947.494 807.047 951.149C785.128 950.553 763.209 951.373 741.255 953.313V848.868ZM764.832 893.929C771.609 893.556 780.645 900.158 787.704 900.083C790.387 900.083 792.787 899.002 794.622 896.465C792.646 901.091 789.822 902.732 786.716 902.769C779.798 902.844 771.044 895.943 764.268 896.316C760.738 896.502 757.773 898.48 755.797 904.112C757.491 896.54 760.738 894.115 764.832 893.891V893.929Z" fill="#225677"/>
<path d="M828.789 847.787C837.79 848.421 846.755 849.353 855.755 850.547C883.71 854.426 895.711 872.667 895.711 886.991C895.711 899.86 886.251 910.006 869.733 908.737C898.958 919.779 895.287 964.317 913.218 966.592C909.688 966.667 906.441 966.406 903.617 965.697C877.498 959.654 881.874 916.795 861.826 907.32C856.32 905.903 850.108 903.329 843.331 899.487C848.273 901.501 852.649 902.62 856.744 903.18C873.686 905.492 882.298 895.943 882.298 883.82C882.298 871.063 872.415 855.359 852.367 852.487C848.837 852.114 845.308 851.741 841.778 851.442C841.778 885.424 841.778 919.368 841.778 953.35C837.437 952.903 833.13 952.53 828.789 952.231V847.787Z" fill="#225677"/>
<path d="M956.702 981.326C973.645 987.966 990.163 989.197 990.163 975.918C990.163 946.711 922.395 925.449 922.395 890.273C922.395 871.324 939.478 867.706 956.702 874.644C975.056 881.843 993.693 900.979 992.987 917.802C990.022 900.121 975.762 885.983 961.926 880.351C947.243 874.196 932.983 877.367 932.983 890.049C932.983 915.228 1002.45 935.222 1002.45 976.067C1002.45 996.62 981.551 994.643 960.938 986.325C940.749 977.932 920.983 963.123 920.983 947.009C920.983 945.218 921.265 943.652 921.689 941.861C919.853 960.102 938.49 973.978 956.702 981.326Z" fill="#225677"/>
<path d="M155.303 1188.39H0V1195.85H155.303V1188.39Z" fill="#336A91"/>
<path d="M1013 1188.39H857.697V1195.85H1013V1188.39Z" fill="#336A91"/>
<path d="M235.896 1163.92V1203.79H253.544V1210.92H228.378V1163.92H235.861H235.896Z" fill="#336A91"/>
<path d="M287.993 1194.47L287.852 1196.22L281.675 1210.92H273.24L294.982 1161.31L316.725 1210.92H308.289L302.253 1196.63L302.077 1194.69L295.017 1177.23L288.029 1194.51L287.993 1194.47ZM284.746 1192.12H305.394L306.842 1198.83H283.334L284.746 1192.12Z" fill="#336A91"/>
<path d="M346.691 1163.92V1210.92H338.996V1163.92H346.691ZM372.245 1163.92L353.503 1185.93L373.198 1210.92H363.986L344.432 1186.15L363.245 1163.92H372.28H372.245Z" fill="#336A91"/>
<path d="M402.847 1163.92V1210.92H395.47V1163.92H402.847ZM400.13 1163.92H422.543V1170.89H400.13V1163.92ZM400.13 1182.31H421.272V1189.17H400.13V1182.31ZM400.13 1203.94H422.543V1210.92H400.13V1203.94Z" fill="#336A91"/>
<path d="M492.605 1163.92V1210.92H485.122V1163.92H492.605ZM489.57 1163.92H498.853C502.065 1163.92 504.888 1164.51 507.253 1165.75C509.618 1166.98 511.489 1168.66 512.83 1170.82C514.171 1172.98 514.807 1175.56 514.807 1178.5C514.807 1181.45 514.136 1184.02 512.83 1186.22C511.524 1188.43 509.653 1190.1 507.253 1191.33C504.853 1192.57 502.065 1193.16 498.853 1193.16H489.57V1186.63H498.535C500.229 1186.63 501.712 1186.34 503.018 1185.7C504.324 1185.07 505.312 1184.17 506.053 1182.98C506.759 1181.79 507.147 1180.37 507.147 1178.73C507.147 1177.09 506.794 1175.59 506.053 1174.44C505.347 1173.28 504.324 1172.39 503.018 1171.75C501.712 1171.12 500.229 1170.82 498.535 1170.82H489.57V1163.96V1163.92ZM502.418 1188.5L517.489 1210.92H508.453L494.299 1188.5H502.418Z" fill="#336A91"/>
<path d="M547.455 1163.92V1210.92H540.079V1163.92H547.455ZM544.738 1163.92H567.151V1170.89H544.738V1163.92ZM544.738 1182.31H565.88V1189.17H544.738V1182.31ZM544.738 1203.94H567.151V1210.92H544.738V1203.94Z" fill="#336A91"/>
<path d="M599.588 1200.55C600.717 1201.93 601.953 1202.97 603.294 1203.72C604.635 1204.46 606.188 1204.84 607.882 1204.84C609.93 1204.84 611.553 1204.24 612.824 1203.08C614.095 1201.93 614.73 1200.44 614.73 1198.57C614.73 1196.71 614.342 1195.44 613.53 1194.39C612.718 1193.35 611.624 1192.45 610.177 1191.71C608.73 1190.96 607.106 1190.25 605.271 1189.54C604.176 1189.13 602.941 1188.61 601.6 1187.9C600.258 1187.19 598.953 1186.34 597.717 1185.29C596.482 1184.25 595.458 1182.94 594.682 1181.41C593.87 1179.88 593.482 1177.98 593.482 1175.82C593.482 1173.32 594.082 1171.12 595.317 1169.21C596.552 1167.31 598.211 1165.82 600.294 1164.78C602.376 1163.73 604.776 1163.21 607.424 1163.21C610.071 1163.21 612.33 1163.69 614.271 1164.7C616.212 1165.71 617.871 1166.94 619.177 1168.47C620.518 1170 621.577 1171.56 622.319 1173.24L616.212 1176.86C615.648 1175.71 614.977 1174.62 614.13 1173.62C613.283 1172.61 612.295 1171.79 611.165 1171.19C610.036 1170.6 608.73 1170.3 607.247 1170.3C605.165 1170.3 603.647 1170.78 602.659 1171.79C601.67 1172.8 601.211 1173.99 601.211 1175.33C601.211 1176.53 601.564 1177.64 602.27 1178.58C602.976 1179.55 604.07 1180.44 605.553 1181.3C607.035 1182.16 608.977 1183.02 611.342 1183.91C612.647 1184.4 613.989 1185.03 615.295 1185.78C616.601 1186.52 617.836 1187.49 618.965 1188.61C620.06 1189.77 620.942 1191.07 621.613 1192.6C622.283 1194.13 622.601 1195.92 622.601 1197.97C622.601 1200.18 622.213 1202.15 621.401 1203.87C620.589 1205.62 619.495 1207.08 618.083 1208.27C616.671 1209.46 615.118 1210.36 613.353 1211.03C611.589 1211.66 609.753 1212 607.847 1212C605.235 1212 602.8 1211.44 600.576 1210.36C598.353 1209.28 596.411 1207.78 594.752 1205.96C593.093 1204.13 591.787 1202.11 590.799 1199.99L596.376 1195.89C597.364 1197.68 598.388 1199.24 599.517 1200.62L599.588 1200.55Z" fill="#336A91"/>
<path d="M646.602 1177.68C647.732 1174.73 649.355 1172.16 651.473 1170C653.591 1167.83 656.026 1166.12 658.85 1164.92C661.674 1163.73 664.709 1163.1 667.956 1163.1C671.204 1163.1 674.38 1163.69 677.169 1164.92C679.957 1166.16 682.428 1167.83 684.51 1170C686.593 1172.16 688.216 1174.73 689.381 1177.68C690.546 1180.63 691.111 1183.87 691.111 1187.42C691.111 1190.96 690.546 1194.17 689.381 1197.15C688.252 1200.14 686.628 1202.75 684.546 1204.95C682.463 1207.15 680.028 1208.87 677.204 1210.1C674.38 1211.33 671.309 1211.92 667.956 1211.92C664.603 1211.92 661.568 1211.29 658.744 1210.1C655.92 1208.87 653.45 1207.15 651.402 1204.95C649.355 1202.75 647.732 1200.17 646.602 1197.15C645.473 1194.17 644.873 1190.92 644.873 1187.42C644.873 1183.91 645.437 1180.63 646.602 1177.68ZM654.756 1196.03C656.061 1198.57 657.826 1200.55 660.121 1201.96C662.415 1203.38 665.027 1204.13 667.921 1204.13C670.815 1204.13 673.498 1203.42 675.757 1201.96C678.016 1200.55 679.816 1198.53 681.086 1196.03C682.392 1193.5 683.028 1190.63 683.028 1187.42C683.028 1184.21 682.392 1181.34 681.122 1178.8C679.851 1176.26 678.086 1174.29 675.827 1172.87C673.568 1171.45 670.921 1170.71 667.921 1170.71C664.921 1170.71 662.38 1171.41 660.121 1172.87C657.826 1174.29 656.026 1176.3 654.756 1178.8C653.45 1181.34 652.814 1184.21 652.814 1187.42C652.814 1190.63 653.45 1193.5 654.756 1196.03Z" fill="#336A91"/>
<path d="M723.054 1163.92V1210.92H715.571V1163.92H723.054ZM720.018 1163.92H729.301C732.513 1163.92 735.337 1164.51 737.702 1165.75C740.066 1166.98 741.937 1168.66 743.278 1170.82C744.62 1172.98 745.255 1175.56 745.255 1178.5C745.255 1181.45 744.584 1184.02 743.278 1186.22C741.972 1188.43 740.102 1190.1 737.702 1191.33C735.301 1192.57 732.513 1193.16 729.301 1193.16H720.018V1186.63H728.983C730.678 1186.63 732.16 1186.34 733.466 1185.7C734.772 1185.07 735.76 1184.17 736.502 1182.98C737.207 1181.79 737.596 1180.37 737.596 1178.73C737.596 1177.09 737.243 1175.59 736.502 1174.44C735.796 1173.28 734.772 1172.39 733.466 1171.75C732.16 1171.12 730.678 1170.82 728.983 1170.82H720.018V1163.96V1163.92ZM732.866 1188.5L747.938 1210.92H738.902L724.748 1188.5H732.866Z" fill="#336A91"/>
<path d="M766.045 1163.92H797.035V1171.23H785.281V1210.92H777.728V1171.23H766.045V1163.92Z" fill="#336A91"/>
<path d="M477.945 72.6212L391.081 103.432C388.681 95.7483 386.104 88.176 383.422 80.753C374.421 55.9101 363.444 34.2379 350.985 15.3259C349.008 5.96322 351.902 -2.31774 370.504 0.59179C384.446 2.75528 430.154 26.1434 477.945 72.6212Z" fill="#34AEDD"/>
<path d="M569.786 201.797L419.848 254.989C416 209.966 408.588 165.913 397.364 124.844L495.028 90.1907C522.277 119.734 548.996 156.849 569.786 201.797Z" fill="#336A91"/>
<path d="M419.001 414.49C423.272 369.617 424.154 323.474 421.507 278.004L578.646 222.275C593.399 259.129 604.094 300.795 608.083 347.422L419.001 414.49Z" fill="#34AEDD"/>
<path d="M587.611 542.846C587.611 542.846 509.43 567.838 424.719 649.901C365.563 707.234 330.478 713.575 314.736 712.232C378.834 672.282 402.518 551.425 416.318 439.035L609.459 370.549C611.365 422.175 605.153 479.545 587.611 542.846Z" fill="#336A91"/>
<path d="M656.015 585.855C655.768 587.31 655.485 588.876 655.167 590.48C652.838 602.342 648.355 618.457 639.849 634.869C634.484 645.127 627.213 659.153 618.142 669.336H618.107C618.107 669.336 617.93 669.56 617.824 669.672C606.071 673.29 565.762 685.711 527.078 698.394C476.039 715.142 479.851 715.217 449.426 724.505C401 739.277 364.715 746.886 364.715 746.886C330.443 755.95 311.948 756.1 307.183 756.696C304.006 757.107 271.957 758.823 271.957 758.823C271.957 758.823 288.864 754.458 311.771 746.886C318.866 744.536 352.115 733.607 388.929 709.958C401.635 701.788 415.612 692.09 430.825 680.564C440.602 673.141 450.344 666.016 460.015 659.115H460.05C460.368 658.854 460.721 658.631 461.039 658.369C464.462 655.945 467.886 653.558 471.275 651.17C471.275 651.17 472.263 650.499 473.322 649.753C495.947 634.123 517.936 620.396 533.96 610.773C557.891 596.374 584.293 586.862 611.718 584.065C628.272 582.386 643.414 583.02 656.015 585.855Z" fill="#336A91"/>
</svg>
