<svg width="1001" height="600" viewBox="0 0 1001 600" fill="none" xmlns="http://www.w3.org/2000/svg">
<path d="M294.376 568.095V595.974H305.921V599.571H290.818V568.11H294.376V568.095Z" fill="#296661"/>
<path d="M332.426 587.691L332.098 588.503L327.74 599.556H323.753L337.384 566.518L351.016 599.556H347.029L342.743 588.763L342.414 587.859L337.384 575.183L332.426 587.691ZM330.954 586.528H343.957L345.214 590.125H329.697L330.954 586.528Z" fill="#296661"/>
<path d="M375.349 568.095V599.556H371.776V568.095H375.349ZM391.295 568.095L378.578 582.838L391.923 599.556H387.522L374.263 582.93L386.894 568.095H391.295Z" fill="#296661"/>
<path d="M416.257 568.095V599.556H412.685V568.095H416.257ZM414.657 568.095H429.474V571.692H414.657V568.095ZM414.657 580.679H428.631V584.277H414.657V580.679ZM414.657 595.958H429.474V599.556H414.657V595.958Z" fill="#296661"/>
<path d="M486.313 568.095V599.556H482.741V568.095H486.313ZM484.727 568.095H490.729C492.629 568.095 494.329 568.477 495.83 569.243C497.33 570.008 498.516 571.095 499.402 572.504C500.288 573.912 500.731 575.596 500.731 577.541C500.731 579.454 500.288 581.123 499.402 582.547C498.516 583.971 497.33 585.058 495.83 585.823C494.329 586.589 492.629 586.972 490.729 586.972H484.727V583.603H490.729C491.986 583.603 493.1 583.358 494.058 582.884C495.015 582.409 495.772 581.72 496.315 580.817C496.858 579.914 497.13 578.827 497.13 577.541C497.13 576.255 496.858 575.152 496.315 574.264C495.772 573.361 495.015 572.672 494.058 572.198C493.086 571.723 491.986 571.478 490.729 571.478H484.727V568.095ZM491.986 584.047L502.474 599.556H498.073L487.999 584.047H491.986Z" fill="#296661"/>
<path d="M527.022 568.095V599.556H523.449V568.095H527.022ZM525.421 568.095H540.238V571.692H525.421V568.095ZM525.421 580.679H539.395V584.277H525.421V580.679ZM525.421 595.958H540.238V599.556H525.421V595.958Z" fill="#296661"/>
<path d="M566.929 593.355C567.672 594.32 568.501 595.07 569.43 595.606C570.359 596.142 571.402 596.417 572.573 596.417C574.145 596.417 575.402 595.958 576.345 595.024C577.303 594.09 577.774 592.912 577.774 591.472C577.774 590.064 577.46 588.946 576.846 588.104C576.231 587.262 575.431 586.589 574.431 586.053C573.431 585.532 572.387 585.058 571.259 584.629C570.53 584.353 569.716 584.001 568.83 583.573C567.93 583.144 567.086 582.577 566.272 581.904C565.458 581.23 564.8 580.404 564.272 579.408C563.757 578.413 563.5 577.204 563.5 575.765C563.5 574.203 563.857 572.81 564.586 571.585C565.315 570.36 566.315 569.396 567.601 568.692C568.887 567.987 570.359 567.635 572.002 567.635C573.602 567.635 574.988 567.957 576.174 568.6C577.36 569.243 578.374 570.069 579.217 571.08C580.06 572.09 580.718 573.147 581.189 574.249L578.131 576.132C577.774 575.351 577.303 574.586 576.746 573.836C576.188 573.085 575.502 572.473 574.717 571.998C573.916 571.524 572.945 571.279 571.802 571.279C570.201 571.279 569.044 571.692 568.315 572.519C567.587 573.346 567.229 574.264 567.229 575.29C567.229 576.163 567.444 576.959 567.858 577.694C568.272 578.429 568.987 579.117 569.973 579.76C570.959 580.403 572.316 581.046 574.016 581.674C574.802 581.98 575.631 582.363 576.488 582.838C577.346 583.312 578.16 583.925 578.903 584.66C579.646 585.394 580.246 586.282 580.732 587.308C581.203 588.349 581.446 589.574 581.446 591.013C581.446 592.391 581.204 593.631 580.718 594.749C580.232 595.851 579.56 596.8 578.703 597.581C577.846 598.362 576.888 598.959 575.802 599.372C574.731 599.786 573.602 600 572.43 600C570.83 600 569.358 599.632 568.001 598.898C566.644 598.163 565.458 597.183 564.429 595.973C563.414 594.764 562.571 593.463 561.928 592.085L564.786 590.018C565.486 591.289 566.201 592.391 566.929 593.355Z" fill="#296661"/>
<path d="M603.351 577.418C604.094 575.459 605.137 573.744 606.48 572.289C607.823 570.835 609.395 569.702 611.224 568.875C613.052 568.049 615.01 567.635 617.139 567.635C619.297 567.635 621.268 568.049 623.069 568.875C624.869 569.702 626.441 570.835 627.784 572.289C629.127 573.744 630.17 575.459 630.913 577.418C631.656 579.378 632.028 581.521 632.028 583.818C632.028 586.099 631.656 588.227 630.913 590.202C630.17 592.177 629.127 593.891 627.784 595.346C626.441 596.8 624.869 597.933 623.069 598.76C621.268 599.586 619.282 600 617.139 600C615.01 600 613.038 599.586 611.224 598.76C609.409 597.933 607.823 596.8 606.48 595.346C605.137 593.891 604.094 592.177 603.351 590.202C602.608 588.227 602.236 586.099 602.236 583.818C602.236 581.521 602.608 579.378 603.351 577.418ZM607.466 590.171C608.437 592.023 609.752 593.493 611.438 594.58C613.11 595.667 615.01 596.203 617.139 596.203C619.297 596.203 621.197 595.667 622.869 594.58C624.54 593.509 625.841 592.039 626.812 590.171C627.77 588.319 628.255 586.206 628.255 583.833C628.255 581.46 627.77 579.347 626.812 577.495C625.841 575.642 624.526 574.172 622.869 573.085C621.211 571.999 619.297 571.463 617.139 571.463C615.01 571.463 613.11 571.999 611.438 573.085C609.766 574.172 608.437 575.627 607.466 577.495C606.508 579.347 606.022 581.46 606.022 583.833C606.022 586.19 606.494 588.303 607.466 590.171Z" fill="#296661"/>
<path d="M657.833 568.095V599.556H654.26V568.095H657.833ZM656.232 568.095H662.234C664.134 568.095 665.834 568.477 667.335 569.243C668.835 570.008 670.021 571.095 670.907 572.504C671.793 573.912 672.235 575.596 672.235 577.541C672.235 579.454 671.793 581.123 670.907 582.547C670.021 583.971 668.835 585.058 667.335 585.823C665.834 586.589 664.134 586.972 662.234 586.972H656.232V583.603H662.234C663.491 583.603 664.605 583.358 665.563 582.884C666.52 582.409 667.277 581.72 667.82 580.817C668.363 579.914 668.635 578.827 668.635 577.541C668.635 576.255 668.363 575.152 667.82 574.264C667.277 573.361 666.52 572.672 665.563 572.198C664.591 571.723 663.491 571.478 662.234 571.478H656.232V568.095ZM663.491 584.047L673.979 599.556H669.578L659.504 584.047H663.491Z" fill="#296661"/>
<path d="M692.025 568.095H710.7V571.692H703.142V599.571H699.57V571.692H692.011V568.095H692.025Z" fill="#296661"/>
<path d="M230.263 583.649H201.872V586.175H230.263V583.649Z" fill="#296661"/>
<path d="M799.132 581.154H770.741V583.68H799.132V581.154Z" fill="#296661"/>
<path d="M113.297 258.763C108.653 265.208 101.409 267.351 95.2936 271.393C86.6634 277.104 78.4189 283.457 69.9029 289.382C64.4161 293.194 58.8293 296.838 53.1568 300.313C50.7563 301.783 50.9849 303.13 52.6281 304.814C53.0996 305.304 53.8426 305.656 54.4999 305.763C74.7039 309.009 94.9507 311.704 115.469 310.004C120.113 309.621 124.785 309.637 129.4 309.024C142.16 307.294 154.877 305.151 167.651 303.528C177.796 302.242 188.055 301.768 198.185 300.359C204.944 299.41 211.574 297.466 218.261 295.935C218.804 295.812 219.275 295.353 219.818 295.246C228.391 293.776 237.021 292.658 245.509 290.791C251.353 289.505 257.025 287.285 262.712 285.294C269.028 283.074 275.243 280.472 281.602 278.374C282.93 277.93 284.702 279.002 286.274 279.385C285.374 280.747 284.488 282.11 283.588 283.457C283.516 283.58 283.316 283.61 283.259 283.733C280.101 290.117 274.4 291.234 268.485 292.184C266.813 292.459 265.013 293.562 263.77 294.832C259.883 298.767 254.954 300.237 250.153 302.074C249.238 302.426 248.352 302.824 247.438 303.145C244.437 304.202 241.308 304.937 238.436 306.315C233.607 308.611 228.577 310.754 224.276 313.923C217.832 318.685 210.873 320.522 203.258 321.303C198.314 321.808 193.513 323.829 188.641 325.191C187.14 325.605 185.64 326.569 184.183 326.477C180.496 326.232 178.253 328.636 175.695 330.779C173.866 332.326 171.766 333.857 169.565 334.469C162.907 336.322 156.177 338.036 149.376 339.184C146.032 339.751 142.417 339.307 139.031 338.664C131.529 337.225 125.4 339.781 119.684 344.803C118.512 345.829 116.055 345.431 114.212 345.308C105.41 344.726 96.6082 343.992 87.7922 343.364C87.2921 343.333 86.7634 343.731 85.9061 344.068C88.7924 348.692 86.5348 349.886 82.6626 350.085C81.8624 350.131 80.9623 350.498 80.3336 351.019C77.3615 353.56 74.2038 353.116 71.1746 351.509C68.3312 350.008 66.3737 349.457 63.9875 352.871C62.9159 354.402 59.3009 354.647 57.0004 354.295C49.2846 353.101 41.7546 351.524 34.6246 347.329C27.9376 343.395 23.1795 337.73 18.4929 331.759C15.7923 328.315 13.1347 324.732 11.0057 320.874C8.46231 316.251 6.53337 311.244 4.27579 306.422C3.20415 304.141 1.91818 301.967 0.860832 299.685C-0.653751 296.424 -0.253676 293.761 2.73262 291.449C8.27657 287.132 13.4776 282.324 19.1073 278.145C23.9796 274.532 29.2521 271.546 34.3388 268.27C35.5533 267.489 37.1251 266.969 37.8681 265.836C43.412 257.216 52.4424 253.542 60.0439 247.939C65.6164 243.836 71.9033 240.835 77.8474 237.283C83.077 234.175 88.2208 230.899 93.479 227.853C101.552 223.183 109.739 218.728 117.798 214.028C120.613 212.39 123.185 210.246 125.9 208.394C132.315 204.015 138.716 199.576 145.203 195.335C151.262 191.37 157.377 187.466 163.593 183.776C170.994 179.382 178.596 175.371 185.983 170.977C190.484 168.298 194.513 164.532 199.214 162.45C209.187 158.041 216.918 150.049 226.005 144.277C228.505 142.685 231.249 141.43 233.506 139.516C236.178 137.25 238.422 134.402 240.908 131.876C242.508 130.238 244.251 128.753 245.895 127.176C249.767 123.487 254.053 120.164 257.368 115.97C262.284 109.769 266.627 103.018 270.985 96.3273C272.486 94.0308 269.471 90.0656 265.999 88.1672C261.283 85.5952 256.382 85.1053 251.324 85.5187C244.437 86.0851 237.221 83.5896 230.734 88.0294C230.42 88.2438 229.906 88.0907 229.477 88.1519C220.147 89.4532 210.745 90.2952 201.529 92.1783C189.855 94.5666 178.024 96.8325 166.851 100.981C156.091 104.977 144.532 106.845 134.773 113.949C131.086 116.643 126.557 117.975 122.585 120.287C121.042 121.175 119.984 123.027 117.884 125.339C121.542 125.798 123.828 126.089 126.786 126.472C125.771 127.406 125.228 128.355 124.685 128.355C118.798 128.248 113.983 131.172 109.096 134.188C103.938 137.357 100.223 135.352 99.4516 129.35C99.2944 128.171 98.8943 127.023 98.5514 125.89C95.8509 116.949 93.1932 107.993 90.3927 99.083C89.2496 95.4699 87.7064 92.0099 86.5062 88.4122C84.8201 83.3753 86.3062 79.0733 89.3496 75.0928C94.3506 68.5402 100.809 64.3148 108.068 61.2682C115.44 58.1756 122.756 54.93 130.115 51.7915C133.744 50.2452 137.388 48.6989 141.088 47.321C146.375 45.3461 151.362 42.575 157.292 42.4679C161.607 42.3913 165.879 40.646 170.18 39.6968C182.382 37.0176 194.513 33.9251 206.816 31.9195C213.303 30.8632 220.047 31.6899 226.691 31.7358C236.121 31.7971 245.18 33.3127 254.268 36.6349C265.57 40.7685 275.529 46.4637 283.002 56.5222C287.417 62.4623 290.446 68.8617 290.932 76.9299C291.346 83.8193 293.561 90.6168 295.319 97.3683C297.362 105.161 299.662 112.969 298.162 121.098C297.633 123.915 295.333 126.38 293.718 128.922C293.018 130.024 291.489 130.728 291.204 131.876C289.589 138.245 283.945 140.848 280.373 145.364C279.958 145.9 277.444 145.41 276.672 144.583C274.543 142.272 273.257 143.083 271.457 145.027C267.27 149.574 262.969 154.014 258.483 158.194C257.111 159.48 254.854 160.628 253.167 160.413C247.766 159.694 244.637 163.629 240.894 166.4C239.222 167.64 237.65 169.079 235.921 170.212C233.878 171.544 231.092 171.789 230.692 175.233C230.606 175.953 229.334 176.795 228.463 177.086C215.389 181.281 205.029 190.972 192.941 197.203C185.883 200.846 179.067 205.087 172.323 209.374C167.908 212.191 163.95 215.85 159.521 218.606C155.191 221.3 150.562 223.505 145.932 225.587C142.903 226.965 140.56 228.496 140.16 232.43C140.031 233.624 138.916 235.063 137.873 235.737C132.987 238.906 127.957 241.83 122.999 244.862C119.713 246.882 116.398 248.842 113.226 251.031C108.453 254.338 108.525 255.716 113.297 258.763Z" fill="#296661"/>
<path d="M842.012 302.227C840.469 301.247 838.754 300.451 837.396 299.226C832.953 295.2 828.852 290.714 824.223 286.948C818.936 282.646 812.906 279.967 806.248 278.711C797.003 276.966 787.915 273.797 778.628 272.94C768.569 272.006 758.352 272.848 748.208 273.261C743.435 273.46 738.691 274.394 733.962 275.16C727.318 276.231 720.674 277.349 714.072 278.666C706.356 280.196 698.626 281.789 690.982 283.702C685.552 285.065 680.28 287.178 674.879 288.678C670.278 289.964 665.534 290.684 660.933 292C655.046 293.669 649.26 295.751 643.387 297.512C639.743 298.614 636.057 299.594 632.328 300.359C627.112 301.431 621.811 302.135 616.61 303.283C615.624 303.498 614.267 305.013 614.167 306.055C613.238 315.945 607.923 323.798 603.293 331.744C600.564 336.444 595.835 339.828 591.963 343.747C589.005 346.732 586.319 350.284 582.889 352.443C575.902 356.837 571.287 365.456 562 365.9C560.499 365.976 558.77 367.155 557.627 368.365C553.869 372.33 549.254 374.137 544.325 375.652C536.709 377.995 529.222 380.827 521.677 383.43C521.277 383.567 520.877 383.766 520.463 383.797C511.804 384.685 503.131 386.338 494.486 386.231C481.155 386.063 467.838 384.67 454.521 383.812C452.478 383.674 450.649 383.292 449.206 386.078C448.62 387.211 444.662 387.716 443.319 386.767C438.261 383.215 432.689 383.766 427.873 385.374C423.101 386.966 420.015 385.083 416.6 382.894C413.299 380.781 410.484 378.898 406.012 378.882C402.154 378.867 397.01 379.219 393.638 374.259C391.48 371.075 387.308 369.528 384.265 366.956C382.936 365.839 381.921 364.093 381.164 362.409C378.878 357.296 377.106 351.876 374.534 346.947C371.462 341.022 371.591 334.684 373.205 328.912C375.434 320.966 379.049 313.434 382.35 305.871C383.222 303.85 385.093 302.334 386.508 300.589C386.922 300.834 387.351 301.094 387.765 301.339C386.351 305.702 384.551 309.989 383.622 314.475C382.536 319.711 381.564 325.161 381.736 330.473C381.864 334.285 383.307 338.496 385.322 341.665C387.737 345.446 390.995 348.967 394.595 351.448C401.954 356.515 410.027 359.899 419.086 358.061C422.587 357.357 425.516 357.388 428.559 359.99C432.317 363.205 441.404 362.241 444.734 358.444C447.706 355.061 451.021 353.943 455.279 354.081C463.837 354.356 472.411 354.448 480.955 354.066C488.942 353.713 496.915 352.688 504.888 351.83C506.389 351.662 507.903 351.049 509.275 350.361C514.105 347.911 518.748 345.431 524.464 345.676C527.579 345.814 530.379 343.823 531.379 339.736C533.108 332.647 533.465 333.137 540.281 331.851C543.782 331.193 547.34 328.896 550.126 326.386C554.627 322.344 558.513 317.537 562.371 312.515C524.321 309.469 492.272 292.903 463.795 267.428C463.938 267.03 464.066 266.647 464.209 266.249C466.409 267.199 469.367 267.489 470.667 269.219C475.768 276.002 483.584 278.145 489.8 282.937C496.272 287.913 503.874 289.765 511.261 292.597C529.908 299.732 548.883 300.16 568.172 299.242C571.044 299.104 572.659 298.706 573.045 294.863C573.33 291.97 575.474 289.229 576.974 286.55C581.846 277.869 583.761 268.071 585.304 258.365C585.833 255.058 582.761 251.123 581.389 247.449C580.889 246.102 580.532 244.678 580.132 243.285C579.86 242.336 579.917 240.973 579.332 240.499C571.93 234.528 568.115 225.357 561.914 218.361C560.285 216.524 557.77 215.559 555.584 214.35C554.498 213.753 552.998 213.798 552.141 213.002C542.739 204.215 533.351 195.412 524.135 186.394C519.82 182.184 516.019 177.377 511.804 173.044C507.303 168.421 502.016 164.563 498.073 159.464C490.957 150.279 482.97 141.139 483.856 127.865C484.542 117.547 486.656 107.703 490.528 97.9044C495.587 85.1055 504.717 75.69 511.447 64.3609C514.433 59.3393 517.491 54.3637 520.463 49.3115C522.835 45.2697 525.035 41.1208 527.421 37.0791C529.565 33.466 528.807 31.1849 524.849 31.0165C521.835 30.894 518.477 31.0318 515.791 32.3178C505.489 37.2628 495.187 42.2844 485.313 48.1327C479.969 51.3018 475.34 55.9559 470.696 60.3345C465.709 65.0345 460.765 69.8724 456.422 75.246C453.278 79.1347 451.092 83.9573 448.592 88.4277C447.434 90.4945 446.42 92.6684 445.548 94.873C439.933 109.142 439.175 123.885 441.876 138.98C442.276 141.185 442.348 143.497 442.333 145.747C442.333 148.442 442.576 151.335 438.775 151.657C433.889 152.07 430.202 150.263 429.602 146.604C428.516 139.975 427.416 133.346 426.616 126.671C426.259 123.716 426.602 120.67 426.587 117.654C426.587 115.847 427.087 113.704 426.359 112.295C423.572 106.922 426.773 102.834 428.388 98.333C429.588 94.9955 431.117 91.658 431.603 88.1674C432.489 81.9211 435.346 77.022 438.933 72.2607C440.733 69.8724 441.476 66.5043 443.434 64.315C447.363 59.9211 451.792 56.0324 456.007 51.9141C457.779 50.1842 459.565 48.4848 461.28 46.7089C465.295 42.56 468.796 37.6455 473.354 34.3846C480.527 29.2405 488.399 25.2141 495.972 20.6978C497.158 19.9935 498.63 19.4424 499.416 18.3707C503.245 13.196 508.646 11.4201 514.219 9.6442C521.677 7.25589 529.35 5.11252 536.266 1.4382C541.324 -1.2563 545.053 0.0603531 547.954 3.52034C551.64 7.91421 554.598 13.1501 557.17 18.4166C558.113 20.3303 557.613 23.6066 556.784 25.8418C554.984 30.6796 552.684 35.3338 550.34 39.9114C546.582 47.2447 542.967 54.7158 538.638 61.6664C535.294 67.0401 530.608 71.434 527.15 76.7464C522.12 84.4472 517.662 92.5766 512.961 100.507C512.361 101.517 511.818 102.589 511.147 103.538C505.531 111.316 505.917 119.537 510.847 127.069C515.519 134.234 521.106 140.756 526.636 147.217C529.708 150.815 533.637 153.57 536.923 157C543.725 164.057 550.34 171.329 557.07 178.479C561.771 183.47 566.829 188.094 571.187 193.391C575.688 198.841 579.56 204.888 583.647 210.737C587.59 216.386 591.334 222.219 595.392 227.776C601.036 235.508 604.908 244.234 608.937 252.961C613.753 263.432 614.796 274.762 617.096 286.489C618.368 286.489 620.283 286.963 621.869 286.412C631.242 283.136 640.515 279.492 649.888 276.231C659.019 273.047 668.249 270.199 677.436 267.168C680.766 266.081 684.195 265.224 687.353 263.723C698.526 258.411 710.657 257.63 722.331 254.675C738.463 250.588 754.737 248.169 771.226 249.516C780.071 250.235 788.787 252.915 797.532 254.828C801.089 255.609 804.79 256.222 808.091 257.722C812.677 259.819 816.978 262.667 821.379 265.239C833.239 272.159 841.526 282.6 847.713 295.307C853.157 306.468 854.8 322.62 851.013 333.382C847.656 333.382 846.827 331.698 846.727 328.054C846.555 321.67 845.527 315.286 844.741 308.933C844.655 308.244 843.626 307.738 843.355 307.019C842.769 305.411 842.397 303.727 841.94 302.074C842.655 301.079 844.169 299.762 843.955 299.135C843.026 296.486 841.955 293.715 840.268 291.602C835.668 285.83 831.081 279.982 824.551 276.43C820.179 274.057 816.135 270.75 811.549 269.204C804.619 266.877 797.403 264.688 790.216 264.305C774.184 263.448 758.095 263.693 742.035 263.631C739.963 263.616 737.891 264.458 735.819 264.933C730.461 266.142 725.074 267.244 719.745 268.592C711.458 270.674 703.199 272.894 694.954 275.175C694.368 275.343 693.997 276.384 692.725 278.099C695.983 277.839 698.198 277.946 700.255 277.425C706.371 275.864 712.372 273.766 718.53 272.419C725.946 270.796 733.433 268.867 740.949 268.576C756.166 267.995 771.426 268.148 786.658 268.561C792.173 268.714 797.803 269.893 803.09 271.608C808.134 273.246 812.792 276.262 817.664 278.543C819.693 279.492 822.165 279.63 823.894 280.947C827.552 283.748 831.195 286.734 834.196 290.285C837.211 293.899 839.44 298.231 842.012 302.227Z" fill="#296661"/>
<path d="M401.997 111.576C401.997 118.986 402.454 126.427 401.883 133.79C401.125 143.772 399.554 153.662 398.396 163.614C397.982 167.211 396.996 170.993 397.682 174.376C398.168 176.749 400.868 178.77 402.883 180.561C403.854 181.434 405.655 181.189 406.826 181.924C408.927 183.225 409.141 184.894 406.841 186.349C406.112 186.808 405.069 186.915 404.597 187.543C403.697 188.722 402.44 190.253 402.568 191.493C402.668 192.442 404.669 193.804 405.855 193.85C411.785 194.034 416.571 197.05 421.086 200.587C424.216 203.021 423.973 204.735 420.315 206.22C415.099 208.318 409.341 209.236 404.512 212.038C398.625 215.437 390.866 216.845 388.666 225.388C388.108 227.547 387.966 229.813 387.508 232.002C385.837 240.055 384.036 248.077 382.479 256.145C381.864 259.345 381.95 262.713 381.293 265.898C380.693 268.76 379.65 271.562 378.478 274.226C378.249 274.731 376.12 274.946 375.435 274.425C373.62 273.047 372.148 271.149 370.476 269.541C368.805 267.934 367.29 266.265 364.604 268.056C362.232 269.633 360.26 268.347 360.246 265.423C360.232 261.718 358.731 260.294 355.474 260.141C354.788 260.11 353.53 258.855 353.587 258.289C354.002 254.584 354.388 250.802 355.388 247.25C356.688 242.596 358.203 238.432 354.716 233.793C353.516 232.186 353.845 228.312 354.73 226.031C356.817 220.734 355.345 217.902 349.787 217.519C344.9 217.198 340.013 216.616 335.141 216.003C331.426 215.544 327.825 214.962 327.697 209.466C327.682 208.578 325.868 207.736 324.882 206.879C324.339 207.966 323.31 209.053 323.31 210.155C323.21 221.882 322.853 233.64 323.524 245.321C323.767 249.562 325.068 253.359 322.224 257.171C319.238 261.182 315.408 261.672 312.265 257.737C309.15 253.849 306.392 249.761 306.421 244.143C306.435 242.321 305.478 240.33 304.535 238.708C298.619 228.511 297.805 217.519 299.791 206.037C299.891 205.44 300.005 204.858 300.148 204.276C301.491 198.872 305.106 193.1 308.707 188.844C310.279 186.992 311.322 184.159 311.622 181.648C312.737 172.279 312.922 162.741 314.48 153.463C315.966 144.523 318.752 135.827 320.895 127.008C322.224 121.558 323.196 116.001 324.739 110.627C326.696 103.814 329.054 97.1238 331.283 90.3876C331.454 89.8517 331.797 89.224 332.24 88.9485C340.828 83.4064 346 74.2206 353.002 67.025C356.259 63.6722 361.089 61.7432 365.518 60.1357C369.848 58.5588 374.563 58.1607 379.135 57.3799C380.178 57.1962 381.793 57.1809 382.336 57.8545C385.494 61.6973 390.395 63.6722 392.024 69.3062C392.781 71.9088 395.71 73.7153 397.282 76.1496C400.439 81.0487 402.626 86.2539 402.268 92.5615C401.911 98.8844 402.183 105.253 402.183 111.607C402.097 111.576 402.054 111.576 401.997 111.576ZM360.946 180.592C365.604 180.362 369.933 176.351 370.791 169.906C372.405 157.842 373.491 145.717 374.749 133.591C375.906 122.385 376.735 111.117 378.235 99.9561C378.807 95.6847 378.892 92.0563 375.463 89.4537C372.405 87.1419 369.219 88.3055 366.361 90.1579C360.103 94.1691 354.831 99.0375 350.158 105.391C342.557 115.71 337.056 126.978 333.026 139.164C331.269 144.492 330.611 150.248 329.683 155.836C328.711 161.593 327.725 167.38 327.297 173.198C326.996 177.255 330.526 180.347 333.398 179.015C340.142 175.877 346.829 176.826 353.587 178.786C356.016 179.505 358.503 179.995 360.946 180.592Z" fill="#296661"/>
<path d="M767.726 137.434C762.51 136.194 757.509 135.459 752.808 133.744C749.451 132.519 746.579 129.855 743.335 128.141C741.892 127.375 740.092 127.023 738.477 127.115C733.233 127.39 729.361 124.512 725.603 121.221C723.574 119.445 721.588 117.623 719.488 115.954C715.83 113.045 712.158 110.152 708.343 107.457C707.257 106.692 705.713 106.539 704.342 106.355C700.884 105.865 699.355 107.442 699.812 111.269C700.898 120.394 702.227 129.488 702.813 138.643C703.727 152.82 703.97 166.997 700.755 180.99C698.412 191.171 696.554 201.474 693.968 211.578C693.111 214.9 690.853 217.916 688.839 220.749C683.423 228.327 677.351 234.65 668.22 237.559C662.705 239.319 657.39 240.927 651.774 240.253C641.329 238.983 631.942 235.14 623.526 227.883C615.939 221.361 610.995 212.971 606.208 204.337C604.136 200.586 602.808 196.284 601.564 192.089C599.364 184.664 596.921 177.254 595.62 169.63C594.334 162.113 596.564 154.749 599.464 147.86C603.508 138.26 605.78 128.753 601.922 118.281C600.493 114.393 599.235 110.979 595.949 108.376C592.691 105.819 594.563 102.145 595.649 99.2666C597.164 95.2555 598.893 91.0606 601.507 87.8762C603.965 84.8755 608.023 80.8491 610.809 81.3084C614.81 81.9514 619.797 85.3808 621.726 89.147C625.698 96.9243 628.184 105.375 628.541 114.791C629.227 132.933 626.741 150.631 624.798 168.497C624.169 174.315 625.441 180.393 626.126 186.317C626.241 187.343 627.727 188.981 628.584 188.981C632.899 189.012 638 190.053 641.358 188.001C646.588 184.786 651.946 181.25 655.104 174.621C657.161 170.319 661.548 166.859 666.82 166.063C668.235 165.848 669.549 164.869 670.878 164.195C673.193 163.031 675.522 161.868 677.794 160.628C678.837 160.061 680.437 159.48 680.68 158.561C681.952 153.692 683.138 148.763 683.823 143.772C684.195 141.062 684.724 139.715 687.538 139.608C688.782 139.562 690.853 138.184 691.025 137.143C692.054 130.621 695.769 124.359 692.84 117.378C692.225 115.908 692.082 114.132 692.054 112.494C692.011 108.789 691.425 106.171 686.995 106.049C684.023 105.957 682.209 101.104 684.538 98.1337C689.353 91.9792 694.397 85.6564 700.484 81.1706C703.927 78.6292 709.514 79.0119 714.058 82.1351C717.63 84.5847 722.231 85.5185 725.446 88.3508C734.119 95.9903 742.406 104.166 750.594 112.418C752.794 114.622 754.337 117.715 755.795 120.608C757.967 124.926 760.81 128.523 764.839 130.759C768.04 132.519 768.297 135.091 767.726 137.434Z" fill="#296661"/>
<path d="M821.307 9.41418C835.282 10.2868 845.598 16.9465 851.899 29.6536C854.485 34.8742 855.514 41.0287 856.9 46.8616C857.758 50.49 857.4 54.5165 858.558 57.9918C861.287 66.213 858.772 73.4239 855.586 80.5276C851.914 88.7182 847.941 96.7558 843.998 104.809C843.64 105.544 842.512 106.156 841.669 106.278C838.239 106.784 836.639 109.279 834.696 112.081C830.566 118.021 825.723 123.379 821.265 129.059C819.922 130.774 818.821 132.718 817.692 134.632C816.021 137.495 814.449 140.434 812.792 143.297C812.134 144.445 811.12 145.441 810.691 146.665C808.105 154.091 804.776 161.424 803.547 169.109C802.975 172.676 806.176 177.3 808.419 180.898C810.377 184.067 813.292 186.593 815.949 189.211C820.764 193.957 825.723 198.55 830.566 203.265C831.895 204.551 833.067 206.036 834.267 207.475C836.382 210.017 838.497 212.558 840.54 215.176C841.869 216.875 843.097 218.682 844.298 220.489C845.184 221.836 845.841 223.367 846.784 224.653C852.471 232.43 858.801 239.763 863.759 248.031C868.474 255.884 871.603 264.81 875.747 273.077C878.576 278.711 881.948 284.039 885.063 289.504C885.277 289.887 885.634 290.285 885.649 290.699C885.734 293.393 885.763 296.072 885.792 298.767C883.92 297.741 881.891 296.945 880.205 295.628C866.902 285.202 857.586 270.566 846.127 258.181C841.511 253.205 838.511 246.53 834.653 240.713C833.624 239.166 832.11 237.987 830.881 236.564C828.795 234.175 826.809 231.71 824.694 229.353C822.951 227.424 821.05 225.663 819.307 223.734C814.078 217.932 808.991 212.007 803.69 206.296C799.389 201.688 794.345 197.769 790.501 192.778C782.7 182.658 776.37 171.743 779.242 157.535C781.571 146.038 786.615 136.193 793.845 127.36C798.132 122.124 801.575 116.077 805.619 110.58C807.433 108.131 810.148 106.432 811.863 103.921C818.936 93.5255 826.194 83.2374 832.495 72.3369C835.353 67.3919 836.425 61.1455 837.825 55.3585C838.654 51.9597 835.71 48.3467 832.538 48.9591C822.551 50.8728 812.377 52.1435 803.604 58.6501C797.517 63.1664 791.059 67.1163 784.657 71.1427C780.871 73.5157 773.584 71.3111 769.955 66.5345C766.711 62.2784 763.982 57.5631 760.881 53.1845C755.252 45.2541 759.195 37.1859 764.425 32.9298C769.826 28.536 775.856 24.7545 782.071 21.7997C790.459 17.8192 799.203 14.6042 807.962 11.6494C812.363 10.2562 817.107 10.1031 821.307 9.41418Z" fill="#296661"/>
<path d="M932.172 221.806C932.629 241.877 932.93 258.182 933.43 274.486C933.544 278.344 934.93 282.202 934.773 286.015C934.201 300.421 933.187 314.812 932.458 329.218C932.144 335.557 932.344 341.91 931.901 348.233C931.258 357.205 930.286 366.145 929.3 375.086C929.2 375.974 928.029 376.724 927.357 377.536C926.528 376.632 925.085 375.821 924.971 374.826C924.528 371.044 925.514 366.88 921.77 364.232C921.556 364.079 921.499 363.237 921.684 362.961C924.985 357.924 921.927 352.703 921.742 347.697C921.256 335.25 919.827 322.834 918.427 310.449C917.969 306.438 916.041 302.626 915.512 298.614C914.426 290.408 913.911 282.126 913.04 273.874C911.74 261.764 910.297 249.685 908.982 237.575C908.753 235.508 908.61 233.365 908.839 231.298C909.668 223.658 909.139 216.279 906.01 209.206C905.381 207.782 905.324 205.976 905.31 204.353C905.224 197.249 905.71 190.1 905.153 183.042C903.938 167.64 902.209 152.285 900.695 136.914C900.652 136.47 900.509 136.026 900.466 135.582C899.366 124.054 898.18 112.541 897.208 101.013C896.337 90.6786 895.936 80.2986 894.893 69.9799C894.393 65.0043 896.594 62.4476 900.223 60.6104C902.424 59.4928 905.781 57.1658 906.824 57.9925C910.096 60.5645 913.054 64.0551 915.112 67.8366C916.798 70.9291 917.112 74.9097 917.884 78.5381C918.912 83.3759 919.998 88.2137 920.741 93.0975C924.199 115.863 926.2 138.766 926.914 161.823C927.271 173.535 928.529 185.216 929.572 196.897C930.415 206.435 931.558 215.973 932.172 221.806Z" fill="#296661"/>
<path d="M1001 428.838C998.257 427.2 985.04 419.591 960.064 412.319C959.749 412.212 959.435 412.12 959.106 412.013C914.369 399.122 832.61 387.502 706.485 411.814C706.414 411.814 706.343 411.829 706.285 411.86C666.72 419.484 622.769 430.675 574.188 446.475C568.33 448.373 562.371 450.363 556.356 452.43H556.327C553.541 453.379 550.741 454.344 547.926 455.324C546.511 455.814 545.097 456.303 543.696 456.778C424.473 497.624 337.784 499.584 275.944 485.989C261.584 482.85 248.524 478.855 236.75 474.308C166.394 447.209 140.474 400.683 138.602 397.132C145.947 407.833 174.538 432.864 224.705 451.175C233.378 454.344 242.709 457.299 252.653 459.947C260.669 462.09 269.085 464.035 277.93 465.719C397.282 491.041 510.618 441.53 543.839 429.634C547.097 428.47 552.569 426.434 559.957 423.832C566.472 421.535 574.474 418.779 583.761 415.779C669.95 387.931 865.617 338.496 998.043 426.848C999.471 427.782 1000.46 428.455 1001 428.838Z" fill="#296661"/>
</svg>
