<?xml version="1.0" encoding="utf-8"?>
<!-- Generator: Adobe Illustrator 23.0.1, SVG Export Plug-In . SVG Version: 6.00 Build 0)  -->
<svg version="1.1" id="Layer_1" xmlns="http://www.w3.org/2000/svg" xmlns:xlink="http://www.w3.org/1999/xlink" x="0px" y="0px"
	 viewBox="0 0 1044 881" style="enable-background:new 0 0 1044 881;" xml:space="preserve">
<style type="text/css">
	.st0{fill:#194F70;}
	.st1{fill:#EFC61D;}
	.st2{fill:none;}
</style>
<g>
	<path class="st0" d="M87.6,801.7V656.1h19.1v77.6l54.1-49.3c18.3-16.8,13.5-28.3,13.5-28.3H195l-88.2,82.8v62.8H87.6z M126.1,721.7
		c58-4,57,83.6,85.9,80.1c-4.6,1.5-8.9,2.1-12.7,2.1C156.9,803.8,158.4,727.9,126.1,721.7 M299,656.1l73.8,145.6h-21l-8.3-16.2
		c-12.1-20.4-39.5-40.1-64.1-40.1c-11.4,0-22.3,4.6-30.4,15.4c7.1-12.9,18.3-17.9,31-17.9c18.9,0,41,11.9,55.7,27.5l-47.4-93.4
		l-45.3,89.6c-4.8,9.6-6.4,17.3-6.4,22.9c0,6.2,2.1,10,4,10.6c0.8,0.2,0.8,1.7,0.8,1.7h-19.8l73.8-145.6H299z M471.5,801.7
		l-59.1-129l-10,83.6c-0.4,4-0.6,7.9-0.6,11.2c0,21.6,8.3,31.4,11.6,32.4c0.8,0.2,0.8,1.7,0.8,1.7h-20.2l17.1-145.6h16l55.3,121.3
		L538,656.1h11.9l17.3,145.6h-19.6l-15-125.8l-57.4,125.8H471.5z M660.1,801.7h-62v-3.3h0.2V656.1h46.4c36.6,0,51.8,16,51.8,32.7
		c0,13.9-10.4,28.3-27.5,34.5c26.8,3.1,40.4,21,40.4,38.9C709.4,782,692.9,801.7,660.1,801.7 M657.8,726c-2.7,0.4-5.4,0.6-8.3,0.6
		c-8.5,0-17.9-1.9-28.1-6c7.3,2.3,13.7,3.1,19.6,3.1c24.1,0,36.2-16.6,36.2-33.1c0-15.8-11.2-31.2-33.7-31.2h-26.2v138.9h40.6
		c19.8,0,29.5-18.1,29.5-36.2S677.5,726,657.8,726 M736.8,656.1H756v145.6h-19.1V656.1z M790.9,801.7V656.1h39.7
		c41.2,0,58.9,20.6,58.9,40.8c0,17.9-13.9,35.4-38.3,37.4c43.1,7.9,37.6,70.5,64.1,67.4c-5.2,1.5-10,2.3-14.1,2.3
		c-38.5,0-32-61.4-61.6-69.9c-8.1-0.8-17.3-3.3-27.2-7.7c7.3,2.1,13.7,2.9,19.8,2.9c25,0,37.6-16,37.6-32.9
		c0-17.9-14.6-36.6-44.1-37l-15.6,0.2v142.1H790.9z M934.5,656.1h19.1v145.6h-19.1V656.1z"/>
	<path class="st1" d="M316.2,447.1c3.1,0.2,6.5-0.1,6.5-0.7l0.2-11.5c0.2-3.8,1-7.6,1.4-11.4c0.1-0.5-3.2-1.3-6.3-1.5
		c-62.8-4-126.2-4.7-189.6-2.2c1.5,1.3,2.9,2.5,4.4,3.8C193.8,434.5,255,442.4,316.2,447.1"/>
	<path class="st1" d="M127.2,422.6c1.9,0.3,3.7,0.7,5.6,1c-1.5-1.3-3-2.5-4.4-3.8c-0.3,0-0.7,0-1,0C123.1,420,123,421.8,127.2,422.6
		"/>
	<path class="st1" d="M95.9,342.1c73.2,26.1,147.5,48.3,222.5,66.4c3.7,0.9,7.8,1.3,7.9,0.8l2.6-11.3l1.2-5.7
		c0.5-1.9,1.3-3.7,1.8-5.5c0.2-0.5-3.6-2.1-7.3-3c-37.6-9.4-75.5-17.9-113.6-25.4c-37.9-7.4-76-13.9-114.4-19.3
		C91.5,338.3,91,340.3,95.9,342.1"/>
	<path class="st1" d="M348.1,334.2c2.6,1.7,5.7,3.1,5.9,2.7c1.6-3.5,4.2-6.5,6.3-9.7l6.6-9.6c0.3-0.5-2.2-2.8-4.7-4.5
		c-52.5-34.9-107.1-67.2-163.5-96.7c-3.8-2-4.8-0.5-1.6,2.3C245.4,259.8,295.6,298.2,348.1,334.2"/>
	<path class="st1" d="M369.8,301.9c2.8,2.6,6.2,5,6.5,4.6c4.6-6.3,10.5-11.3,16-16.7c0.4-0.4-2.2-3.7-4.9-6.3
		C331.8,229.8,273.3,178.9,211.9,131c-4.1-3.2-5.5-1.8-2.2,2.2C259.9,191.9,313.8,248.7,369.8,301.9"/>
	<path class="st1" d="M343.8,346.5c-38.8-15.8-77.6-29.3-117.6-40.9c-2.7-0.8-3.3,0.6-0.9,2.1c35.2,22.5,71.2,43,108,61.6
		c1.8,0.9,4,1.3,4.3,0.9l4.8-10.6c1.7-3.5,2.7-7.3,4.9-10.5C347.5,348.6,345.7,347.3,343.8,346.5"/>
	<path class="st1" d="M432.3,252.3c1.3,2.8,3.3,5.6,3.8,5.3l10.2-5.3c1.7-0.9,3.3-1.9,5.1-2.7l5.4-2c0.5-0.2-0.4-3.4-1.8-6.2
		c-28.1-56.9-59.3-112.6-93.2-166c-2.3-3.6-3.9-2.7-2.5,1.3C380.7,136.7,405,195.4,432.3,252.3"/>
	<path class="st1" d="M467,235c1.1,3.6,2.8,7.4,3.3,7.2c7.4-2.3,15-4.1,22.4-6.5c0.5-0.2,0-4.3-1.1-7.9
		c-21.2-74.1-46.3-147.3-75.3-219.3c-1.9-4.8-3.9-4.3-3,0.8C427.4,85.7,445.1,160.5,467,235"/>
	<path class="st1" d="M402.2,275.5c1.1,1.7,2.8,3.2,3.2,2.8c3-2.3,5.9-5,9-7.2l9.7-6.2c0.5-0.3-0.4-2.4-1.6-4
		c-25.4-32.7-52.7-64.2-81.7-94.5c-1.9-2-3.2-1.2-2,1.3C358.2,204.9,379.4,240.9,402.2,275.5"/>
	<path class="st1" d="M558.5,230.4c3.8,0.2,7.6,1,11.4,1.4c0.5,0.1,1.3-3.2,1.5-6.3c4-63.1,4.7-126.9,2.1-190.7
		c-0.2-4.2-2-4.3-2.8-0.1c-11.5,62.8-19.7,125.9-24.5,189c-0.2,3.1,0.1,6.5,0.7,6.5L558.5,230.4z"/>
	<path class="st1" d="M584.2,233.8l11.3,2.6l5.7,1.2c1.9,0.5,3.7,1.3,5.5,1.8c0.5,0.2,2.1-3.6,3-7.3c9.4-37.6,17.9-75.5,25.4-113.6
		c7.4-37.9,13.9-76,19.3-114.4c0.7-5.1-1.3-5.6-3-0.7c-26.1,73.2-48.3,147.5-66.4,222.5C584,229.6,583.7,233.7,584.2,233.8"/>
	<path class="st1" d="M510,232.6l5.7-1.1l5.8-0.3l11.5-0.9c0.6,0,0.8-2.3,0.6-4.3c-5.7-40.9-13.6-81.7-23.6-122.3
		c-0.7-2.7-2.2-2.6-2.3,0.2c-0.9,20.8-1.3,41.3-1.2,62.2c0.2,20.9,0.9,41.8,2.1,62.5C508.7,230.6,509.4,232.7,510,232.6"/>
	<path class="st1" d="M656.5,261.6c3.5,1.6,6.5,4.2,9.7,6.3l9.6,6.6c0.5,0.3,2.8-2.2,4.5-4.7c34.9-52.5,67.2-107.1,96.7-163.5
		c2-3.8,0.5-4.8-2.3-1.6c-41.2,48.3-79.6,98.5-115.6,151C657.4,258.2,656,261.3,656.5,261.6"/>
	<path class="st1" d="M686.9,283.8c6.3,4.6,11.3,10.5,16.7,16c0.4,0.4,3.7-2.2,6.3-4.9c53.6-55.5,104.5-114.1,152.5-175.4
		c3.2-4.1,1.8-5.5-2.2-2.2c-58.8,50.2-115.6,104-168.8,160C688.9,280,686.5,283.4,686.9,283.8"/>
	<path class="st1" d="M623.2,245l10.6,4.8c3.5,1.7,7.3,2.7,10.5,4.9c0.5,0.3,1.8-1.5,2.6-3.4c15.8-38.8,29.3-77.6,40.9-117.6
		c0.8-2.7-0.6-3.3-2.1-0.9c-22.5,35.2-43,71.2-61.6,108C623.1,242.5,622.7,244.8,623.2,245"/>
	<path class="st1" d="M768.2,340.4c-10.7,1.6-21.1,3.5-31.3,5.5l1.7,3.3C748.2,346.1,758.1,343.1,768.2,340.4"/>
	<path class="st1" d="M815,329.9c35.1-19.1,69.5-39.3,103-60.5c3.6-2.3,2.7-3.9-1.3-2.5C856.6,288.2,798,312.5,741,339.8
		c-2.8,1.3-5.6,3.3-5.3,3.8l1.2,2.3c10.1-2,20.6-3.9,31.3-5.5C783.3,336.3,798.9,332.7,815,329.9"/>
	<path class="st1" d="M803.8,335.9c3.7-2,7.5-4,11.2-6c-16.1,2.9-31.7,6.4-46.8,10.5C779.7,338.6,791.5,337.1,803.8,335.9"/>
	<path class="st1" d="M743.7,358.9l2,5.4c0.2,0.5,3.4-0.4,6.2-1.8c17.4-8.6,34.7-17.5,51.8-26.7c-12.3,1.2-24.1,2.8-35.6,4.5
		c-10.1,2.7-20,5.7-29.6,8.8l2.4,4.7C741.9,355.5,742.9,357.2,743.7,358.9"/>
	<path class="st1" d="M825.7,246.4c-37.2,19.4-73.2,40.5-107.8,63.4c-1.7,1.1-3.2,2.8-2.8,3.2c2.4,3,5,5.9,7.2,9l6.2,9.7
		c0.3,0.5,2.4-0.4,4-1.6c32.7-25.4,64.2-52.7,94.5-81.7C829,246.4,828.1,245.1,825.7,246.4"/>
	<path class="st0" d="M1043.8,441.1c-3.1-1.8-18.3-9.9-47-17.7c-0.4-0.1-0.7-0.2-1.1-0.3c-51.3-13.8-145.1-26.3-289.9-0.2
		c-0.1,0-0.2,0-0.2,0c-45.4,8.2-95.8,20.1-151.6,37.1c-6.7,2-13.6,4.2-20.5,6.4h0c-3.2,1-6.4,2.1-9.6,3.1c-1.6,0.5-3.2,1-4.9,1.6
		c-136.8,43.7-236.3,45.9-307.2,31.3c-16.5-3.4-31.5-7.6-45-12.5c-80.7-29-110.5-78.8-112.6-82.6c8.4,11.5,41.2,38.3,98.8,57.9
		c10,3.4,20.7,6.6,32.1,9.4c9.2,2.3,18.9,4.4,29,6.2c136.9,27.1,267-25.9,305.1-38.6c3.7-1.2,10-3.4,18.5-6.2
		c7.5-2.5,16.7-5.4,27.3-8.6c98.9-29.8,323.4-82.7,475.3,11.8C1042,440,1043.1,440.7,1043.8,441.1"/>
	<path class="st0" d="M0,525.7c0,0,201.4,138.8,521.5-32.6c320.1-171.4,507.5-62.8,507.5-62.8s-195.9-88.2-487.2,70.6
		C250.5,659.6,92.8,579.3,0,525.7"/>
	<rect x="226.3" y="855.5" class="st0" width="32.5" height="2.7"/>
	<rect x="783.8" y="857" class="st0" width="32.5" height="2.7"/>
	<g>
		<g>
			<path class="st0" d="M289.6,852.6h5.3c1.1,0,2.1-0.2,3-0.6c0.9-0.4,1.6-0.9,2.1-1.6c0.5-0.7,0.8-1.6,0.8-2.6
				c0-1.6-0.5-2.8-1.6-3.7c-1.1-0.9-2.5-1.3-4.1-1.3h-4.5v25.9h4.9c1.4,0,2.7-0.3,3.7-0.8c1.1-0.5,1.9-1.2,2.5-2.2
				c0.6-0.9,0.9-2.1,0.9-3.4c0-1-0.2-1.9-0.5-2.7c-0.3-0.8-0.8-1.4-1.5-2c-0.6-0.5-1.4-0.9-2.3-1.2c-0.9-0.3-1.9-0.4-2.9-0.4h-5.8
				v-2.2h5.8c1.6,0,3.1,0.2,4.4,0.5c1.4,0.3,2.5,0.9,3.6,1.6c1,0.7,1.8,1.6,2.4,2.7s0.8,2.4,0.8,3.9c0,2.2-0.5,4-1.5,5.4
				c-1,1.4-2.3,2.5-4,3.2c-1.7,0.7-3.6,1.1-5.7,1.1h-9v-33h8.5c2,0,3.7,0.3,5.2,0.9c1.5,0.6,2.6,1.5,3.4,2.7s1.2,2.8,1.2,4.6
				c0,1.5-0.4,2.9-1.2,4s-2,1.9-3.4,2.5c-1.5,0.6-3.2,0.8-5.2,0.8h-5.3V852.6z"/>
			<path class="st0" d="M331.3,839.2v33h-4v-33H331.3z M329.5,839.2h16.6v3.8h-16.6V839.2z M329.5,852.4h15.7v3.8h-15.7V852.4z
				 M329.5,868.5h16.6v3.8h-16.6V868.5z"/>
			<path class="st0" d="M374,859.8l-0.4,0.8l-4.9,11.6h-4.5l15.3-34.6l15.3,34.6h-4.5l-4.8-11.3l-0.4-0.9l-5.7-13.3L374,859.8z
				 M372.3,858.6h14.6l1.4,3.8h-17.4L372.3,858.6z"/>
			<path class="st0" d="M417.5,862.5c1.1,1.9,2.6,3.5,4.5,4.6c1.9,1.1,3.9,1.6,6,1.6c1.6,0,3-0.2,4.3-0.6c1.3-0.4,2.5-1,3.6-1.7
				c1.1-0.7,2-1.6,2.7-2.6v5.3c-1.4,1.2-2.9,2.1-4.5,2.7c-1.6,0.6-3.7,0.9-6.1,0.9c-2.3,0-4.4-0.4-6.4-1.2c-2-0.8-3.7-2-5.3-3.5
				s-2.7-3.3-3.5-5.4s-1.3-4.3-1.3-6.8s0.4-4.7,1.3-6.8c0.8-2.1,2-3.9,3.5-5.4s3.3-2.7,5.3-3.5c2-0.8,4.1-1.2,6.4-1.2
				c2.4,0,4.4,0.3,6.1,0.9c1.6,0.6,3.1,1.5,4.5,2.7v5.3c-0.8-1-1.7-1.8-2.7-2.6c-1.1-0.7-2.3-1.3-3.6-1.7c-1.3-0.4-2.7-0.6-4.3-0.6
				c-2.2,0-4.2,0.6-6,1.6c-1.9,1.1-3.4,2.6-4.5,4.5c-1.1,1.9-1.7,4.2-1.7,6.8C415.8,858.3,416.3,860.5,417.5,862.5z"/>
			<path class="st0" d="M464.3,839.2v33h-4v-33H464.3z M462.5,852.4h22.6v3.8h-22.6V852.4z M486.4,839.2v33h-4v-33H486.4z"/>
			<path class="st0" d="M539.8,839.2v33h-4v-33H539.8z M538,839.2h6.7c2.1,0,4,0.4,5.7,1.2c1.7,0.8,3,1.9,4,3.4
				c1,1.5,1.5,3.2,1.5,5.3c0,2-0.5,3.8-1.5,5.3c-1,1.5-2.3,2.6-4,3.4c-1.7,0.8-3.6,1.2-5.7,1.2H538v-3.5h6.7c1.4,0,2.7-0.3,3.7-0.8
				c1.1-0.5,1.9-1.2,2.5-2.2s0.9-2.1,0.9-3.4s-0.3-2.5-0.9-3.4s-1.5-1.7-2.5-2.2c-1.1-0.5-2.3-0.8-3.7-0.8H538V839.2z M546.2,856
				l11.8,16.3H553L541.7,856H546.2z"/>
			<path class="st0" d="M579.3,839.2v33h-4v-33H579.3z M577.5,839.2h16.6v3.8h-16.6V839.2z M577.5,852.4h15.7v3.8h-15.7V852.4z
				 M577.5,868.5h16.6v3.8h-16.6V868.5z"/>
			<path class="st0" d="M618,865.7c0.8,1,1.8,1.8,2.8,2.4c1,0.6,2.2,0.8,3.5,0.8c1.8,0,3.2-0.5,4.2-1.5c1.1-1,1.6-2.2,1.6-3.7
				c0-1.5-0.3-2.7-1-3.5c-0.7-0.9-1.6-1.6-2.7-2.1s-2.3-1-3.6-1.5c-0.8-0.3-1.7-0.7-2.7-1.1c-1-0.5-2-1-2.9-1.7
				c-0.9-0.7-1.7-1.6-2.2-2.6c-0.6-1-0.9-2.3-0.9-3.8c0-1.6,0.4-3.1,1.2-4.4c0.8-1.3,1.9-2.3,3.4-3s3.1-1.1,4.9-1.1
				c1.8,0,3.4,0.3,4.7,1c1.3,0.7,2.5,1.5,3.4,2.6c0.9,1.1,1.7,2.2,2.2,3.3l-3.4,2c-0.4-0.8-0.9-1.6-1.6-2.4
				c-0.6-0.8-1.4-1.4-2.3-1.9c-0.9-0.5-2-0.8-3.3-0.8c-1.8,0-3.1,0.4-3.9,1.3c-0.8,0.9-1.2,1.8-1.2,2.9c0,0.9,0.2,1.8,0.7,2.5
				s1.3,1.5,2.4,2.2c1.1,0.7,2.6,1.3,4.5,2c0.9,0.3,1.8,0.7,2.8,1.2c1,0.5,1.9,1.1,2.7,1.9s1.5,1.7,2.1,2.8c0.5,1.1,0.8,2.4,0.8,3.9
				c0,1.4-0.3,2.7-0.8,3.9c-0.6,1.2-1.3,2.2-2.3,3c-1,0.8-2,1.4-3.3,1.9s-2.5,0.7-3.8,0.7c-1.8,0-3.4-0.4-5-1.2s-2.9-1.8-4-3.1
				c-1.1-1.3-2.1-2.6-2.8-4.1l3.2-2.2C616.4,863.6,617.2,864.7,618,865.7z"/>
			<path class="st0" d="M652.7,849c0.8-2.1,2-3.8,3.5-5.4c1.5-1.5,3.3-2.7,5.3-3.6c2-0.9,4.3-1.3,6.6-1.3c2.4,0,4.6,0.4,6.7,1.3
				c2,0.9,3.8,2.1,5.3,3.6c1.5,1.5,2.7,3.3,3.5,5.4c0.8,2.1,1.2,4.3,1.2,6.7c0,2.4-0.4,4.6-1.2,6.7c-0.8,2.1-2,3.9-3.5,5.4
				c-1.5,1.5-3.3,2.7-5.3,3.6c-2,0.9-4.3,1.3-6.7,1.3c-2.4,0-4.6-0.4-6.6-1.3c-2-0.9-3.8-2.1-5.3-3.6c-1.5-1.5-2.7-3.3-3.5-5.4
				s-1.2-4.3-1.2-6.7C651.5,853.3,651.9,851.1,652.7,849z M657.3,862.4c1.1,1.9,2.6,3.5,4.5,4.6s4,1.7,6.4,1.7
				c2.4,0,4.6-0.6,6.4-1.7s3.3-2.7,4.4-4.6c1.1-1.9,1.6-4.2,1.6-6.6c0-2.5-0.5-4.7-1.6-6.6c-1.1-1.9-2.6-3.5-4.4-4.6
				c-1.9-1.1-4-1.7-6.4-1.7c-2.4,0-4.5,0.6-6.4,1.7c-1.9,1.1-3.4,2.7-4.5,4.6c-1.1,1.9-1.6,4.2-1.6,6.6
				C655.7,858.2,656.3,860.4,657.3,862.4z"/>
			<path class="st0" d="M707.7,839.2v33h-4v-33H707.7z M705.9,839.2h6.7c2.1,0,4,0.4,5.7,1.2c1.7,0.8,3,1.9,4,3.4
				c1,1.5,1.5,3.2,1.5,5.3c0,2-0.5,3.8-1.5,5.3c-1,1.5-2.3,2.6-4,3.4c-1.7,0.8-3.6,1.2-5.7,1.2h-6.7v-3.5h6.7c1.4,0,2.7-0.3,3.7-0.8
				c1.1-0.5,1.9-1.2,2.5-2.2c0.6-0.9,0.9-2.1,0.9-3.4s-0.3-2.5-0.9-3.4c-0.6-0.9-1.5-1.7-2.5-2.2c-1.1-0.5-2.3-0.8-3.7-0.8h-6.7
				V839.2z M714,856l11.8,16.3h-4.9L709.6,856H714z"/>
			<path class="st0" d="M739.9,839.2h21v3.8h-8.5v29.2h-4V843h-8.5V839.2z"/>
		</g>
	</g>
	<rect class="st2" width="1044" height="881"/>
</g>
</svg>
