<svg width="786" height="294" viewBox="0 0 786 294" fill="none" xmlns="http://www.w3.org/2000/svg">
<path d="M123.265 293.212C113.687 293.221 105.053 292.731 96.5288 291.132C82.6244 288.524 70.2085 282.497 58.8464 274.213C48.1963 266.457 39.3581 256.907 31.6478 246.275C18.2611 227.804 8.94221 207.409 3.10865 185.397C1.73115 180.183 0.954577 174.839 0.603269 169.45C0.325921 165.178 2.05473 162.451 5.73422 161.157C10.4954 159.474 15.4969 162.442 16.1348 167.434C17.3551 177.03 19.5831 186.386 22.7449 195.52C28.4675 212.032 37.0468 226.962 47.6138 240.811C52.7078 247.495 58.3195 253.671 64.8649 258.968C75.3024 267.418 87.0897 273.039 100.181 275.905C102.936 276.506 105.792 276.867 108.612 276.913C117.829 277.061 127.056 277.227 136.264 276.987C152.525 276.552 168.362 273.696 183.579 267.742C190.874 264.885 197.706 261.206 204.159 256.768C212.784 250.842 219.32 243.169 223.878 233.785C230.488 220.158 233.678 205.782 233.52 190.611C233.373 176.698 230.451 163.329 226.069 150.22C222.288 138.914 217.462 128.023 212.451 117.225C208.273 108.23 204.038 99.2527 199.675 90.3406C196.716 84.3129 194.627 78.091 193.555 71.4254C191.724 60.0356 190.837 48.6181 191.604 37.0989C191.974 31.5612 192.88 26.1067 194.969 20.9295C199.175 10.5197 206.562 3.62296 217.573 0.877208C222.473 -0.343125 227.465 -0.167462 232.365 0.655338C247.748 3.24392 261.08 10.0297 272.451 20.7076C273.801 21.9742 275.113 23.2685 276.066 24.8679C277.36 27.0404 277.776 29.2962 276.99 31.7923C275.363 36.951 269.363 39.0681 264.963 35.8878C263.714 34.9818 262.697 33.7522 261.597 32.6521C254.543 25.5889 246.315 20.532 236.645 17.8602C233.077 16.8802 229.425 16.2516 225.764 16.0482C218.276 15.6414 213.662 18.7847 210.917 24.5073C208.282 29.9803 207.376 35.8416 207.024 41.8138C206.682 47.6474 207.514 53.4255 208.097 59.2128C208.365 61.8939 208.864 64.5472 209.16 67.2189C209.761 72.6365 211.517 77.712 213.718 82.658C214.809 85.1172 216.001 87.5393 217.212 89.943C224.895 105.132 231.625 120.756 237.986 136.528C241.961 146.402 245.114 156.544 247.064 167.046C249.283 178.972 250.05 190.926 248.802 203.027C247.601 214.694 244.975 225.955 240.084 236.614C235.009 247.69 228.316 257.628 218.969 265.615C215.077 268.944 210.824 271.773 206.368 274.278C191.132 282.83 174.889 288.414 157.573 290.854C151.111 291.76 144.63 292.38 138.103 292.574C132.834 292.722 127.61 293.424 123.265 293.212Z" fill="#B25E27"/>
<path d="M88.6706 169.643C90.4549 169.135 91.3146 167.563 92.3501 166.26C93.4872 164.818 94.4949 163.255 95.4564 161.693C100.245 153.946 107.031 148.167 114.205 142.787C115.915 141.502 116.923 141.659 118.06 143.462C121.398 148.759 123.968 154.436 125.918 160.38C128.082 166.962 128.341 173.739 127.703 180.562C127.453 183.252 126.519 185.785 125.355 188.244C123.774 191.591 121.684 194.623 119.623 197.683C116.932 201.677 114.113 205.588 111.801 209.831C110.646 211.958 109.712 214.167 109.046 216.488C107.345 222.395 108.409 228.007 110.932 233.415C113.392 238.703 116.526 243.594 120.307 248.05C121.13 249.021 121.989 249.973 122.747 250.99C124.254 253.014 124.005 254.188 121.804 255.4C121.333 255.658 120.732 255.686 120.187 255.816C119.761 255.677 119.345 255.511 118.948 255.316C114.769 253.615 110.341 252.635 106.245 250.601C94.3377 244.685 87.2099 235.088 83.327 222.552C78.27 206.253 79.2685 190.463 86.4333 175.043C87.2469 173.267 87.0712 171.086 88.6706 169.643Z" fill="#EE9749"/>
<path d="M138.797 255.788C133.573 253.615 129.986 249.705 127.388 244.833C123.228 237.002 122.341 228.71 124.079 220.075C124.698 217.005 125.687 214.066 126.935 211.2C128.211 208.278 130.439 206.808 133.536 206.651C136.365 206.503 139.25 206.106 142.005 206.854C144.436 207.52 145.795 206.429 146.923 204.608C150.501 198.774 151 192.645 148.615 186.266C148.319 185.471 147.903 184.722 147.496 183.973C146.71 182.549 146.877 181.449 148.069 180.201C149.623 178.583 149.475 177.382 147.801 175.902C146.858 175.061 145.749 174.395 144.676 173.711C143.965 173.258 143.179 172.916 142.43 172.51C135.459 168.664 132.538 162.959 133.823 155.203C134.47 151.283 135.746 147.511 137.687 143.998C137.891 143.628 138.094 143.249 138.344 142.907C139.009 141.983 139.999 141.853 140.895 142.704C142.023 143.776 143.114 144.895 144.131 146.078C150.945 153.946 156.584 162.59 161.114 171.955C161.604 172.972 162.122 173.989 162.686 174.969C163.009 175.533 163.638 175.477 164.202 175.496C167.659 185.961 170.572 196.454 169.471 207.714C167.678 226.084 158.525 240.09 144.473 251.35C142.578 252.839 140.831 254.494 138.797 255.788Z" fill="#EE9749"/>
<path d="M138.797 255.788C138.815 254.345 139.712 253.467 140.794 252.718C144.51 250.121 147.958 247.218 151.092 243.945C159.08 235.606 164.766 226 167.391 214.685C167.456 214.407 167.604 214.139 167.613 213.871C167.844 208.796 169.213 203.757 168.51 198.682C167.918 194.373 167.696 189.973 166.106 185.84C164.83 182.512 164.054 179.092 164.183 175.495C166.781 171.603 169.915 168.164 173.169 164.827C175.629 162.303 178.115 159.788 180.658 157.347C182.1 155.961 182.877 156.136 184.041 157.819C184.282 158.17 184.494 158.531 184.707 158.901C189.921 168.016 194.082 177.538 196.069 187.921C196.837 191.951 197.29 196.01 197.336 200.105C197.345 201.224 197.197 202.407 198.399 203.101C197.798 221.064 188.34 233.544 173.761 242.789C163.499 249.298 152.442 253.911 140.526 256.407C139.814 256.555 139.222 256.398 138.797 255.788Z" fill="#DF7F2B"/>
<path d="M88.6706 169.643C88.7446 171.954 88.0789 174.025 87.1822 176.17C84.5196 182.558 82.0974 189.048 81.7184 196.093C81.626 197.914 80.9141 199.643 80.8864 201.52C80.8494 205.088 81.6907 208.527 82.1437 212.013C82.5782 215.35 83.4842 218.651 84.3625 221.914C86.5073 229.846 90.2238 236.993 96.3162 242.549C102.03 247.763 108.806 251.313 116.368 253.171C117.755 253.513 119.16 253.68 120.057 254.974C115.675 256.49 111.053 256.37 106.671 255.834C95.179 254.41 84.1868 251.063 74.3687 244.684C61.962 236.623 54.6492 225.002 51.2933 210.746C50.9975 209.498 50.868 208.232 50.8958 206.947C50.9605 202.851 51.9497 201.973 56.0544 202.407C57.0436 202.509 58.0329 202.583 59.0128 202.703C61.4812 203.008 62.7293 201.908 62.9419 199.495C63.1638 196.685 63.3764 193.874 63.5983 191.073C64.1253 184.5 66.2608 178.389 69.0621 172.491C71.1237 168.145 73.6291 164.05 76.3101 160.065C76.3933 159.945 76.4673 159.834 76.5505 159.714C78.7785 156.599 79.5828 156.552 81.8663 159.427C82.2176 159.871 82.5412 160.333 82.8463 160.805C84.797 163.745 86.7292 166.694 88.6706 169.643Z" fill="#DF7F2A"/>
<path d="M140.507 256.407C141.524 254.762 143.373 254.614 144.935 254.226C155.308 251.656 164.84 247.172 173.826 241.505C180.565 237.252 186.214 231.723 190.864 225.27C193.444 221.693 194.914 217.514 195.746 213.197C196.134 211.144 196.846 209.129 196.772 206.965C196.726 205.532 197.752 204.358 198.39 203.101C204.454 199.976 210.806 197.61 217.425 195.955C218.248 195.751 219.061 195.474 219.893 195.363C221.567 195.132 222.408 195.779 222.279 197.415C222.075 200.096 221.752 202.768 221.336 205.431C220.217 212.596 218.47 219.594 215.41 226.204C207.08 244.213 193.009 254.577 173.447 257.572C162.399 259.255 151.435 258.608 140.507 256.407Z" fill="#B45D27"/>
<path d="M62.9512 199.496C63.2655 199.967 63.5983 200.42 63.8849 200.901C64.8464 202.491 64.3287 203.711 62.4889 203.794C59.8264 203.915 57.1546 204.109 54.5106 203.212C52.9204 202.667 52.0699 203.406 52.0052 205.052C51.9127 207.308 52.1531 209.508 52.6708 211.754C54.187 218.328 57.1454 224.244 60.6215 229.911C63.3857 234.414 67.3795 237.871 71.3918 241.209C78.8432 247.412 87.8663 250.417 96.9726 252.95C102.362 254.457 107.974 255.39 113.687 254.984C115.795 254.836 117.931 254.965 120.048 254.974C120.076 255.261 120.113 255.538 120.159 255.816C119.512 256.454 118.689 256.648 117.829 256.685C112.171 256.879 106.55 257.692 100.874 257.443C93.7646 257.129 86.7939 256.075 80.0636 253.726C64.227 248.207 53.4381 237.557 47.6508 221.804C45.6447 216.331 44.3688 210.682 43.4813 204.941C43.1762 202.981 42.8157 201.03 42.6493 199.061C42.4367 196.546 43.1762 195.705 45.7186 195.585C48.8526 195.446 51.9404 195.927 54.9358 196.787C57.6446 197.563 60.2794 198.59 62.9512 199.496Z" fill="#B15E2A"/>
<path d="M298.808 135.095C298.808 140.716 292.891 147.382 278.747 150.488C288.888 146.42 292.586 140.494 292.586 135.613C292.586 130.805 288.962 127.024 284.368 127.024C277.48 127.024 274.448 132.867 274.448 139.754C274.448 149.748 280.808 162.035 290.802 162.035C299.908 162.035 305.233 152.485 305.603 149.674C304.864 156.784 297.311 164.401 287.622 164.401C274.448 164.401 268.161 154.925 268.161 144.941C268.161 131.767 277.194 125.702 285.995 125.702C293.927 125.693 298.808 129.983 298.808 135.095Z" fill="#B25E28"/>
<path d="M311.465 126.285H317.825V163.292H311.465V126.285ZM330.787 124.436C334.337 124.436 336.038 126.359 336.038 128.282C336.038 130.205 334.411 132.054 331.23 132.054C331.304 128.725 329.825 127.246 327.754 127.246C325.018 127.246 321.32 129.761 318.648 134.282C320.867 128.725 325.97 124.436 330.787 124.436Z" fill="#B25E28"/>
<path d="M369.569 135.095C369.569 140.716 363.652 147.382 349.508 150.488C359.649 146.42 363.347 140.494 363.347 135.613C363.347 130.805 359.723 127.024 355.128 127.024C348.241 127.024 345.209 132.867 345.209 139.754C345.209 149.748 351.569 162.035 361.563 162.035C370.669 162.035 375.994 152.485 376.364 149.674C375.624 156.784 368.071 164.401 358.383 164.401C345.209 164.401 338.922 154.925 338.922 144.941C338.922 131.767 347.954 125.702 356.756 125.702C364.678 125.693 369.569 129.983 369.569 135.095Z" fill="#B25E28"/>
<path d="M382.216 126.285H388.577V163.292H382.216V126.285ZM410.053 149.304C409.979 141.603 410.866 126.802 399.023 126.802C392.58 126.802 390.287 128.799 389.252 129.982C391.396 126.802 395.991 125.545 399.689 125.545C417.005 125.545 416.413 139.237 416.413 149.896V156.478C416.413 160.546 417.671 162.025 419.372 162.025C420.777 162.025 422.478 160.99 423.809 159.659C422.256 162.321 419.298 163.727 416.552 163.727C413.15 163.727 410.043 161.582 410.043 156.691V149.304H410.053Z" fill="#B25E28"/>
<path d="M433.433 141.751C433.433 151.597 438.314 162.552 446.829 162.552C451.488 162.552 454.604 160.851 456.305 157.745C454.604 162.035 450.536 164.411 444.24 164.411C431.732 164.411 426.481 154.639 426.481 144.95C426.481 135.178 431.806 125.49 444.24 125.49C450.601 125.49 454.752 127.708 457.267 130.963V107.795H463.627V163.301H457.267V142.5C455.861 134.281 451.054 126.59 443.649 126.59C436.623 126.58 433.433 133.764 433.433 141.751Z" fill="#B25E28"/>
<path d="M478.807 119.629C478.807 118.075 477.032 116.966 474.887 117.558C474.592 114.377 476.736 112.898 478.881 112.898C481.248 112.898 482.727 114.525 482.727 116.522C482.727 118.815 480.804 121.551 476.219 122.809C478.068 121.847 478.807 120.59 478.807 119.629ZM482.062 126.285V163.292H475.701V126.285H482.062Z" fill="#B25E28"/>
<path d="M494.274 107.785H500.635L500.783 148.713C501.818 156.858 506.551 163.292 514.4 163.292C521.436 163.292 524.616 156.109 524.616 148.121C524.616 138.275 519.735 127.246 511.22 127.246C507.448 127.246 503.445 130.426 501.67 133.237C503.667 128.651 508.632 125.462 513.735 125.462C526.317 125.462 531.568 135.234 531.568 144.922C531.568 154.694 526.243 164.383 513.735 164.383C506.404 164.383 502.04 161.646 499.673 157.717C497.085 157.422 495.162 160.232 494.274 163.264V107.785Z" fill="#B25E28"/>
<path d="M578.819 162.84C588.064 162.84 597.069 159.142 597.069 152.291C597.069 138.276 560.107 141.197 560.107 122.023C560.107 112.242 569.426 107.777 578.819 107.777C588.831 107.777 598.992 112.704 598.613 121.561C596.995 113.24 589.22 109.626 581.676 109.626C573.67 109.626 565.885 113.629 565.885 120.174C565.885 134.263 603.771 129.105 603.771 149.055C603.771 159.678 592.372 164.531 581.13 164.531C570.12 164.531 559.34 159.835 559.34 151.514C559.34 150.59 559.497 149.739 559.728 148.741C558.721 158.448 568.881 162.84 578.819 162.84Z" fill="#B25E28"/>
<path d="M630.498 163.533C613.784 163.533 613.173 151.209 613.173 140.587C613.173 139.736 613.173 138.969 613.173 138.202V124.26H619.719V138.812C619.719 139.81 619.719 140.809 619.719 141.964C619.719 150.128 620.338 161.527 631.192 161.527C638.042 161.527 640.122 158.374 640.973 156.525C639.965 161.074 634.807 163.533 630.498 163.533ZM641.657 124.26H648.276V155.684C648.276 159.918 649.663 161.462 651.355 161.462C652.816 161.462 654.591 160.38 655.977 158.994C654.36 161.767 651.281 163.228 648.434 163.228C644.893 163.228 641.657 161 641.657 155.915V124.26Z" fill="#B25E28"/>
<path d="M665.158 117.336C665.158 115.718 663.309 114.562 661.081 115.182C660.776 111.872 663.004 110.328 665.241 110.328C667.709 110.328 669.244 112.02 669.244 114.1C669.244 116.485 667.238 119.333 662.467 120.645C664.381 119.638 665.158 118.334 665.158 117.336ZM668.541 124.26V162.765H661.922V124.26H668.541Z" fill="#B25E28"/>
<path d="M682.252 125.49H676.242V124.26H701.888V125.49H688.797V153.751C688.797 159.067 691.108 161.147 694.03 161.147C698.107 161.147 703.265 157.218 705.429 152.365C702.35 160.297 696.729 163.144 691.876 163.144C686.56 163.144 682.252 159.603 682.252 153.982V125.49ZM691.034 117.872C691.034 120.719 687.872 123.567 679.635 123.724C685.182 123.419 688.03 120.183 688.03 117.178C688.03 115.024 686.569 113.018 683.564 112.325C687.946 112.325 691.034 115.098 691.034 117.872Z" fill="#B25E28"/>
<path d="M741.244 133.422C741.244 139.274 735.086 146.208 720.378 149.443C730.926 145.209 734.781 139.043 734.781 133.967C734.781 128.966 731.009 125.037 726.23 125.037C719.065 125.037 715.912 131.12 715.912 138.285C715.912 148.685 722.532 161.462 732.932 161.462C742.408 161.462 747.946 151.533 748.334 148.602C747.567 155.998 739.709 163.93 729.623 163.93C715.912 163.93 709.367 154.075 709.367 143.674C709.367 129.964 718.76 123.65 727.922 123.65C736.159 123.65 741.244 128.115 741.244 133.422Z" fill="#B25E28"/>
<path d="M766.279 162.377C773.129 162.377 779.832 159.456 779.832 154.371C779.832 144.285 752.652 148.907 752.652 134.346C752.652 126.877 759.66 122.874 766.898 122.874C773.675 122.874 780.525 126.266 782.3 133.653C780.525 127.413 774.063 124.491 768.128 124.491C762.35 124.491 757.034 127.265 757.034 132.35C757.034 142.51 785.065 137.351 785.065 152.06C785.065 160.297 776.827 164.152 768.507 164.152C759.576 164.152 750.405 159.687 751.256 151.292C750.877 158.92 758.726 162.377 766.279 162.377Z" fill="#B25E28"/>
<path d="M316.596 203.582H320.562C321.384 203.582 322.115 203.443 322.771 203.157C323.428 202.879 323.945 202.463 324.315 201.927C324.685 201.391 324.879 200.734 324.879 199.958C324.879 198.784 324.472 197.878 323.649 197.231C322.827 196.583 321.8 196.269 320.562 196.269H317.224V215.591H320.913C321.967 215.591 322.901 215.406 323.705 215.027C324.509 214.648 325.147 214.112 325.6 213.409C326.053 212.707 326.284 211.856 326.284 210.848C326.284 210.099 326.155 209.434 325.896 208.842C325.637 208.26 325.267 207.77 324.787 207.363C324.306 206.965 323.742 206.67 323.085 206.466C322.429 206.272 321.699 206.17 320.904 206.17H316.586V204.516H320.904C322.096 204.516 323.196 204.645 324.204 204.904C325.212 205.163 326.099 205.551 326.857 206.078C327.615 206.605 328.207 207.28 328.632 208.093C329.058 208.916 329.261 209.887 329.261 211.006C329.261 212.623 328.891 213.964 328.152 215.027C327.412 216.09 326.414 216.885 325.166 217.412C323.908 217.939 322.494 218.207 320.894 218.207H314.22V193.616H320.543C322.022 193.616 323.298 193.838 324.389 194.281C325.48 194.725 326.33 195.4 326.931 196.297C327.542 197.203 327.847 198.349 327.847 199.754C327.847 200.901 327.542 201.89 326.931 202.704C326.321 203.526 325.471 204.146 324.389 204.562C323.307 204.978 322.013 205.19 320.543 205.19H316.577V203.582H316.596Z" fill="black"/>
<path d="M335.954 225.954H332.793L337.221 215.942L331.036 202.065H334.374L339.504 214.712L338.349 214.574L343.341 202.065H346.503L335.954 225.954Z" fill="black"/>
<path d="M362.524 213.381C363.144 214.13 363.837 214.713 364.614 215.138C365.39 215.563 366.269 215.767 367.249 215.767C368.561 215.767 369.615 215.406 370.41 214.676C371.205 213.945 371.603 213.021 371.603 211.902C371.603 210.802 371.344 209.924 370.826 209.268C370.309 208.611 369.634 208.075 368.811 207.668C367.979 207.261 367.091 206.892 366.158 206.559C365.547 206.346 364.873 206.069 364.124 205.736C363.375 205.403 362.663 204.959 361.979 204.432C361.295 203.905 360.74 203.258 360.306 202.482C359.871 201.705 359.658 200.762 359.658 199.634C359.658 198.414 359.964 197.323 360.574 196.371C361.184 195.409 362.025 194.651 363.107 194.106C364.189 193.56 365.418 193.283 366.796 193.283C368.127 193.283 369.292 193.533 370.29 194.041C371.289 194.54 372.139 195.187 372.833 195.973C373.535 196.759 374.09 197.582 374.487 198.451L371.927 199.93C371.621 199.32 371.233 198.728 370.771 198.137C370.299 197.554 369.735 197.073 369.07 196.694C368.404 196.315 367.591 196.13 366.629 196.13C365.298 196.13 364.318 196.454 363.717 197.092C363.107 197.739 362.802 198.46 362.802 199.255C362.802 199.93 362.977 200.559 363.329 201.132C363.68 201.705 364.272 202.241 365.104 202.75C365.936 203.249 367.064 203.748 368.497 204.247C369.153 204.479 369.846 204.784 370.567 205.163C371.289 205.542 371.963 206.013 372.592 206.586C373.212 207.16 373.72 207.853 374.118 208.657C374.515 209.462 374.718 210.432 374.718 211.56C374.718 212.642 374.515 213.613 374.099 214.472C373.692 215.341 373.128 216.081 372.416 216.682C371.705 217.292 370.891 217.764 369.994 218.087C369.088 218.411 368.145 218.577 367.165 218.577C365.834 218.577 364.595 218.291 363.458 217.717C362.321 217.144 361.332 216.386 360.472 215.434C359.621 214.482 358.919 213.474 358.383 212.392L360.768 210.774C361.313 211.764 361.905 212.633 362.524 213.381Z" fill="black"/>
<path d="M381.181 217.505C380.025 216.793 379.119 215.804 378.472 214.537C377.825 213.271 377.51 211.81 377.51 210.146C377.51 208.463 377.843 206.984 378.509 205.717C379.175 204.451 380.108 203.471 381.319 202.768C382.521 202.066 383.926 201.714 385.517 201.714C387.107 201.714 388.475 202.047 389.612 202.713C390.749 203.378 391.618 204.331 392.228 205.579C392.839 206.818 393.144 208.297 393.144 210.007C393.144 210.174 393.134 210.34 393.125 210.516C393.116 210.691 393.107 210.802 393.107 210.848H379.304V208.463H390.897L389.769 210.081C389.843 209.961 389.908 209.785 389.982 209.536C390.056 209.286 390.084 209.083 390.084 208.916C390.084 207.955 389.889 207.123 389.501 206.42C389.113 205.717 388.586 205.163 387.902 204.765C387.218 204.368 386.423 204.164 385.517 204.164C384.435 204.164 383.52 204.395 382.762 204.848C382.003 205.301 381.412 205.958 381.005 206.818C380.598 207.668 380.376 208.722 380.358 209.961C380.358 211.227 380.552 212.3 380.959 213.197C381.366 214.093 381.939 214.768 382.715 215.23C383.492 215.702 384.426 215.933 385.526 215.933C386.626 215.933 387.597 215.693 388.438 215.212C389.279 214.731 389.991 214.001 390.583 213.012L392.866 214.454C392.025 215.813 390.962 216.839 389.686 217.533C388.41 218.226 386.903 218.568 385.174 218.568C383.668 218.577 382.336 218.226 381.181 217.505Z" fill="black"/>
<path d="M399.819 218.226H397.008V202.066H399.819V218.226ZM403.683 204.543C403.378 204.414 402.99 204.349 402.527 204.349C401.825 204.349 401.27 204.525 400.872 204.876C400.475 205.227 400.198 205.708 400.05 206.318C399.892 206.929 399.819 207.622 399.819 208.389H398.552C398.552 207.104 398.783 205.958 399.236 204.959C399.689 203.961 400.281 203.175 401.011 202.583C401.741 202.001 402.472 201.705 403.221 201.705C403.803 201.705 404.349 201.779 404.857 201.936C405.356 202.093 405.818 202.389 406.244 202.833L404.7 205.153C404.33 204.876 403.988 204.673 403.683 204.543Z" fill="black"/>
<path d="M411.319 217.505C410.164 216.793 409.258 215.804 408.61 214.537C407.963 213.271 407.649 211.81 407.649 210.146C407.649 208.463 407.982 206.984 408.647 205.717C409.313 204.451 410.247 203.471 411.458 202.768C412.66 202.066 414.065 201.714 415.655 201.714C417.245 201.714 418.613 202.047 419.751 202.713C420.888 203.378 421.757 204.331 422.367 205.579C422.977 206.818 423.282 208.297 423.282 210.007C423.282 210.174 423.273 210.34 423.264 210.516C423.254 210.691 423.245 210.802 423.245 210.848H409.442V208.463H421.036L419.908 210.081C419.982 209.961 420.046 209.785 420.12 209.536C420.194 209.286 420.222 209.083 420.222 208.916C420.222 207.955 420.028 207.123 419.64 206.42C419.251 205.717 418.724 205.163 418.04 204.765C417.356 204.368 416.561 204.164 415.655 204.164C414.573 204.164 413.658 204.395 412.9 204.848C412.142 205.301 411.55 205.958 411.144 206.818C410.737 207.668 410.515 208.722 410.496 209.961C410.496 211.227 410.691 212.3 411.097 213.197C411.504 214.093 412.077 214.768 412.854 215.23C413.63 215.702 414.564 215.933 415.664 215.933C416.765 215.933 417.735 215.693 418.576 215.212C419.418 214.731 420.13 214.001 420.721 213.012L423.005 214.454C422.164 215.813 421.1 216.839 419.825 217.533C418.549 218.226 417.042 218.568 415.313 218.568C413.806 218.577 412.484 218.226 411.319 217.505Z" fill="black"/>
<path d="M436.632 205.376C436.049 204.701 435.19 204.359 434.071 204.359C433.248 204.359 432.527 204.525 431.908 204.867C431.288 205.209 430.808 205.681 430.466 206.291C430.123 206.901 429.957 207.604 429.957 208.399V218.235H427.147V202.075H429.957V204.608C430.493 203.628 431.168 202.898 431.982 202.427C432.795 201.955 433.72 201.724 434.774 201.724C436.484 201.724 437.834 202.297 438.832 203.425C439.831 204.562 440.321 206.097 440.321 208.047V218.235H437.51V208.39C437.51 207.058 437.224 206.051 436.632 205.376Z" fill="black"/>
<path d="M445.276 205.634C446.006 204.386 446.977 203.416 448.188 202.741C449.408 202.066 450.74 201.724 452.191 201.724C453.55 201.724 454.733 202.066 455.741 202.741C456.749 203.425 457.535 204.386 458.117 205.634C458.69 206.892 458.977 208.389 458.977 210.146C458.977 211.884 458.69 213.382 458.117 214.639C457.544 215.906 456.749 216.876 455.741 217.551C454.733 218.226 453.55 218.568 452.191 218.568C450.74 218.568 449.399 218.226 448.188 217.551C446.968 216.876 445.997 215.896 445.276 214.639C444.555 213.382 444.185 211.875 444.185 210.146C444.185 208.389 444.546 206.892 445.276 205.634ZM447.791 213.308C448.29 214.177 448.965 214.833 449.815 215.277C450.656 215.721 451.572 215.942 452.552 215.942C453.374 215.942 454.179 215.721 454.974 215.277C455.769 214.833 456.425 214.177 456.943 213.308C457.461 212.439 457.72 211.385 457.72 210.146C457.72 208.907 457.461 207.853 456.943 206.984C456.425 206.115 455.769 205.459 454.974 205.015C454.179 204.571 453.365 204.349 452.552 204.349C451.572 204.349 450.656 204.571 449.815 205.015C448.974 205.459 448.299 206.115 447.791 206.984C447.291 207.853 447.032 208.907 447.032 210.146C447.032 211.394 447.282 212.448 447.791 213.308ZM460.521 190.824V218.226H457.71V190.824H460.521Z" fill="black"/>
<path d="M466.197 194.022C466.586 193.643 467.039 193.458 467.547 193.458C468.083 193.458 468.545 193.643 468.915 194.022C469.285 194.401 469.479 194.855 469.479 195.391C469.479 195.908 469.294 196.352 468.915 196.74C468.536 197.129 468.083 197.323 467.547 197.323C467.029 197.323 466.576 197.129 466.197 196.74C465.818 196.352 465.615 195.899 465.615 195.391C465.615 194.855 465.809 194.401 466.197 194.022ZM468.952 202.066V218.226H466.142V202.066H468.952Z" fill="black"/>
<path d="M477.384 218.226H474.573V190.824H477.384V218.226ZM489.818 214.648C489.088 215.915 488.126 216.885 486.915 217.56C485.704 218.235 484.373 218.577 482.894 218.577C481.562 218.577 480.379 218.235 479.362 217.56C478.345 216.885 477.55 215.905 476.977 214.648C476.404 213.391 476.117 211.884 476.117 210.155C476.117 208.399 476.404 206.892 476.977 205.644C477.55 204.396 478.345 203.425 479.362 202.75C480.379 202.075 481.562 201.733 482.894 201.733C484.373 201.733 485.713 202.075 486.915 202.75C488.117 203.434 489.088 204.396 489.818 205.644C490.539 206.901 490.909 208.399 490.909 210.155C490.909 211.884 490.548 213.382 489.818 214.648ZM487.313 206.984C486.813 206.115 486.139 205.459 485.307 205.015C484.475 204.571 483.559 204.349 482.552 204.349C481.729 204.349 480.924 204.571 480.129 205.015C479.334 205.459 478.678 206.115 478.16 206.984C477.642 207.853 477.384 208.907 477.384 210.146C477.384 211.385 477.642 212.439 478.16 213.308C478.678 214.177 479.334 214.833 480.129 215.277C480.924 215.721 481.738 215.942 482.552 215.942C483.559 215.942 484.475 215.721 485.307 215.277C486.139 214.833 486.804 214.177 487.313 213.308C487.812 212.439 488.071 211.385 488.071 210.146C488.062 208.907 487.812 207.853 487.313 206.984Z" fill="black"/>
<path d="M508.474 193.635V218.226H505.488V193.635H508.474ZM507.143 203.471H524.006V206.282H507.143V203.471ZM524.986 193.635V218.226H522V193.635H524.986Z" fill="black"/>
<path d="M530.135 205.791C530.875 204.525 531.873 203.536 533.14 202.805C534.406 202.075 535.821 201.714 537.393 201.714C538.983 201.714 540.406 202.075 541.664 202.805C542.912 203.536 543.91 204.525 544.65 205.791C545.389 207.058 545.759 208.509 545.759 210.146C545.759 211.764 545.389 213.206 544.65 214.482C543.91 215.757 542.912 216.756 541.664 217.486C540.406 218.217 538.992 218.577 537.393 218.577C535.821 218.577 534.406 218.217 533.14 217.486C531.873 216.756 530.875 215.757 530.135 214.482C529.396 213.206 529.026 211.754 529.026 210.146C529.026 208.509 529.396 207.058 530.135 205.791ZM532.594 213.132C533.075 214.001 533.732 214.685 534.564 215.184C535.396 215.683 536.339 215.942 537.393 215.942C538.446 215.942 539.389 215.693 540.221 215.184C541.054 214.685 541.71 213.992 542.191 213.132C542.671 212.272 542.912 211.274 542.912 210.146C542.912 209.018 542.671 208.019 542.191 207.141C541.71 206.263 541.054 205.579 540.221 205.089C539.389 204.599 538.446 204.349 537.393 204.349C536.339 204.349 535.396 204.599 534.564 205.089C533.732 205.579 533.075 206.263 532.594 207.141C532.114 208.019 531.873 209.018 531.873 210.146C531.873 211.274 532.114 212.272 532.594 213.132Z" fill="black"/>
<path d="M555.235 202.066V204.701H547.155V202.066H555.235ZM552.6 196.445V218.226H549.79V196.445H552.6Z" fill="black"/>
<path d="M560.311 217.505C559.155 216.793 558.249 215.804 557.602 214.537C556.955 213.271 556.641 211.81 556.641 210.146C556.641 208.463 556.973 206.984 557.639 205.717C558.305 204.451 559.238 203.471 560.449 202.768C561.651 202.066 563.056 201.714 564.647 201.714C566.237 201.714 567.605 202.047 568.742 202.713C569.879 203.378 570.748 204.331 571.358 205.579C571.969 206.818 572.274 208.297 572.274 210.007C572.274 210.174 572.264 210.34 572.255 210.516C572.246 210.691 572.237 210.802 572.237 210.848H558.434V208.463H570.027L568.899 210.081C568.973 209.961 569.038 209.785 569.112 209.536C569.186 209.286 569.214 209.083 569.214 208.916C569.214 207.955 569.019 207.123 568.631 206.42C568.243 205.717 567.716 205.163 567.032 204.765C566.348 204.368 565.553 204.164 564.647 204.164C563.565 204.164 562.65 204.395 561.892 204.848C561.134 205.301 560.542 205.958 560.135 206.818C559.728 207.668 559.506 208.722 559.488 209.961C559.488 211.227 559.682 212.3 560.089 213.197C560.496 214.093 561.069 214.768 561.845 215.23C562.622 215.702 563.556 215.933 564.656 215.933C565.756 215.933 566.727 215.693 567.568 215.212C568.409 214.731 569.121 214.001 569.713 213.012L571.996 214.454C571.155 215.813 570.092 216.839 568.816 217.533C567.54 218.226 566.033 218.568 564.305 218.568C562.798 218.577 561.466 218.226 560.311 217.505Z" fill="black"/>
<path d="M578.949 190.824V218.226H576.138V190.824H578.949Z" fill="black"/>
<path d="M586.012 214.648C586.437 215.073 586.918 215.406 587.472 215.646C588.018 215.896 588.628 216.016 589.284 216.016C590.079 216.016 590.708 215.831 591.161 215.471C591.614 215.11 591.845 214.611 591.845 213.982C591.845 213.418 591.66 212.947 591.3 212.559C590.939 212.17 590.477 211.847 589.913 211.579C589.349 211.31 588.757 211.061 588.12 210.82C587.417 210.543 586.705 210.201 585.993 209.822C585.281 209.443 584.68 208.934 584.2 208.315C583.719 207.696 583.479 206.919 583.479 205.976C583.479 205.015 583.728 204.22 584.237 203.591C584.736 202.962 585.392 202.491 586.206 202.186C587.01 201.881 587.851 201.733 588.72 201.733C589.59 201.733 590.403 201.871 591.161 202.158C591.919 202.435 592.594 202.814 593.177 203.286C593.759 203.757 594.221 204.294 594.545 204.904L592.298 206.346C591.855 205.736 591.3 205.236 590.634 204.839C589.969 204.441 589.21 204.238 588.369 204.238C587.787 204.238 587.278 204.367 586.862 204.626C586.437 204.885 586.234 205.283 586.234 205.819C586.234 206.244 586.4 206.614 586.724 206.947C587.047 207.28 587.472 207.566 587.99 207.825C588.508 208.084 589.044 208.324 589.608 208.565C590.542 208.944 591.401 209.341 592.169 209.776C592.945 210.21 593.556 210.728 594.009 211.338C594.462 211.948 594.693 212.734 594.693 213.696C594.693 215.101 594.184 216.275 593.167 217.209C592.15 218.142 590.81 218.614 589.146 218.614C588.064 218.614 587.093 218.42 586.234 218.032C585.374 217.643 584.634 217.144 584.033 216.534C583.432 215.924 582.989 215.304 582.684 214.676L584.893 213.307C585.207 213.77 585.586 214.223 586.012 214.648Z" fill="black"/>
<path d="M612.656 203.175C612.055 202.574 611.528 201.909 611.075 201.16C610.622 200.411 610.391 199.588 610.391 198.701C610.391 197.6 610.649 196.639 611.167 195.816C611.685 194.993 612.388 194.365 613.294 193.921C614.19 193.477 615.235 193.255 616.4 193.255C617.639 193.255 618.702 193.514 619.58 194.032C620.458 194.55 621.133 195.225 621.605 196.047C622.076 196.879 622.307 197.785 622.307 198.775C622.307 199.357 622.187 199.93 621.956 200.494C621.725 201.058 621.383 201.613 620.939 202.167C620.495 202.722 619.959 203.249 619.321 203.748C618.693 204.248 617.962 204.747 617.139 205.246C616.511 205.625 615.817 206.004 615.069 206.383C614.32 206.771 613.608 207.206 612.942 207.687C612.277 208.167 611.731 208.722 611.306 209.351C610.881 209.979 610.677 210.747 610.677 211.634C610.677 212.522 610.908 213.298 611.361 213.955C611.814 214.611 612.434 215.11 613.21 215.462C613.987 215.813 614.837 215.989 615.771 215.989C616.899 215.989 617.981 215.739 619.025 215.249C620.07 214.759 621.069 214.093 622.03 213.261C622.991 212.429 623.916 211.486 624.822 210.432C625.719 209.379 626.597 208.278 627.438 207.132L629.62 208.5C628.686 209.721 627.725 210.932 626.736 212.134C625.756 213.335 624.702 214.426 623.574 215.379C622.446 216.34 621.235 217.117 619.922 217.699C618.609 218.281 617.167 218.577 615.605 218.577C614.273 218.577 612.998 218.3 611.796 217.754C610.585 217.2 609.605 216.423 608.847 215.397C608.089 214.38 607.7 213.178 607.7 211.791C607.7 210.765 607.885 209.859 608.246 209.083C608.606 208.306 609.078 207.631 609.651 207.049C610.224 206.466 610.853 205.958 611.528 205.542C612.203 205.117 612.878 204.747 613.534 204.432C614.19 204.118 614.754 203.832 615.216 203.573C616.529 202.824 617.565 202.029 618.323 201.197C619.081 200.365 619.469 199.551 619.469 198.756C619.469 198.146 619.349 197.619 619.099 197.175C618.85 196.731 618.508 196.38 618.064 196.121C617.62 195.862 617.066 195.733 616.409 195.733C615.448 195.733 614.699 196.001 614.163 196.537C613.626 197.074 613.358 197.795 613.358 198.682C613.358 199.477 613.673 200.235 614.311 200.966C614.939 201.696 615.614 202.463 616.317 203.286L629.315 218.217H625.941L614.135 204.728C613.737 204.294 613.247 203.776 612.656 203.175Z" fill="black"/>
<path d="M646.326 193.635V218.226H643.34V193.635H646.326ZM644.994 193.635H650.014C651.605 193.635 653.028 193.93 654.286 194.531C655.543 195.132 656.532 195.974 657.272 197.074C658.011 198.174 658.381 199.487 658.381 201.012C658.381 202.51 658.011 203.813 657.272 204.932C656.532 206.041 655.534 206.901 654.286 207.493C653.028 208.094 651.614 208.389 650.014 208.389H644.994V205.755H650.014C651.068 205.755 652.002 205.57 652.806 205.191C653.611 204.812 654.249 204.275 654.702 203.573C655.155 202.87 655.386 202.02 655.386 201.012C655.386 200.004 655.155 199.154 654.702 198.451C654.249 197.749 653.611 197.212 652.806 196.833C652.002 196.454 651.068 196.269 650.014 196.269H644.994V193.635ZM651.068 206.106L659.851 218.226H656.162L647.731 206.106H651.068Z" fill="black"/>
<path d="M665.102 217.505C663.947 216.793 663.041 215.804 662.393 214.537C661.746 213.271 661.432 211.81 661.432 210.146C661.432 208.463 661.765 206.984 662.43 205.717C663.096 204.451 664.03 203.471 665.241 202.768C666.443 202.066 667.848 201.714 669.438 201.714C671.028 201.714 672.396 202.047 673.534 202.713C674.671 203.378 675.54 204.331 676.15 205.579C676.76 206.818 677.065 208.297 677.065 210.007C677.065 210.174 677.056 210.34 677.047 210.516C677.037 210.691 677.028 210.802 677.028 210.848H663.225V208.463H674.819L673.691 210.081C673.765 209.961 673.829 209.785 673.903 209.536C673.977 209.286 674.005 209.083 674.005 208.916C674.005 207.955 673.811 207.123 673.423 206.42C673.034 205.717 672.507 205.163 671.823 204.765C671.139 204.368 670.344 204.164 669.438 204.164C668.356 204.164 667.441 204.395 666.683 204.848C665.925 205.301 665.333 205.958 664.927 206.818C664.52 207.668 664.298 208.722 664.279 209.961C664.279 211.227 664.474 212.3 664.88 213.197C665.287 214.093 665.86 214.768 666.637 215.23C667.413 215.702 668.347 215.933 669.447 215.933C670.548 215.933 671.518 215.693 672.359 215.212C673.201 214.731 673.913 214.001 674.504 213.012L676.788 214.454C675.947 215.813 674.883 216.839 673.608 217.533C672.332 218.226 670.825 218.568 669.096 218.568C667.589 218.577 666.258 218.226 665.102 217.505Z" fill="black"/>
<path d="M682.723 214.648C683.148 215.073 683.629 215.406 684.184 215.646C684.729 215.896 685.339 216.016 685.996 216.016C686.791 216.016 687.42 215.831 687.873 215.471C688.326 215.11 688.557 214.611 688.557 213.982C688.557 213.418 688.372 212.947 688.011 212.559C687.651 212.17 687.188 211.847 686.624 211.579C686.061 211.31 685.469 211.061 684.831 210.82C684.128 210.543 683.416 210.201 682.705 209.822C681.993 209.443 681.392 208.934 680.911 208.315C680.43 207.696 680.19 206.919 680.19 205.976C680.19 205.015 680.44 204.22 680.948 203.591C681.447 202.962 682.104 202.491 682.917 202.186C683.722 201.881 684.563 201.733 685.432 201.733C686.301 201.733 687.114 201.871 687.873 202.158C688.631 202.435 689.306 202.814 689.888 203.286C690.47 203.757 690.933 204.294 691.256 204.904L689.01 206.346C688.566 205.736 688.011 205.236 687.346 204.839C686.68 204.441 685.922 204.238 685.081 204.238C684.498 204.238 683.99 204.367 683.574 204.626C683.148 204.885 682.945 205.283 682.945 205.819C682.945 206.244 683.111 206.614 683.435 206.947C683.759 207.28 684.184 207.566 684.702 207.825C685.219 208.084 685.755 208.324 686.319 208.565C687.253 208.944 688.113 209.341 688.88 209.776C689.657 210.21 690.267 210.728 690.72 211.338C691.173 211.948 691.404 212.734 691.404 213.696C691.404 215.101 690.896 216.275 689.879 217.209C688.862 218.142 687.521 218.614 685.857 218.614C684.776 218.614 683.805 218.42 682.945 218.032C682.085 217.643 681.346 217.144 680.745 216.534C680.144 215.924 679.7 215.304 679.395 214.676L681.604 213.307C681.928 213.77 682.298 214.223 682.723 214.648Z" fill="black"/>
<path d="M694.788 205.791C695.527 204.525 696.526 203.536 697.792 202.805C699.059 202.075 700.473 201.714 702.045 201.714C703.635 201.714 705.059 202.075 706.316 202.805C707.564 203.536 708.563 204.525 709.302 205.791C710.042 207.058 710.412 208.509 710.412 210.146C710.412 211.764 710.042 213.206 709.302 214.482C708.563 215.757 707.564 216.756 706.316 217.486C705.059 218.217 703.644 218.577 702.045 218.577C700.473 218.577 699.059 218.217 697.792 217.486C696.526 216.756 695.527 215.757 694.788 214.482C694.048 213.206 693.678 211.754 693.678 210.146C693.678 208.509 694.048 207.058 694.788 205.791ZM697.247 213.132C697.728 214.001 698.384 214.685 699.216 215.184C700.048 215.683 700.991 215.942 702.045 215.942C703.099 215.942 704.042 215.693 704.874 215.184C705.706 214.685 706.362 213.992 706.843 213.132C707.324 212.272 707.564 211.274 707.564 210.146C707.564 209.018 707.324 208.019 706.843 207.141C706.362 206.263 705.706 205.579 704.874 205.089C704.042 204.599 703.099 204.349 702.045 204.349C700.991 204.349 700.048 204.599 699.216 205.089C698.384 205.579 697.728 206.263 697.247 207.141C696.766 208.019 696.526 209.018 696.526 210.146C696.526 211.274 696.766 212.272 697.247 213.132Z" fill="black"/>
<path d="M717.077 218.226H714.267V202.066H717.077V218.226ZM720.942 204.543C720.637 204.414 720.248 204.349 719.786 204.349C719.083 204.349 718.529 204.525 718.131 204.876C717.734 205.227 717.456 205.708 717.308 206.318C717.151 206.929 717.077 207.622 717.077 208.389H715.811C715.811 207.104 716.042 205.958 716.495 204.959C716.948 203.961 717.54 203.175 718.27 202.583C719 202.001 719.731 201.705 720.479 201.705C721.062 201.705 721.607 201.779 722.116 201.936C722.615 202.093 723.077 202.389 723.503 202.833L721.959 205.153C721.589 204.876 721.247 204.673 720.942 204.543Z" fill="black"/>
<path d="M731.934 202.066V204.701H723.854V202.066H731.934ZM729.308 196.445V218.226H726.498V196.445H729.308Z" fill="black"/>
<path d="M736.538 214.648C736.963 215.073 737.444 215.406 737.999 215.646C738.544 215.896 739.154 216.016 739.811 216.016C740.606 216.016 741.234 215.831 741.687 215.471C742.14 215.11 742.371 214.611 742.371 213.982C742.371 213.418 742.187 212.947 741.826 212.559C741.465 212.17 741.003 211.847 740.439 211.579C739.875 211.31 739.284 211.061 738.646 210.82C737.943 210.543 737.231 210.201 736.519 209.822C735.808 209.443 735.207 208.934 734.726 208.315C734.245 207.696 734.005 206.919 734.005 205.976C734.005 205.015 734.254 204.22 734.763 203.591C735.262 202.962 735.918 202.491 736.732 202.186C737.536 201.881 738.378 201.733 739.247 201.733C740.116 201.733 740.929 201.871 741.687 202.158C742.445 202.435 743.12 202.814 743.703 203.286C744.285 203.757 744.747 204.294 745.071 204.904L742.824 206.346C742.381 205.736 741.826 205.236 741.16 204.839C740.495 204.441 739.737 204.238 738.895 204.238C738.313 204.238 737.804 204.367 737.388 204.626C736.963 204.885 736.76 205.283 736.76 205.819C736.76 206.244 736.926 206.614 737.25 206.947C737.573 207.28 737.999 207.566 738.516 207.825C739.034 208.084 739.57 208.324 740.134 208.565C741.068 208.944 741.928 209.341 742.695 209.776C743.472 210.21 744.082 210.728 744.535 211.338C744.988 211.948 745.219 212.734 745.219 213.696C745.219 215.101 744.71 216.275 743.694 217.209C742.677 218.142 741.336 218.614 739.672 218.614C738.59 218.614 737.62 218.42 736.76 218.032C735.9 217.643 735.16 217.144 734.559 216.534C733.959 215.924 733.515 215.304 733.21 214.676L735.419 213.307C735.743 213.77 736.122 214.223 736.538 214.648Z" fill="black"/>
</svg>
